<svg version="1.1" xmlns="http://www.w3.org/2000/svg" viewBox="0 0 852.5252801839455 806.3065711378466" width="852.5252801839455" height="806.3065711378466" class="excalidraw-svg">
  <!-- svg-source:excalidraw -->
  
  <defs>
    <style class="style-fonts">
      @font-face {
        font-family: "Virgil";
        src: url("https://excalidraw.com/Virgil.woff2");
      }
      @font-face {
        font-family: "Cascadia";
        src: url("https://excalidraw.com/Cascadia.woff2");
      }
      @font-face {
        font-family: "Assistant";
        src: url("https://excalidraw.com/Assistant-Regular.woff2");
      }
    </style>
    
  </defs>
  <rect x="0" y="0" width="852.5252801839455" height="806.3065711378466" fill="#ffffff"/><g stroke-linecap="round" transform="translate(190.38500796898086 51.23851693862787) rotate(0 250.76278686523438 93.62205505371094)"><path d="M173.91 5.5 C193.81 1.35, 219.58 0.37, 242.82 0.11 C266.07 -0.15, 290.52 1.91, 313.38 3.97 C336.24 6.02, 359.69 7.96, 379.96 12.44 C400.24 16.92, 419 24.28, 435.04 30.84 C451.08 37.4, 465.85 44.14, 476.21 51.82 C486.57 59.5, 493.12 68.22, 497.22 76.91 C501.32 85.61, 503.43 95, 500.81 104 C498.2 113, 490.95 122.75, 481.54 130.9 C472.13 139.04, 459.09 146.32, 444.37 152.87 C429.65 159.41, 412.4 165.39, 393.22 170.19 C374.04 174.99, 351.92 178.68, 329.29 181.67 C306.66 184.67, 280.94 187.78, 257.43 188.16 C233.93 188.54, 210.77 186.28, 188.26 183.96 C165.75 181.65, 142.67 178.85, 122.37 174.28 C102.08 169.72, 82.61 162.98, 66.49 156.56 C50.38 150.14, 36.16 143.58, 25.67 135.77 C15.17 127.96, 7.69 118.64, 3.51 109.71 C-0.66 100.79, -1.97 91.11, 0.6 82.23 C3.17 73.34, 9.61 64.48, 18.93 56.4 C28.24 48.32, 41.63 40.58, 56.5 33.77 C71.37 26.96, 84.78 20.94, 108.13 15.52 C131.48 10.11, 177.4 3.35, 196.61 1.27 C215.83 -0.81, 222.5 1.26, 223.45 3.06 M190.55 3.14 C211.11 -0.8, 236.54 -1.67, 259.92 -1.41 C283.31 -1.15, 308.4 1.82, 330.85 4.71 C353.31 7.6, 375.37 10.73, 394.65 15.92 C413.93 21.11, 431.96 28.94, 446.55 35.86 C461.15 42.79, 473.29 49.28, 482.21 57.45 C491.13 65.62, 497.49 76, 500.07 84.88 C502.65 93.76, 502.06 102.37, 497.71 110.75 C493.36 119.13, 484.59 127.31, 473.99 135.16 C463.39 143, 449.85 151.48, 434.11 157.81 C418.36 164.14, 399.74 168.88, 379.51 173.13 C359.27 177.39, 335.62 180.95, 312.68 183.34 C289.74 185.74, 265.54 187.64, 241.87 187.51 C218.2 187.37, 192.87 185.43, 170.67 182.54 C148.47 179.64, 127.94 175.27, 108.65 170.14 C89.37 165.01, 70.08 158.55, 54.97 151.76 C39.86 144.96, 26.81 137.43, 17.97 129.37 C9.13 121.3, 4.45 112.2, 1.94 103.36 C-0.56 94.51, -1.02 85.06, 2.94 76.27 C6.9 67.48, 14.9 58.4, 25.7 50.62 C36.51 42.84, 51.78 36.05, 67.78 29.59 C83.78 23.13, 101.44 16.56, 121.7 11.86 C141.96 7.15, 177.85 2.72, 189.32 1.37 C200.79 0.03, 189.68 2.13, 190.51 3.8" stroke="none" stroke-width="0" fill="#ffd8a8"/><path d="M148.6 7.81 C167.28 3.03, 193.44 2.63, 216.57 1.63 C239.71 0.63, 264.26 0.79, 287.41 1.83 C310.57 2.86, 334.18 4.35, 355.52 7.84 C376.86 11.33, 397.54 16.94, 415.45 22.76 C433.37 28.57, 450.21 35.11, 463.01 42.75 C475.8 50.38, 485.67 59.84, 492.23 68.54 C498.78 77.24, 502.62 86.31, 502.35 94.94 C502.08 103.58, 497.5 112.12, 490.59 120.34 C483.68 128.57, 473.59 136.84, 460.88 144.29 C448.18 151.73, 432.21 159.23, 414.38 165.02 C396.55 170.8, 375.59 175.43, 353.92 179 C332.24 182.57, 307.54 185.14, 284.32 186.43 C261.11 187.72, 237.64 188.15, 214.64 186.74 C191.63 185.32, 167.85 181.72, 146.3 177.94 C124.74 174.17, 103.28 169.66, 85.29 164.1 C67.3 158.53, 51.03 152.03, 38.33 144.56 C25.63 137.1, 15.4 128.05, 9.1 119.32 C2.8 110.58, 0.16 101.06, 0.53 92.18 C0.9 83.3, 4.67 74.39, 11.3 66.04 C17.94 57.68, 27.64 49.25, 40.34 42.05 C53.05 34.84, 68.3 28.75, 87.56 22.83 C106.82 16.91, 143.21 8.87, 155.93 6.52 C168.64 4.17, 162.38 7.07, 163.84 8.74 M350.05 7.07 C372.11 8.88, 392.47 15.62, 410.74 21.48 C429.01 27.34, 446.64 34.68, 459.67 42.21 C472.71 49.75, 482.05 58.19, 488.95 66.68 C495.85 75.16, 500.37 84.45, 501.08 93.13 C501.8 101.81, 499.19 110.31, 493.24 118.77 C487.29 127.22, 477.71 136.34, 465.39 143.85 C453.07 151.35, 436.8 157.88, 419.31 163.78 C401.82 169.68, 381.88 175.67, 360.45 179.25 C339.02 182.83, 314.27 183.94, 290.71 185.26 C267.15 186.59, 242.32 187.94, 219.1 187.2 C195.88 186.45, 172.62 184.48, 151.37 180.8 C130.12 177.12, 109.52 170.84, 91.59 165.1 C73.66 159.35, 57.28 153.72, 43.77 146.33 C30.25 138.94, 17.67 129.06, 10.51 120.75 C3.34 112.45, 1.23 104.9, 0.77 96.48 C0.31 88.06, 1.56 79.13, 7.72 70.24 C13.88 61.35, 25.27 50.78, 37.73 43.16 C50.18 35.53, 65.05 30.28, 82.46 24.5 C99.87 18.72, 120.91 12.22, 142.17 8.47 C163.43 4.72, 186.96 3.15, 210.03 2.01 C233.1 0.87, 257.38 0.92, 280.59 1.63 C303.81 2.34, 337.86 5.05, 349.3 6.29 C360.75 7.53, 350.8 7.41, 349.26 9.08" stroke="#1e1e1e" stroke-width="2" fill="none"/></g><g transform="translate(406.33368089757107 123.9597819952395) rotate(0 34.998046875 20.700000000000003)"><text x="34.998046875" y="0" font-family="Helvetica, Segoe UI Emoji" font-size="36px" fill="#1e1e1e" text-anchor="middle" style="white-space: pre;" direction="ltr" dominant-baseline="text-before-edge">Disk</text></g><g stroke-linecap="round" transform="translate(134.61060179502886 167.10750497573724) rotate(0 128.31256103515625 74.41966247558594)"><path d="M32 0 C74.31 1.95, 117.5 5.31, 224.63 0 C248.15 0.66, 256.14 9.68, 256.63 32 C259.44 64.62, 257.57 87.53, 256.63 116.84 C259.08 140.53, 248.74 149, 224.63 148.84 C150.27 148.31, 72.16 150.87, 32 148.84 C13.91 151.77, -1.54 141.23, 0 116.84 C-0.41 96.16, 1.7 82.93, 0 32 C-1.12 12.53, 11.09 -2.83, 32 0" stroke="none" stroke-width="0" fill="#ffec99"/><path d="M32 0 C91.81 -1.77, 146.09 1.2, 224.63 0 M32 0 C89.43 1.47, 147.56 1.18, 224.63 0 M224.63 0 C243.99 1.43, 257.48 10.15, 256.63 32 M224.63 0 C247.57 1.52, 257.33 11.8, 256.63 32 M256.63 32 C257.58 51.68, 257.42 65.69, 256.63 116.84 M256.63 32 C256.75 56.56, 255.06 80.94, 256.63 116.84 M256.63 116.84 C257.03 137.55, 247 147.56, 224.63 148.84 M256.63 116.84 C257.51 136.23, 244.18 148.98, 224.63 148.84 M224.63 148.84 C146.18 147.79, 69.68 147.89, 32 148.84 M224.63 148.84 C170.66 146.51, 117.77 148.04, 32 148.84 M32 148.84 C9.2 149.87, 1.34 138.59, 0 116.84 M32 148.84 C12.49 149.01, 0.92 139.77, 0 116.84 M0 116.84 C2.14 93.67, 0.5 66.54, 0 32 M0 116.84 C0.97 89.07, -0.11 59.6, 0 32 M0 32 C1.84 12.17, 9.84 -1.45, 32 0 M0 32 C1.74 10.03, 12.75 -0.22, 32 0" stroke="#1e1e1e" stroke-width="2" fill="none"/></g><g transform="translate(161.0130065801851 225.42716745132319) rotate(0 101.91015625 16.099999999999998)"><text x="101.91015625" y="0" font-family="Helvetica, Segoe UI Emoji" font-size="28px" fill="#1e1e1e" text-anchor="middle" style="white-space: pre;" direction="ltr" dominant-baseline="text-before-edge">Flash/SSD/SCM</text></g><g stroke-linecap="round" transform="translate(133.94173516507453 285.9707909771722) rotate(0 297.87548828125 52.05503845214844)"><path d="M26.03 0 C211.97 -4.07, 396.34 -1.98, 569.72 0 C589.6 -2.45, 592.82 7.03, 595.75 26.03 C597.98 41, 596.02 51.02, 595.75 78.08 C594.38 98.3, 586.47 103.2, 569.72 104.11 C423.35 99.49, 275.75 100.08, 26.03 104.11 C8.58 103.5, -3.06 99.01, 0 78.08 C-1.97 60.61, 1.73 42.6, 0 26.03 C2.92 7.09, 10.82 1.97, 26.03 0" stroke="none" stroke-width="0" fill="#ffc9c9"/><path d="M26.03 0 C192.12 -1.8, 358.5 -1.69, 569.72 0 M26.03 0 C152.34 -2.16, 278.93 -1.76, 569.72 0 M569.72 0 C588.88 1.95, 595.3 9.58, 595.75 26.03 M569.72 0 C585.44 -1.87, 596.77 6.48, 595.75 26.03 M595.75 26.03 C593.85 45.11, 596.26 67.37, 595.75 78.08 M595.75 26.03 C594.88 41.27, 594.51 57.27, 595.75 78.08 M595.75 78.08 C597.65 95.27, 585.78 103.37, 569.72 104.11 M595.75 78.08 C594.81 94.16, 585.62 102.85, 569.72 104.11 M569.72 104.11 C398.43 105.13, 227.47 105.91, 26.03 104.11 M569.72 104.11 C369.11 102.71, 168.59 102.74, 26.03 104.11 M26.03 104.11 C9.53 102.91, 0.76 93.95, 0 78.08 M26.03 104.11 C6.59 105.58, -1.47 94.24, 0 78.08 M0 78.08 C-0.87 56.1, 1.34 37.81, 0 26.03 M0 78.08 C0.27 60.65, 0 44.5, 0 26.03 M0 26.03 C1.98 8.99, 9.18 -0.47, 26.03 0 M0 26.03 C-2.15 10.44, 7.96 1.3, 26.03 0" stroke="#1e1e1e" stroke-width="2" fill="none"/></g><g transform="translate(347.02425469632453 321.92582942932063) rotate(0 84.79296875 16.099999999999994)"><text x="84.79296875" y="0" font-family="Helvetica, Segoe UI Emoji" font-size="28px" fill="#1e1e1e" text-anchor="middle" style="white-space: pre;" direction="ltr" dominant-baseline="text-before-edge">Main Memory</text></g><g stroke-linecap="round" transform="translate(195.1020286662805 427.58703243225045) rotate(0 236.85366821289062 36.459930419921875)"><path d="M18.23 0 C122.6 -1.4, 225.86 -3.27, 455.48 0 C470.51 0.52, 476.12 7.59, 473.71 18.23 C474.17 31.84, 470.68 40.53, 473.71 54.69 C473.65 65.88, 467.48 71.22, 455.48 72.92 C349.1 71.83, 241.04 71.4, 18.23 72.92 C7.32 74.84, 1.73 69.77, 0 54.69 C1.44 43.64, 0.42 26.86, 0 18.23 C2.85 4.4, 6.16 1.75, 18.23 0" stroke="none" stroke-width="0" fill="#ff8787"/><path d="M18.23 0 C136.88 1.23, 255.19 2.35, 455.48 0 M18.23 0 C109.15 -0.42, 200.9 0.19, 455.48 0 M455.48 0 C466.43 1.76, 472.59 7.42, 473.71 18.23 M455.48 0 C469.26 0.48, 474.06 5.01, 473.71 18.23 M473.71 18.23 C473.93 29.67, 473.89 41.21, 473.71 54.69 M473.71 18.23 C473.93 30.03, 474.27 40.79, 473.71 54.69 M473.71 54.69 C472.01 68.24, 468.05 72.51, 455.48 72.92 M473.71 54.69 C474.55 66.85, 467.19 73.41, 455.48 72.92 M455.48 72.92 C291.87 73.08, 127.82 73.66, 18.23 72.92 M455.48 72.92 C301.38 70.89, 147.42 70.98, 18.23 72.92 M18.23 72.92 C5.57 73.16, 0.15 65.69, 0 54.69 M18.23 72.92 C8.27 73.68, -1.35 68.99, 0 54.69 M0 54.69 C-1.55 46.04, -1.9 38.85, 0 18.23 M0 54.69 C-1.02 46.21, -0.93 36.08, 0 18.23 M0 18.23 C1.39 6.59, 4.56 -0.9, 18.23 0 M0 18.23 C-1.75 6.48, 6.51 -0.44, 18.23 0" stroke="#1e1e1e" stroke-width="2" fill="none"/></g><g transform="translate(372.0250328166711 447.9469628521723) rotate(0 59.9306640625 16.099999999999994)"><text x="59.9306640625" y="0" font-family="Helvetica, Segoe UI Emoji" font-size="28px" fill="#1e1e1e" text-anchor="middle" style="white-space: pre;" direction="ltr" dominant-baseline="text-before-edge">L3 Cache</text></g><g stroke-linecap="round" transform="translate(267.16172218012116 528.9289491155068) rotate(0 163.9808349609375 27.91888427734375)"><path d="M13.96 0 C79.91 0.6, 143.97 -3.42, 314 0 C326.83 1.11, 330.17 4.75, 327.96 13.96 C330.96 20.34, 325.98 23.2, 327.96 41.88 C325.28 49.45, 326.86 59.32, 314 55.84 C243.07 52.91, 172.62 54.59, 13.96 55.84 C3.44 55.59, 1.22 51.34, 0 41.88 C-2.17 34.62, 2.64 28.65, 0 13.96 C0.22 1.91, 3.21 2.96, 13.96 0" stroke="none" stroke-width="0" fill="#fa5252"/><path d="M13.96 0 C85.45 -0.62, 159.35 -0.26, 314 0 M13.96 0 C123.67 -0.6, 233.79 -0.5, 314 0 M314 0 C321.4 -1.93, 328.25 4.23, 327.96 13.96 M314 0 C325.48 -0.84, 329.24 4.3, 327.96 13.96 M327.96 13.96 C329.11 22.36, 328.04 35.39, 327.96 41.88 M327.96 13.96 C328.36 23.4, 328.41 33.09, 327.96 41.88 M327.96 41.88 C327.54 50.48, 322.5 55.41, 314 55.84 M327.96 41.88 C326.5 49.19, 321.4 55.95, 314 55.84 M314 55.84 C211.99 57.64, 109.56 57.61, 13.96 55.84 M314 55.84 C204.11 56.51, 93.31 56.67, 13.96 55.84 M13.96 55.84 C4.22 57.58, -1.98 49.63, 0 41.88 M13.96 55.84 C3.01 57.58, -1.65 49.59, 0 41.88 M0 41.88 C0.18 35.18, -0.68 27.97, 0 13.96 M0 41.88 C-0.74 34.17, 1.05 28.48, 0 13.96 M0 13.96 C0.72 4.93, 4.99 1.29, 13.96 0 M0 13.96 C1.86 5.35, 2.75 1.8, 13.96 0" stroke="#1e1e1e" stroke-width="2" fill="none"/></g><g transform="translate(371.21189307855866 540.7478333928506) rotate(0 59.9306640625 16.10000000000001)"><text x="59.9306640625" y="0" font-family="Helvetica, Segoe UI Emoji" font-size="28px" fill="#1e1e1e" text-anchor="middle" style="white-space: pre;" direction="ltr" dominant-baseline="text-before-edge">L2 Cache</text></g><g stroke-linecap="round" transform="translate(174.2594418573591 608.5233069776904) rotate(0 258.6748352050781 93.89163208007812)"><path d="M32 0 C184 -0.91, 332.68 0.97, 485.35 0 C506.27 -3.51, 515.95 9.88, 517.35 32 C521.33 79.77, 517.61 124.43, 517.35 155.78 C514.49 177.12, 503.32 187.85, 485.35 187.78 C311.81 191.03, 136.27 191.36, 32 187.78 C7.58 190.59, -2.21 176.11, 0 155.78 C-3.28 114.52, -1.83 76.87, 0 32 C2.15 8.71, 11.61 1.3, 32 0" stroke="none" stroke-width="0" fill="#a5d8ff"/><path d="M32 0 C172.38 2.65, 311.79 2.73, 485.35 0 M32 0 C184.12 1.32, 336.64 1.45, 485.35 0 M485.35 0 C508.33 -1.21, 515.99 11.11, 517.35 32 M485.35 0 C506.38 1.19, 519.22 8.59, 517.35 32 M517.35 32 C517.94 61.58, 516.65 95.09, 517.35 155.78 M517.35 32 C517.88 74.26, 518.35 114.53, 517.35 155.78 M517.35 155.78 C518.58 176.59, 508.55 186.72, 485.35 187.78 M517.35 155.78 C517.59 175.58, 505.14 188.33, 485.35 187.78 M485.35 187.78 C352.76 189.14, 218.76 189.95, 32 187.78 M485.35 187.78 C305.28 187.44, 125.41 187.68, 32 187.78 M32 187.78 C12.19 186.31, -0.76 178.95, 0 155.78 M32 187.78 C8.96 189.08, 0.19 179.04, 0 155.78 M0 155.78 C0.36 119.54, 1.35 88.51, 0 32 M0 155.78 C-0.21 119.52, 0.18 83.8, 0 32 M0 32 C0.64 9.16, 9.29 0.81, 32 0 M0 32 C0.57 11.8, 8.64 -1.18, 32 0" stroke="#1e1e1e" stroke-width="2" fill="none"/></g><g stroke-linecap="round" transform="translate(469.61223949351404 614.1534997174067) rotate(0 109.58488095810958 29.912365138994403)"><path d="M14.96 0 C77.73 -0.35, 136.38 3.07, 204.21 0 C214.78 1.26, 219.78 7.78, 219.17 14.96 C217.48 27.48, 221.13 36.37, 219.17 44.87 C218.92 53.12, 210.84 58.5, 204.21 59.82 C165.57 61.07, 125.57 57.4, 14.96 59.82 C3.9 62.99, -2.97 58.02, 0 44.87 C-2.75 39.1, 1.66 30.39, 0 14.96 C3.58 1.95, 2.9 -1.44, 14.96 0" stroke="none" stroke-width="0" fill="#e03131"/><path d="M14.96 0 C71.42 2.14, 128.72 -0.99, 204.21 0 M14.96 0 C64.84 -2.06, 114.55 -1.15, 204.21 0 M204.21 0 C213.72 -0.5, 217.58 4.99, 219.17 14.96 M204.21 0 C212.04 0.04, 221.1 5.09, 219.17 14.96 M219.17 14.96 C217.88 26.72, 217.53 39.78, 219.17 44.87 M219.17 14.96 C219.45 22.6, 218.4 28.55, 219.17 44.87 M219.17 44.87 C218.6 54.08, 215.38 58.74, 204.21 59.82 M219.17 44.87 C219.77 55.67, 213.38 59.94, 204.21 59.82 M204.21 59.82 C151.03 61.78, 102.15 63.29, 14.96 59.82 M204.21 59.82 C149.93 61.15, 93.61 61.79, 14.96 59.82 M14.96 59.82 C4.88 60.69, 0.7 54, 0 44.87 M14.96 59.82 C4.7 58.5, -1.6 56.65, 0 44.87 M0 44.87 C0.51 34.78, 1.71 24.93, 0 14.96 M0 44.87 C-0.57 37.66, -0.44 32.78, 0 14.96 M0 14.96 C0.94 3.35, 6.91 0.63, 14.96 0 M0 14.96 C-2.24 4.94, 4.22 -0.67, 14.96 0" stroke="#1e1e1e" stroke-width="2" fill="none"/></g><g transform="translate(519.2664563891236 627.9658648564011) rotate(0 59.9306640625 16.099999999999994)"><text x="59.9306640625" y="0" font-family="Helvetica, Segoe UI Emoji" font-size="28px" fill="#1e1e1e" text-anchor="middle" style="white-space: pre;" direction="ltr" dominant-baseline="text-before-edge">L1 Cache</text></g><g stroke-linecap="round" transform="translate(599.0921907177936 10) rotate(0 121.71654473307592 59.561142892466364)"><path d="M74.46 3.93 C87.38 0.36, 104.81 0.81, 120.43 0.77 C136.06 0.74, 153.8 0.9, 168.19 3.73 C182.57 6.56, 195.8 12.2, 206.74 17.74 C217.69 23.29, 227.72 30.19, 233.86 37 C239.99 43.81, 243.31 51.04, 243.57 58.61 C243.83 66.17, 241.46 75.36, 235.42 82.39 C229.39 89.43, 218.58 95.41, 207.34 100.83 C196.11 106.26, 182.09 111.73, 168.02 114.93 C153.96 118.14, 138.27 119.95, 122.95 120.07 C107.64 120.19, 90.7 118.57, 76.15 115.66 C61.61 112.76, 46.84 108.13, 35.69 102.65 C24.53 97.16, 15.22 89.93, 9.23 82.77 C3.25 75.6, -0.29 67.15, -0.22 59.63 C-0.15 52.12, 3.79 44.79, 9.63 37.68 C15.47 30.56, 22.64 22.83, 34.82 16.96 C46.99 11.09, 72.97 4.96, 82.69 2.46 C92.41 -0.05, 92.57 0.92, 93.14 1.94 M88.03 1.43 C101.3 -1.77, 119.2 -1.16, 134.83 -0.25 C150.47 0.66, 167.96 3.11, 181.83 6.87 C195.69 10.62, 208.36 16.35, 218.03 22.29 C227.7 28.24, 235.85 35.35, 239.85 42.53 C243.85 49.7, 243.81 57.73, 242.02 65.34 C240.23 72.95, 236.67 81.3, 229.13 88.19 C221.6 95.09, 209.26 102.06, 196.8 106.71 C184.34 111.37, 169.13 114.15, 154.38 116.14 C139.63 118.13, 123.51 119.25, 108.31 118.67 C93.11 118.09, 76.95 116.34, 63.2 112.65 C49.45 108.97, 35.33 102.7, 25.8 96.55 C16.26 90.4, 10.29 82.81, 6 75.72 C1.71 68.64, -1.63 61.44, 0.08 54.02 C1.79 46.6, 8.49 38.14, 16.25 31.21 C24.01 24.28, 34.73 17.2, 46.64 12.42 C58.55 7.65, 80.42 4, 87.69 2.54 C94.96 1.09, 89.57 2.88, 90.26 3.72" stroke="none" stroke-width="0" fill="#96f2d7"/><path d="M82.69 3.38 C96.24 -0.13, 114.61 -1.17, 130.04 -0.74 C145.46 -0.31, 161.29 2.51, 175.24 5.98 C189.19 9.44, 203.34 14.46, 213.74 20.05 C224.15 25.64, 232.74 32.25, 237.66 39.52 C242.58 46.79, 244.51 56.12, 243.26 63.68 C242 71.23, 237.01 78.08, 230.14 84.87 C223.26 91.66, 213.52 99.14, 202 104.42 C190.48 109.69, 175.73 114.25, 161.02 116.53 C146.32 118.8, 129.12 118.79, 113.77 118.08 C98.41 117.37, 82.74 115.61, 68.9 112.28 C55.06 108.95, 41.08 103.57, 30.71 98.11 C20.34 92.65, 11.58 86.46, 6.66 79.55 C1.73 72.64, 0.32 64.17, 1.14 56.65 C1.95 49.13, 4.95 41.25, 11.55 34.43 C18.16 27.6, 26.72 21.1, 40.78 15.71 C54.84 10.32, 84.45 4.43, 95.92 2.09 C107.39 -0.24, 109.03 0.76, 109.59 1.71 M163.29 3.93 C177.51 5.28, 192.25 9.92, 203.56 15.11 C214.87 20.3, 224.75 28.07, 231.14 35.07 C237.52 42.08, 241.3 49.51, 241.87 57.16 C242.44 64.81, 239.82 74.02, 234.55 80.96 C229.29 87.89, 220.82 93.08, 210.27 98.75 C199.73 104.42, 185.42 111.84, 171.3 114.99 C157.18 118.15, 140.97 117.58, 125.56 117.7 C110.14 117.81, 93.3 118.03, 78.82 115.69 C64.34 113.36, 49.73 108.95, 38.68 103.69 C27.64 98.43, 19.04 91.11, 12.55 84.14 C6.06 77.17, 0.51 69.46, -0.25 61.88 C-1.01 54.3, 2.76 45.71, 7.97 38.64 C13.18 31.57, 20.33 25.22, 31.02 19.46 C41.72 13.7, 57.88 7.43, 72.12 4.1 C86.37 0.77, 101.12 -0.23, 116.49 -0.51 C131.86 -0.79, 156.64 1.61, 164.32 2.4 C172 3.18, 163.25 2.99, 162.55 4.19" stroke="#1e1e1e" stroke-width="2" fill="none"/></g><g transform="translate(693.5214381625158 53.34505485798249) rotate(0 27.220703125 16.099999999999994)"><text x="27.220703125" y="0" font-family="Helvetica, Segoe UI Emoji" font-size="28px" fill="#1e1e1e" text-anchor="middle" style="white-space: pre;" direction="ltr" dominant-baseline="text-before-edge">CDs</text></g><g stroke-linecap="round" transform="translate(10 33.53992315230363) rotate(0 121.71654473307592 59.561142892466364)"><path d="M104.21 1.11 C118.63 -0.91, 137.17 -0.76, 152.31 1.02 C167.44 2.8, 182.52 7, 195.04 11.8 C207.55 16.6, 219.46 23.35, 227.38 29.83 C235.3 36.31, 240.44 43.3, 242.55 50.69 C244.67 58.07, 243.91 66.7, 240.07 74.15 C236.24 81.6, 228.9 89.4, 219.54 95.37 C210.18 101.35, 197.43 106.01, 183.91 110 C170.39 114, 153.89 118.13, 138.43 119.33 C122.98 120.54, 106.02 119.29, 91.17 117.24 C76.32 115.2, 61.6 111.58, 49.34 107.04 C37.08 102.51, 25.75 96.55, 17.6 90.03 C9.45 83.51, 2.57 75.41, 0.42 67.91 C-1.72 60.4, 0.66 52.25, 4.75 44.99 C8.85 37.73, 15.71 30.53, 25 24.33 C34.29 18.13, 45.65 11.89, 60.49 7.8 C75.34 3.71, 103.7 0.93, 114.06 -0.21 C124.42 -1.35, 122.65 -0.07, 122.65 0.95 M76.38 5.4 C89.46 1.7, 106.75 0.24, 122.18 0.1 C137.61 -0.04, 154.74 1.78, 168.94 4.57 C183.15 7.36, 196.63 11.64, 207.38 16.84 C218.14 22.04, 227.32 28.51, 233.48 35.76 C239.64 43.02, 244.29 52.43, 244.33 60.36 C244.37 68.3, 239.74 76.3, 233.73 83.36 C227.72 90.43, 219.37 97.42, 208.26 102.76 C197.16 108.1, 181.76 112.62, 167.09 115.43 C152.41 118.24, 135.8 119.81, 120.21 119.63 C104.62 119.45, 87.79 117.37, 73.54 114.35 C59.3 111.34, 45.31 106.93, 34.73 101.52 C24.14 96.11, 15.59 88.83, 10.02 81.89 C4.44 74.96, 1.4 67.51, 1.29 59.89 C1.19 52.26, 3.81 43.11, 9.4 36.14 C14.99 29.17, 23.75 23.53, 34.85 18.08 C45.95 12.63, 69.15 5.54, 76 3.44 C82.84 1.33, 75.4 4.18, 75.91 5.46" stroke="none" stroke-width="0" fill="#b2f2bb"/><path d="M173.24 5.69 C187.4 8.12, 199.65 14.47, 210.26 20.01 C220.88 25.56, 231.52 32.05, 236.94 38.96 C242.37 45.88, 243.5 53.97, 242.81 61.51 C242.12 69.05, 239.14 77.07, 232.81 84.2 C226.49 91.33, 216.5 99.17, 204.86 104.29 C193.21 109.41, 177.77 112.61, 162.93 114.92 C148.09 117.23, 131.05 118.32, 115.82 118.15 C100.6 117.98, 85.59 116.82, 71.58 113.89 C57.57 110.97, 42.4 106.29, 31.76 100.6 C21.13 94.92, 13.18 87.17, 7.77 79.78 C2.37 72.39, -1.25 63.83, -0.67 56.28 C-0.08 48.73, 4.7 41.13, 11.28 34.47 C17.86 27.82, 27.51 21.49, 38.79 16.35 C50.08 11.2, 64.29 6.35, 78.99 3.6 C93.69 0.84, 110.51 -0.62, 126.99 -0.18 C143.47 0.26, 168.65 4.62, 177.87 6.25 C187.1 7.88, 183.16 8.54, 182.34 9.61 M102.14 -0.16 C116.39 -2.14, 133.9 -0.18, 149.1 1.59 C164.31 3.37, 180.76 6.01, 193.36 10.47 C205.96 14.92, 216.69 21.84, 224.7 28.33 C232.71 34.81, 238.87 42.16, 241.4 49.37 C243.92 56.58, 243.09 64.26, 239.84 71.59 C236.6 78.92, 230.75 86.95, 221.92 93.35 C213.09 99.75, 200.39 105.65, 186.87 109.98 C173.35 114.3, 156.31 117.95, 140.81 119.31 C125.3 120.68, 108.81 120.13, 93.84 118.16 C78.87 116.19, 63.63 111.93, 50.99 107.5 C38.35 103.07, 26.29 97.71, 18.01 91.58 C9.74 85.46, 3.96 78.33, 1.34 70.75 C-1.28 63.17, -1.42 53.88, 2.28 46.09 C5.98 38.31, 14.21 30.24, 23.53 24.04 C32.84 17.83, 44.91 12.65, 58.17 8.84 C71.42 5.03, 95.84 2.1, 103.05 1.18 C110.27 0.26, 101.36 2.65, 101.47 3.32" stroke="#1e1e1e" stroke-width="2" fill="none"/></g><g transform="translate(94.2915521322222 76.88497801028609) rotate(0 37.3583984375 16.099999999999994)"><text x="37.3583984375" y="0" font-family="Helvetica, Segoe UI Emoji" font-size="28px" fill="#1e1e1e" text-anchor="middle" style="white-space: pre;" direction="ltr" dominant-baseline="text-before-edge">Tapes</text></g><g transform="translate(284.7047908441949 682.2047797073835) rotate(0 38.00390625 20.69999999999999)"><text x="0" y="0" font-family="Helvetica, Segoe UI Emoji" font-size="36px" fill="#1e1e1e" text-anchor="start" style="white-space: pre;" direction="ltr" dominant-baseline="text-before-edge">CPU</text></g></svg>