<svg version="1.1" xmlns="http://www.w3.org/2000/svg" viewBox="0 0 268.35791015625 474.4685516357422" width="268.35791015625" height="474.4685516357422" class="excalidraw-svg">
  <!-- svg-source:excalidraw -->
  
  <defs>
    <style class="style-fonts">
      @font-face {
        font-family: "Virgil";
        src: url("https://excalidraw.com/Virgil.woff2");
      }
      @font-face {
        font-family: "Cascadia";
        src: url("https://excalidraw.com/Cascadia.woff2");
      }
      @font-face {
        font-family: "Assistant";
        src: url("https://excalidraw.com/Assistant-Regular.woff2");
      }
    </style>
    
  </defs>
  <rect x="0" y="0" width="268.35791015625" height="474.4685516357422" fill="#ffffff"/><g stroke-linecap="round" transform="translate(10 10) rotate(0 124.178955078125 227.2342758178711)"><path d="M32 0 C105.03 0.28, 177.83 -0.34, 216.36 0 M32 0 C68.43 0.34, 105.82 -0.42, 216.36 0 M216.36 0 C236.7 -0.59, 247.76 11.38, 248.36 32 M216.36 0 C236.63 1.01, 247.34 9.15, 248.36 32 M248.36 32 C249.1 172.81, 248.5 312.62, 248.36 422.47 M248.36 32 C250.47 149.33, 250.43 266.86, 248.36 422.47 M248.36 422.47 C246.74 445.26, 237.68 453.88, 216.36 454.47 M248.36 422.47 C247.61 444.8, 238.56 456.23, 216.36 454.47 M216.36 454.47 C172.15 452.85, 126.34 454.74, 32 454.47 M216.36 454.47 C166.45 453.57, 117.31 453.84, 32 454.47 M32 454.47 C10.8 456.37, -1.29 445.76, 0 422.47 M32 454.47 C11.72 454.63, 1.7 445.9, 0 422.47 M0 422.47 C0.05 321.27, -1.62 217.94, 0 32 M0 422.47 C0.66 322.82, 0.16 222.53, 0 32 M0 32 C0.7 11.88, 10.8 -0.18, 32 0 M0 32 C0.25 12.27, 12.25 2.02, 32 0" stroke="#1e1e1e" stroke-width="2" fill="none"/></g><g stroke-linecap="round" transform="translate(10.8302001953125 296.8225860595703) rotate(0 123.06854248046875 83.27949523925781)"><path d="M32 0 C71.85 2.37, 114.37 0.56, 214.14 0 M32 0 C95.92 0.19, 160.02 -1.22, 214.14 0 M214.14 0 C234.14 0.84, 245.48 9.34, 246.14 32 M214.14 0 C234.79 0.49, 244.24 11.78, 246.14 32 M246.14 32 C246.69 59.74, 246.43 86.65, 246.14 134.56 M246.14 32 C246.9 72.09, 246.79 110.14, 246.14 134.56 M246.14 134.56 C244.43 156.36, 236.22 167.33, 214.14 166.56 M246.14 134.56 C246.77 157.8, 237.06 168.79, 214.14 166.56 M214.14 166.56 C158.94 165.78, 101.3 169.11, 32 166.56 M214.14 166.56 C150.53 165.88, 87.23 165.93, 32 166.56 M32 166.56 C9.1 165.72, -0.4 156.6, 0 134.56 M32 166.56 C8.88 164.85, -2.18 155.93, 0 134.56 M0 134.56 C2.34 98.8, 2.53 66.64, 0 32 M0 134.56 C-0.62 104.68, 0.37 75.21, 0 32 M0 32 C1.27 9.79, 9.84 -1.27, 32 0 M0 32 C1.45 12.34, 12.22 0.25, 32 0" stroke="#1e1e1e" stroke-width="2" fill="none"/></g><g transform="translate(100.55401611328125 368.6020812988281) rotate(0 33.3447265625 11.5)"><text x="33.3447265625" y="0" font-family="Helvetica, Segoe UI Emoji" font-size="20px" fill="#1e1e1e" text-anchor="middle" style="white-space: pre;" direction="ltr" dominant-baseline="text-before-edge">Monitor</text></g><g transform="translate(75.26214599609375 115.72785949707031) rotate(0 62.236328125 11.5)"><text x="0" y="0" font-family="Helvetica, Segoe UI Emoji" font-size="20px" fill="#1e1e1e" text-anchor="start" style="white-space: pre;" direction="ltr" dominant-baseline="text-before-edge">User Program</text></g></svg>