<svg version="1.1" xmlns="http://www.w3.org/2000/svg" viewBox="0 0 250.66827392578125 426.530029296875" width="250.66827392578125" height="426.530029296875" class="excalidraw-svg">
  <!-- svg-source:excalidraw -->
  
  <defs>
    <style class="style-fonts">
      @font-face {
        font-family: "Virgil";
        src: url("https://excalidraw.com/Virgil.woff2");
      }
      @font-face {
        font-family: "Cascadia";
        src: url("https://excalidraw.com/Cascadia.woff2");
      }
      @font-face {
        font-family: "Assistant";
        src: url("https://excalidraw.com/Assistant-Regular.woff2");
      }
    </style>
    
  </defs>
  <rect x="0" y="0" width="250.66827392578125" height="426.530029296875" fill="#ffffff"/><g stroke-linecap="round" transform="translate(10 10) rotate(0 114.99179077148438 202.85418701171875)"><path d="M32 0 C85.11 -2.4, 145.92 -0.67, 197.98 0 C220.99 -0.4, 233.27 7.8, 229.98 32 C228.33 117.57, 226.47 201.2, 229.98 373.71 C226.48 395.87, 218.35 407.9, 197.98 405.71 C132.06 405.37, 62.9 408.59, 32 405.71 C13.93 403.53, -0.27 396.16, 0 373.71 C0.45 282.5, 2.76 195.64, 0 32 C0.74 14.11, 11.06 -1.84, 32 0" stroke="none" stroke-width="0" fill="#a5d8ff"/><path d="M32 0 C82.64 -1.45, 131.96 0.23, 197.98 0 M32 0 C92.55 0.58, 153.84 2.36, 197.98 0 M197.98 0 C221.22 1.04, 230.28 11.57, 229.98 32 M197.98 0 C220.6 0.45, 230.94 12.76, 229.98 32 M229.98 32 C230.19 150.03, 231.15 270.63, 229.98 373.71 M229.98 32 C228.56 146.31, 228.33 259.79, 229.98 373.71 M229.98 373.71 C228.37 394.39, 220.22 406.59, 197.98 405.71 M229.98 373.71 C227.73 393.02, 220.45 406.85, 197.98 405.71 M197.98 405.71 C148.45 403.82, 94.94 404.6, 32 405.71 M197.98 405.71 C143.57 404.67, 91.41 405.23, 32 405.71 M32 405.71 C11.19 406.89, 0.13 394.42, 0 373.71 M32 405.71 C10.45 406.9, -2.12 392.9, 0 373.71 M0 373.71 C1.61 282.4, 0.57 193.94, 0 32 M0 373.71 C2.51 238.53, 1.64 103.68, 0 32 M0 32 C-1.72 9.41, 9.37 0.73, 32 0 M0 32 C-2.17 11.77, 9.84 1.28, 32 0" stroke="#1e1e1e" stroke-width="2" fill="none"/></g><g stroke-linecap="round" transform="translate(11.442016601562528 12.160919189453125) rotate(0 114.61312866210936 52.09141540527344)"><path d="M26.05 0 C80.13 -4.18, 127.69 -1.28, 203.18 0 C217.93 -1.04, 227.52 6.99, 229.23 26.05 C231.74 38.01, 226.36 47.81, 229.23 78.14 C227.25 95.38, 220.64 105.56, 203.18 104.18 C166.56 103.6, 134.84 103.65, 26.05 104.18 C11.79 102.92, -2.28 98.1, 0 78.14 C2.27 64.42, 3.37 50.7, 0 26.05 C3.41 9.71, 9.48 -1.38, 26.05 0" stroke="none" stroke-width="0" fill="#a5d8ff"/><path d="M26.05 0 C76.23 -0.61, 128.3 1.52, 203.18 0 M26.05 0 C92.51 -0.26, 159.3 -0.48, 203.18 0 M203.18 0 C222.23 0.84, 229.61 7.7, 229.23 26.05 M203.18 0 C220.52 2.24, 228.21 7.19, 229.23 26.05 M229.23 26.05 C229.76 38.09, 227.72 55.08, 229.23 78.14 M229.23 26.05 C229.19 45.46, 230.06 65.16, 229.23 78.14 M229.23 78.14 C227.88 95.85, 221.73 104.42, 203.18 104.18 M229.23 78.14 C229.15 94.67, 222.27 102.75, 203.18 104.18 M203.18 104.18 C142.35 105.2, 79.78 102.43, 26.05 104.18 M203.18 104.18 C142.35 102.66, 82.53 102.11, 26.05 104.18 M26.05 104.18 C10.03 103.83, -1.93 96.45, 0 78.14 M26.05 104.18 C10.97 105.97, -1.25 95.11, 0 78.14 M0 78.14 C-1.73 60.07, 0.24 42.2, 0 26.05 M0 78.14 C0.98 61.07, 0.78 44.73, 0 26.05 M0 26.05 C0.74 6.96, 9.59 0.95, 26.05 0 M0 26.05 C-1.54 9.88, 6.65 -1.8, 26.05 0" stroke="#1e1e1e" stroke-width="2" fill="none"/></g><g transform="translate(63.02096557617189 48.15233459472657) rotate(0 63.0341796875 16.099999999999994)"><text x="63.0341796875" y="0" font-family="Helvetica, Segoe UI Emoji" font-size="28px" fill="#1e1e1e" text-anchor="middle" style="white-space: pre;" direction="ltr" dominant-baseline="text-before-edge">Partition 1</text></g><g stroke-linecap="round" transform="translate(10.20538330078125 118.98825073242188) rotate(0 114.859130859375 59.93925476074219)"><path d="M29.97 0 C75.11 1.97, 118.41 -1.53, 199.75 0 C221.15 -0.6, 227.05 7.86, 229.72 29.97 C232.4 45.61, 232.48 66.82, 229.72 89.91 C233.27 112.93, 219.4 120.15, 199.75 119.88 C164.27 120.26, 122.99 121.3, 29.97 119.88 C10.11 119.73, 1.07 110, 0 89.91 C2.9 68.41, -0.33 41.6, 0 29.97 C2.66 12.44, 12.68 1.85, 29.97 0" stroke="none" stroke-width="0" fill="#a5d8ff"/><path d="M29.97 0 C92.22 0.92, 156.69 1.59, 199.75 0 M29.97 0 C70.59 -0.4, 112.32 -0.17, 199.75 0 M199.75 0 C220.85 1.04, 227.78 11.11, 229.72 29.97 M199.75 0 C219.39 0.02, 227.9 10.49, 229.72 29.97 M229.72 29.97 C228.47 46.7, 230.76 60.86, 229.72 89.91 M229.72 29.97 C230.35 46.82, 230.61 63.16, 229.72 89.91 M229.72 89.91 C229.88 108.25, 221.56 121.53, 199.75 119.88 M229.72 89.91 C229.4 109.24, 219 118.86, 199.75 119.88 M199.75 119.88 C140.42 117.71, 80.25 117, 29.97 119.88 M199.75 119.88 C163.51 120.01, 127.79 121.89, 29.97 119.88 M29.97 119.88 C11.45 121.55, -1.39 109.54, 0 89.91 M29.97 119.88 C10.23 119.54, 1.99 111.26, 0 89.91 M0 89.91 C1.95 73.61, -0.15 54.59, 0 29.97 M0 89.91 C0.68 74.39, -1.14 59.54, 0 29.97 M0 29.97 C-1.1 9.96, 9.5 1.77, 29.97 0 M0 29.97 C2.05 11, 9.85 -0.2, 29.97 0" stroke="#1e1e1e" stroke-width="2" fill="none"/></g><g transform="translate(62.03033447265625 162.82750549316407) rotate(0 63.0341796875 16.099999999999998)"><text x="63.0341796875" y="0" font-family="Helvetica, Segoe UI Emoji" font-size="28px" fill="#1e1e1e" text-anchor="middle" style="white-space: pre;" direction="ltr" dominant-baseline="text-before-edge">Partition 2</text></g><g stroke-linecap="round" transform="translate(10.9371337890625 240.42437744140625) rotate(0 113.51760864257812 88.05282592773438)"><path d="M32 0 C94.52 3.98, 156.56 -0.58, 195.04 0 C216.6 -0.66, 227.85 13.01, 227.04 32 C225.02 61.95, 225.2 100.99, 227.04 144.11 C224.02 164.67, 219.67 172.61, 195.04 176.11 C156.4 178.58, 121.98 179.41, 32 176.11 C11.62 179.64, -1.7 162.92, 0 144.11 C0.93 105.84, -1.79 69.72, 0 32 C2.33 13.39, 11.93 0.18, 32 0" stroke="none" stroke-width="0" fill="#a5d8ff"/><path d="M32 0 C96.88 -2.19, 161.64 -1.52, 195.04 0 M32 0 C65.88 0.72, 98.54 1.27, 195.04 0 M195.04 0 C215.44 -1.6, 228.69 10.93, 227.04 32 M195.04 0 C218.24 -2.13, 228.88 11.24, 227.04 32 M227.04 32 C226.58 70.27, 226.14 106.41, 227.04 144.11 M227.04 32 C227.16 64.48, 227.8 96.48, 227.04 144.11 M227.04 144.11 C227.93 167.35, 215.82 176.49, 195.04 176.11 M227.04 144.11 C226.62 167.52, 217.84 175.33, 195.04 176.11 M195.04 176.11 C153.3 175.99, 116.19 178.48, 32 176.11 M195.04 176.11 C156.89 177.46, 118.08 176.43, 32 176.11 M32 176.11 C12.4 177.65, -0.77 165.3, 0 144.11 M32 176.11 C9.93 176.05, -0.17 164.19, 0 144.11 M0 144.11 C2.86 114.31, 1.08 80.89, 0 32 M0 144.11 C0.93 111.17, -0.41 77.73, 0 32 M0 32 C-1.81 10.22, 9.55 -1.41, 32 0 M0 32 C0.19 12.82, 8.88 1.95, 32 0" stroke="#1e1e1e" stroke-width="2" fill="none"/></g><g transform="translate(61.420562744140625 312.3772033691406) rotate(0 63.0341796875 16.099999999999994)"><text x="63.0341796875" y="0" font-family="Helvetica, Segoe UI Emoji" font-size="28px" fill="#1e1e1e" text-anchor="middle" style="white-space: pre;" direction="ltr" dominant-baseline="text-before-edge">Partition 3</text></g></svg>