<svg version="1.1" xmlns="http://www.w3.org/2000/svg" viewBox="0 0 721.5602167531547 604.524995122288" width="721.5602167531547" height="604.524995122288" class="excalidraw-svg">
  <!-- svg-source:excalidraw -->
  
  <defs>
    <style class="style-fonts">
      @font-face {
        font-family: "Virgil";
        src: url("https://excalidraw.com/Virgil.woff2");
      }
      @font-face {
        font-family: "Cascadia";
        src: url("https://excalidraw.com/Cascadia.woff2");
      }
      @font-face {
        font-family: "Assistant";
        src: url("https://excalidraw.com/Assistant-Regular.woff2");
      }
    </style>
    
  </defs>
  <rect x="0" y="0" width="721.5602167531547" height="604.524995122288" fill="#ffffff"/><g stroke-linecap="round" transform="translate(164.5602167531547 91.52499512228803) rotate(0 273.5 251.5)"><path d="M32 0 C196.7 2.33, 360.51 2.42, 515 0 M32 0 C190.42 -1.59, 348.96 -1.37, 515 0 M515 0 C535.41 -0.8, 546.17 9.49, 547 32 M515 0 C537.59 -0.43, 546.75 11.03, 547 32 M547 32 C546.03 179.96, 546.33 326.59, 547 471 M547 32 C547.28 203.17, 547.06 374.46, 547 471 M547 471 C545.79 493.05, 535.76 503.37, 515 503 M547 471 C544.97 491.28, 534.4 503.18, 515 503 M515 503 C374.65 503.18, 233.25 502.02, 32 503 M515 503 C373.44 501.98, 231.25 502.16, 32 503 M32 503 C11.14 503.76, -0.67 492.84, 0 471 M32 503 C10.76 500.77, 1.75 494.4, 0 471 M0 471 C1.05 296.17, 2.28 120.99, 0 32 M0 471 C1.39 328, 0.61 185.83, 0 32 M0 32 C-1.47 12.5, 9.75 -1.31, 32 0 M0 32 C-0.98 8.9, 11.46 -1.03, 32 0" stroke="#1e1e1e" stroke-width="2" fill="none"/></g><g stroke-linecap="round" transform="translate(165.5602167531547 92.52499512228803) rotate(0 272 44.5)"><path d="M22.25 0 C195.19 1.55, 369.86 0.63, 521.75 0 C535.02 2.06, 544.77 7.05, 544 22.25 C546.6 34.29, 542.48 47, 544 66.75 C543.38 79.42, 535.55 86.85, 521.75 89 C335.35 89.04, 149.93 88.93, 22.25 89 C7.84 88.39, -0.55 83.92, 0 66.75 C0.27 54.75, 1.73 45.89, 0 22.25 C2.36 4.39, 9.78 -2.4, 22.25 0" stroke="none" stroke-width="0" fill="#b2f2bb"/><path d="M22.25 0 C171.91 -0.11, 321.25 1.42, 521.75 0 M22.25 0 C185.7 -1.04, 349.02 -1.18, 521.75 0 M521.75 0 C534.74 1.72, 544.05 7.21, 544 22.25 M521.75 0 C534.42 1.01, 545.96 6.96, 544 22.25 M544 22.25 C543.48 37.91, 543.41 51.33, 544 66.75 M544 22.25 C543.6 39.16, 544.76 55.69, 544 66.75 M544 66.75 C545.78 79.94, 535.43 87.25, 521.75 89 M544 66.75 C541.91 80.1, 535.67 88.47, 521.75 89 M521.75 89 C395.56 89.98, 268.28 90.02, 22.25 89 M521.75 89 C369.02 87.27, 215.41 87.18, 22.25 89 M22.25 89 C8.67 88.01, -1.71 80.38, 0 66.75 M22.25 89 C8.63 87.98, -0.53 82.06, 0 66.75 M0 66.75 C-0.53 56.43, 1.08 42.85, 0 22.25 M0 66.75 C-0.67 57.89, 0.82 49.55, 0 22.25 M0 22.25 C-1.35 6.98, 6.34 0.13, 22.25 0 M0 22.25 C-0.89 5.19, 8.15 2.29, 22.25 0" stroke="#1e1e1e" stroke-width="2" fill="none"/></g><g transform="translate(414.9947870656547 120.92499512228804) rotate(0 22.5654296875 16.099999999999994)"><text x="22.5654296875" y="0" font-family="Helvetica, Segoe UI Emoji" font-size="28px" fill="#1e1e1e" text-anchor="middle" style="white-space: pre;" direction="ltr" dominant-baseline="text-before-edge">API</text></g><g stroke-linecap="round" transform="translate(169.5602167531547 191.52499512228803) rotate(0 62.5 59.5)"><path d="M29.75 0 C51.04 -1.32, 73.32 -1.87, 95.25 0 C117.17 0.03, 127.06 8.02, 125 29.75 C125.43 49.98, 129.28 69.26, 125 89.25 C127.19 108.06, 113.12 117.98, 95.25 119 C75.15 117.83, 55.49 120.85, 29.75 119 C10.05 122.49, -2.64 109.61, 0 89.25 C-1.07 65.22, -3.29 43.81, 0 29.75 C3.18 10.41, 7.66 0.79, 29.75 0" stroke="none" stroke-width="0" fill="#ffc9c9"/><path d="M29.75 0 C48.11 0.24, 70.78 -0.51, 95.25 0 M29.75 0 C42.84 0.32, 56.97 -0.69, 95.25 0 M95.25 0 C116.56 -1.25, 126.11 7.98, 125 29.75 M95.25 0 C116.08 -0.16, 125.26 8.58, 125 29.75 M125 29.75 C123.81 46.67, 124.34 68.52, 125 89.25 M125 29.75 C124.32 49.48, 125.54 68.94, 125 89.25 M125 89.25 C125.1 111, 116.83 117.98, 95.25 119 M125 89.25 C123.51 108.03, 114.65 119.55, 95.25 119 M95.25 119 C71.72 120.76, 48.03 116.88, 29.75 119 M95.25 119 C71.43 118.7, 48.29 119.13, 29.75 119 M29.75 119 C8.22 118.73, 1.93 109.92, 0 89.25 M29.75 119 C8.12 118.28, 1.32 111.04, 0 89.25 M0 89.25 C-2.28 64.25, 1.35 40.36, 0 29.75 M0 89.25 C0.5 68.37, 0.3 47, 0 29.75 M0 29.75 C0.6 8, 10.87 1.48, 29.75 0 M0 29.75 C0.75 9.99, 11.28 0.88, 29.75 0" stroke="#e03131" stroke-width="2" fill="none"/></g><g transform="translate(178.3844355031547 218.82499512228804) rotate(0 53.67578125 32.199999999999996)"><text x="53.67578125" y="0" font-family="Helvetica, Segoe UI Emoji" font-size="28px" fill="#e03131" text-anchor="middle" style="white-space: pre;" direction="ltr" dominant-baseline="text-before-edge">File</text><text x="53.67578125" y="32.199999999999996" font-family="Helvetica, Segoe UI Emoji" font-size="28px" fill="#e03131" text-anchor="middle" style="white-space: pre;" direction="ltr" dominant-baseline="text-before-edge">Systems</text></g><g stroke-linecap="round" transform="translate(302.5602167531547 193.52499512228803) rotate(0 62.5 58.5)"><path d="M29.25 0 C48.1 0.79, 69.74 1.15, 95.75 0 M29.25 0 C52.94 -0.91, 77.13 -0.78, 95.75 0 M95.75 0 C117.14 -0.02, 126.95 10.27, 125 29.25 M95.75 0 C114.26 0.48, 125.83 9.01, 125 29.25 M125 29.25 C123.26 48.5, 125.99 66.74, 125 87.75 M125 29.25 C124.65 44.36, 126 61.96, 125 87.75 M125 87.75 C125.82 109.15, 114.21 117.45, 95.75 117 M125 87.75 C124.56 109.11, 113.14 117.27, 95.75 117 M95.75 117 C69.04 119.06, 45.25 116.82, 29.25 117 M95.75 117 C81.03 117.22, 68.38 116.57, 29.25 117 M29.25 117 C9.4 117.81, -0.9 107.28, 0 87.75 M29.25 117 C11.86 118.71, -0.24 105.76, 0 87.75 M0 87.75 C0.06 77.46, 0.31 63.69, 0 29.25 M0 87.75 C0.34 72.93, -1.05 57.34, 0 29.25 M0 29.25 C1.27 10.54, 11.47 0.11, 29.25 0 M0 29.25 C-1.06 9.98, 7.87 0.85, 29.25 0" stroke="#1e1e1e" stroke-width="2" fill="none"/></g><g transform="translate(309.8053339406547 219.82499512228804) rotate(0 55.2548828125 32.199999999999996)"><text x="55.2548828125" y="0" font-family="Helvetica, Segoe UI Emoji" font-size="28px" fill="#1e1e1e" text-anchor="middle" style="white-space: pre;" direction="ltr" dominant-baseline="text-before-edge">Memory</text><text x="55.2548828125" y="32.199999999999996" font-family="Helvetica, Segoe UI Emoji" font-size="28px" fill="#1e1e1e" text-anchor="middle" style="white-space: pre;" direction="ltr" dominant-baseline="text-before-edge">Manager</text></g><g stroke-linecap="round" transform="translate(440.5602167531547 195.52499512228803) rotate(0 62.5 58.5)"><path d="M29.25 0 C52.85 -3.14, 77.83 -3.53, 95.75 0 C116.93 3.42, 122.74 10.04, 125 29.25 C122.21 39.42, 123.65 54.26, 125 87.75 C122.63 108.83, 113.57 120.51, 95.75 117 C75.56 113.9, 48.18 114.54, 29.25 117 C12.94 117.75, -0.7 109.79, 0 87.75 C0.67 72.15, -3.72 47.03, 0 29.25 C0.85 6.33, 13.34 0.42, 29.25 0" stroke="none" stroke-width="0" fill="#b2f2bb"/><path d="M29.25 0 C48.78 0.38, 66.13 -1.62, 95.75 0 M29.25 0 C45.69 -0.44, 63.52 0.72, 95.75 0 M95.75 0 C115.43 0.72, 126.95 10.07, 125 29.25 M95.75 0 C116.99 -1.71, 122.89 11.39, 125 29.25 M125 29.25 C123.05 39.72, 123.64 55.1, 125 87.75 M125 29.25 C125.01 41.11, 124.69 54.44, 125 87.75 M125 87.75 C125.39 106.05, 115.77 115.09, 95.75 117 M125 87.75 C122.94 106.85, 113.48 117.8, 95.75 117 M95.75 117 C74.72 117.69, 56.01 116.83, 29.25 117 M95.75 117 C77 116, 56.89 117.77, 29.25 117 M29.25 117 C9.53 116.02, 0.41 106.58, 0 87.75 M29.25 117 C7.78 119.26, -0.48 106.9, 0 87.75 M0 87.75 C-0.64 73.44, -0.13 61.71, 0 29.25 M0 87.75 C-1.18 64.49, -1.26 41.6, 0 29.25 M0 29.25 C1.58 8.05, 9.92 0.42, 29.25 0 M0 29.25 C-2.21 8.33, 7.62 -2.08, 29.25 0" stroke="#f08c00" stroke-width="2" fill="none"/></g><g transform="translate(447.8053339406547 221.82499512228804) rotate(0 55.2548828125 32.199999999999996)"><text x="55.2548828125" y="0" font-family="Helvetica, Segoe UI Emoji" font-size="28px" fill="#f08c00" text-anchor="middle" style="white-space: pre;" direction="ltr" dominant-baseline="text-before-edge">Process</text><text x="55.2548828125" y="32.199999999999996" font-family="Helvetica, Segoe UI Emoji" font-size="28px" fill="#f08c00" text-anchor="middle" style="white-space: pre;" direction="ltr" dominant-baseline="text-before-edge">Manager</text></g><g stroke-linecap="round" transform="translate(573.3163821948999 197.7688296805427) rotate(0 62.5 58.5)"><path d="M29.25 0 C59.1 2.79, 83.58 3.35, 95.75 0 C116.15 -3.13, 126.12 7.66, 125 29.25 C122.93 40.21, 121.22 59.51, 125 87.75 C122.73 104.37, 118.57 115.81, 95.75 117 C80.56 116.07, 66.83 115.43, 29.25 117 C10.58 113.42, 2.23 104.36, 0 87.75 C-1.3 72.48, 0.24 60.9, 0 29.25 C3.04 6.48, 8.47 -2.02, 29.25 0" stroke="none" stroke-width="0" fill="#b2f2bb"/><path d="M29.25 0 C44.88 -1.54, 64.35 -1.87, 95.75 0 M29.25 0 C43.95 1.08, 60.75 -0.3, 95.75 0 M95.75 0 C114.48 -1.85, 126.28 10.85, 125 29.25 M95.75 0 C114.95 1.33, 124.87 12.02, 125 29.25 M125 29.25 C125.57 44.44, 127.4 59.64, 125 87.75 M125 29.25 C124.43 42.26, 125.5 54.93, 125 87.75 M125 87.75 C126.71 105.28, 115.52 116.54, 95.75 117 M125 87.75 C124.64 106.9, 117.45 114.95, 95.75 117 M95.75 117 C78.19 116.26, 60.01 116.05, 29.25 117 M95.75 117 C77.57 117.02, 57.04 117.08, 29.25 117 M29.25 117 C8.04 115.13, -0.26 106.08, 0 87.75 M29.25 117 C9.04 115.92, -0.76 106.23, 0 87.75 M0 87.75 C-1.54 72.44, -1.31 61.8, 0 29.25 M0 87.75 C0.47 65.67, 0.47 44.87, 0 29.25 M0 29.25 C1.62 10.24, 8.38 1.43, 29.25 0 M0 29.25 C-1.65 9.36, 8.85 0.62, 29.25 0" stroke="#1971c2" stroke-width="2" fill="none"/></g><g transform="translate(584.4716556323999 224.0688296805427) rotate(0 51.3447265625 32.199999999999996)"><text x="51.3447265625" y="0" font-family="Helvetica, Segoe UI Emoji" font-size="28px" fill="#1971c2" text-anchor="middle" style="white-space: pre;" direction="ltr" dominant-baseline="text-before-edge">Network</text><text x="51.3447265625" y="32.199999999999996" font-family="Helvetica, Segoe UI Emoji" font-size="28px" fill="#1971c2" text-anchor="middle" style="white-space: pre;" direction="ltr" dominant-baseline="text-before-edge">Support</text></g><g stroke-linecap="round" transform="translate(184.5602167531547 341.52499512228803) rotate(0 109 53)"><path d="M149.91 3.01 C163.75 4.67, 177.14 9.72, 187.48 15.11 C197.82 20.5, 207.07 28.4, 211.96 35.35 C216.85 42.3, 218.02 49.91, 216.81 56.82 C215.6 63.73, 211.51 70.41, 204.68 76.81 C197.85 83.21, 187.27 90.53, 175.82 95.22 C164.38 99.91, 150.33 103.13, 136 104.95 C121.68 106.77, 104.54 107.59, 89.88 106.14 C75.22 104.68, 60.03 100.29, 48.03 96.21 C36.03 92.13, 25.78 87.44, 17.87 81.67 C9.97 75.9, 2.83 68.73, 0.63 61.61 C-1.58 54.49, 0.55 45.95, 4.63 38.95 C8.71 31.96, 15.79 25.19, 25.11 19.64 C34.43 14.09, 47.47 8.89, 60.53 5.67 C73.59 2.45, 86.85 0.31, 103.47 0.31 C120.08 0.32, 149.48 4.3, 160.22 5.71 C170.97 7.12, 168.82 7.85, 167.93 8.77 M120.24 -0.87 C134.66 -1.08, 151.05 3.51, 163.71 7.33 C176.37 11.14, 187.69 16.07, 196.2 22 C204.71 27.93, 211.44 35.82, 214.75 42.91 C218.06 50, 219.08 57.84, 216.05 64.52 C213.03 71.21, 205.22 77.56, 196.61 83.03 C187.99 88.5, 176.66 93.33, 164.37 97.35 C152.07 101.36, 137.62 105.93, 122.84 107.13 C108.06 108.33, 89.98 106.91, 75.69 104.55 C61.39 102.18, 48.2 97.85, 37.09 92.92 C25.97 88, 15.08 81.65, 9 74.99 C2.92 68.34, 0.59 60.25, 0.62 53 C0.65 45.75, 3.56 37.99, 9.18 31.51 C14.79 25.04, 23.35 18.85, 34.3 14.16 C45.24 9.48, 60.5 5.71, 74.86 3.39 C89.22 1.07, 113.32 0.49, 120.45 0.24 C127.58 0, 117.88 1.15, 117.65 1.92" stroke="none" stroke-width="0" fill="#a5d8ff"/><path d="M137.89 2.44 C151.96 3.65, 166.86 8.2, 178.31 12.6 C189.76 17, 200.01 22.41, 206.6 28.85 C213.18 35.28, 217.24 44.05, 217.8 51.2 C218.37 58.34, 215.16 65.1, 210.01 71.72 C204.86 78.34, 197.26 85.85, 186.9 90.91 C176.54 95.98, 161.76 99.63, 147.83 102.1 C133.91 104.56, 117.94 106.16, 103.34 105.72 C88.73 105.28, 73.36 102.74, 60.22 99.47 C47.07 96.2, 33.8 91.51, 24.47 86.12 C15.15 80.73, 8.16 74.16, 4.25 67.12 C0.34 60.09, -1.15 51.26, 1.01 43.93 C3.17 36.6, 8.98 29.19, 17.21 23.15 C25.45 17.1, 37.94 11.56, 50.43 7.66 C62.92 3.76, 74.69 0.09, 92.15 -0.26 C109.6 -0.6, 141.98 3.64, 155.18 5.6 C168.37 7.55, 171.97 10.66, 171.33 11.48 M116.27 -0.8 C130.34 -1.16, 145.89 1.49, 158.98 4.91 C172.08 8.33, 185.37 14.2, 194.82 19.7 C204.26 25.2, 212.13 31.1, 215.65 37.91 C219.17 44.72, 218.72 53.32, 215.91 60.54 C213.11 67.77, 206.96 75.28, 198.82 81.26 C190.68 87.24, 179.38 92.28, 167.07 96.4 C154.76 100.51, 139.46 104.45, 124.97 105.95 C110.48 107.46, 94.49 107.18, 80.12 105.44 C65.75 103.69, 49.93 100.36, 38.75 95.48 C27.56 90.59, 19.23 82.71, 12.99 76.15 C6.76 69.58, 2.1 63.05, 1.33 56.06 C0.55 49.07, 3.23 41.1, 8.33 34.21 C13.44 27.33, 21.79 19.84, 31.97 14.75 C42.15 9.65, 55.67 6.17, 69.41 3.64 C83.15 1.11, 106.95 -0.02, 114.43 -0.44 C121.91 -0.85, 114.43 0.35, 114.28 1.18" stroke="#1971c2" stroke-width="2" fill="none"/></g><g transform="translate(242.913311978821 362.348335719401) rotate(0 50.572265625 32.2)"><text x="50.572265625" y="0" font-family="Helvetica, Segoe UI Emoji" font-size="28px" fill="#1971c2" text-anchor="middle" style="white-space: pre;" direction="ltr" dominant-baseline="text-before-edge">Security</text><text x="50.572265625" y="32.199999999999996" font-family="Helvetica, Segoe UI Emoji" font-size="28px" fill="#1971c2" text-anchor="middle" style="white-space: pre;" direction="ltr" dominant-baseline="text-before-edge">Module</text></g><g stroke-linecap="round" transform="translate(453.5602167531547 337.52499512228803) rotate(0 105.5 55)"><path d="M82.22 0.36 C95.38 -1.94, 113.07 -0.56, 127.29 1.16 C141.51 2.89, 156.14 6.49, 167.52 10.71 C178.91 14.93, 188.6 20.23, 195.62 26.5 C202.63 32.76, 207.95 40.88, 209.59 48.28 C211.23 55.67, 209.5 63.74, 205.45 70.85 C201.41 77.97, 194.73 85.4, 185.35 90.95 C175.97 96.5, 162.45 101.01, 149.18 104.14 C135.91 107.27, 120.04 109.52, 105.74 109.72 C91.43 109.92, 76.25 108.39, 63.37 105.34 C50.49 102.29, 38.05 96.76, 28.48 91.41 C18.92 86.05, 10.73 79.98, 5.97 73.2 C1.21 66.43, -1.2 58.21, -0.07 50.75 C1.05 43.29, 5.6 35.13, 12.7 28.45 C19.81 21.78, 29.06 15.37, 42.53 10.69 C56 6.01, 82.81 1.85, 93.55 0.37 C104.29 -1.11, 106.63 0.86, 106.97 1.8 M97.32 1.05 C110.88 -0.32, 128.93 0.18, 142.54 2.49 C156.15 4.8, 168.74 9.72, 179 14.92 C189.25 20.13, 198.59 26.73, 204.07 33.72 C209.54 40.7, 212.48 49.28, 211.86 56.82 C211.25 64.35, 207.01 72.1, 200.36 78.94 C193.72 85.79, 183.1 92.92, 171.99 97.89 C160.87 102.87, 147.26 106.74, 133.66 108.82 C120.07 110.9, 104.27 111.57, 90.41 110.39 C76.55 109.21, 62.48 105.95, 50.52 101.75 C38.56 97.55, 26.91 91.23, 18.65 85.18 C10.39 79.14, 3.32 73, 0.97 65.5 C-1.38 58, 1 47.37, 4.57 40.19 C8.13 33.01, 13.53 27.96, 22.35 22.42 C31.17 16.89, 44.99 10.83, 57.49 6.97 C69.98 3.1, 90.48 0.33, 97.31 -0.78 C104.14 -1.89, 98.34 -1.03, 98.46 0.28" stroke="none" stroke-width="0" fill="#b2f2bb"/><path d="M142.1 2.71 C155.44 4.39, 169.31 11.26, 179.46 16.52 C189.62 21.79, 197.78 27.37, 203.01 34.3 C208.25 41.24, 211.44 50.66, 210.89 58.13 C210.33 65.59, 206.09 72.4, 199.66 79.08 C193.23 85.76, 183.31 93.49, 172.32 98.2 C161.32 102.91, 147.51 105.38, 133.69 107.35 C119.86 109.33, 103.59 110.94, 89.36 110.04 C75.12 109.14, 60.3 106.08, 48.28 101.96 C36.26 97.84, 25.05 91.51, 17.21 85.32 C9.37 79.13, 3.67 72.14, 1.22 64.82 C-1.22 57.51, -1.23 48.91, 2.52 41.45 C6.27 34, 14.87 25.82, 23.72 20.09 C32.56 14.36, 42.97 10.44, 55.61 7.06 C68.25 3.68, 83.63 0.21, 99.54 -0.19 C115.45 -0.59, 141.39 3.28, 151.08 4.66 C160.78 6.04, 158.3 7.01, 157.7 8.08 M112.36 0.03 C126.31 -0.19, 142.16 2.26, 154.96 5.96 C167.75 9.67, 180.4 16.27, 189.13 22.26 C197.85 28.24, 203.66 35, 207.29 41.89 C210.91 48.78, 213.21 56.23, 210.89 63.58 C208.57 70.94, 201.58 79.6, 193.35 86.04 C185.13 92.48, 173.66 98.45, 161.52 102.23 C149.39 106.01, 134.74 107.63, 120.54 108.69 C106.33 109.75, 90.12 110.61, 76.28 108.6 C62.44 106.59, 48.24 101.48, 37.52 96.65 C26.81 91.82, 18.31 86.11, 11.99 79.62 C5.67 73.13, 0.43 65.04, -0.42 57.7 C-1.27 50.37, 1.44 42.64, 6.91 35.59 C12.37 28.54, 21.9 20.56, 32.37 15.41 C42.84 10.27, 56.42 7.21, 69.73 4.73 C83.04 2.25, 105.24 1.08, 112.21 0.55 C119.19 0.02, 111.62 0.71, 111.61 1.56" stroke="#2f9e44" stroke-width="2" fill="none"/></g><g transform="translate(512.277834150474 360.4341221570279) rotate(0 46.6826171875 32.19999999999999)"><text x="46.6826171875" y="0" font-family="Helvetica, Segoe UI Emoji" font-size="28px" fill="#2f9e44" text-anchor="middle" style="white-space: pre;" direction="ltr" dominant-baseline="text-before-edge">Service</text><text x="46.6826171875" y="32.199999999999996" font-family="Helvetica, Segoe UI Emoji" font-size="28px" fill="#2f9e44" text-anchor="middle" style="white-space: pre;" direction="ltr" dominant-baseline="text-before-edge">Module</text></g><g stroke-linecap="round" transform="translate(554.5602167531547 511.52499512228803) rotate(0 78.5 41)"><path d="M20.5 0 C57.28 -1.11, 89.97 -0.68, 136.5 0 C151.6 2.34, 155.37 10.04, 157 20.5 C154.99 31.33, 156.45 41.76, 157 61.5 C156.1 71.82, 148.1 78.5, 136.5 82 C97.61 80.88, 49.04 80.63, 20.5 82 C8.93 84.72, -2.33 74.43, 0 61.5 C3.47 54.78, -2.55 45.42, 0 20.5 C-1.17 7.9, 8.16 -2.97, 20.5 0" stroke="none" stroke-width="0" fill="#a5d8ff"/><path d="M20.5 0 C42.85 -1.07, 66.87 -0.12, 136.5 0 M20.5 0 C57.63 -0.24, 93.79 -1.32, 136.5 0 M136.5 0 C151.01 -1.33, 156 7.32, 157 20.5 M136.5 0 C149.8 -2.1, 157.48 5.82, 157 20.5 M157 20.5 C157.28 29.75, 157.27 40.58, 157 61.5 M157 20.5 C156.27 33.48, 157.43 47.15, 157 61.5 M157 61.5 C155.18 75.68, 152.05 83.49, 136.5 82 M157 61.5 C156.21 76.44, 150.93 80.67, 136.5 82 M136.5 82 C111.23 83.06, 81.01 80.96, 20.5 82 M136.5 82 C91.66 80.18, 45.96 81.51, 20.5 82 M20.5 82 C7.13 83.79, -1.82 75.44, 0 61.5 M20.5 82 C8.98 81.48, 2.01 74.77, 0 61.5 M0 61.5 C0.9 45.21, -1.29 31.62, 0 20.5 M0 61.5 C-0.18 50.41, 0.81 40.63, 0 20.5 M0 20.5 C0.59 6.58, 6.41 -1.43, 20.5 0 M0 20.5 C-0.17 8.18, 6.21 0.8, 20.5 0" stroke="#1e1e1e" stroke-width="2" fill="none"/></g><g transform="translate(559.9088495656547 520.3249951222881) rotate(0 73.1513671875 32.19999999999999)"><text x="73.1513671875" y="0" font-family="Helvetica, Segoe UI Emoji" font-size="28px" fill="#1e1e1e" text-anchor="middle" style="white-space: pre;" direction="ltr" dominant-baseline="text-before-edge">Boot &amp;</text><text x="73.1513671875" y="32.199999999999996" font-family="Helvetica, Segoe UI Emoji" font-size="28px" fill="#1e1e1e" text-anchor="middle" style="white-space: pre;" direction="ltr" dominant-baseline="text-before-edge">Initialization</text></g><g stroke-linecap="round" transform="translate(401.5602167531547 512.524995122288) rotate(0 76 40.5)"><path d="M20.25 0 C50.21 0.8, 78.1 -3.28, 131.75 0 C147.09 -1.14, 148.98 4.09, 152 20.25 C152.2 31.65, 154.8 38.03, 152 60.75 C152.31 73.39, 147.93 78.55, 131.75 81 C90.49 79.57, 51.67 78.48, 20.25 81 C3.61 81.21, -3.52 76.91, 0 60.75 C1.54 52.23, 0.29 44.02, 0 20.25 C-2.5 6.68, 6.04 -2.39, 20.25 0" stroke="none" stroke-width="0" fill="#ffec99"/><path d="M20.25 0 C51.97 0.67, 80.26 0.16, 131.75 0 M20.25 0 C60.53 0.66, 101.02 -0.29, 131.75 0 M131.75 0 C146.81 1.76, 152.98 5.17, 152 20.25 M131.75 0 C146.8 0.52, 153.75 8.39, 152 20.25 M152 20.25 C150.89 32.75, 152.82 44.42, 152 60.75 M152 20.25 C152.58 31.87, 151.51 44.81, 152 60.75 M152 60.75 C150.72 73.97, 146.19 81.28, 131.75 81 M152 60.75 C152.05 73.57, 147.52 79.71, 131.75 81 M131.75 81 C88.81 78.24, 50.1 81.13, 20.25 81 M131.75 81 C98.55 82.61, 63.09 81.15, 20.25 81 M20.25 81 C4.8 81.6, -0.84 74.6, 0 60.75 M20.25 81 C8.41 80.17, -1.8 72.89, 0 60.75 M0 60.75 C-1.5 46.15, 1.04 29.41, 0 20.25 M0 60.75 C-0.87 48.75, -0.24 36.53, 0 20.25 M0 20.25 C-1.26 7.43, 5.02 0.72, 20.25 0 M0 20.25 C1.31 4.95, 7.82 -1.81, 20.25 0" stroke="#1e1e1e" stroke-width="2" fill="none"/></g><g transform="translate(421.5328730031547 520.8249951222881) rotate(0 56.02734375 32.19999999999999)"><text x="56.02734375" y="0" font-family="Helvetica, Segoe UI Emoji" font-size="28px" fill="#1e1e1e" text-anchor="middle" style="white-space: pre;" direction="ltr" dominant-baseline="text-before-edge">Interrupt</text><text x="56.02734375" y="32.199999999999996" font-family="Helvetica, Segoe UI Emoji" font-size="28px" fill="#1e1e1e" text-anchor="middle" style="white-space: pre;" direction="ltr" dominant-baseline="text-before-edge">Handlers</text></g><g stroke-linecap="round" transform="translate(258.5602167531547 512.524995122288) rotate(0 71 40)"><path d="M20 0 C49.26 1.13, 72.67 -2.86, 122 0 C132.72 0.76, 140.38 3.3, 142 20 C145.4 30.37, 145.35 35.7, 142 60 C144.76 71.53, 134.05 78.39, 122 80 C79.88 77.57, 41.47 78.68, 20 80 C4.57 80.25, 2.2 69.9, 0 60 C0.47 46.37, 2.49 32.2, 0 20 C0.58 3.25, 4.6 -1.22, 20 0" stroke="none" stroke-width="0" fill="#a5d8ff"/><path d="M20 0 C53.22 1.93, 82.84 -0.36, 122 0 M20 0 C49.53 -0.06, 79.07 0.46, 122 0 M122 0 C135.72 1.45, 140.54 4.87, 142 20 M122 0 C137.22 1.66, 141.84 7.17, 142 20 M142 20 C141.2 30.28, 141.71 36.55, 142 60 M142 20 C141.51 29.2, 141.35 37.22, 142 60 M142 60 C142.94 71.78, 133.66 81.69, 122 80 M142 60 C142.08 75.04, 133.07 77.88, 122 80 M122 80 C82.89 80.13, 43.26 80.36, 20 80 M122 80 C89.29 79.76, 57.28 80.01, 20 80 M20 80 C8.47 79.02, 0.45 73.54, 0 60 M20 80 C5.25 80.42, 2.05 72.65, 0 60 M0 60 C1.49 49.47, 1.4 41.32, 0 20 M0 60 C-0.5 50.44, -0.97 39.94, 0 20 M0 20 C0.82 6.13, 4.73 1.51, 20 0 M0 20 C0.78 5.3, 4.78 -0.75, 20 0" stroke="#1e1e1e" stroke-width="2" fill="none"/></g><g transform="translate(285.2291620656547 520.3249951222881) rotate(0 44.3310546875 32.19999999999999)"><text x="44.3310546875" y="0" font-family="Helvetica, Segoe UI Emoji" font-size="28px" fill="#1e1e1e" text-anchor="middle" style="white-space: pre;" direction="ltr" dominant-baseline="text-before-edge">Device</text><text x="44.3310546875" y="32.199999999999996" font-family="Helvetica, Segoe UI Emoji" font-size="28px" fill="#1e1e1e" text-anchor="middle" style="white-space: pre;" direction="ltr" dominant-baseline="text-before-edge">Drivers</text></g><g stroke-linecap="round" transform="translate(10 516.892840498843) rotate(0 123.27431363256193 37.5)"><path d="M18.75 0 C78.95 -4.45, 137.08 -4.81, 227.8 0 C238.25 2.94, 245.03 8.55, 246.55 18.75 C245.55 23.73, 249.89 34.75, 246.55 56.25 C246.14 66.92, 240.92 75.04, 227.8 75 C157.4 77.63, 86.26 78.16, 18.75 75 C8.91 77.37, 1.94 67.84, 0 56.25 C-3.08 41.27, -0.93 25.69, 0 18.75 C-0.4 2.75, 8.64 1.79, 18.75 0" stroke="none" stroke-width="0" fill="#a5d8ff"/><path d="M18.75 0 C62.15 2.01, 105.57 -0.88, 227.8 0 M18.75 0 C83.31 1.16, 149.34 0.26, 227.8 0 M227.8 0 C239.39 -1.28, 245.65 5.28, 246.55 18.75 M227.8 0 C238.51 -0.69, 247.3 7.65, 246.55 18.75 M246.55 18.75 C245.05 33.44, 248.47 44.89, 246.55 56.25 M246.55 18.75 C245.86 30.22, 245.6 39.86, 246.55 56.25 M246.55 56.25 C246.01 69.07, 240.25 74.84, 227.8 75 M246.55 56.25 C247.68 68.98, 238.86 73.71, 227.8 75 M227.8 75 C165.61 77.37, 101.72 75.21, 18.75 75 M227.8 75 C170.43 74.85, 114.27 75.25, 18.75 75 M18.75 75 C5.17 75.02, -1.47 67.88, 0 56.25 M18.75 75 C7.13 74.09, 2.29 66.81, 0 56.25 M0 56.25 C0.55 45.38, -0.09 36.64, 0 18.75 M0 56.25 C-1.11 44.42, 0.4 33.78, 0 18.75 M0 18.75 C0.87 7.35, 6.77 0.61, 18.75 0 M0 18.75 C0.31 4.04, 6.45 0.76, 18.75 0" stroke="#1e1e1e" stroke-width="2" fill="none"/></g><g transform="translate(18.095602695061928 522.192840498843) rotate(0 115.1787109375 32.19999999999999)"><text x="115.1787109375" y="0" font-family="Helvetica, Segoe UI Emoji" font-size="28px" fill="#1e1e1e" text-anchor="middle" style="white-space: pre;" direction="ltr" dominant-baseline="text-before-edge">Extensions &amp; add’l</text><text x="115.1787109375" y="32.199999999999996" font-family="Helvetica, Segoe UI Emoji" font-size="28px" fill="#1e1e1e" text-anchor="middle" style="white-space: pre;" direction="ltr" dominant-baseline="text-before-edge">device drivers</text></g><g stroke-linecap="round" transform="translate(48.17074973553838 19.950676466037635) rotate(0 48.509547771933 42.29037498065955)"><path d="M21.15 0 C38.88 -1.25, 57.29 -1.15, 75.87 0 C87.39 -0.21, 100.34 5.97, 97.02 21.15 C94.72 32.1, 97.73 52.76, 97.02 63.44 C99.2 74.03, 87.62 82.7, 75.87 84.58 C58.74 81.51, 37.95 87.17, 21.15 84.58 C5.54 82.29, -2.25 76.57, 0 63.44 C2.09 56.58, -2.08 44.54, 0 21.15 C-1.29 5.84, 9.19 0.67, 21.15 0" stroke="none" stroke-width="0" fill="#ffc9c9"/><path d="M21.15 0 C40.63 -0.37, 59.85 -1.07, 75.87 0 M21.15 0 C36.63 0.18, 51.71 0.01, 75.87 0 M75.87 0 C89.98 0.28, 98.21 6.54, 97.02 21.15 M75.87 0 C90 -1.46, 98.79 8.97, 97.02 21.15 M97.02 21.15 C96.83 37.09, 96.67 53.31, 97.02 63.44 M97.02 21.15 C96.3 32.7, 96.85 43.16, 97.02 63.44 M97.02 63.44 C97.05 78.83, 89.08 84.68, 75.87 84.58 M97.02 63.44 C96.82 76.2, 90.87 83.29, 75.87 84.58 M75.87 84.58 C56.69 85.79, 38.88 85.71, 21.15 84.58 M75.87 84.58 C55.08 83.82, 32.79 85.56, 21.15 84.58 M21.15 84.58 C6.38 82.64, -1.59 77.52, 0 63.44 M21.15 84.58 C5.86 86.5, 1.92 79.39, 0 63.44 M0 63.44 C-1.62 47.14, 1.99 32.64, 0 21.15 M0 63.44 C0.87 49.9, -0.61 34, 0 21.15 M0 21.15 C-0.25 8, 5.92 0.83, 21.15 0 M0 21.15 C0.78 5.51, 7.52 1.88, 21.15 0" stroke="#1e1e1e" stroke-width="2" fill="none"/></g><g transform="translate(71.77014125747138 46.14105144669719) rotate(0 24.91015625 16.099999999999994)"><text x="24.91015625" y="0" font-family="Helvetica, Segoe UI Emoji" font-size="28px" fill="#1e1e1e" text-anchor="middle" style="white-space: pre;" direction="ltr" dominant-baseline="text-before-edge">App</text></g><g stroke-linecap="round"><g transform="translate(95.43646294921666 102.0437573108473) rotate(0 -0.6219172791273877 202.12311571638762)"><path d="M-1.11 0.92 C-1.04 67.93, -0.11 335.97, -0.26 403.08 M0.51 0.36 C0.57 67.98, -0.69 336.65, -0.7 404.01" stroke="#1e1e1e" stroke-width="2" fill="none"/></g><g transform="translate(95.43646294921666 102.0437573108473) rotate(0 -0.6219172791273877 202.12311571638762)"><path d="M-9.19 380.49 C-5.39 387.9, -6.81 390.65, -0.7 404.01 M-9.19 380.49 C-7.59 386.59, -4 392.14, -0.7 404.01" stroke="#1e1e1e" stroke-width="2" fill="none"/></g><g transform="translate(95.43646294921666 102.0437573108473) rotate(0 -0.6219172791273877 202.12311571638762)"><path d="M7.91 380.54 C7.57 387.77, 2.01 390.52, -0.7 404.01 M7.91 380.54 C5.34 386.55, 4.76 392.08, -0.7 404.01" stroke="#1e1e1e" stroke-width="2" fill="none"/></g></g><mask/><g stroke-linecap="round" transform="translate(232.25826435723286 16.21917279127348) rotate(0 46.64379593455101 36.693119468513444)"><path d="M18.35 0 C36.52 2.37, 63.37 -3.84, 74.94 0 C84.81 -2.79, 89.75 6.65, 93.29 18.35 C91.72 29.25, 91.05 38.67, 93.29 55.04 C92.97 68.52, 86.06 70.63, 74.94 73.39 C51.55 72.02, 28.85 76.82, 18.35 73.39 C8.17 71.79, 0.34 69.44, 0 55.04 C1.16 44.32, 0.44 38.33, 0 18.35 C-0.65 6.65, 7.06 0.71, 18.35 0" stroke="none" stroke-width="0" fill="#ffc9c9"/><path d="M18.35 0 C31.98 2.02, 46.22 -1.58, 74.94 0 M18.35 0 C31.34 -0.36, 44.57 0.13, 74.94 0 M74.94 0 C86.98 1.71, 91.64 4.33, 93.29 18.35 M74.94 0 C86.67 -1.99, 92.67 6.73, 93.29 18.35 M93.29 18.35 C93.08 26.85, 93.81 36.82, 93.29 55.04 M93.29 18.35 C94.23 29.39, 93.93 41.29, 93.29 55.04 M93.29 55.04 C93.42 68.63, 88.09 71.98, 74.94 73.39 M93.29 55.04 C91.45 65.65, 85.75 71.74, 74.94 73.39 M74.94 73.39 C60.36 74.45, 43.89 73.01, 18.35 73.39 M74.94 73.39 C61.36 72.63, 47.4 73.33, 18.35 73.39 M18.35 73.39 C6.01 74.9, 1.17 67.27, 0 55.04 M18.35 73.39 C4.44 72.57, -0.13 66.93, 0 55.04 M0 55.04 C1.69 44.7, 1.26 38.92, 0 18.35 M0 55.04 C-0.19 45.06, 0.55 36.37, 0 18.35 M0 18.35 C1.72 5.62, 7.62 -1.32, 18.35 0 M0 18.35 C0.8 7.37, 6.51 -1.59, 18.35 0" stroke="#1e1e1e" stroke-width="2" fill="none"/></g><g transform="translate(253.99190404178387 36.81229225978694) rotate(0 24.91015625 16.099999999999994)"><text x="24.91015625" y="0" font-family="Helvetica, Segoe UI Emoji" font-size="28px" fill="#1e1e1e" text-anchor="middle" style="white-space: pre;" direction="ltr" dominant-baseline="text-before-edge">App</text></g><g stroke-linecap="round" transform="translate(377.7869076730319 10) rotate(0 44.77804409716896 41.04654042240489)"><path d="M20.52 0 C35.43 -0.24, 50.28 -1.64, 69.03 0 C84.05 -1.56, 86.63 10.17, 89.56 20.52 C88.83 32.28, 87.59 47.56, 89.56 61.57 C89.95 76.99, 80.96 78.97, 69.03 82.09 C54.17 86.56, 41.43 79.89, 20.52 82.09 C9.68 82.26, -0.48 72.78, 0 61.57 C3.96 49.21, -1.78 31.76, 0 20.52 C-1.13 9, 9.81 3.19, 20.52 0" stroke="none" stroke-width="0" fill="#ffc9c9"/><path d="M20.52 0 C38.7 0.61, 54.11 0.22, 69.03 0 M20.52 0 C35.08 0.13, 50.04 0.92, 69.03 0 M69.03 0 C81.81 0.59, 89.17 8.8, 89.56 20.52 M69.03 0 C80.83 -1.62, 91.04 4.8, 89.56 20.52 M89.56 20.52 C90.14 36.08, 88.95 48.2, 89.56 61.57 M89.56 20.52 C88.41 30.01, 90.01 37.8, 89.56 61.57 M89.56 61.57 C90.38 76.73, 82.07 83, 69.03 82.09 M89.56 61.57 C91.23 75.81, 84.15 82.7, 69.03 82.09 M69.03 82.09 C51.79 82.12, 30.76 82.75, 20.52 82.09 M69.03 82.09 C51.69 83.24, 35.3 82.47, 20.52 82.09 M20.52 82.09 C6.52 82.33, 0.9 74.05, 0 61.57 M20.52 82.09 C5.02 81.23, -2.27 74.08, 0 61.57 M0 61.57 C0.39 48.24, 0.12 34.54, 0 20.52 M0 61.57 C0.03 47.65, 0.48 35.13, 0 20.52 M0 20.52 C-0.93 5.21, 8.29 -1.93, 20.52 0 M0 20.52 C-1.44 6.58, 6.76 -1.79, 20.52 0" stroke="#1e1e1e" stroke-width="2" fill="none"/></g><g transform="translate(397.6547955202009 34.946540422404894) rotate(0 24.91015625 16.099999999999994)"><text x="24.91015625" y="0" font-family="Helvetica, Segoe UI Emoji" font-size="28px" fill="#1e1e1e" text-anchor="middle" style="white-space: pre;" direction="ltr" dominant-baseline="text-before-edge">App</text></g><g transform="translate(502.4966318161628 27.22597364087062) rotate(0 90.9797134399414 23.679457375348363)"><text x="90.9797134399414" y="0" font-family="Helvetica, Segoe UI Emoji" font-size="20.590832500302927px" fill="#1e1e1e" text-anchor="middle" style="white-space: pre;" direction="ltr" dominant-baseline="text-before-edge">Monolithic Structure</text><text x="90.9797134399414" y="23.679457375348363" font-family="Helvetica, Segoe UI Emoji" font-size="20.590832500302927px" fill="#1e1e1e" text-anchor="middle" style="white-space: pre;" direction="ltr" dominant-baseline="text-before-edge">(e.g., UNIX)</text></g></svg>