<svg version="1.1" xmlns="http://www.w3.org/2000/svg" viewBox="0 0 757.586368783472 583.5997044677628" width="757.586368783472" height="583.5997044677628" class="excalidraw-svg">
  <!-- svg-source:excalidraw -->
  
  <defs>
    <style class="style-fonts">
      @font-face {
        font-family: "Virgil";
        src: url("https://excalidraw.com/Virgil.woff2");
      }
      @font-face {
        font-family: "Cascadia";
        src: url("https://excalidraw.com/Cascadia.woff2");
      }
      @font-face {
        font-family: "Assistant";
        src: url("https://excalidraw.com/Assistant-Regular.woff2");
      }
    </style>
    
  </defs>
  <rect x="0" y="0" width="757.586368783472" height="583.5997044677628" fill="#ffffff"/><g stroke-linecap="round" transform="translate(685.0057680445908 15.702230817775558) rotate(0 28.43987654138607 165.5453649171662)"><path d="M14.22 0 C26.89 -2.2, 36.1 2.65, 42.66 0 C53.28 0.55, 54.34 5.49, 56.88 14.22 C60.98 112.76, 58.69 214, 56.88 316.87 C55.97 323.92, 48.8 332.33, 42.66 331.09 C38.91 330.67, 29.55 328.46, 14.22 331.09 C5.15 328.89, 0 322.8, 0 316.87 C0.85 252.39, -0.5 191.42, 0 14.22 C-3.41 1.54, 2.39 -0.55, 14.22 0" stroke="none" stroke-width="0" fill="#b2f2bb"/><path d="M14.22 0 C23.13 -1.98, 32.36 -0.04, 42.66 0 M14.22 0 C21.46 -0.92, 27.07 -0.26, 42.66 0 M42.66 0 C52.17 1.83, 54.92 4.77, 56.88 14.22 M42.66 0 C52.8 -0.71, 58.66 6.03, 56.88 14.22 M56.88 14.22 C57.87 108.68, 56.66 200.65, 56.88 316.87 M56.88 14.22 C58.86 89.32, 58.88 164.86, 56.88 316.87 M56.88 316.87 C56.69 328.03, 52.71 330.34, 42.66 331.09 M56.88 316.87 C55.59 325.18, 52.65 331.78, 42.66 331.09 M42.66 331.09 C34.12 331.42, 26.57 332.36, 14.22 331.09 M42.66 331.09 C34.06 331.72, 24.12 331.74, 14.22 331.09 M14.22 331.09 C3.96 332.42, -1.24 326.94, 0 316.87 M14.22 331.09 C3.37 333.21, -0.77 327.29, 0 316.87 M0 316.87 C0.73 216.23, -0.46 117.51, 0 14.22 M0 316.87 C-1.03 206.64, -0.06 96.98, 0 14.22 M0 14.22 C0.84 6.08, 6.57 -1.79, 14.22 0 M0 14.22 C-0.33 5.02, 3.84 0.76, 14.22 0" stroke="#1e1e1e" stroke-width="2" fill="none"/></g><g stroke-linecap="round" transform="translate(207.35189878995385 12.31881725540137) rotate(0 28.43987654138607 165.5453649171662)"><path d="M14.22 0 C19.54 -0.25, 25.87 -2.94, 42.66 0 C51.72 -0.97, 57.97 1.36, 56.88 14.22 C55 80.42, 52.8 143.81, 56.88 316.87 C58.01 325.88, 51.79 331.48, 42.66 331.09 C30.69 333.37, 24.24 332.08, 14.22 331.09 C2.37 328.3, -1.13 329.47, 0 316.87 C-1.59 204.73, -1.66 95.06, 0 14.22 C-2.58 5.54, 5.4 -2.63, 14.22 0" stroke="none" stroke-width="0" fill="#b2f2bb"/><path d="M14.22 0 C20.12 -1.61, 26.03 -1.18, 42.66 0 M14.22 0 C23.36 -0.75, 33.26 0.31, 42.66 0 M42.66 0 C53.36 1.74, 55.04 5.79, 56.88 14.22 M42.66 0 C53.38 -0.96, 57.25 6.62, 56.88 14.22 M56.88 14.22 C56.63 74.9, 58.06 137.06, 56.88 316.87 M56.88 14.22 C58.31 123.9, 58.77 232.56, 56.88 316.87 M56.88 316.87 C56.8 327.84, 51.46 330.91, 42.66 331.09 M56.88 316.87 C56.74 326.43, 51.22 329.7, 42.66 331.09 M42.66 331.09 C37.28 329.43, 30.75 331.43, 14.22 331.09 M42.66 331.09 C30.82 331.73, 19.84 330.93, 14.22 331.09 M14.22 331.09 C3.08 330.83, 0.28 324.46, 0 316.87 M14.22 331.09 C3.56 333.22, 2.08 326.36, 0 316.87 M0 316.87 C-1.04 243.33, -2.06 167.43, 0 14.22 M0 316.87 C-0.72 238.6, -0.58 160.55, 0 14.22 M0 14.22 C1.08 6.02, 4.52 -1.18, 14.22 0 M0 14.22 C-1.43 2.45, 6.64 2.16, 14.22 0" stroke="#1e1e1e" stroke-width="2" fill="none"/></g><g stroke-linecap="round" transform="translate(10.421898530709427 10) rotate(0 129.71182250976562 166.95912170410156)"><path d="M32 0 C96.35 1.96, 164.21 0.88, 227.42 0 M32 0 C107.46 -0.5, 180.53 -0.35, 227.42 0 M227.42 0 C247.36 0.62, 259.52 11.02, 259.42 32 M227.42 0 C249.06 1.32, 258.3 10.68, 259.42 32 M259.42 32 C256.83 87.01, 256.9 143.41, 259.42 301.92 M259.42 32 C257.08 126.69, 257.23 220.1, 259.42 301.92 M259.42 301.92 C259.17 324.11, 248.11 333.54, 227.42 333.92 M259.42 301.92 C259.42 321.39, 247.45 332.91, 227.42 333.92 M227.42 333.92 C183.43 333.88, 140.81 336.85, 32 333.92 M227.42 333.92 C168.15 334.04, 108.99 334.69, 32 333.92 M32 333.92 C8.76 333.28, 0.95 321.35, 0 301.92 M32 333.92 C12.54 331.74, 1.26 323.08, 0 301.92 M0 301.92 C-0.53 206.91, -3.04 112.62, 0 32 M0 301.92 C-0.73 201.71, -1.02 101.49, 0 32 M0 32 C-0.1 8.88, 9.96 -2, 32 0 M0 32 C-0.89 9.69, 9.41 -2.17, 32 0" stroke="#1e1e1e" stroke-width="2" fill="none"/></g><g stroke-linecap="round"><g transform="translate(204.2949103606403 13.748254110411551) rotate(0 -0.1335801126058982 167.6422412113251)"><path d="M0.9 0.93 C0.81 56.97, -0.01 280.61, -0.05 336.35 M-0.08 0.37 C-0.36 56.1, -0.96 278.72, -0.89 334.78" stroke="#1e1e1e" stroke-width="2" fill="none"/></g></g><mask/><g stroke-linecap="round"><g transform="translate(13.094258296867679 68.66428798818134) rotate(0 128.97445625333916 1.1646349378438003)"><path d="M0.49 0.67 C43.32 0.96, 214.64 1.21, 257.37 1.29 M-0.71 -0.02 C41.87 0.41, 212.8 1.97, 256.12 2.28" stroke="#1e1e1e" stroke-width="2" fill="none"/></g></g><mask/><g stroke-linecap="round"><g transform="translate(10.268196895718575 124.64654730810571) rotate(0 129.22020403608528 0.7585986400569027)"><path d="M-0.27 -0.53 C42.56 -0.37, 215.04 0.53, 258.02 0.76 M1.79 1.8 C44.33 2.13, 213.81 1.9, 256.85 1.9" stroke="#1e1e1e" stroke-width="2" fill="none"/></g></g><mask/><g stroke-linecap="round"><g transform="translate(10.497866296399764 175.82068458284692) rotate(0 128.82487395953117 0.6811595131682964)"><path d="M-0.48 -1.11 C42.51 -0.89, 215.44 0.11, 258.51 0.5 M1.47 0.91 C44.33 1.34, 215.38 1.33, 258.01 1.58" stroke="#1e1e1e" stroke-width="2" fill="none"/></g></g><mask/><g stroke-linecap="round"><g transform="translate(11.59302509752456 222.3523604882779) rotate(0 129.3511171184908 0.9562827285496383)"><path d="M0.91 1.11 C44.06 1.46, 215.92 2.41, 258.93 2.69 M-0.07 0.64 C42.94 0.61, 215.03 0.93, 258.1 0.97" stroke="#1e1e1e" stroke-width="2" fill="none"/></g></g><mask/><g stroke-linecap="round"><g transform="translate(12.015101676944994 265.8923143166868) rotate(0 128.65928948452114 0.6197035172660321)"><path d="M0.53 -0.32 C43.45 -0.16, 215.41 1.29, 258.15 1.57 M-0.66 -1.54 C42.13 -1.8, 214.86 -1.1, 257.64 -0.38" stroke="#1e1e1e" stroke-width="2" fill="none"/></g></g><mask/><g stroke-linecap="round"><g transform="translate(11.897599946404057 305.6766324178318) rotate(0 128.5337104625163 0.5262431589596304)"><path d="M-0.56 -0.04 C42.38 -0.16, 214.25 -0.05, 257.17 0.21 M1.34 -1.11 C44.17 -1.18, 213.81 1.22, 256.27 1.31" stroke="#1e1e1e" stroke-width="2" fill="none"/></g></g><mask/><g stroke-linecap="round" transform="translate(288.6781840951345 457.2544744225519) rotate(0 120.99306357535323 58.17261502260544)"><path d="M29.09 0 C71.85 0.53, 106.56 0.3, 212.9 0 C231.05 -3.08, 245.52 8.49, 241.99 29.09 C244.67 44.54, 244.97 53.2, 241.99 87.26 C240.51 109.81, 233.44 113.34, 212.9 116.35 C143.22 116.37, 74.1 115.91, 29.09 116.35 C11.12 114.11, 0.4 104.4, 0 87.26 C-1.5 66.01, 1.86 42.68, 0 29.09 C0.73 10.73, 13.28 -1.53, 29.09 0" stroke="none" stroke-width="0" fill="#ffec99"/><path d="M29.09 0 C74.06 0.17, 120.12 -2.01, 212.9 0 M29.09 0 C67.98 0.7, 106.58 0.98, 212.9 0 M212.9 0 C234.1 0.3, 242 10.22, 241.99 29.09 M212.9 0 C230.38 -1.5, 243.94 8.68, 241.99 29.09 M241.99 29.09 C242.69 42.86, 241.14 59.42, 241.99 87.26 M241.99 29.09 C242.31 44.35, 240.86 59.8, 241.99 87.26 M241.99 87.26 C242.28 105.37, 233.37 116.34, 212.9 116.35 M241.99 87.26 C243.02 104.79, 230.73 118.58, 212.9 116.35 M212.9 116.35 C141.83 115.81, 71.38 113.74, 29.09 116.35 M212.9 116.35 C142.67 115.62, 71.27 115.46, 29.09 116.35 M29.09 116.35 C9.21 115.39, -1.49 107.43, 0 87.26 M29.09 116.35 C10.57 117.16, 0.76 107.99, 0 87.26 M0 87.26 C0.77 66.63, 0.28 44.52, 0 29.09 M0 87.26 C0.76 63.45, 0.27 41.29, 0 29.09 M0 29.09 C-0.21 10.66, 11.4 1.21, 29.09 0 M0 29.09 C1.08 7.58, 10.71 -1.25, 29.09 0" stroke="#1e1e1e" stroke-width="2" fill="none"/></g><g transform="translate(348.96812267048773 499.3270894451573) rotate(0 60.703125 16.099999999999994)"><text x="60.703125" y="0" font-family="Helvetica, Segoe UI Emoji" font-size="28px" fill="#1e1e1e" text-anchor="middle" style="white-space: pre;" direction="ltr" dominant-baseline="text-before-edge">File inode</text></g><g stroke-linecap="round" transform="translate(486.8645737430296 13.880174043478405) rotate(0 129.71182250976562 166.95912170410156)"><path d="M32 0 C100.91 0.23, 169.12 1.24, 227.42 0 M32 0 C73.42 0.49, 113.22 -0.55, 227.42 0 M227.42 0 C250.17 1.95, 258.41 10.61, 259.42 32 M227.42 0 C248.42 -2.11, 258.67 12.39, 259.42 32 M259.42 32 C257.77 111.83, 257.81 192.85, 259.42 301.92 M259.42 32 C256.76 102.11, 257.4 171.53, 259.42 301.92 M259.42 301.92 C258.64 325.08, 247.63 335.01, 227.42 333.92 M259.42 301.92 C261.71 321.88, 247.74 333.18, 227.42 333.92 M227.42 333.92 C183.42 336.76, 139.03 336.72, 32 333.92 M227.42 333.92 C185.42 334.56, 143.75 334.55, 32 333.92 M32 333.92 C11.48 332.36, -0.33 324.94, 0 301.92 M32 333.92 C12.09 333.29, 1.51 324.52, 0 301.92 M0 301.92 C-2.9 208.23, -0.17 113.36, 0 32 M0 301.92 C1.5 220.27, -0.03 137.53, 0 32 M0 32 C-0.21 12.46, 11.29 -1.63, 32 0 M0 32 C2.1 10.49, 9.49 -2.2, 32 0" stroke="#1e1e1e" stroke-width="2" fill="none"/></g><g stroke-linecap="round"><g transform="translate(681.4760865486821 13.94447446966467) rotate(0 -0.1335801126058982 167.6422412113251)"><path d="M-0.87 -0.74 C-0.79 54.99, -0.61 278.22, -0.53 334.19 M0.88 1.49 C0.87 57.33, -1.27 279.36, -1.61 335.16" stroke="#1e1e1e" stroke-width="2" fill="none"/></g></g><mask/><g stroke-linecap="round"><g transform="translate(489.53693350918786 72.54446203165978) rotate(0 128.97445625333916 1.1646349378438003)"><path d="M-0.26 -1.09 C42.86 -0.61, 214.7 1.52, 257.84 2.12 M1.81 0.95 C44.83 1.68, 214.11 3.05, 256.84 3.55" stroke="#1e1e1e" stroke-width="2" fill="none"/></g></g><mask/><g stroke-linecap="round"><g transform="translate(486.71087210803876 128.52672135158414) rotate(0 129.22020403608528 0.7585986400569027)"><path d="M-0.1 -0.21 C43.12 0.26, 216.12 1.59, 259.11 1.7 M-1.62 -1.36 C41.53 -0.58, 215.45 2.91, 258.51 3.34" stroke="#1e1e1e" stroke-width="2" fill="none"/></g></g><mask/><g stroke-linecap="round"><g transform="translate(486.94054150871995 179.70085862632536) rotate(0 128.82487395953117 0.6811595131682964)"><path d="M0.67 0.19 C43.53 0.27, 214.09 -0.09, 257.06 0.3 M-0.44 -0.76 C42.83 -0.55, 216.36 1.02, 259.46 1.28" stroke="#1e1e1e" stroke-width="2" fill="none"/></g></g><mask/><g stroke-linecap="round"><g transform="translate(488.03570030984474 226.23253453175633) rotate(0 129.3511171184908 0.9562827285496383)"><path d="M-0.59 -1.06 C42.56 -0.58, 216.44 2.59, 259.55 3.08 M1.3 1 C44.31 1.16, 216.43 1.21, 259.05 1.57" stroke="#1e1e1e" stroke-width="2" fill="none"/></g></g><mask/><g stroke-linecap="round"><g transform="translate(488.4577768892652 269.7724883601652) rotate(0 128.65928948452114 0.6197035172660321)"><path d="M0.85 1.17 C43.73 1.55, 213.99 1.38, 256.71 1.21 M-0.17 0.74 C43.17 1.41, 216.36 2.7, 259.1 2.73" stroke="#1e1e1e" stroke-width="2" fill="none"/></g></g><mask/><g stroke-linecap="round"><g transform="translate(488.34027515872424 309.5568064613102) rotate(0 128.5337104625163 0.5262431589596304)"><path d="M-0.61 -0.03 C42.06 -0.23, 214.01 -0.38, 256.89 -0.05 M1.27 -1.09 C43.7 -0.68, 213.44 0.72, 255.85 0.91" stroke="#1e1e1e" stroke-width="2" fill="none"/></g></g><mask/><g stroke-linecap="round"><g transform="translate(237.79600482031503 294.11889606718) rotate(0 26.007623852006084 73.05748631054007)"><path d="M1.13 0.93 C10.16 25.32, 44.45 121.93, 53.01 146.25 M0.27 0.37 C9.32 24.98, 43.96 123.77, 52.58 147.86" stroke="#1e1e1e" stroke-width="2" fill="none"/></g><g transform="translate(237.79600482031503 294.11889606718) rotate(0 26.007623852006084 73.05748631054007)"><path d="M36.68 128.57 C41.48 134.04, 43.43 137.14, 52.58 147.86 M36.68 128.57 C42.84 135.42, 47.84 142.1, 52.58 147.86" stroke="#1e1e1e" stroke-width="2" fill="none"/></g><g transform="translate(237.79600482031503 294.11889606718) rotate(0 26.007623852006084 73.05748631054007)"><path d="M52.8 122.86 C54.28 129.66, 52.92 133.93, 52.58 147.86 M52.8 122.86 C53.12 131.63, 52.3 140.37, 52.58 147.86" stroke="#1e1e1e" stroke-width="2" fill="none"/></g></g><mask/><g stroke-linecap="round"><g transform="translate(693.272154238303 257.20382797328955) rotate(0 -82.55136772179553 91.3870218074801)"><path d="M-0.27 -0.15 C-28.11 30.24, -138.67 151.96, -165.95 182.56 M1.78 -1.27 C-25.77 29.28, -136.03 153.53, -163.68 183.99" stroke="#1e1e1e" stroke-width="2" fill="none"/></g><g transform="translate(693.272154238303 257.20382797328955) rotate(0 -82.55136772179553 91.3870218074801)"><path d="M-154.37 160.79 C-158.19 168.38, -161.93 180.69, -163.68 183.99 M-154.37 160.79 C-158.48 169.72, -160.92 176.35, -163.68 183.99" stroke="#1e1e1e" stroke-width="2" fill="none"/></g><g transform="translate(693.272154238303 257.20382797328955) rotate(0 -82.55136772179553 91.3870218074801)"><path d="M-141.64 172.2 C-150.44 175.33, -159.13 183.19, -163.68 183.99 M-141.64 172.2 C-150.21 177.07, -157.19 179.64, -163.68 183.99" stroke="#1e1e1e" stroke-width="2" fill="none"/></g></g><mask/></svg>