<svg version="1.1" xmlns="http://www.w3.org/2000/svg" viewBox="0 0 1214.5226433741245 672.099083280762" width="1214.5226433741245" height="672.099083280762" class="excalidraw-svg">
  <!-- svg-source:excalidraw -->
  
  <defs>
    <style class="style-fonts">
      @font-face {
        font-family: "Virgil";
        src: url("https://excalidraw.com/Virgil.woff2");
      }
      @font-face {
        font-family: "Cascadia";
        src: url("https://excalidraw.com/Cascadia.woff2");
      }
      @font-face {
        font-family: "Assistant";
        src: url("https://excalidraw.com/Assistant-Regular.woff2");
      }
    </style>
    
  </defs>
  <rect x="0" y="0" width="1214.5226433741245" height="672.099083280762" fill="#ffffff"/><g stroke-linecap="round" transform="translate(100.18231432163361 10.098833989638365) rotate(0 322.625732421875 77.77447509765625)"><path d="M32 0 C151.28 -2.18, 271.35 -0.73, 613.25 0 M32 0 C161.34 -0.18, 291.1 -0.13, 613.25 0 M613.25 0 C634.31 0.12, 645.55 9.1, 645.25 32 M613.25 0 C635.36 -2.02, 644.96 9.9, 645.25 32 M645.25 32 C646.3 53.13, 645.84 76.96, 645.25 123.55 M645.25 32 C646.79 56.32, 646.3 79.09, 645.25 123.55 M645.25 123.55 C643.32 145.36, 634.35 155.87, 613.25 155.55 M645.25 123.55 C645.21 144.33, 634.96 157.09, 613.25 155.55 M613.25 155.55 C430.14 155.52, 246.27 155.14, 32 155.55 M613.25 155.55 C419.24 153.16, 224.75 153.2, 32 155.55 M32 155.55 C11.04 155.38, -1.54 144.67, 0 123.55 M32 155.55 C11.43 154.17, 2.19 146.16, 0 123.55 M0 123.55 C1.11 102.98, 0.73 84.94, 0 32 M0 123.55 C0.26 104.54, 0.48 84.37, 0 32 M0 32 C-0.36 9.47, 9.67 0.1, 32 0 M0 32 C-1.71 8.9, 11.67 0.7, 32 0" stroke="#1e1e1e" stroke-width="2" fill="none"/></g><g stroke-linecap="round"><g transform="translate(101.15368883335236 52.27775855018524) rotate(0 322.3646545410156 -0.3038177490234375)"><path d="M0.29 -0.26 C107.65 -0.33, 536.32 -1.57, 643.54 -1.44 M-1.02 -1.45 C106.74 -1.3, 537.81 -0.38, 645.63 -0.35" stroke="#1e1e1e" stroke-width="2" fill="none"/></g></g><mask/><g stroke-linecap="round"><g transform="translate(99.46819491856007 98.92005175363178) rotate(0 322.3646545410156 -0.3038177490234375)"><path d="M0.19 -0.93 C107.67 -1.09, 536.42 -0.42, 644.01 -0.25 M-1.17 1.2 C106.77 0.6, 538.56 -1.67, 646.35 -2.18" stroke="#1e1e1e" stroke-width="2" fill="none"/></g></g><mask/><g transform="translate(127.43585436069611 19.217547368544615) rotate(0 33.8916015625 11.5)"><text x="0" y="0" font-family="Helvetica, Segoe UI Emoji" font-size="20px" fill="#1e1e1e" text-anchor="start" style="white-space: pre;" direction="ltr" dominant-baseline="text-before-edge">User ID</text></g><g transform="translate(241.2208885403836 18.94798560096649) rotate(0 65.0341796875 11.5)"><text x="0" y="0" font-family="Helvetica, Segoe UI Emoji" font-size="20px" fill="#1e1e1e" text-anchor="start" style="white-space: pre;" direction="ltr" dominant-baseline="text-before-edge">Last Accessed</text></g><g transform="translate(429.7957176419461 18.43876929237274) rotate(0 59.4775390625 11.5)"><text x="0" y="0" font-family="Helvetica, Segoe UI Emoji" font-size="20px" fill="#1e1e1e" text-anchor="start" style="white-space: pre;" direction="ltr" dominant-baseline="text-before-edge">Last Modified</text></g><g transform="translate(620.6513084622586 17.91673560096649) rotate(0 35.576171875 11.5)"><text x="0" y="0" font-family="Helvetica, Segoe UI Emoji" font-size="20px" fill="#1e1e1e" text-anchor="start" style="white-space: pre;" direction="ltr" dominant-baseline="text-before-edge">Created</text></g><g transform="translate(128.8949608060086 66.71110815956024) rotate(0 64.47265625 11.5)"><text x="0" y="0" font-family="Helvetica, Segoe UI Emoji" font-size="20px" fill="#1e1e1e" text-anchor="start" style="white-space: pre;" direction="ltr" dominant-baseline="text-before-edge">Protection Bits</text></g><g transform="translate(304.66259996616486 65.51726050331024) rotate(0 73.37890625 11.5)"><text x="0" y="0" font-family="Helvetica, Segoe UI Emoji" font-size="20px" fill="#1e1e1e" text-anchor="start" style="white-space: pre;" direction="ltr" dominant-baseline="text-before-edge">Reference count</text></g><g transform="translate(506.32715074741486 64.72987647010711) rotate(0 21.6845703125 11.5)"><text x="0" y="0" font-family="Helvetica, Segoe UI Emoji" font-size="20px" fill="#1e1e1e" text-anchor="start" style="white-space: pre;" direction="ltr" dominant-baseline="text-before-edge">Type</text></g><g transform="translate(612.9618553372586 63.92967505409149) rotate(0 19.453125 11.5)"><text x="0" y="0" font-family="Helvetica, Segoe UI Emoji" font-size="20px" fill="#1e1e1e" text-anchor="start" style="white-space: pre;" direction="ltr" dominant-baseline="text-before-edge">Size</text></g><g stroke-linecap="round"><g transform="translate(216.32519762241486 10.15446753456024) rotate(0 -0.00213623046875 20.738571166992188)"><path d="M-0.5 0.41 C-0.39 7.31, 0.06 34.33, 0.15 41.14 M0.24 0.15 C0.34 7.13, -0.11 34.73, -0.21 41.67" stroke="#1e1e1e" stroke-width="2" fill="none"/></g></g><mask/><g stroke-linecap="round"><g transform="translate(403.2568992825711 10.334185552138365) rotate(0 -0.1904296875 20.173736572265625)"><path d="M0.04 0.09 C-0.04 6.78, -0.69 33.42, -0.72 40.07 M-0.6 -0.33 C-0.48 6.42, 0.3 33.84, 0.33 40.62" stroke="#1e1e1e" stroke-width="2" fill="none"/></g></g><mask/><g stroke-linecap="round"><g transform="translate(585.2170918611796 10.716952981217759) rotate(0 -0.1904296875 20.173736572265625)"><path d="M0.18 0.18 C0.12 6.8, -0.26 33.2, -0.39 39.9 M-0.39 -0.21 C-0.52 6.46, -0.71 33.5, -0.82 40.37" stroke="#1e1e1e" stroke-width="2" fill="none"/></g></g><mask/><g stroke-linecap="round"><g transform="translate(586.1535057278836 52.12797827674774) rotate(0 -0.0599365234375 23.252532958984375)"><path d="M0.53 -0.11 C0.5 7.65, -0.38 38.28, -0.56 46.12 M0.13 -0.64 C0.31 7.21, 0.37 38.83, 0.44 46.62" stroke="#1e1e1e" stroke-width="2" fill="none"/></g></g><mask/><g stroke-linecap="round"><g transform="translate(480.12634508335236 50.018389653700865) rotate(0 -0.250335693359375 24.73095703125)"><path d="M-0.11 0.52 C-0.34 8.89, -0.96 41.63, -1.01 49.87 M-0.83 0.31 C-0.93 8.55, -0.05 40.97, -0.04 49.12" stroke="#1e1e1e" stroke-width="2" fill="none"/></g></g><mask/><g stroke-linecap="round"><g transform="translate(281.0034813138211 54.01506323768524) rotate(0 0.2589111328125 22.422393798828125)"><path d="M0.47 0.49 C0.65 7.94, 1.01 37.51, 0.93 44.86 M0.04 0.27 C0.2 7.79, 0.54 38.1, 0.71 45.57" stroke="#1e1e1e" stroke-width="2" fill="none"/></g></g><mask/><g stroke-linecap="round"><g transform="translate(154.4411033841336 100.46022314979461) rotate(0 0.421478271484375 33.02593994140625)"><path d="M0.76 0.68 C0.79 11.46, 1.05 54.19, 0.91 65.14 M-0.3 0 C-0.48 10.85, -0.44 55.49, 0 66.2" stroke="#1e1e1e" stroke-width="2" fill="none"/></g></g><mask/><g stroke-linecap="round"><g transform="translate(207.18644106345795 99.82894346743589) rotate(0 0.421478271484375 33.02593994140625)"><path d="M-0.94 0.53 C-0.65 11.42, 0.52 54.61, 0.67 65.52 M0.77 -0.24 C0.98 10.8, -0.64 55.53, -0.36 66.78" stroke="#1e1e1e" stroke-width="2" fill="none"/></g></g><mask/><g stroke-linecap="round"><g transform="translate(265.44315493064545 98.19115660220152) rotate(0 0.421478271484375 33.02593994140625)"><path d="M0.12 0 C0.27 10.9, 0.67 55.5, 0.72 66.42 M-1.28 -1.05 C-1.28 10, -0.42 53.23, -0.29 64.48" stroke="#1e1e1e" stroke-width="2" fill="none"/></g></g><mask/><g stroke-linecap="round"><g transform="translate(322.3090606923642 99.19115660220152) rotate(0 0.421478271484375 33.02593994140625)"><path d="M-0.85 -0.73 C-0.8 10.46, -0.35 55.3, -0.11 66.53 M0.91 1.51 C1.35 12.38, 2.3 54.14, 2.1 64.65" stroke="#1e1e1e" stroke-width="2" fill="none"/></g></g><mask/><g stroke-linecap="round"><g transform="translate(377.20096743064545 101.18020079165464) rotate(0 0.421478271484375 33.02593994140625)"><path d="M1.1 -0.41 C1.01 10.34, 0.68 54.41, 0.54 65.29 M0.21 -1.67 C-0.15 9.14, -0.39 55.22, -0.57 66.43" stroke="#1e1e1e" stroke-width="2" fill="none"/></g></g><mask/><g stroke-linecap="round"><g transform="translate(432.48294985252045 98.59005186587339) rotate(0 0.421478271484375 33.02593994140625)"><path d="M0.34 1.13 C0.53 12.09, 1.23 55.28, 1.51 66.1 M-0.95 0.67 C-0.88 11.82, 0.44 56.54, 0.91 67.66" stroke="#1e1e1e" stroke-width="2" fill="none"/></g></g><mask/><g stroke-linecap="round"><g transform="translate(488.44315493064545 97.78725645571714) rotate(0 0.421478271484375 33.02593994140625)"><path d="M1.2 0.66 C1.02 11.97, -0.01 56.17, 0.04 67.04 M0.37 -0.04 C0.48 11.02, 2.21 54.25, 2.33 65.44" stroke="#1e1e1e" stroke-width="2" fill="none"/></g></g><mask/><g stroke-linecap="round"><g transform="translate(551.2983795400205 98.45311949282652) rotate(0 0.421478271484375 33.02593994140625)"><path d="M0.32 -1.14 C0.44 9.97, 0.28 55.38, 0.49 66.61 M-0.96 0.88 C-1.02 11.64, -1.01 53.65, -0.64 64.77" stroke="#1e1e1e" stroke-width="2" fill="none"/></g></g><mask/><g stroke-linecap="round"><g transform="translate(614.4431549306455 96.19115660220152) rotate(0 0.421478271484375 33.02593994140625)"><path d="M-0.17 -0.73 C-0.21 10.01, -0.07 54.34, 0.24 65.56 M-1.71 1.5 C-1.41 12.92, 2.11 56.33, 2.64 66.84" stroke="#1e1e1e" stroke-width="2" fill="none"/></g></g><mask/><g stroke-linecap="round"><g transform="translate(674.4431549306455 98.73421690493589) rotate(0 0.421478271484375 33.02593994140625)"><path d="M0.55 0.13 C0.6 11.1, -0.18 55.6, -0.16 66.71 M-0.62 -0.85 C-0.16 9.7, 1.95 53.98, 2.02 64.94" stroke="#1e1e1e" stroke-width="2" fill="none"/></g></g><mask/><g stroke-linecap="round" transform="translate(677.0924705716336 99.34764380409149) rotate(0 34.28619384765625 33.36830139160156)"><path d="M16.68 0 C23.79 -2.06, 38.29 2.29, 51.89 0 C63.59 0.9, 66.31 7.9, 68.57 16.68 C67.73 29.76, 68.05 41.81, 68.57 50.05 C68.43 61.71, 66.34 63.51, 51.89 66.74 C41.55 70.5, 32.34 66.89, 16.68 66.74 C8.87 66.84, -2.51 63.2, 0 50.05 C1.94 39.62, 0.99 25.9, 0 16.68 C-1.08 6.93, 4.58 -0.45, 16.68 0" stroke="none" stroke-width="0" fill="#ffec99"/><path d="M16.68 0 C28.03 -0.81, 35.58 -1.8, 51.89 0 M16.68 0 C31.25 0.92, 44.93 -0.58, 51.89 0 M51.89 0 C61.15 0.66, 67.75 5.1, 68.57 16.68 M51.89 0 C62.36 0.45, 66.61 3.29, 68.57 16.68 M68.57 16.68 C69.9 24.51, 68.67 30.15, 68.57 50.05 M68.57 16.68 C68.91 28.06, 68.49 39.25, 68.57 50.05 M68.57 50.05 C69.77 60.35, 62.81 65.18, 51.89 66.74 M68.57 50.05 C69.12 61.04, 63.42 65.35, 51.89 66.74 M51.89 66.74 C41.81 66.03, 34.37 67.49, 16.68 66.74 M51.89 66.74 C41.26 67.45, 29.72 66.5, 16.68 66.74 M16.68 66.74 C6.14 64.82, -1.28 62.29, 0 50.05 M16.68 66.74 C7.51 66.01, -1.23 58.98, 0 50.05 M0 50.05 C1.97 42.73, 1.76 35.51, 0 16.68 M0 50.05 C-0.03 43.37, -0.03 34.24, 0 16.68 M0 16.68 C-1.83 5.18, 4.01 1.42, 16.68 0 M0 16.68 C2.04 6.47, 5.91 -1.75, 16.68 0" stroke="#1e1e1e" stroke-width="2" fill="none"/></g><g stroke-linecap="round" transform="translate(615.8887352200711 95.34242529823211) rotate(0 30.37725830078125 35.06280517578125)"><path d="M15.19 0 C18.19 0.1, 30.52 -2.21, 45.57 0 C56.23 -1.86, 58.96 6.7, 60.75 15.19 C57.18 24.35, 63.12 37.04, 60.75 54.94 C59.62 61.83, 53.68 71.12, 45.57 70.13 C37.37 73.08, 34.04 71.75, 15.19 70.13 C5.55 69.99, -2.12 64.12, 0 54.94 C-3.39 42.77, -0.7 27.22, 0 15.19 C-2.14 3.87, 4.58 2.07, 15.19 0" stroke="none" stroke-width="0" fill="#b2f2bb"/><path d="M15.19 0 C26.1 -1.23, 34.12 0.87, 45.57 0 M15.19 0 C22.4 0.83, 28.54 -0.62, 45.57 0 M45.57 0 C57.09 0.48, 61.34 4.75, 60.75 15.19 M45.57 0 C56.49 -2.15, 59.21 2.83, 60.75 15.19 M60.75 15.19 C60.63 27.92, 60.43 43.34, 60.75 54.94 M60.75 15.19 C60.54 27.27, 60.97 38.36, 60.75 54.94 M60.75 54.94 C60.2 64.52, 54.54 70.18, 45.57 70.13 M60.75 54.94 C62.14 64.96, 54.8 69.83, 45.57 70.13 M45.57 70.13 C40.39 71.17, 32.84 68.19, 15.19 70.13 M45.57 70.13 C33.95 71.06, 23.62 69.51, 15.19 70.13 M15.19 70.13 C5.34 71.71, -1.07 63.96, 0 54.94 M15.19 70.13 C5.63 68.18, -0.06 65.67, 0 54.94 M0 54.94 C1.83 40.6, 0.73 27.62, 0 15.19 M0 54.94 C-1.19 40.34, 0.53 26.91, 0 15.19 M0 15.19 C-0.52 3.47, 4.11 1.36, 15.19 0 M0 15.19 C-1.25 5.73, 3.7 -1.99, 15.19 0" stroke="#1e1e1e" stroke-width="2" fill="none"/></g><g stroke-linecap="round" transform="translate(551.2276024075711 98.40199561073211) rotate(0 32.18511962890625 34.03581237792969)"><path d="M16.09 0 C29.39 0.96, 41.25 0.43, 48.28 0 C57.15 1.04, 63.33 6.33, 64.37 16.09 C68.25 24.93, 62.11 39.03, 64.37 51.98 C61.01 59.55, 57.98 66.56, 48.28 68.07 C43.11 67.97, 28.85 70.86, 16.09 68.07 C8.7 67.15, 0.63 65.29, 0 51.98 C-1.06 44.51, -1.14 38.18, 0 16.09 C0.17 5.71, 1.78 0.3, 16.09 0" stroke="none" stroke-width="0" fill="#ffc9c9"/><path d="M16.09 0 C25.07 -1.22, 35.74 1.68, 48.28 0 M16.09 0 C23.47 -0.2, 31.41 0.79, 48.28 0 M48.28 0 C58.16 -1.8, 65.5 4.03, 64.37 16.09 M48.28 0 C59.36 1.15, 63.72 5.81, 64.37 16.09 M64.37 16.09 C63.55 28.33, 62.27 40.49, 64.37 51.98 M64.37 16.09 C63.69 24.65, 64.15 34.47, 64.37 51.98 M64.37 51.98 C65.55 62.47, 60.86 66.51, 48.28 68.07 M64.37 51.98 C63.28 62.68, 57.57 66.42, 48.28 68.07 M48.28 68.07 C39.75 69.44, 33.69 66.52, 16.09 68.07 M48.28 68.07 C39.77 69.09, 31.96 67.98, 16.09 68.07 M16.09 68.07 C5.87 66.14, 1.35 63.3, 0 51.98 M16.09 68.07 C3.56 67.28, -0.57 63.73, 0 51.98 M0 51.98 C0.52 44.02, 1.64 34.87, 0 16.09 M0 51.98 C-0.16 42.54, -0.06 34.5, 0 16.09 M0 16.09 C0.86 6.12, 6.82 -1.11, 16.09 0 M0 16.09 C2.23 4.65, 3.46 -1.31, 16.09 0" stroke="#1e1e1e" stroke-width="2" fill="none"/></g><g stroke-linecap="round" transform="translate(10 264.1152595937002) rotate(0 157.11721801757812 38.909698486328125)"><path d="M19.45 0 C93.39 2.08, 164.12 1.5, 294.78 0 C309.03 1.13, 313.9 7.19, 314.23 19.45 C314.04 30.74, 317.01 40.52, 314.23 58.36 C314.33 70.81, 305.64 76.47, 294.78 77.82 C209.89 82.62, 127.39 81.13, 19.45 77.82 C4.44 78.87, 1.69 70.04, 0 58.36 C-2.97 43.39, 2.81 32.57, 0 19.45 C2.32 6.93, 3.57 2.31, 19.45 0" stroke="none" stroke-width="0" fill="#a5d8ff"/><path d="M19.45 0 C119 1.74, 220.74 -0.2, 294.78 0 M19.45 0 C75.06 0.89, 130.89 1.18, 294.78 0 M294.78 0 C309.56 -0.91, 314.8 8.12, 314.23 19.45 M294.78 0 C306.73 -0.18, 315.89 6.08, 314.23 19.45 M314.23 19.45 C314.67 28.55, 315.93 41.49, 314.23 58.36 M314.23 19.45 C313.28 32.84, 314.27 44.56, 314.23 58.36 M314.23 58.36 C315.11 71.07, 307.28 77.24, 294.78 77.82 M314.23 58.36 C313.12 69.05, 306.18 78.32, 294.78 77.82 M294.78 77.82 C199.71 74.86, 106.39 74.72, 19.45 77.82 M294.78 77.82 C221.43 77.59, 149.97 78.43, 19.45 77.82 M19.45 77.82 C5.13 78.91, 1.91 71.64, 0 58.36 M19.45 77.82 C5.9 75.53, 0.48 70.89, 0 58.36 M0 58.36 C1.69 43.98, -1.55 33.15, 0 19.45 M0 58.36 C0.25 49.16, -0.56 38.16, 0 19.45 M0 19.45 C-1.41 5.54, 7.78 -1.68, 19.45 0 M0 19.45 C-0.31 7.03, 5.53 1.04, 19.45 0" stroke="#1e1e1e" stroke-width="2" fill="none"/></g><g stroke-linecap="round"><g transform="translate(580.1464256497586 151.84779639198211) rotate(0 -121.81124993425432 56.36989337809666)"><path d="M0.98 0.28 C-39.63 18.83, -203.07 93.34, -243.98 111.94 M0.03 -0.63 C-40.74 18.01, -204.77 94.16, -245.12 113.05" stroke="#1e1e1e" stroke-width="2" fill="none"/></g><g transform="translate(580.1464256497586 151.84779639198211) rotate(0 -121.81124993425432 56.36989337809666)"><path d="M-227.44 95.38 C-231.7 99.74, -238.31 103.67, -245.12 113.05 M-227.44 95.38 C-230.57 98.67, -235.94 103.83, -245.12 113.05" stroke="#1e1e1e" stroke-width="2" fill="none"/></g><g transform="translate(580.1464256497586 151.84779639198211) rotate(0 -121.81124993425432 56.36989337809666)"><path d="M-220.22 110.89 C-226.53 111.07, -235.11 110.79, -245.12 113.05 M-220.22 110.89 C-224.92 110.64, -231.92 112.27, -245.12 113.05" stroke="#1e1e1e" stroke-width="2" fill="none"/></g></g><mask/><g stroke-linecap="round" transform="translate(735.5399417670633 231.4487265947011) rotate(0 221.00193275207673 43.943527011689355)"><path d="M21.97 0 C133.91 0.09, 247.79 0.31, 420.03 0 C436.77 2.62, 445.34 10.55, 442 21.97 C438.5 37.58, 439.6 44.1, 442 65.92 C440.16 77.39, 437.89 88.33, 420.03 87.89 C279.45 86.33, 139.66 86.35, 21.97 87.89 C9.83 87.62, -1.34 77.21, 0 65.92 C2.04 54.96, 2.77 38.11, 0 21.97 C-1.01 7.66, 10.06 0.72, 21.97 0" stroke="none" stroke-width="0" fill="#b2f2bb"/><path d="M21.97 0 C179.15 0.37, 336.49 0.28, 420.03 0 M21.97 0 C152.86 -2.4, 283.19 -2.3, 420.03 0 M420.03 0 C436.19 1.51, 441.22 6.23, 442 21.97 M420.03 0 C435.64 1.79, 442.41 5.2, 442 21.97 M442 21.97 C442.41 38.45, 440.6 49.98, 442 65.92 M442 21.97 C441.21 37.17, 442.19 53.95, 442 65.92 M442 65.92 C442.88 79.95, 434.56 87.37, 420.03 87.89 M442 65.92 C442.86 82.23, 432.87 86.48, 420.03 87.89 M420.03 87.89 C272.53 89.64, 127.21 88.75, 21.97 87.89 M420.03 87.89 C291.52 89.42, 162.14 89.43, 21.97 87.89 M21.97 87.89 C7.91 86.89, -1.14 80.92, 0 65.92 M21.97 87.89 C6.45 89.2, -0.91 78.37, 0 65.92 M0 65.92 C-1.37 58.32, 2.02 47.7, 0 21.97 M0 65.92 C-0.4 56.04, -0.78 45.92, 0 21.97 M0 21.97 C1.74 7.1, 8.67 0.6, 21.97 0 M0 21.97 C-2.13 5.97, 9.18 1.1, 21.97 0" stroke="#1e1e1e" stroke-width="2" fill="none"/></g><g stroke-linecap="round"><g transform="translate(733.2116470809748 160.13943964300228) rotate(0 40.00152875592744 31.26664132235856)"><path d="M1.11 0.14 C14.31 10.64, 65.65 52.41, 78.97 62.89 M0.24 -0.82 C13.82 9.3, 67.7 50.67, 81.14 60.96" stroke="#1e1e1e" stroke-width="2" fill="none"/></g><g transform="translate(733.2116470809748 160.13943964300228) rotate(0 40.00152875592744 31.26664132235856)"><path d="M57.3 53.45 C64.23 53.62, 71.28 59.22, 81.14 60.96 M57.3 53.45 C65.22 55.96, 72.84 57.64, 81.14 60.96" stroke="#1e1e1e" stroke-width="2" fill="none"/></g><g transform="translate(733.2116470809748 160.13943964300228) rotate(0 40.00152875592744 31.26664132235856)"><path d="M67.7 39.88 C71.7 43.95, 75.84 53.37, 81.14 60.96 M67.7 39.88 C71.96 47.06, 76.03 53.37, 81.14 60.96" stroke="#1e1e1e" stroke-width="2" fill="none"/></g></g><mask/><g stroke-linecap="round" transform="translate(271.34312505210926 377.8082187711787) rotate(0 292.2726063624061 50.07546929865157)"><path d="M25.04 0 C131.46 2.53, 239.34 3.6, 559.51 0 C578.11 3.12, 584.6 8.68, 584.55 25.04 C583.2 41.54, 587.06 61.5, 584.55 75.11 C584.64 94.05, 576.08 97.1, 559.51 100.15 C346.41 98.22, 135.35 96.25, 25.04 100.15 C5.37 100.58, 0.01 92.5, 0 75.11 C-0.99 57.81, -1.71 43.88, 0 25.04 C3.15 5.59, 10.8 -2.89, 25.04 0" stroke="none" stroke-width="0" fill="#ffc9c9"/><path d="M25.04 0 C181.45 -1.88, 338.46 -0.38, 559.51 0 M25.04 0 C199.15 -1.92, 373.78 -1.92, 559.51 0 M559.51 0 C575.31 -1.93, 583.69 8.19, 584.55 25.04 M559.51 0 C574.87 1.11, 583.53 8.31, 584.55 25.04 M584.55 25.04 C586.1 42.42, 584.44 57.73, 584.55 75.11 M584.55 25.04 C584.75 42.92, 583.38 58.87, 584.55 75.11 M584.55 75.11 C586.13 92.01, 577.6 99.96, 559.51 100.15 M584.55 75.11 C585.08 89.51, 576.39 98.53, 559.51 100.15 M559.51 100.15 C348.78 101.18, 138.43 100.35, 25.04 100.15 M559.51 100.15 C432.52 101.39, 304.5 101.34, 25.04 100.15 M25.04 100.15 C7.77 100.75, -0.47 92.62, 0 75.11 M25.04 100.15 C7.53 101.61, -2.21 93.58, 0 75.11 M0 75.11 C-1.19 59.1, 0.42 45.13, 0 25.04 M0 75.11 C-0.7 57.92, 0.34 41.85, 0 25.04 M0 25.04 C-0.77 7.77, 8.09 -0.86, 25.04 0 M0 25.04 C1.89 6.84, 8.1 -0.1, 25.04 0" stroke="#1e1e1e" stroke-width="2" fill="none"/></g><g stroke-linecap="round"><g transform="translate(646.7559088035271 152.25170382475306) rotate(0 -56.68139702395372 104.71480401219367)"><path d="M-0.4 -0.69 C-19.47 34.21, -94.85 173.68, -113.65 208.73 M1.6 1.56 C-17.73 36.67, -95.51 174.99, -114.75 209.9" stroke="#1e1e1e" stroke-width="2" fill="none"/></g><g transform="translate(646.7559088035271 152.25170382475306) rotate(0 -56.68139702395372 104.71480401219367)"><path d="M-110.78 185.22 C-113.54 193.77, -115 203.63, -114.75 209.9 M-110.78 185.22 C-112.47 193.93, -112.99 201.3, -114.75 209.9" stroke="#1e1e1e" stroke-width="2" fill="none"/></g><g transform="translate(646.7559088035271 152.25170382475306) rotate(0 -56.68139702395372 104.71480401219367)"><path d="M-95.84 193.54 C-104.02 199, -110.96 205.8, -114.75 209.9 M-95.84 193.54 C-102.16 199.6, -107.36 204.37, -114.75 209.9" stroke="#1e1e1e" stroke-width="2" fill="none"/></g></g><mask/><g stroke-linecap="round" transform="translate(939.5887104662352 386.1928754743274) rotate(0 132.46696645394468 49.361026196585556)"><path d="M24.68 0 C77.18 -2.86, 131.22 -3.15, 240.25 0 C256.23 1.96, 266.7 4.85, 264.93 24.68 C263.06 42.44, 265.98 54.41, 264.93 74.04 C263.4 91.66, 253.65 102.03, 240.25 98.72 C167.89 99.95, 99.86 97.65, 24.68 98.72 C6.89 101.77, 1.73 92.9, 0 74.04 C-3.48 58.14, 1.38 40.76, 0 24.68 C3.36 9, 7.02 3.33, 24.68 0" stroke="none" stroke-width="0" fill="#ffc9c9"/><path d="M24.68 0 C81.21 -1.79, 136.18 -1.73, 240.25 0 M24.68 0 C74.9 0.29, 126.36 0.55, 240.25 0 M240.25 0 C256.88 0.95, 262.94 9.35, 264.93 24.68 M240.25 0 C258.54 -0.14, 266.75 7.42, 264.93 24.68 M264.93 24.68 C265.8 44.64, 267.18 60.55, 264.93 74.04 M264.93 24.68 C266.28 39.27, 264.93 55.62, 264.93 74.04 M264.93 74.04 C262.98 92.02, 256.68 97.4, 240.25 98.72 M264.93 74.04 C265.46 88.38, 255.72 97.37, 240.25 98.72 M240.25 98.72 C164.62 96.37, 88.27 95.57, 24.68 98.72 M240.25 98.72 C178.22 100.41, 117.39 99.84, 24.68 98.72 M24.68 98.72 C9.26 99.49, 0.63 90.33, 0 74.04 M24.68 98.72 C10.45 100.91, -1.09 91.77, 0 74.04 M0 74.04 C-1.37 59.68, -0.62 43.67, 0 24.68 M0 74.04 C-0.87 61.14, 0.89 46.91, 0 24.68 M0 24.68 C-1.9 8.45, 9.29 1.78, 24.68 0 M0 24.68 C-0.34 7.59, 8.35 1.28, 24.68 0" stroke="#1e1e1e" stroke-width="2" fill="none"/></g><g stroke-linecap="round"><g transform="translate(942.5895712664128 330.8054002526074) rotate(0 38.07068749591457 25.587094046960488)"><path d="M0.13 0.42 C13 8.7, 64.44 42.11, 76.91 50.68 M-1.25 -0.4 C11.55 7.95, 63.28 43.58, 76.37 51.96" stroke="#1e1e1e" stroke-width="2" fill="none"/></g><g transform="translate(942.5895712664128 330.8054002526074) rotate(0 38.07068749591457 25.587094046960488)"><path d="M52.09 46.04 C59.5 48.92, 64.64 47.37, 76.37 51.96 M52.09 46.04 C60.51 47.61, 68.48 49.22, 76.37 51.96" stroke="#1e1e1e" stroke-width="2" fill="none"/></g><g transform="translate(942.5895712664128 330.8054002526074) rotate(0 38.07068749591457 25.587094046960488)"><path d="M61.58 31.81 C66.5 38.61, 69.04 40.96, 76.37 51.96 M61.58 31.81 C66.73 38.46, 71.32 45.14, 76.37 51.96" stroke="#1e1e1e" stroke-width="2" fill="none"/></g></g><mask/><g stroke-linecap="round" transform="translate(975.9788479903268 524.6008404854987) rotate(0 107.82624416419691 34.894250242103226)"><path d="M17.45 0 C84.76 -1.05, 155.9 1.08, 198.21 0 C210.04 -2.54, 217.35 6.16, 215.65 17.45 C218.67 28.71, 217.08 35.47, 215.65 52.34 C216.37 60.85, 209.65 72.44, 198.21 69.79 C138.87 72.56, 74.25 66.78, 17.45 69.79 C8.68 71.38, 1.88 67.26, 0 52.34 C-3.22 42.47, 2.97 24.08, 0 17.45 C-3.3 7.06, 5.94 -3.12, 17.45 0" stroke="none" stroke-width="0" fill="#a5d8ff"/><path d="M17.45 0 C68.1 0.24, 118.21 1.04, 198.21 0 M17.45 0 C66.2 0.99, 113.56 0.66, 198.21 0 M198.21 0 C208.04 0.53, 214.11 5.46, 215.65 17.45 M198.21 0 C208.05 1.76, 213.73 6.97, 215.65 17.45 M215.65 17.45 C214.45 24.13, 216.08 32.72, 215.65 52.34 M215.65 17.45 C216.42 27.49, 215.48 37, 215.65 52.34 M215.65 52.34 C216.52 62.32, 209.72 69.26, 198.21 69.79 M215.65 52.34 C216.38 62.49, 208.39 71.11, 198.21 69.79 M198.21 69.79 C154.93 70.34, 113.72 67.7, 17.45 69.79 M198.21 69.79 C149.68 69.67, 100.24 69.21, 17.45 69.79 M17.45 69.79 C4.91 68.4, 0.86 64.53, 0 52.34 M17.45 69.79 C6.01 71.37, 1.87 62.71, 0 52.34 M0 52.34 C1.19 42.92, -1.57 33.41, 0 17.45 M0 52.34 C0.9 44.45, -0.75 36.65, 0 17.45 M0 17.45 C0.66 4.65, 5.56 1.54, 17.45 0 M0 17.45 C-1.7 6.71, 5.91 1.94, 17.45 0" stroke="#1e1e1e" stroke-width="2" fill="none"/></g><g stroke-linecap="round"><g transform="translate(1085.3569577907474 499.2277247393566) rotate(0 -1.7428452290724863 13.286329661100666)"><path d="M0.45 0.54 C-0.08 4.87, -2.56 22.07, -3.16 26.4 M0.02 0.35 C-0.56 4.72, -2.87 22.55, -3.42 27.01" stroke="#1e1e1e" stroke-width="2" fill="none"/></g><g transform="translate(1085.3569577907474 499.2277247393566) rotate(0 -1.7428452290724863 13.286329661100666)"><path d="M-6.38 13.94 C-4.76 18.34, -4.73 22.4, -3.42 27.01 M-6.38 13.94 C-5.65 17.46, -4.7 21.71, -3.42 27.01" stroke="#1e1e1e" stroke-width="2" fill="none"/></g><g transform="translate(1085.3569577907474 499.2277247393566) rotate(0 -1.7428452290724863 13.286329661100666)"><path d="M2.71 15.09 C1.54 19.18, -1.22 22.88, -3.42 27.01 M2.71 15.09 C0.79 18.32, -0.91 22.23, -3.42 27.01" stroke="#1e1e1e" stroke-width="2" fill="none"/></g></g><mask/><g stroke-linecap="round" transform="translate(235.4765104398748 556.9015269630903) rotate(0 313.8279498730291 50.01933723849021)"><path d="M25.01 0 C235.52 0.03, 445.25 2.16, 602.65 0 C617.07 -2.54, 625.68 11.08, 627.66 25.01 C623.95 44.33, 629.83 59.52, 627.66 75.03 C627.9 90.17, 622.32 99.3, 602.65 100.04 C451.63 100.69, 302.52 101.36, 25.01 100.04 C8.5 102.61, 3.31 89.49, 0 75.03 C2.03 60.42, -3.03 44.66, 0 25.01 C-3.19 6.82, 5.54 3.39, 25.01 0" stroke="none" stroke-width="0" fill="#a5d8ff"/><path d="M25.01 0 C251.95 0.76, 478.9 1.5, 602.65 0 M25.01 0 C200.61 -1.52, 375.52 -1.96, 602.65 0 M602.65 0 C618.2 -0.84, 627.36 9.76, 627.66 25.01 M602.65 0 C621.12 0.9, 628.97 8.35, 627.66 25.01 M627.66 25.01 C628.31 38.11, 626.36 46.25, 627.66 75.03 M627.66 25.01 C627.36 36.17, 628.11 49.37, 627.66 75.03 M627.66 75.03 C628.45 91.48, 618.18 100.83, 602.65 100.04 M627.66 75.03 C626.27 92.72, 621.34 100.17, 602.65 100.04 M602.65 100.04 C404.95 98.77, 206.15 98.85, 25.01 100.04 M602.65 100.04 C450.17 99.57, 298.21 100.09, 25.01 100.04 M25.01 100.04 C7.23 100.01, 0.46 92.45, 0 75.03 M25.01 100.04 C10.12 101.21, 1.51 92.39, 0 75.03 M0 75.03 C-0.57 61.5, 0.32 49.57, 0 25.01 M0 75.03 C0.52 58.47, -0.74 41.3, 0 25.01 M0 25.01 C-0.97 8.97, 10.3 -1.66, 25.01 0 M0 25.01 C-0.68 10.48, 10.62 1.5, 25.01 0" stroke="#1e1e1e" stroke-width="2" fill="none"/></g><g stroke-linecap="round"><g transform="translate(553.4759841840826 479.418207688312) rotate(0 0.5779810805713694 36.400748682316134)"><path d="M1.09 0.46 C1.36 12.67, 1.9 60.72, 1.8 72.92 M0.21 -0.35 C0.35 12.11, 1.34 62.5, 1.19 74.52" stroke="#1e1e1e" stroke-width="2" fill="none"/></g><g transform="translate(553.4759841840826 479.418207688312) rotate(0 0.5779810805713694 36.400748682316134)"><path d="M-7.51 51.09 C-4.06 59.52, -1.86 64.75, 1.19 74.52 M-7.51 51.09 C-3.27 60.59, -0.14 68.98, 1.19 74.52" stroke="#1e1e1e" stroke-width="2" fill="none"/></g><g transform="translate(553.4759841840826 479.418207688312) rotate(0 0.5779810805713694 36.400748682316134)"><path d="M9.59 50.98 C7.61 59.61, 4.38 64.86, 1.19 74.52 M9.59 50.98 C7.48 60.52, 4.26 68.95, 1.19 74.52" stroke="#1e1e1e" stroke-width="2" fill="none"/></g></g><mask/><g stroke-linecap="round"><g transform="translate(54.54729975750928 266.4602843105142) rotate(0 -0.5271713486586975 37.685241782693325)"><path d="M-0.04 0.73 C-0.05 13.39, -0.9 63.44, -1.07 75.81 M-1.52 0.07 C-1.6 12.37, -1.97 61.26, -2.03 73.92" stroke="#1e1e1e" stroke-width="2" fill="none"/></g></g><mask/><g stroke-linecap="round"><g transform="translate(97.33122228148977 266.35676194041054) rotate(0 -1.5896745931690361 38.3254755697217)"><path d="M-0.07 -0.22 C-0.32 12.32, -2.19 63.48, -2.52 76.33 M-1.57 -1.38 C-1.83 11.85, -3.01 64.42, -3.13 77.7" stroke="#1e1e1e" stroke-width="2" fill="none"/></g></g><mask/><g stroke-linecap="round"><g transform="translate(140.7336365631919 265.397781066004) rotate(0 -1.2355262748731946 38.610171802444015)"><path d="M-0.87 0.13 C-1.29 13.06, -1.61 65.54, -1.82 78.2 M0.88 -0.84 C0.29 11.71, -1.82 63.64, -2.43 76.59" stroke="#1e1e1e" stroke-width="2" fill="none"/></g></g><mask/><g stroke-linecap="round"><g transform="translate(186.79230895616973 276.1591529388504) rotate(0 -0.8881589826971208 32.720024847758)"><path d="M0.18 0.47 C-0.35 11.64, -1.69 55.7, -1.98 66.35 M-1.19 -0.33 C-1.99 10.58, -2.86 53.8, -3.03 64.7" stroke="#1e1e1e" stroke-width="2" fill="none"/></g></g><mask/><g stroke-linecap="round"><g transform="translate(187.7703699671082 277.52680235875084) rotate(0 0.0844422335718491 -6.677503749677072)"><path d="M0.44 -0.48 C0.41 -2.69, 0.04 -10.84, 0.04 -13 M0 0.46 C-0.13 -1.92, -0.49 -11.55, -0.45 -13.79" stroke="#1e1e1e" stroke-width="2" fill="none"/></g></g><mask/><g stroke-linecap="round"><g transform="translate(240.31582246394146 264.6240446128753) rotate(0 -0.5149110979951672 37.788764152797015)"><path d="M0.48 0.17 C0.32 12.71, 0.06 63.3, -0.22 76.02 M-0.72 -0.78 C-1.05 11.33, -0.53 61.56, -0.74 74.13" stroke="#1e1e1e" stroke-width="2" fill="none"/></g></g><mask/><g stroke-linecap="round"><g transform="translate(282.83177699137906 265.22888968148266) rotate(0 -0.44365683865106575 38.82292891837281)"><path d="M0.4 0.84 C0.21 14.06, -0.42 66.01, -0.5 78.62 M-0.85 0.23 C-1.22 13.2, -1.31 64.17, -1.24 77.01" stroke="#1e1e1e" stroke-width="2" fill="none"/></g></g><mask/><g stroke-linecap="round"><g transform="translate(338.7648727687707 376.8627500789957) rotate(0 0 51.15652411719688)"><path d="M-0.73 1.09 C-0.71 18.17, 0.41 85.35, 0.56 102.36 M1.09 0.62 C0.96 17.92, 0.17 87.15, -0.09 103.92" stroke="#1e1e1e" stroke-width="2" fill="none"/></g></g><mask/><g stroke-linecap="round"><g transform="translate(413.9616356497887 375.6930499149753) rotate(0 -1.0990184930952722 52.6675056683344)"><path d="M-0.08 -1.06 C-0.36 16.54, -1.26 87.05, -1.62 104.59 M-1.58 1 C-1.97 18.83, -2.02 88.42, -2.27 105.73" stroke="#1e1e1e" stroke-width="2" fill="none"/></g></g><mask/><g stroke-linecap="round"><g transform="translate(489.05619317776393 378.04746152021505) rotate(0 -0.30069732697577933 51.91278154013685)"><path d="M0.02 0.32 C-0.01 17.71, -0.42 87.35, -0.71 104.44 M-1.43 -0.56 C-1.58 16.47, -2.05 85.26, -1.71 102.64" stroke="#1e1e1e" stroke-width="2" fill="none"/></g></g><mask/><g stroke-linecap="round"><g transform="translate(571.1958862100928 378.8473052587361) rotate(0 0 49.3042719012831)"><path d="M0.66 1.03 C0.68 17.72, 1.23 83.15, 0.93 99.24 M-0.45 0.53 C-0.58 16.95, 0.21 81.14, 0.47 97.45" stroke="#1e1e1e" stroke-width="2" fill="none"/></g></g><mask/><g stroke-linecap="round"><g transform="translate(642.0235954176878 378.0955833859784) rotate(0 -0.7291620675959791 51.78347010940914)"><path d="M0.36 -0.35 C0.07 17.09, -1.17 86.59, -1.55 103.82 M-0.91 -1.58 C-1.39 15.55, -2.21 84.22, -2.55 101.83" stroke="#1e1e1e" stroke-width="2" fill="none"/></g></g><mask/><g stroke-linecap="round"><g transform="translate(703.0202905196293 376.499863175053) rotate(0 0.36983498081758626 54.073236721625904)"><path d="M0.42 0.04 C0.67 18.3, 1.6 91.09, 1.57 109.05 M-0.82 -0.99 C-0.66 17, 1.05 89.09, 1.05 107.4" stroke="#1e1e1e" stroke-width="2" fill="none"/></g></g><mask/><g stroke-linecap="round"><g transform="translate(765.9518963631463 378.3701610906281) rotate(0 2.136404970948206 51.591046980400904)"><path d="M-0.46 0.58 C0.13 17.65, 2.78 85.52, 3.65 102.59 M1.5 -0.17 C2.47 17.05, 5.58 86.42, 6.04 103.82" stroke="#1e1e1e" stroke-width="2" fill="none"/></g></g><mask/><g stroke-linecap="round"><g transform="translate(804.5037002222361 230.78850007268375) rotate(0 0.3134844198453379 44.76496687651361)"><path d="M-1.01 1.12 C-0.78 16.37, 0.43 75.85, 0.87 90.43 M0.65 0.65 C0.8 15.68, -0.08 73.99, 0.05 88.78" stroke="#1e1e1e" stroke-width="2" fill="none"/></g></g><mask/><g stroke-linecap="round"><g transform="translate(871.4648504765232 232.21082182748955) rotate(0 2.1901813370318166 44.647772768516305)"><path d="M-0.34 -0.62 C0.37 14.5, 3.27 74.72, 4.05 89.89 M1.68 1.67 C2.23 16.51, 2.61 73.59, 2.92 88.08" stroke="#1e1e1e" stroke-width="2" fill="none"/></g></g><mask/><g stroke-linecap="round"><g transform="translate(941.1378705771211 232.64292034065727) rotate(0 -0.7102947870628782 45.286030995082044)"><path d="M0.21 -0.76 C0.08 14.54, -0.13 76.4, -0.57 91.62 M-1.13 1.46 C-1.37 16.46, -1.24 74.99, -1.07 90.05" stroke="#1e1e1e" stroke-width="2" fill="none"/></g></g><mask/><g stroke-linecap="round"><g transform="translate(1005.967350946423 233.59185322887197) rotate(0 0.8543276247854124 43.515269011471574)"><path d="M0.56 -0.4 C0.64 14.22, 1.36 72.47, 1.39 87.1 M-0.61 -1.66 C-0.79 13.22, -0.35 74.2, 0.28 88.68" stroke="#1e1e1e" stroke-width="2" fill="none"/></g></g><mask/><g stroke-linecap="round"><g transform="translate(1071.9065145993895 231.71447149606797) rotate(0 0.7554724761988609 44.31592924762437)"><path d="M-0.79 0.95 C-0.68 15.74, 0.75 73.55, 1.02 88.36 M1 0.4 C0.87 15.41, 0.04 75.14, -0.18 89.76" stroke="#1e1e1e" stroke-width="2" fill="none"/></g></g><mask/><g stroke-linecap="round"><g transform="translate(1124.2304561230492 234.1545903919446) rotate(0 0.22592872895177152 44.121058921101394)"><path d="M0.33 -1.18 C0.41 13.76, -0.59 73.75, -0.68 88.85 M-0.96 0.81 C-0.42 15.48, 0.89 72.57, 1.43 87.05" stroke="#1e1e1e" stroke-width="2" fill="none"/></g></g><mask/><g stroke-linecap="round"><g transform="translate(975.6995882899773 389.3459346400315) rotate(0 1.1254340428732235 48.28816195514169)"><path d="M0.39 0.94 C0.7 16.92, 1.66 80.73, 2.07 96.79 M-0.87 0.38 C-0.74 15.9, 0.48 78.95, 1.02 94.79" stroke="#1e1e1e" stroke-width="2" fill="none"/></g></g><mask/><g stroke-linecap="round"><g transform="translate(1017.6219862453684 386.90299591514054) rotate(0 0.11438434980090051 46.552698188299345)"><path d="M-1.12 -0.46 C-1.24 14.92, 0.17 76.45, 0.33 92.24 M0.5 -1.75 C0.13 13.76, -0.29 77.61, -0.57 93.33" stroke="#1e1e1e" stroke-width="2" fill="none"/></g></g><mask/><g stroke-linecap="round"><g transform="translate(1059.4427495064301 384.3499227256059) rotate(0 -0.3855109095244984 48.81770570238881)"><path d="M0.96 0.74 C1.18 17.13, 0.58 82.53, 0.17 98.58 M0 0.08 C0.25 16.13, -0.45 80.62, -0.28 96.95" stroke="#1e1e1e" stroke-width="2" fill="none"/></g></g><mask/><g stroke-linecap="round"><g transform="translate(1107.3100721228252 387.6231802453892) rotate(0 -0.6552074131051882 50.529160639338116)"><path d="M0.97 0.48 C0.75 17.06, -1.99 83.64, -2.37 100.23 M0.01 -0.31 C0.25 16.33, 0.13 84.48, -0.22 101.33" stroke="#1e1e1e" stroke-width="2" fill="none"/></g></g><mask/><g stroke-linecap="round"><g transform="translate(1148.890787368228 387.7700127704902) rotate(0 0.20616978421594467 49.96150891712652)"><path d="M0.43 0.29 C0.45 17.08, 1.26 84.33, 1.23 100.84 M-0.8 -0.6 C-0.96 15.85, 0.68 82.37, 0.71 99.2" stroke="#1e1e1e" stroke-width="2" fill="none"/></g></g><mask/><g stroke-linecap="round"><g transform="translate(328.66401794739426 553.9765925782117) rotate(0 0 51.15652411719688)"><path d="M-1.14 -0.73 C-1.19 16.44, 0.41 85.81, 0.53 102.84 M0.46 1.5 C0.23 18.32, 0.17 84.19, -0.14 100.99" stroke="#1e1e1e" stroke-width="2" fill="none"/></g></g><mask/><g stroke-linecap="round"><g transform="translate(403.8607808284123 552.8068924141912) rotate(0 -1.0990184930952722 52.66750566833443)"><path d="M0.53 0.53 C0.28 18.06, -1.99 87.02, -2.62 104.47 M-0.65 -0.24 C-1 17.49, -3.75 87.77, -3.79 105.56" stroke="#1e1e1e" stroke-width="2" fill="none"/></g></g><mask/><g stroke-linecap="round"><g transform="translate(478.95533835638753 555.1613040194309) rotate(0 -0.30069732697577933 51.912781540136876)"><path d="M-0.42 -0.86 C-0.78 16.34, -1.66 86.12, -1.63 103.73 M1.56 1.3 C1.52 18.65, 0.94 88.27, 0.54 105.22" stroke="#1e1e1e" stroke-width="2" fill="none"/></g></g><mask/><g stroke-linecap="round"><g transform="translate(561.0950313887164 555.961147757952) rotate(0 0 49.3042719012831)"><path d="M-1.03 -0.09 C-0.91 16.65, 0.04 83.22, 0.31 99.61 M0.63 -1.19 C0.65 15.32, -0.4 81.25, -0.47 98.02" stroke="#1e1e1e" stroke-width="2" fill="none"/></g></g><mask/><g stroke-linecap="round"><g transform="translate(631.9227405963113 555.2094258851944) rotate(0 -0.7291620675959791 51.78347010940914)"><path d="M0.31 1.01 C0.35 18.23, -0.7 86.09, -0.83 103.24 M-0.98 0.49 C-0.96 17.89, -1.5 87.74, -1.45 104.61" stroke="#1e1e1e" stroke-width="2" fill="none"/></g></g><mask/><g stroke-linecap="round"><g transform="translate(692.9194356982529 553.6137056742689) rotate(0 0.36983498081758626 54.073236721625875)"><path d="M0.62 -0.32 C0.86 17.59, 1.56 90.23, 1.72 108.49 M-0.51 -1.54 C-0.37 16.52, 0.99 88.38, 1.29 106.54" stroke="#1e1e1e" stroke-width="2" fill="none"/></g></g><mask/><g stroke-linecap="round"><g transform="translate(755.8510415417699 555.484003589844) rotate(0 2.136404970948206 51.59104698040093)"><path d="M0.98 0.34 C1.73 17.77, 4.64 87.23, 5.12 104.26 M0.04 -0.53 C0.65 16.62, 4.15 85.36, 4.61 102.71" stroke="#1e1e1e" stroke-width="2" fill="none"/></g></g><mask/><g stroke-linecap="round"><g transform="translate(1017.8884364980653 530.5870712213973) rotate(0 0.28070260917547785 32.66446230263983)"><path d="M0.45 -0.48 C0.5 10.62, 0.68 55.31, 0.75 66.27 M-0.78 -1.78 C-0.9 9.02, -0.27 53.24, -0.09 64.63" stroke="#1e1e1e" stroke-width="2" fill="none"/></g></g><mask/><g stroke-linecap="round"><g transform="translate(1060.0636179021162 527.6849475034184) rotate(0 0.2961761376690788 30.121915285166494)"><path d="M0.19 0.94 C0.27 11.05, 0.85 50.37, 0.91 60.19 M-1.17 0.38 C-1.26 10.74, -0.03 51.59, 0.13 61.7" stroke="#1e1e1e" stroke-width="2" fill="none"/></g></g><mask/><g stroke-linecap="round"><g transform="translate(1107.9309405185115 530.9582050232017) rotate(0 1.218245646071125 31.38886950459164)"><path d="M0.32 -0.06 C0.69 10.19, 2.04 51.99, 2.4 62.41 M-0.97 -1.13 C-0.78 9.2, 0.98 52.97, 1.44 63.75" stroke="#1e1e1e" stroke-width="2" fill="none"/></g></g><mask/><g stroke-linecap="round"><g transform="translate(1167.1711076164083 530.3741862635391) rotate(0 -0.4728723514627404 30.139491839428956)"><path d="M-0.04 -0.37 C-0.24 9.63, -0.64 49.8, -0.9 59.93 M-1.51 -1.61 C-1.9 8.57, -1.63 50.71, -1.83 61.29" stroke="#1e1e1e" stroke-width="2" fill="none"/></g></g><mask/></svg>