<svg version="1.1" xmlns="http://www.w3.org/2000/svg" viewBox="0 0 766.4732579890592 780.8962097167969" width="766.4732579890592" height="780.8962097167969" class="excalidraw-svg">
  <!-- svg-source:excalidraw -->
  
  <defs>
    <style class="style-fonts">
      @font-face {
        font-family: "Virgil";
        src: url("https://excalidraw.com/Virgil.woff2");
      }
      @font-face {
        font-family: "Cascadia";
        src: url("https://excalidraw.com/Cascadia.woff2");
      }
      @font-face {
        font-family: "Assistant";
        src: url("https://excalidraw.com/Assistant-Regular.woff2");
      }
    </style>
    
  </defs>
  <rect x="0" y="0" width="766.4732579890592" height="780.8962097167969" fill="#ffffff"/><g stroke-linecap="round" transform="translate(423.31584832109047 10) rotate(0 166.04336547851562 380.44810485839844)"><path d="M32 0 C132.56 0.29, 233.89 -0.83, 300.09 0 M32 0 C106.11 1.54, 181.64 1.27, 300.09 0 M300.09 0 C321.15 0.21, 333.82 11.75, 332.09 32 M300.09 0 C321.96 1.44, 331.3 11.13, 332.09 32 M332.09 32 C331.62 176.99, 331.39 322.88, 332.09 728.9 M332.09 32 C333.81 281.35, 333.38 530.86, 332.09 728.9 M332.09 728.9 C331.26 751.32, 320.67 762.23, 300.09 760.9 M332.09 728.9 C332.74 749.7, 321.06 761.03, 300.09 760.9 M300.09 760.9 C221.46 758.79, 139.12 759.48, 32 760.9 M300.09 760.9 C227.07 761.05, 153.63 761.02, 32 760.9 M32 760.9 C9.31 759.57, -1.46 748.99, 0 728.9 M32 760.9 C11.73 760.21, 0.3 751.3, 0 728.9 M0 728.9 C-0.31 517.18, -0.97 304.29, 0 32 M0 728.9 C-1.28 466.55, -1.8 204.36, 0 32 M0 32 C1.05 11.64, 10.41 -0.96, 32 0 M0 32 C-0.99 10.53, 11.12 -1.12, 32 0" stroke="#1e1e1e" stroke-width="2" fill="none"/></g><g stroke-linecap="round" transform="translate(419.5651733610165 15.215319969597829) rotate(0 166.99344133618166 91.97032165527344)"><path d="M32 0 C89.29 0.48, 146.55 -2.03, 301.99 0 M32 0 C86.42 0.41, 142.21 0.23, 301.99 0 M301.99 0 C324.12 0.82, 333.25 10.85, 333.99 32 M301.99 0 C324.76 -1.99, 333.97 12.18, 333.99 32 M333.99 32 C333.31 58.93, 333.29 84.59, 333.99 151.94 M333.99 32 C332.92 69.56, 332.23 108.2, 333.99 151.94 M333.99 151.94 C332.78 173.72, 324.7 182.31, 301.99 183.94 M333.99 151.94 C335.08 174.28, 325.22 185.26, 301.99 183.94 M301.99 183.94 C226.25 186.81, 148.86 187.32, 32 183.94 M301.99 183.94 C202.51 183.31, 102.04 183.53, 32 183.94 M32 183.94 C10.77 182.02, -0.8 175.05, 0 151.94 M32 183.94 C11.49 184.59, 0.55 175.37, 0 151.94 M0 151.94 C-0.94 110.64, -0.37 73.03, 0 32 M0 151.94 C-1.03 126.81, -0.44 100.92, 0 32 M0 32 C-0.51 11.64, 11.15 -0.46, 32 0 M0 32 C1.8 10.79, 9.49 -0.57, 32 0" stroke="#1e1e1e" stroke-width="2" fill="none"/></g><g transform="translate(523.5244350096982 91.08564162487127) rotate(0 63.0341796875 16.099999999999994)"><text x="63.0341796875" y="0" font-family="Helvetica, Segoe UI Emoji" font-size="28px" fill="#1e1e1e" text-anchor="middle" style="white-space: pre;" direction="ltr" dominant-baseline="text-before-edge">Partition 1</text></g><g stroke-linecap="round" transform="translate(420.9923009578092 201.50439453125) rotate(0 167.089599609375 96.32002258300781)"><path d="M32 0 C141.2 -1.58, 248.69 -3.47, 302.18 0 M32 0 C98.06 0.62, 164.73 0.1, 302.18 0 M302.18 0 C322.7 0.36, 335.6 9.84, 334.18 32 M302.18 0 C324.38 -1.69, 332.7 11.67, 334.18 32 M334.18 32 C334.67 63.43, 334.86 97.93, 334.18 160.64 M334.18 32 C333.36 59.55, 333.89 88.68, 334.18 160.64 M334.18 160.64 C335.77 183.12, 321.76 193.38, 302.18 192.64 M334.18 160.64 C333.73 183.99, 325.44 192.99, 302.18 192.64 M302.18 192.64 C213.3 194.75, 125.88 195.65, 32 192.64 M302.18 192.64 C214.9 191.02, 127.28 190.96, 32 192.64 M32 192.64 C9.64 190.66, 1.17 181.57, 0 160.64 M32 192.64 C9.36 194.57, 1.98 180.63, 0 160.64 M0 160.64 C-0.06 115.06, 0.82 68.13, 0 32 M0 160.64 C-0.12 122.1, 0.73 82.59, 0 32 M0 32 C-0.76 9.02, 10.17 0.84, 32 0 M0 32 C1.07 12.3, 8.54 2.09, 32 0" stroke="#1e1e1e" stroke-width="2" fill="none"/></g><g transform="translate(525.0477208796842 281.7244171142578) rotate(0 63.0341796875 16.099999999999994)"><text x="63.0341796875" y="0" font-family="Helvetica, Segoe UI Emoji" font-size="28px" fill="#1e1e1e" text-anchor="middle" style="white-space: pre;" direction="ltr" dominant-baseline="text-before-edge">Partition 2</text></g><g stroke-linecap="round" transform="translate(424.18535515702797 396.78876521094764) rotate(0 166.14395141601562 123.73182678222656)"><path d="M32 0 C88.96 -0.35, 152.45 -1.79, 300.29 0 C323.19 2.99, 330.94 14.25, 332.29 32 C336.83 79.13, 336.04 125.87, 332.29 215.46 C331.65 240.27, 324.99 246.57, 300.29 247.46 C218.27 246.29, 142.18 245.52, 32 247.46 C12.67 248.54, 0.13 239.02, 0 215.46 C2.2 154.87, 2.39 102.98, 0 32 C-1.22 8.68, 9.73 2.36, 32 0" stroke="none" stroke-width="0" fill="#ffc9c9"/><path d="M32 0 C126.01 -0.09, 219.52 -0.54, 300.29 0 M32 0 C133.14 -1.7, 235.09 -1.32, 300.29 0 M300.29 0 C320.34 -0.86, 331.54 8.72, 332.29 32 M300.29 0 C322.37 -0.18, 330.38 12, 332.29 32 M332.29 32 C335.44 69.58, 332.25 110.29, 332.29 215.46 M332.29 32 C332.3 93.4, 332.17 154.56, 332.29 215.46 M332.29 215.46 C331.45 235.63, 322.19 245.68, 300.29 247.46 M332.29 215.46 C330.03 236.2, 319.51 249.72, 300.29 247.46 M300.29 247.46 C215.83 247.89, 127.77 246.32, 32 247.46 M300.29 247.46 C244.65 249.1, 189.55 249.1, 32 247.46 M32 247.46 C10.83 246.13, -0.26 237.26, 0 215.46 M32 247.46 C12.16 248.64, -0.71 238.67, 0 215.46 M0 215.46 C-0.02 164.63, 0.51 113.14, 0 32 M0 215.46 C-1.94 171.4, -0.53 126.46, 0 32 M0 32 C1.79 11.17, 10.75 -1.75, 32 0 M0 32 C1.46 12.18, 11.3 0.19, 32 0" stroke="#1e1e1e" stroke-width="2" fill="none"/></g><g transform="translate(536.6466893855436 504.4205919931742) rotate(0 53.6826171875 16.099999999999994)"><text x="53.6826171875" y="0" font-family="Helvetica, Segoe UI Emoji" font-size="28px" fill="#1e1e1e" text-anchor="middle" style="white-space: pre;" direction="ltr" dominant-baseline="text-before-edge">Program</text></g><g stroke-linecap="round"><g transform="translate(169.25592943221955 681.131003358277) rotate(0 117.20866338267682 11.720021704650065)"><path d="M-0.87 0.23 C38.35 3.94, 195.55 18.97, 234.86 22.72 M0.87 -0.69 C40.01 3.12, 195.21 19.82, 234.15 23.88" stroke="#1e1e1e" stroke-width="2" fill="none"/></g><g transform="translate(169.25592943221955 681.131003358277) rotate(0 117.20866338267682 11.720021704650065)"><path d="M209.89 29.9 C216.63 29.24, 221.42 27.89, 234.15 23.88 M209.89 29.9 C215.09 28.64, 222.25 27.4, 234.15 23.88" stroke="#1e1e1e" stroke-width="2" fill="none"/></g><g transform="translate(169.25592943221955 681.131003358277) rotate(0 117.20866338267682 11.720021704650065)"><path d="M211.69 12.9 C218.03 16.69, 222.34 19.81, 234.15 23.88 M211.69 12.9 C216.38 15.72, 223.11 18.57, 234.15 23.88" stroke="#1e1e1e" stroke-width="2" fill="none"/></g></g><mask/><g transform="translate(10 661.7137519183368) rotate(0 79.1064453125 11.5)"><text x="0" y="0" font-family="Helvetica, Segoe UI Emoji" font-size="20px" fill="#1e1e1e" text-anchor="start" style="white-space: pre;" direction="ltr" dominant-baseline="text-before-edge">Wasted Fragment</text></g></svg>