<svg version="1.1" xmlns="http://www.w3.org/2000/svg" viewBox="0 0 804.5588113293445 474.4685516357422" width="804.5588113293445" height="474.4685516357422" class="excalidraw-svg">
  <!-- svg-source:excalidraw -->
  
  <defs>
    <style class="style-fonts">
      @font-face {
        font-family: "Virgil";
        src: url("https://excalidraw.com/Virgil.woff2");
      }
      @font-face {
        font-family: "Cascadia";
        src: url("https://excalidraw.com/Cascadia.woff2");
      }
      @font-face {
        font-family: "Assistant";
        src: url("https://excalidraw.com/Assistant-Regular.woff2");
      }
    </style>
    
  </defs>
  <rect x="0" y="0" width="804.5588113293445" height="474.4685516357422" fill="#ffffff"/><g stroke-linecap="round" transform="translate(10 10) rotate(0 124.178955078125 227.2342758178711)"><path d="M32 0 C107.46 -0.88, 177.88 1.34, 216.36 0 C241.02 1.62, 245.48 10.38, 248.36 32 C249.15 111.87, 250.78 196.81, 248.36 422.47 C248.25 442.87, 237.72 451.6, 216.36 454.47 C167.97 450.46, 126.07 450.6, 32 454.47 C10.87 452.17, -3.26 443.16, 0 422.47 C3.47 301.18, 3.02 176.71, 0 32 C-2.3 10.07, 7.36 -3.53, 32 0" stroke="none" stroke-width="0" fill="#a5d8ff"/><path d="M32 0 C105.03 0.28, 177.83 -0.34, 216.36 0 M32 0 C68.43 0.34, 105.82 -0.42, 216.36 0 M216.36 0 C236.7 -0.59, 247.76 11.38, 248.36 32 M216.36 0 C236.63 1.01, 247.34 9.15, 248.36 32 M248.36 32 C249.1 172.81, 248.5 312.62, 248.36 422.47 M248.36 32 C250.47 149.33, 250.43 266.86, 248.36 422.47 M248.36 422.47 C246.74 445.26, 237.68 453.88, 216.36 454.47 M248.36 422.47 C247.61 444.8, 238.56 456.23, 216.36 454.47 M216.36 454.47 C172.15 452.85, 126.34 454.74, 32 454.47 M216.36 454.47 C166.45 453.57, 117.31 453.84, 32 454.47 M32 454.47 C10.8 456.37, -1.29 445.76, 0 422.47 M32 454.47 C11.72 454.63, 1.7 445.9, 0 422.47 M0 422.47 C0.05 321.27, -1.62 217.94, 0 32 M0 422.47 C0.66 322.82, 0.16 222.53, 0 32 M0 32 C0.7 11.88, 10.8 -0.18, 32 0 M0 32 C0.25 12.27, 12.25 2.02, 32 0" stroke="#1e1e1e" stroke-width="2" fill="none"/></g><g stroke-linecap="round" transform="translate(10.8302001953125 297.2080439507391) rotate(0 123.06854248046875 83.27949523925781)"><path d="M32 0 C72.9 -0.45, 105.75 3, 214.14 0 C234.11 1.06, 245.84 13.43, 246.14 32 C244.38 62.01, 242.72 100.84, 246.14 134.56 C243.26 152.53, 232.58 165.4, 214.14 166.56 C148.71 168.61, 86.05 164.33, 32 166.56 C10.55 164.35, 2 156.78, 0 134.56 C-1.26 108.83, -0.71 81.93, 0 32 C-3.21 9.91, 11.95 0.9, 32 0" stroke="none" stroke-width="0" fill="#a5d8ff"/><path d="M32 0 C71.85 2.37, 114.37 0.56, 214.14 0 M32 0 C95.92 0.19, 160.02 -1.22, 214.14 0 M214.14 0 C234.14 0.84, 245.48 9.34, 246.14 32 M214.14 0 C234.79 0.49, 244.24 11.78, 246.14 32 M246.14 32 C246.69 59.74, 246.43 86.65, 246.14 134.56 M246.14 32 C246.9 72.09, 246.79 110.14, 246.14 134.56 M246.14 134.56 C244.43 156.36, 236.22 167.33, 214.14 166.56 M246.14 134.56 C246.77 157.8, 237.06 168.79, 214.14 166.56 M214.14 166.56 C158.94 165.78, 101.3 169.11, 32 166.56 M214.14 166.56 C150.53 165.88, 87.23 165.93, 32 166.56 M32 166.56 C9.1 165.72, -0.4 156.6, 0 134.56 M32 166.56 C8.88 164.85, -2.18 155.93, 0 134.56 M0 134.56 C2.34 98.8, 2.53 66.64, 0 32 M0 134.56 C-0.62 104.68, 0.37 75.21, 0 32 M0 32 C1.27 9.79, 9.84 -1.27, 32 0 M0 32 C1.45 12.34, 12.22 0.25, 32 0" stroke="#1e1e1e" stroke-width="2" fill="none"/></g><g transform="translate(87.21612548828125 364.3875391899969) rotate(0 46.6826171875 16.099999999999994)"><text x="46.6826171875" y="0" font-family="Helvetica, Segoe UI Emoji" font-size="28px" fill="#1e1e1e" text-anchor="middle" style="white-space: pre;" direction="ltr" dominant-baseline="text-before-edge">Monitor</text></g><g transform="translate(92.12178148146393 93.49058808716316) rotate(0 48.234375 16.099999999999994)"><text x="0" y="0" font-family="Helvetica, Segoe UI Emoji" font-size="28px" fill="#1e1e1e" text-anchor="start" style="white-space: pre;" direction="ltr" dominant-baseline="text-before-edge">Overlay</text></g><g stroke-linecap="round" transform="translate(10.743140310206172 211.061427020596) rotate(0 124.04094985767335 43.275399109788594)"><path d="M21.64 0 C86.37 -0.5, 155.69 -4.82, 226.44 0 C244.4 -2.88, 248.37 10.51, 248.08 21.64 C245.98 37.25, 246.96 47.16, 248.08 64.91 C247.02 76.8, 240.08 85.54, 226.44 86.55 C159.6 83.73, 92.12 84.51, 21.64 86.55 C9.72 83.61, -0.76 77.47, 0 64.91 C2.66 52.26, 4.04 45.43, 0 21.64 C1.74 7.04, 4.55 2.95, 21.64 0" stroke="none" stroke-width="0" fill="#a5d8ff"/><path d="M21.64 0 C85.01 -1.17, 152.07 -2.94, 226.44 0 M21.64 0 C74.4 -0.61, 127.45 -1.33, 226.44 0 M226.44 0 C240.85 -1.6, 249.57 6.3, 248.08 21.64 M226.44 0 C242.15 1.97, 250.34 8.7, 248.08 21.64 M248.08 21.64 C247.87 32.67, 249 45.27, 248.08 64.91 M248.08 21.64 C247.91 36.23, 248.48 52.37, 248.08 64.91 M248.08 64.91 C247.6 78.36, 242.74 88.24, 226.44 86.55 M248.08 64.91 C247.5 80.52, 242.24 84.8, 226.44 86.55 M226.44 86.55 C149.5 86.67, 71.34 84.41, 21.64 86.55 M226.44 86.55 C157.59 85.12, 89.54 85.2, 21.64 86.55 M21.64 86.55 C8.08 85.15, -1.28 77.41, 0 64.91 M21.64 86.55 C7.07 85.88, -2.18 78.46, 0 64.91 M0 64.91 C-0.28 56.61, 0.33 44.8, 0 21.64 M0 64.91 C0.63 49.02, -0.7 35.37, 0 21.64 M0 21.64 C0.78 7.25, 6.61 -0.38, 21.64 0 M0 21.64 C0.03 8.36, 7.92 0.82, 21.64 0" stroke="#1e1e1e" stroke-width="2" fill="none"/></g><g transform="translate(37.529207355379526 238.2368261303846) rotate(0 97.2548828125 16.099999999999998)"><text x="97.2548828125" y="0" font-family="Helvetica, Segoe UI Emoji" font-size="28px" fill="#1e1e1e" text-anchor="middle" style="white-space: pre;" direction="ltr" dominant-baseline="text-before-edge">Overlay Control</text></g><g stroke-linecap="round" transform="translate(357.76362014711947 33.09908545503862) rotate(0 97.75041038186498 94.62945402697076)"><path d="M32 0 C84.65 -0.21, 136.73 -0.94, 163.5 0 C184.26 1.65, 193.55 10.05, 195.5 32 C195.79 73.17, 195.96 118.78, 195.5 157.26 C196.15 181.27, 185.71 191.91, 163.5 189.26 C138.61 187.27, 107.41 187.2, 32 189.26 C14.21 188.96, 1.22 175.39, 0 157.26 C-1.61 121.17, -0.48 92.67, 0 32 C-2 12.64, 7.75 2.72, 32 0" stroke="none" stroke-width="0" fill="#ffd8a8"/><path d="M32 0 C68.7 2.86, 109.88 -0.64, 163.5 0 M32 0 C70.59 0.19, 111.31 0.88, 163.5 0 M163.5 0 C184.43 -0.1, 194.26 9.51, 195.5 32 M163.5 0 C186.28 0.27, 196.86 11.31, 195.5 32 M195.5 32 C197.35 56.2, 196.46 84.95, 195.5 157.26 M195.5 32 C196.46 57.13, 196.61 82.09, 195.5 157.26 M195.5 157.26 C197.06 178.95, 186.79 188.68, 163.5 189.26 M195.5 157.26 C194.47 179.99, 184.01 189.16, 163.5 189.26 M163.5 189.26 C119.62 186.95, 75.66 186.98, 32 189.26 M163.5 189.26 C111.98 191.22, 61.83 190.06, 32 189.26 M32 189.26 C9.82 187.81, 1.5 177.36, 0 157.26 M32 189.26 C10.36 190.27, 1.24 178.6, 0 157.26 M0 157.26 C1.71 126.27, 0.75 96.27, 0 32 M0 157.26 C1.05 113.93, 0.28 70.61, 0 32 M0 32 C-1.08 12.03, 10.83 -1.63, 32 0 M0 32 C-1.81 9.63, 9.04 -1.3, 32 0" stroke="#1e1e1e" stroke-width="2" fill="none"/></g><g transform="translate(395.60387427898445 111.62853948200939) rotate(0 59.91015625 16.099999999999994)"><text x="59.91015625" y="0" font-family="Helvetica, Segoe UI Emoji" font-size="28px" fill="#1e1e1e" text-anchor="middle" style="white-space: pre;" direction="ltr" dominant-baseline="text-before-edge">Overlay 1</text></g><g stroke-linecap="round" transform="translate(599.0579905656145 35.70793097490389) rotate(0 97.75041038186498 94.62945402697076)"><path d="M32 0 C64.25 -2.03, 97.84 -4.71, 163.5 0 C184.06 -2.03, 197.28 9.68, 195.5 32 C194.69 60.58, 196.66 99.09, 195.5 157.26 C192.41 180.34, 186.48 189.67, 163.5 189.26 C131.91 184.19, 97.46 189.32, 32 189.26 C10.88 191.38, -0.24 175.12, 0 157.26 C0.75 117.08, 3.39 80.09, 0 32 C-0.08 11.51, 7.34 1.71, 32 0" stroke="none" stroke-width="0" fill="#ffd8a8"/><path d="M32 0 C80.43 -0.87, 129.41 -0.29, 163.5 0 M32 0 C71.59 -1.17, 112.09 -1.51, 163.5 0 M163.5 0 C186.08 0.93, 196.18 10.24, 195.5 32 M163.5 0 C183.33 -0.92, 194.81 12.75, 195.5 32 M195.5 32 C196.79 62.84, 197.04 95.15, 195.5 157.26 M195.5 32 C194.2 57.6, 195.84 84.69, 195.5 157.26 M195.5 157.26 C196.21 179.5, 185.98 189.15, 163.5 189.26 M195.5 157.26 C195.87 178.1, 184.87 189.71, 163.5 189.26 M163.5 189.26 C123.25 187.86, 86.35 187.21, 32 189.26 M163.5 189.26 C134.35 189.64, 106.35 190.03, 32 189.26 M32 189.26 C11.38 189.89, 1.8 180.35, 0 157.26 M32 189.26 C11.43 191.31, 0.08 178.97, 0 157.26 M0 157.26 C-3 128.35, -1.58 104.69, 0 32 M0 157.26 C0.53 111.74, 1.91 64.91, 0 32 M0 32 C1 10.66, 11.67 1.58, 32 0 M0 32 C0.57 9.5, 8.84 -0.28, 32 0" stroke="#1e1e1e" stroke-width="2" fill="none"/></g><g transform="translate(636.8982446974795 114.23738500187466) rotate(0 59.91015625 16.099999999999994)"><text x="59.91015625" y="0" font-family="Helvetica, Segoe UI Emoji" font-size="28px" fill="#1e1e1e" text-anchor="middle" style="white-space: pre;" direction="ltr" dominant-baseline="text-before-edge">Overlay 2</text></g><g stroke-linecap="round"><g transform="translate(457.1326743545809 241.9956153768054) rotate(0 0 21.53464467426636)"><path d="M0.45 -0.14 C0.43 7.08, 0.26 35.78, 0.2 42.95 M0.01 -0.69 C-0.09 6.65, -0.09 36.24, -0.13 43.59" stroke="#1e1e1e" stroke-width="2" fill="none"/></g></g><mask/><g stroke-linecap="round"><g transform="translate(712.1471607013725 244.87719684133396) rotate(0 0 21.53464467426636)"><path d="M0.24 -0.4 C0.18 6.89, -0.22 35.99, -0.22 43.28 M-0.3 0.58 C-0.47 7.75, -0.81 35.45, -0.77 42.43" stroke="#1e1e1e" stroke-width="2" fill="none"/></g></g><mask/><g stroke-linecap="round"><g transform="translate(458.87666182413534 283.9327967433501) rotate(0 126.99563128773423 -0.20503636466384023)"><path d="M0.91 0.71 C43.19 0.99, 210.95 0.97, 252.96 0.7 M-0.07 0.03 C42.63 0.1, 212.56 -0.86, 255.13 -0.83" stroke="#1e1e1e" stroke-width="2" fill="none"/></g></g><mask/><g transform="translate(543.8341647228755 306.63815891431545) rotate(0 49.7861328125 16.099999999999998)"><text x="0" y="0" font-family="Helvetica, Segoe UI Emoji" font-size="28px" fill="#1e1e1e" text-anchor="start" style="white-space: pre;" direction="ltr" dominant-baseline="text-before-edge">On Disk</text></g></svg>