<svg version="1.1" xmlns="http://www.w3.org/2000/svg" viewBox="0 0 1177.1571928756675 581.6281006703218" width="1177.1571928756675" height="581.6281006703218" class="excalidraw-svg">
  <!-- svg-source:excalidraw -->
  
  <defs>
    <style class="style-fonts">
      @font-face {
        font-family: "Virgil";
        src: url("https://excalidraw.com/Virgil.woff2");
      }
      @font-face {
        font-family: "Cascadia";
        src: url("https://excalidraw.com/Cascadia.woff2");
      }
      @font-face {
        font-family: "Assistant";
        src: url("https://excalidraw.com/Assistant-Regular.woff2");
      }
    </style>
    
  </defs>
  <rect x="0" y="0" width="1177.1571928756675" height="581.6281006703218" fill="#ffffff"/><g stroke-linecap="round" transform="translate(948.528022958561 45.5848388671875) rotate(0 107.04763793945312 263.02163090156716)"><path d="M32 0 C88.14 -2.4, 144.37 -1.98, 182.1 0 C200.25 0.64, 210.83 9.6, 214.1 32 C214.46 133.06, 213.26 235.37, 214.1 494.04 C217.31 512.72, 203.99 524.72, 182.1 526.04 C137 527.6, 94.16 524.83, 32 526.04 C13.31 528.8, 1.38 512.81, 0 494.04 C-2.69 357.19, -4.33 217.97, 0 32 C-1.9 8.77, 8.44 -1.29, 32 0" stroke="none" stroke-width="0" fill="#ffec99"/><path d="M32 0 C79.06 0.27, 129.12 -0.61, 182.1 0 M32 0 C66.78 0.67, 100.8 1.42, 182.1 0 M182.1 0 C205.27 -1.82, 212.69 10.51, 214.1 32 M182.1 0 C204.73 1.77, 215.99 11, 214.1 32 M214.1 32 C214.04 138.94, 213.82 246.59, 214.1 494.04 M214.1 32 C213.03 191.22, 212.7 350.21, 214.1 494.04 M214.1 494.04 C212.36 514.38, 201.97 525.39, 182.1 526.04 M214.1 494.04 C212.23 515.97, 201.61 527.16, 182.1 526.04 M182.1 526.04 C138.68 523.81, 93.18 526.88, 32 526.04 M182.1 526.04 C131.12 526.16, 79.45 526.52, 32 526.04 M32 526.04 C11.58 526.47, -0.8 515.69, 0 494.04 M32 526.04 C9.89 528.3, -1.05 515.96, 0 494.04 M0 494.04 C-1.93 377.25, -2.51 260.85, 0 32 M0 494.04 C-0.58 352.05, -0.47 208.88, 0 32 M0 32 C-0.76 10.94, 11.21 0.94, 32 0 M0 32 C-1.53 10.9, 12.21 1.3, 32 0" stroke="#1e1e1e" stroke-width="2" fill="none"/></g><g transform="translate(1016.8264848726235 10) rotate(0 37.236328125 11.5)"><text x="0" y="0" font-family="Helvetica, Segoe UI Emoji" font-size="20px" fill="#1e1e1e" text-anchor="start" style="white-space: pre;" direction="ltr" dominant-baseline="text-before-edge">Physical</text></g><g stroke-linecap="round"><g transform="translate(950.6846391694985 120.10507202148438) rotate(0 106.92141723632812 0.6439971923828125)"><path d="M-0.63 -0.81 C35.12 -0.62, 178.68 0.45, 214.42 0.81 M1.23 1.37 C36.89 1.76, 178.48 1.87, 213.77 2.1" stroke="#1e1e1e" stroke-width="2" fill="none"/></g></g><mask/><g stroke-linecap="round"><g transform="translate(949.9924061807237 190.71378750499014) rotate(0 106.92141723632812 0.6439971923828125)"><path d="M0.57 -0.47 C36.31 -0.11, 178.4 0.92, 213.77 1.38 M-0.58 -1.77 C35.04 -1.12, 176.83 2.6, 212.78 2.97" stroke="#1e1e1e" stroke-width="2" fill="none"/></g></g><mask/><g stroke-linecap="round"><g transform="translate(949.8821766885362 266.8718380420996) rotate(0 106.92141723632812 0.6439971923828125)"><path d="M-0.08 0.09 C35.29 0.55, 176.94 2.26, 212.78 2.28 M-1.58 -0.9 C34.1 -0.72, 178.88 0.37, 214.93 0.68" stroke="#1e1e1e" stroke-width="2" fill="none"/></g></g><mask/><g stroke-linecap="round"><g transform="translate(952.2068837197862 337.2439693897559) rotate(0 106.92141723632812 0.6439971923828125)"><path d="M-1.06 0.99 C34.77 1.01, 179.27 0.16, 214.95 0.2 M0.58 0.46 C36.36 0.58, 178.77 0.83, 214.58 1.16" stroke="#1e1e1e" stroke-width="2" fill="none"/></g></g><mask/><g stroke-linecap="round"><g transform="translate(950.1673329385362 399.8888058155371) rotate(0 106.92141723632812 0.6439971923828125)"><path d="M1.11 -1.09 C36.78 -1.06, 177.43 0.64, 213 1.19 M0.23 0.95 C36.38 1.1, 179.62 2.78, 215.27 2.68" stroke="#1e1e1e" stroke-width="2" fill="none"/></g></g><mask/><g stroke-linecap="round"><g transform="translate(948.3886464150987 460.7267574756934) rotate(0 106.92141723632812 0.6439971923828125)"><path d="M-0.84 -0.1 C34.73 0.46, 178.58 1.95, 214.52 2.21 M0.92 -1.19 C36.29 -0.87, 178.32 -0.1, 213.93 0.58" stroke="#1e1e1e" stroke-width="2" fill="none"/></g></g><mask/><g stroke-linecap="round"><g transform="translate(947.4893544229112 516.6761711198317) rotate(0 106.92141723632812 0.6439971923828125)"><path d="M0.68 0.93 C36.63 1.19, 179.44 1.36, 214.83 1.46 M-0.42 0.37 C35.53 0.85, 178.42 2.65, 214.41 3.09" stroke="#1e1e1e" stroke-width="2" fill="none"/></g></g><mask/><g stroke-linecap="round" transform="translate(476.8807078192756 101.5031047474904) rotate(0 95.5305809169721 189.00265225150667)"><path d="M32 0 C73.56 -1.96, 120.63 2.35, 159.06 0 C178.09 2.41, 194.21 13.09, 191.06 32 C191.86 98.17, 189.32 165.94, 191.06 346.01 C193.36 370.69, 180.72 377.55, 159.06 378.01 C120.45 377.76, 87.52 378.6, 32 378.01 C9.9 375.48, -2.45 365.74, 0 346.01 C-4.89 246.83, -5.03 153.47, 0 32 C3.39 11.08, 10.3 -0.12, 32 0" stroke="none" stroke-width="0" fill="#228be6"/><path d="M32 0 C63.02 -2.54, 89.71 -1.86, 159.06 0 M32 0 C76.97 -0.94, 123.28 -0.58, 159.06 0 M159.06 0 C182.16 1, 190.86 10.55, 191.06 32 M159.06 0 C182.45 0.87, 192.95 10.32, 191.06 32 M191.06 32 C190.51 118.51, 190.33 209.19, 191.06 346.01 M191.06 32 C192.02 108.16, 192.07 184.6, 191.06 346.01 M191.06 346.01 C192.32 365.75, 182.22 377.39, 159.06 378.01 M191.06 346.01 C188.87 368.61, 178.59 379.53, 159.06 378.01 M159.06 378.01 C126.09 377.12, 91.54 377.73, 32 378.01 M159.06 378.01 C133.88 377.84, 107.43 378.66, 32 378.01 M32 378.01 C10.6 379.51, -0.46 365.75, 0 346.01 M32 378.01 C12.68 379.18, 0.72 369.1, 0 346.01 M0 346.01 C1.79 251.74, 0.69 155.17, 0 32 M0 346.01 C0.72 238.86, 0.94 130.85, 0 32 M0 32 C0.81 11.21, 12.03 0.94, 32 0 M0 32 C-1.94 8.92, 9.13 0.63, 32 0" stroke="#1e1e1e" stroke-width="2" fill="none"/></g><g transform="translate(514.6367336667104 56.74125257051992) rotate(0 50.0390625 11.5)"><text x="0" y="0" font-family="Helvetica, Segoe UI Emoji" font-size="20px" fill="#1e1e1e" text-anchor="start" style="white-space: pre;" direction="ltr" dominant-baseline="text-before-edge">Page Table</text></g><g stroke-linecap="round" transform="translate(36.15108091869536 104.27618267864796) rotate(0 118.84295654296875 189.91437280792525)"><path d="M32 0 C80.29 -0.9, 128.5 2.8, 205.69 0 C223.5 -2.17, 236.08 14.11, 237.69 32 C237.15 128.25, 239.6 231.22, 237.69 347.83 C234.67 369.57, 227.19 379.88, 205.69 379.83 C161.81 377.87, 116.94 374.72, 32 379.83 C11.16 381.44, -0.22 367.62, 0 347.83 C1.92 249.18, 0.86 150.76, 0 32 C-1.17 9.34, 10.68 3.41, 32 0" stroke="none" stroke-width="0" fill="#a5d8ff"/><path d="M32 0 C84.07 2.04, 137.27 1.42, 205.69 0 M32 0 C70.72 1.84, 109.46 1.59, 205.69 0 M205.69 0 C228.02 -1.68, 238.67 9.96, 237.69 32 M205.69 0 C225.89 -1.39, 239.72 10.81, 237.69 32 M237.69 32 C237.43 98.53, 238.11 166.63, 237.69 347.83 M237.69 32 C238.08 119.96, 238.08 208.12, 237.69 347.83 M237.69 347.83 C238.96 368.96, 227.17 379.21, 205.69 379.83 M237.69 347.83 C238.94 369.13, 228.39 378.2, 205.69 379.83 M205.69 379.83 C137.31 381.02, 74.21 381.31, 32 379.83 M205.69 379.83 C142.36 379.24, 80.74 379.09, 32 379.83 M32 379.83 C9.18 378.62, -0.44 369.22, 0 347.83 M32 379.83 C12.75 378.74, 0.08 368.26, 0 347.83 M0 347.83 C1.82 270.7, 1.41 190.62, 0 32 M0 347.83 C-0.24 270.45, -0.06 193.34, 0 32 M0 32 C-1.99 9.98, 12.53 -0.93, 32 0 M0 32 C1.11 10.39, 9.6 -0.02, 32 0" stroke="#1e1e1e" stroke-width="2" fill="none"/></g><g transform="translate(129.5571239299046 63.32604282215539) rotate(0 28.1689453125 11.5)"><text x="0" y="0" font-family="Helvetica, Segoe UI Emoji" font-size="20px" fill="#1e1e1e" text-anchor="start" style="white-space: pre;" direction="ltr" dominant-baseline="text-before-edge">Virtual</text></g><g transform="translate(10 108.28280151198692) rotate(0 5.5615234375 11.5)"><text x="0" y="0" font-family="Helvetica, Segoe UI Emoji" font-size="20px" fill="#1e1e1e" text-anchor="start" style="white-space: pre;" direction="ltr" dominant-baseline="text-before-edge">0</text></g><g stroke-linecap="round"><g transform="translate(34.2779062384551 202.13108254213648) rotate(0 119.54758371025582 -0.08683579328436508)"><path d="M-0.27 -1.16 C39.64 -1, 199.49 -0.14, 239.53 0.01 M1.79 0.84 C41.57 1.31, 199.16 1.62, 238.81 1.65" stroke="#1e1e1e" stroke-width="2" fill="none"/></g></g><mask/><g stroke-linecap="round"><g transform="translate(33.55380882160847 302.2962063156451) rotate(0 119.54758371025585 -0.08683579328442192)"><path d="M0.44 0.19 C40.48 0.33, 200.11 -0.05, 239.99 -0.28 M-0.79 -0.76 C39.19 -0.32, 199.51 1.14, 239.51 1.2" stroke="#1e1e1e" stroke-width="2" fill="none"/></g></g><mask/><g stroke-linecap="round"><g transform="translate(33.52517919333985 410.12086539877396) rotate(0 117.776216120746 -0.10001320938590652)"><path d="M0.9 -0.1 C40.18 -0.34, 196.94 -1.12, 236.15 -1.21 M-0.09 -1.2 C39.05 -1.34, 196.22 -0.48, 235.52 -0.2" stroke="#1e1e1e" stroke-width="2" fill="none"/></g></g><mask/><g stroke-linecap="round"><g transform="translate(482.7190180479538 199.0078476922772) rotate(0 91.21202904525023 0.8275503845152912)"><path d="M0.03 0.92 C30.56 1.19, 151.78 0.84, 182.3 0.81 M-1.41 0.35 C29.03 0.83, 150.59 1.7, 181.29 1.9" stroke="#1e1e1e" stroke-width="2" fill="none"/></g></g><mask/><g stroke-linecap="round"><g transform="translate(482.92359842725773 304.6078096326412) rotate(0 91.28427175997297 -0.7403268572920751)"><path d="M-0.96 -0.07 C29.47 -0.22, 151.78 -1.21, 182.29 -1.32 M0.74 -1.16 C31 -1.04, 151.14 0.56, 181.2 0.3" stroke="#1e1e1e" stroke-width="2" fill="none"/></g></g><mask/><g stroke-linecap="round"><g transform="translate(479.2762642204907 418.18271481893703) rotate(0 92.05765083968731 0.3039516713913599)"><path d="M-0.58 -0.92 C29.98 -0.91, 153.33 -0.42, 183.92 -0.13 M1.32 1.21 C31.65 1.38, 152.21 0.85, 182.87 1.02" stroke="#1e1e1e" stroke-width="2" fill="none"/></g></g><mask/><g stroke-linecap="round"><g transform="translate(283.61680852323366 154.8718844180827) rotate(0 87.95887478459053 1.101454580977304)"><path d="M0.44 0.21 C29.64 0.84, 146.47 2.71, 175.62 2.84 M-0.78 -0.72 C28.19 -0.36, 145.35 0.65, 174.52 1.05" stroke="#1e1e1e" stroke-width="2" fill="none"/></g><g transform="translate(283.61680852323366 154.8718844180827) rotate(0 87.95887478459053 1.101454580977304)"><path d="M150.94 9.35 C159.29 5.98, 167.94 2.73, 174.52 1.05 M150.94 9.35 C154.84 6.75, 160.32 6.45, 174.52 1.05" stroke="#1e1e1e" stroke-width="2" fill="none"/></g><g transform="translate(283.61680852323366 154.8718844180827) rotate(0 87.95887478459053 1.101454580977304)"><path d="M151.13 -7.75 C159.28 -5.36, 167.86 -2.86, 174.52 1.05 M151.13 -7.75 C155.05 -6.91, 160.49 -3.78, 174.52 1.05" stroke="#1e1e1e" stroke-width="2" fill="none"/></g></g><mask/><g stroke-linecap="round"><g transform="translate(283.36151974169184 251.88115699815967) rotate(0 87.95887478459053 1.1014545809773608)"><path d="M0.16 0.86 C29.72 1.42, 147.11 2.37, 176.57 2.69 M-1.22 0.27 C28.32 0.53, 146.31 0.75, 175.96 0.82" stroke="#1e1e1e" stroke-width="2" fill="none"/></g><g transform="translate(283.36151974169184 251.88115699815967) rotate(0 87.95887478459053 1.1014545809773608)"><path d="M152.45 9.32 C159.38 8.4, 164.2 7, 175.96 0.82 M152.45 9.32 C160.69 6.77, 168.24 2.81, 175.96 0.82" stroke="#1e1e1e" stroke-width="2" fill="none"/></g><g transform="translate(283.36151974169184 251.88115699815967) rotate(0 87.95887478459053 1.1014545809773608)"><path d="M152.49 -7.78 C159.31 -4.74, 164.12 -2.18, 175.96 0.82 M152.49 -7.78 C160.71 -4.42, 168.24 -2.46, 175.96 0.82" stroke="#1e1e1e" stroke-width="2" fill="none"/></g></g><mask/><g stroke-linecap="round"><g transform="translate(285.39788004261027 359.18077582037836) rotate(0 87.95887478459053 1.1014545809773608)"><path d="M-0.24 -1.13 C29.11 -0.99, 146.28 0.3, 175.63 1.02 M-1.82 0.9 C27.39 1.11, 145.05 1.86, 174.53 1.93" stroke="#1e1e1e" stroke-width="2" fill="none"/></g><g transform="translate(285.39788004261027 359.18077582037836) rotate(0 87.95887478459053 1.1014545809773608)"><path d="M151 10.37 C155.27 7.72, 161.34 5.87, 174.53 1.93 M151 10.37 C159.48 7.34, 169.77 4.39, 174.53 1.93" stroke="#1e1e1e" stroke-width="2" fill="none"/></g><g transform="translate(285.39788004261027 359.18077582037836) rotate(0 87.95887478459053 1.1014545809773608)"><path d="M151.08 -6.73 C155.36 -4.89, 161.41 -2.27, 174.53 1.93 M151.08 -6.73 C159.64 -3.27, 169.9 0.27, 174.53 1.93" stroke="#1e1e1e" stroke-width="2" fill="none"/></g></g><mask/><g stroke-linecap="round"><g transform="translate(285.7687517331656 448.31154505217273) rotate(0 87.95887478459053 1.1014545809772471)"><path d="M0.67 -0.76 C30.07 -0.22, 146.38 2.04, 175.52 2.69 M-0.44 1.46 C28.84 1.68, 145.2 0.84, 174.37 0.82" stroke="#1e1e1e" stroke-width="2" fill="none"/></g><g transform="translate(285.7687517331656 448.31154505217273) rotate(0 87.95887478459053 1.1014545809772471)"><path d="M150.91 9.47 C154.98 6.73, 162.34 4.79, 174.37 0.82 M150.91 9.47 C159.35 5.74, 169.18 2.13, 174.37 0.82" stroke="#1e1e1e" stroke-width="2" fill="none"/></g><g transform="translate(285.7687517331656 448.31154505217273) rotate(0 87.95887478459053 1.1014545809772471)"><path d="M150.84 -7.63 C154.84 -6.52, 162.22 -4.6, 174.37 0.82 M150.84 -7.63 C159.22 -4.87, 169.09 -1.99, 174.37 0.82" stroke="#1e1e1e" stroke-width="2" fill="none"/></g></g><mask/><g stroke-linecap="round"><g transform="translate(680.7859632864697 154.16770038063407) rotate(0 125.12798759672899 168.078256047734)"><path d="M-0.23 1.09 C41.33 57.14, 207.55 280.4, 249.22 336.44 M-1.81 0.61 C40.12 56.28, 209.62 278.64, 251.38 334.46" stroke="#1e1e1e" stroke-width="2" fill="none"/></g><g transform="translate(680.7859632864697 154.16770038063407) rotate(0 125.12798759672899 168.078256047734)"><path d="M230.39 320.88 C238.28 323.11, 242.99 327.98, 251.38 334.46 M230.39 320.88 C238.02 327, 247.02 332.09, 251.38 334.46" stroke="#1e1e1e" stroke-width="2" fill="none"/></g><g transform="translate(680.7859632864697 154.16770038063407) rotate(0 125.12798759672899 168.078256047734)"><path d="M244.03 310.57 C247.99 315.75, 248.77 323.59, 251.38 334.46 M244.03 310.57 C246.35 320.8, 249.96 329.97, 251.38 334.46" stroke="#1e1e1e" stroke-width="2" fill="none"/></g></g><mask/><g stroke-linecap="round"><g transform="translate(679.7868418201085 452.6585007533115) rotate(0 128.3450419625093 -178.63522173929886)"><path d="M-0.39 0.69 C42.54 -58.76, 213.88 -296.23, 256.73 -356.09 M1.61 0.01 C44.46 -59.79, 213.4 -297.96, 255.8 -357.59" stroke="#1e1e1e" stroke-width="2" fill="none"/></g><g transform="translate(679.7868418201085 452.6585007533115) rotate(0 128.3450419625093 -178.63522173929886)"><path d="M249.17 -333.49 C251.71 -338.89, 254.03 -344.39, 255.8 -357.59 M249.17 -333.49 C251.55 -338.57, 252.7 -343.47, 255.8 -357.59" stroke="#1e1e1e" stroke-width="2" fill="none"/></g><g transform="translate(679.7868418201085 452.6585007533115) rotate(0 128.3450419625093 -178.63522173929886)"><path d="M235.22 -343.39 C240.99 -346.49, 246.48 -349.75, 255.8 -357.59 M235.22 -343.39 C240.38 -346.53, 244.32 -349.45, 255.8 -357.59" stroke="#1e1e1e" stroke-width="2" fill="none"/></g></g><mask/><g stroke-linecap="round"><g transform="translate(679.0044055729513 255.6026101212003) rotate(0 125.93154292626502 58.29519196013257)"><path d="M0.84 -0.25 C42.96 19.4, 209.64 98.18, 251.57 117.63 M-0.18 -1.43 C41.86 17.94, 208.45 96.19, 250.46 116.06" stroke="#1e1e1e" stroke-width="2" fill="none"/></g><g transform="translate(679.0044055729513 255.6026101212003) rotate(0 125.93154292626502 58.29519196013257)"><path d="M225.57 113.78 C230.13 113.57, 237.29 115.37, 250.46 116.06 M225.57 113.78 C232.04 113.4, 239.36 115.44, 250.46 116.06" stroke="#1e1e1e" stroke-width="2" fill="none"/></g><g transform="translate(679.0044055729513 255.6026101212003) rotate(0 125.93154292626502 58.29519196013257)"><path d="M232.85 98.31 C235.92 101.25, 241.61 106.15, 250.46 116.06 M232.85 98.31 C237.31 102.46, 242.51 109.02, 250.46 116.06" stroke="#1e1e1e" stroke-width="2" fill="none"/></g></g><mask/><g stroke-linecap="round"><g transform="translate(678.1677121710647 360.1253271603871) rotate(0 126.62976039369198 -67.59424157626722)"><path d="M0.49 -0.19 C42.66 -22.93, 211.83 -113.31, 254.15 -135.67 M-0.71 -1.34 C41.27 -23.99, 211.18 -111.89, 253.67 -134.39" stroke="#1e1e1e" stroke-width="2" fill="none"/></g><g transform="translate(678.1677121710647 360.1253271603871) rotate(0 126.62976039369198 -67.59424157626722)"><path d="M236.81 -115.93 C243.04 -121.82, 249.22 -128.74, 253.67 -134.39 M236.81 -115.93 C243.49 -122.73, 249.14 -129.74, 253.67 -134.39" stroke="#1e1e1e" stroke-width="2" fill="none"/></g><g transform="translate(678.1677121710647 360.1253271603871) rotate(0 126.62976039369198 -67.59424157626722)"><path d="M228.89 -131.08 C238.35 -131.01, 247.67 -131.93, 253.67 -134.39 M228.89 -131.08 C238.6 -132.32, 247.15 -133.77, 253.67 -134.39" stroke="#1e1e1e" stroke-width="2" fill="none"/></g></g><mask/></svg>