<svg version="1.1" xmlns="http://www.w3.org/2000/svg" viewBox="0 0 1109.8178902059847 664.830709153347" width="1109.8178902059847" height="664.830709153347" class="excalidraw-svg">
  <!-- svg-source:excalidraw -->
  
  <defs>
    <style class="style-fonts">
      @font-face {
        font-family: "Virgil";
        src: url("https://excalidraw.com/Virgil.woff2");
      }
      @font-face {
        font-family: "Cascadia";
        src: url("https://excalidraw.com/Cascadia.woff2");
      }
      @font-face {
        font-family: "Assistant";
        src: url("https://excalidraw.com/Assistant-Regular.woff2");
      }
    </style>
    
  </defs>
  <rect x="0" y="0" width="1109.8178902059847" height="664.830709153347" fill="#ffffff"/><g stroke-linecap="round" transform="translate(277.09777601662165 265.010007825204) rotate(0 95.5305809169721 189.00265225150667)"><path d="M32 0 C65.24 2.67, 88.65 3.16, 159.06 0 C178.11 -2.88, 193.52 9.94, 191.06 32 C186.99 151.01, 190.98 268.57, 191.06 346.01 C188.42 368.72, 181.55 374.98, 159.06 378.01 C126.3 375.77, 97.61 382.58, 32 378.01 C9.57 376.06, 2.29 368.74, 0 346.01 C-4.21 256.23, -2.96 165.72, 0 32 C2.26 11.28, 7.19 0.48, 32 0" stroke="none" stroke-width="0" fill="#228be6"/><path d="M32 0 C77.7 0.35, 121.31 0.21, 159.06 0 M32 0 C65.26 -0.01, 97.8 0.56, 159.06 0 M159.06 0 C180.26 -1.71, 192.18 11.16, 191.06 32 M159.06 0 C179.84 2.03, 190.83 9.07, 191.06 32 M191.06 32 C190.05 103.62, 191.26 174.03, 191.06 346.01 M191.06 32 C192.92 131.61, 193.6 230.7, 191.06 346.01 M191.06 346.01 C189.08 365.59, 182.37 376.14, 159.06 378.01 M191.06 346.01 C191.56 369.62, 181.64 377.4, 159.06 378.01 M159.06 378.01 C112.09 378.89, 68.46 379.62, 32 378.01 M159.06 378.01 C128.36 377, 99.26 377.36, 32 378.01 M32 378.01 C10.89 376.62, 0.59 365.4, 0 346.01 M32 378.01 C12.36 376.95, 0.87 368.81, 0 346.01 M0 346.01 C-1.74 258.23, -2.08 167.49, 0 32 M0 346.01 C2.42 249.28, 1.86 153.47, 0 32 M0 32 C1.24 10.32, 12.29 1.76, 32 0 M0 32 C1.07 10.71, 8.92 0.87, 32 0" stroke="#1e1e1e" stroke-width="2" fill="none"/></g><g transform="translate(314.85380186405644 220.24815564823353) rotate(0 50.0390625 11.5)"><text x="0" y="0" font-family="Helvetica, Segoe UI Emoji" font-size="20px" fill="#1e1e1e" text-anchor="start" style="white-space: pre;" direction="ltr" dominant-baseline="text-before-edge">Page Table</text></g><g stroke-linecap="round"><g transform="translate(282.93608624529986 362.5147507699908) rotate(0 91.21202904525023 0.8275503845152912)"><path d="M-0.13 -0.53 C30.17 -0.22, 151.17 1.05, 181.75 1.34 M-1.66 1.81 C29.03 2.33, 153.32 2.63, 184.11 2.71" stroke="#1e1e1e" stroke-width="2" fill="none"/></g></g><mask/><g stroke-linecap="round"><g transform="translate(283.1406666246038 468.1147127103548) rotate(0 91.28427175997297 -0.7403268572920751)"><path d="M-0.68 -0.31 C29.93 -0.54, 152.78 -1.75, 183.48 -1.89 M1.17 -1.52 C31.71 -1.54, 152.66 -0.87, 183.01 -0.57" stroke="#1e1e1e" stroke-width="2" fill="none"/></g></g><mask/><g stroke-linecap="round"><g transform="translate(279.49333241783677 581.6896178966506) rotate(0 92.05765083968731 0.3039516713913599)"><path d="M0.91 -0.41 C31.87 -0.22, 154.56 0.88, 185.08 0.88 M-0.07 -1.68 C30.87 -1.83, 154.09 -1.44, 184.64 -1.1" stroke="#1e1e1e" stroke-width="2" fill="none"/></g></g><mask/><g stroke-linecap="round" transform="translate(10 12.237370584905136) rotate(0 345.5872497558594 67.6651382446289)"><path d="M32 0 C171.38 -1.68, 309.89 -2.65, 659.17 0 M32 0 C173.09 -2.63, 313.86 -2.62, 659.17 0 M659.17 0 C679.96 -1.84, 690.58 12.27, 691.17 32 M659.17 0 C679.03 -2.24, 689.63 9.34, 691.17 32 M691.17 32 C691.49 52.52, 692.08 71.93, 691.17 103.33 M691.17 32 C692.12 51.07, 692.33 70.29, 691.17 103.33 M691.17 103.33 C691.31 124.43, 680.73 134.01, 659.17 135.33 M691.17 103.33 C692.94 124.77, 680.57 136.24, 659.17 135.33 M659.17 135.33 C453.76 137.06, 248.65 137.99, 32 135.33 M659.17 135.33 C420.18 133.12, 180.55 133.38, 32 135.33 M32 135.33 C10.01 135.87, 1.12 125.99, 0 103.33 M32 135.33 C10.55 137.16, 1.81 125.01, 0 103.33 M0 103.33 C1.22 88.11, 0.65 70.33, 0 32 M0 103.33 C-0.43 85.87, 0.58 67.39, 0 32 M0 32 C-1.19 12.56, 10.13 -1.54, 32 0 M0 32 C-1.7 9.75, 9.63 -2.27, 32 0" stroke="#1e1e1e" stroke-width="2" fill="none"/></g><g stroke-linecap="round"><g transform="translate(457.7119140625 10.816716288030136) rotate(0 -0.934967041015625 67.5410385131836)"><path d="M0.04 -0.82 C-0.26 21.6, -0.37 112.67, -0.78 135.25 M-1.4 1.37 C-1.85 23.95, -0.81 114.48, -1.16 136.88" stroke="#1e1e1e" stroke-width="2" fill="none"/></g></g><mask/><g transform="translate(135.248779296875 71.03732628290533) rotate(0 92.646484375 11.5)"><text x="0" y="0" font-family="Helvetica, Segoe UI Emoji" font-size="20px" fill="#1e1e1e" text-anchor="start" style="white-space: pre;" direction="ltr" dominant-baseline="text-before-edge">Virtual Page Number</text></g><g transform="translate(552.139415396289 70.24461850970982) rotate(0 26.4990234375 11.5)"><text x="0" y="0" font-family="Helvetica, Segoe UI Emoji" font-size="20px" fill="#1e1e1e" text-anchor="start" style="white-space: pre;" direction="ltr" dominant-baseline="text-before-edge">Offset</text></g><g mask="url(#mask-alwZYPKYvgJzynvdfohyM)" stroke-linecap="round"><g transform="translate(469.8596763839507 166.5368243202567) rotate(0 108.13665771484375 -0.175445556640625)"><path d="M-0.16 -0.75 C35.91 -0.62, 180.68 0.67, 216.91 0.69 M-1.7 1.47 C34.22 1.29, 179.86 -0.73, 216.29 -0.88" stroke="#1e1e1e" stroke-width="2" fill="none"/></g><g transform="translate(469.8596763839507 166.5368243202567) rotate(0 108.13665771484375 -0.175445556640625)"><path d="M1.13 -2.66 L13.1 -7.86 L14.91 7.63 L1.13 0.43" stroke="none" stroke-width="0" fill="#1e1e1e" fill-rule="evenodd"/><path d="M-0.16 -0.75 C3.57 -2.07, 10.48 -3.86, 13.48 -7 M-0.16 -0.75 C3.04 -2.76, 7.49 -4.75, 13.48 -7 M13.48 -7 C14.21 -1.23, 13.29 2.8, 13.39 5.68 M13.48 -7 C13.29 -2.04, 13.79 2.81, 13.39 5.68 M13.39 5.68 C9.08 3.29, 3.96 2.39, -0.16 -0.75 M13.39 5.68 C10.07 3.4, 5.63 2.58, -0.16 -0.75 M-0.16 -0.75 C-0.16 -0.75, -0.16 -0.75, -0.16 -0.75 M-0.16 -0.75 C-0.16 -0.75, -0.16 -0.75, -0.16 -0.75" stroke="#1e1e1e" stroke-width="2" fill="none"/></g><g transform="translate(469.8596763839507 166.5368243202567) rotate(0 108.13665771484375 -0.175445556640625)"><path d="M217.58 -2.79 L202.38 4.72 L204.16 -5.14 L217.58 0.3" stroke="none" stroke-width="0" fill="#1e1e1e" fill-rule="evenodd"/><path d="M216.29 -0.88 C210.72 2.11, 208.34 4.66, 202.76 5.59 M216.29 -0.88 C211.92 0.47, 208.82 2.02, 202.76 5.59 M202.76 5.59 C203.69 2.12, 202.75 -3.09, 202.64 -7.09 M202.76 5.59 C202.54 0.45, 203.03 -4.8, 202.64 -7.09 M202.64 -7.09 C207.7 -4.89, 211.97 -1.43, 216.29 -0.88 M202.64 -7.09 C207.45 -5.64, 211.15 -2.67, 216.29 -0.88 M216.29 -0.88 C216.29 -0.88, 216.29 -0.88, 216.29 -0.88 M216.29 -0.88 C216.29 -0.88, 216.29 -0.88, 216.29 -0.88" stroke="#1e1e1e" stroke-width="2" fill="none"/></g></g><mask id="mask-alwZYPKYvgJzynvdfohyM"><rect x="0" y="0" fill="#fff" width="786.1329918136382" height="266.88771543353795"/><rect x="552.4348106612945" y="154.86137876361607" fill="#000" width="51.123046875" height="23" opacity="1"/></mask><g transform="translate(552.4348106612945 154.86137876361607) rotate(0 25.02870901318734 11.967562574697666)"><text x="25.5615234375" y="0" font-family="Helvetica, Segoe UI Emoji" font-size="20px" fill="#1e1e1e" text-anchor="middle" style="white-space: pre;" direction="ltr" dominant-baseline="text-before-edge">S-bits</text></g><g stroke-linecap="round"><g transform="translate(450.6754546103983 167.31132993549107) rotate(0 -213.53284749429096 -0.5113525390625)"><path d="M0.69 0.69 C-70.72 0.54, -356.53 -1.27, -427.68 -1.74 M-0.41 0 C-71.48 0.08, -354.27 -0.35, -425.3 -0.58" stroke="#1e1e1e" stroke-width="2" fill="none"/></g></g><mask/><g mask="url(#mask-0TCVc7kuBqDsSEb7P_uxU)" stroke-linecap="round"><g transform="translate(171.37163175155547 172.89660973017084) rotate(0 1.3389114772181756 123.37085461376842)"><path d="M0.47 -0.73 C0.97 40.62, 1.22 205.67, 1.79 246.9 M-0.73 1.51 C0.23 43.17, 3.29 207.45, 4.03 248.52" stroke="#1e1e1e" stroke-width="2" fill="none"/></g><g transform="translate(171.37163175155547 172.89660973017084) rotate(0 1.3389114772181756 123.37085461376842)"><path d="M4.74 248.75 L-3.13 236.44 L11.25 235.07 L3.47 250.32" stroke="none" stroke-width="0" fill="#1e1e1e" fill-rule="evenodd"/><path d="M4.03 248.52 C1.91 244.69, 1.68 244.54, -2.56 235.04 M4.03 248.52 C1.49 244.24, -0.38 239.88, -2.56 235.04 M-2.56 235.04 C2.22 235.23, 5.5 235.67, 10.12 234.81 M-2.56 235.04 C-0.15 235.32, 2.94 234.55, 10.12 234.81 M10.12 234.81 C8.81 239.52, 5.57 242.25, 4.03 248.52 M10.12 234.81 C7.65 239.46, 6.8 243.44, 4.03 248.52 M4.03 248.52 C4.03 248.52, 4.03 248.52, 4.03 248.52 M4.03 248.52 C4.03 248.52, 4.03 248.52, 4.03 248.52" stroke="#1e1e1e" stroke-width="2" fill="none"/></g></g><mask id="mask-0TCVc7kuBqDsSEb7P_uxU"><rect x="0" y="0" fill="#fff" width="274.0494547059918" height="519.6383189577077"/><rect x="122.67148072877364" y="273.26746434393925" fill="#000" width="100.078125" height="46" opacity="1"/></mask><g transform="translate(122.67148072877364 273.26746434393925) rotate(0 50.349094417663295 23.524458117797025)"><text x="50.0390625" y="0" font-family="Helvetica, Segoe UI Emoji" font-size="20px" fill="#1e1e1e" text-anchor="middle" style="white-space: pre;" direction="ltr" dominant-baseline="text-before-edge">Index into</text><text x="50.0390625" y="23" font-family="Helvetica, Segoe UI Emoji" font-size="20px" fill="#1e1e1e" text-anchor="middle" style="white-space: pre;" direction="ltr" dominant-baseline="text-before-edge">Page Table</text></g><g stroke-linecap="round"><g transform="translate(179.30238973906796 446.4103182810854) rotate(0 44.284016312106644 -0.7253517167424661)"><path d="M-0.52 0.49 C13.89 0.13, 72.76 -1.62, 87.63 -2.12 M1.41 -0.3 C16.09 -0.51, 75.42 -0.69, 89.85 -0.93" stroke="#1e1e1e" stroke-width="2" fill="none"/></g><g transform="translate(179.30238973906796 446.4103182810854) rotate(0 44.284016312106644 -0.7253517167424661)"><path d="M90.43 -0.81 L75.17 5.59 L76.36 -6.87 L91.61 -2.58" stroke="none" stroke-width="0" fill="#1e1e1e" fill-rule="evenodd"/><path d="M89.85 -0.93 C85.08 0.41, 78.25 4.31, 76.31 5.53 M89.85 -0.93 C86.97 0.14, 84.71 1.75, 76.31 5.53 M76.31 5.53 C75.3 2.89, 77.38 -0.32, 76.2 -7.15 M76.31 5.53 C75.7 2.54, 76.54 0.37, 76.2 -7.15 M76.2 -7.15 C78.89 -5.01, 81.4 -4.65, 89.85 -0.93 M76.2 -7.15 C79.2 -5.19, 82.36 -4.31, 89.85 -0.93 M89.85 -0.93 C89.85 -0.93, 89.85 -0.93, 89.85 -0.93 M89.85 -0.93 C89.85 -0.93, 89.85 -0.93, 89.85 -0.93" stroke="#1e1e1e" stroke-width="2" fill="none"/></g></g><mask/><g stroke-linecap="round" transform="translate(629.9193808716295 481.1862296122186) rotate(0 234.94925466717754 46.58825711128708)"><path d="M23.29 0 C189.19 -0.07, 353.34 -0.4, 446.6 0 M23.29 0 C169.22 -1.97, 314.78 -1.79, 446.6 0 M446.6 0 C463.14 -0.42, 470.55 6.2, 469.9 23.29 M446.6 0 C462.96 1.04, 467.83 9.45, 469.9 23.29 M469.9 23.29 C468.53 39.45, 470.39 59.52, 469.9 69.88 M469.9 23.29 C469.86 38.65, 470.51 52.68, 469.9 69.88 M469.9 69.88 C470.22 85.88, 460.91 91.68, 446.6 93.18 M469.9 69.88 C468.1 83.53, 464.15 94.56, 446.6 93.18 M446.6 93.18 C314.17 93.96, 182.64 93.37, 23.29 93.18 M446.6 93.18 C351.73 94.07, 255.89 94.88, 23.29 93.18 M23.29 93.18 C9.38 91.87, -0.26 84.3, 0 69.88 M23.29 93.18 C7.77 93.58, 1.77 85.01, 0 69.88 M0 69.88 C0.88 59.1, -1.56 50.58, 0 23.29 M0 69.88 C0.53 58.55, -0.33 47.56, 0 23.29 M0 23.29 C-1.29 5.99, 9.51 -1.7, 23.29 0 M0 23.29 C-0.3 8.4, 7.51 2.01, 23.29 0" stroke="#1e1e1e" stroke-width="2" fill="none"/></g><g stroke-linecap="round"><g transform="translate(871.704176722064 481.324734761) rotate(0 -0.8586055058799502 46.474719234048735)"><path d="M-0.2 0.16 C-0.54 15.42, -1.01 76.57, -1.18 92.17 M-1.76 -0.8 C-2.29 14.54, -1.85 77.85, -1.85 93.3" stroke="#1e1e1e" stroke-width="2" fill="none"/></g></g><mask/><g transform="translate(694.6350227732723 517.3689417510079) rotate(0 67.236328125 11.5)"><text x="0" y="0" font-family="Helvetica, Segoe UI Emoji" font-size="20px" fill="#1e1e1e" text-anchor="start" style="white-space: pre;" direction="ltr" dominant-baseline="text-before-edge">Frame Number</text></g><g transform="translate(959.4465168870868 516.2777297659425) rotate(0 26.4990234375 11.5)"><text x="0" y="0" font-family="Helvetica, Segoe UI Emoji" font-size="20px" fill="#1e1e1e" text-anchor="start" style="white-space: pre;" direction="ltr" dominant-baseline="text-before-edge">Offset</text></g><g mask="url(#mask-FdZuVBFcOlWxB1WlvRC9g)" stroke-linecap="round"><g transform="translate(1079.4033695655296 463.89329051100356) rotate(0 -103.8319091796875 -0.1840057373046875)"><path d="M1.03 0.63 C-33.81 0.57, -174.09 0.46, -208.85 0.1 M0.11 -0.08 C-34.39 -0.55, -172.04 -1.65, -206.76 -1.78" stroke="#1e1e1e" stroke-width="2" fill="none"/></g><g transform="translate(1079.4033695655296 463.89329051100356) rotate(0 -103.8319091796875 -0.1840057373046875)"><path d="M1 15.63 C1.74 9.45, 1.54 6.41, 1.03 0.63 M1 15.63 C0.26 12.49, 0.76 9.07, 1.03 0.63" stroke="#1e1e1e" stroke-width="2" fill="none"/></g><g transform="translate(1079.4033695655296 463.89329051100356) rotate(0 -103.8319091796875 -0.1840057373046875)"><path d="M1.06 -14.37 C1.9 -11.14, 1.68 -4.76, 1.03 0.63 M1.06 -14.37 C0.53 -11.46, 1.02 -8.83, 1.03 0.63" stroke="#1e1e1e" stroke-width="2" fill="none"/></g><g transform="translate(1079.4033695655296 463.89329051100356) rotate(0 -103.8319091796875 -0.1840057373046875)"><path d="M-206.66 -16.78 C-205.84 -13.56, -206.08 -7.18, -206.76 -1.78 M-206.66 -16.78 C-207.21 -13.88, -206.72 -11.25, -206.76 -1.78" stroke="#1e1e1e" stroke-width="2" fill="none"/></g><g transform="translate(1079.4033695655296 463.89329051100356) rotate(0 -103.8319091796875 -0.1840057373046875)"><path d="M-206.85 13.22 C-206.09 7.03, -206.28 3.99, -206.76 -1.78 M-206.85 13.22 C-207.59 10.07, -207.06 6.65, -206.76 -1.78" stroke="#1e1e1e" stroke-width="2" fill="none"/></g></g><mask id="mask-FdZuVBFcOlWxB1WlvRC9g"><rect x="0" y="0" fill="#fff" width="1387.0671879249046" height="564.2613019856129"/><rect x="950.0099369483421" y="452.20928477369887" fill="#000" width="51.123046875" height="23" opacity="1"/></mask><g transform="translate(950.0099369483421 452.20928477369887) rotate(0 25.483898140490055 11.109704981162212)"><text x="25.5615234375" y="0" font-family="Helvetica, Segoe UI Emoji" font-size="20px" fill="#1e1e1e" text-anchor="middle" style="white-space: pre;" direction="ltr" dominant-baseline="text-before-edge">S-bits</text></g><g stroke-linecap="round"><g transform="translate(875.2354689866308 479.260400212458) rotate(0 -207.5747225942909 -164.66672880838024)"><path d="M0.45 -0.99 C-68.74 -56.06, -345.78 -274.98, -415.16 -329.76 M-0.77 1.11 C-70.11 -53.85, -346.75 -273.5, -416.11 -328.45" stroke="#1e1e1e" stroke-width="2" fill="none"/></g></g><mask/><g stroke-linecap="round"><g transform="translate(1094.5617010008905 479.39278393684293) rotate(0 -200.7726278737291 -170.01757324237633)"><path d="M0.46 0.56 C-66.52 -56.11, -335.4 -282.35, -402.4 -339.08 M-0.76 -0.2 C-67.32 -57.27, -333.21 -284.34, -400.14 -340.7" stroke="#1e1e1e" stroke-width="2" fill="none"/></g></g><mask/><g mask="url(#mask-OkFfNLu8Bd-dYl8jQpYvK)" stroke-linecap="round"><g transform="translate(641.2119150231634 588.0931202148727) rotate(0 225.51776727105397 1.0442520332315723)"><path d="M0.81 0.84 C75.93 1.26, 375.7 1.48, 450.69 1.69 M-0.22 0.23 C74.7 0.9, 374.55 2.48, 449.56 3.01" stroke="#1e1e1e" stroke-width="2" fill="none"/></g><g transform="translate(641.2119150231634 588.0931202148727) rotate(0 225.51776727105397 1.0442520332315723)"><path d="M1.41 -0.24 L12.48 -6.08 L14.4 7.24 L2.14 1.26" stroke="none" stroke-width="0" fill="#1e1e1e" fill-rule="evenodd"/><path d="M0.81 0.84 C5.98 -1.57, 8.5 -3.39, 14.42 -5.47 M0.81 0.84 C4.75 -1.3, 8.71 -2.66, 14.42 -5.47 M14.42 -5.47 C15.13 0.35, 15.21 4.9, 14.39 7.2 M14.42 -5.47 C14.82 -1.67, 14.46 1.36, 14.39 7.2 M14.39 7.2 C9.77 3.73, 6.16 1.83, 0.81 0.84 M14.39 7.2 C8.81 5.07, 3.22 1.96, 0.81 0.84 M0.81 0.84 C0.81 0.84, 0.81 0.84, 0.81 0.84 M0.81 0.84 C0.81 0.84, 0.81 0.84, 0.81 0.84" stroke="#1e1e1e" stroke-width="2" fill="none"/></g><g transform="translate(641.2119150231634 588.0931202148727) rotate(0 225.51776727105397 1.0442520332315723)"><path d="M450.17 1.94 L434 8.66 L436.02 -3.37 L450.9 3.44" stroke="none" stroke-width="0" fill="#1e1e1e" fill-rule="evenodd"/><path d="M449.56 3.01 C446.49 4.55, 440.85 6.5, 435.93 9.27 M449.56 3.01 C445.41 4.92, 441.17 7.36, 435.93 9.27 M435.93 9.27 C436.57 5.43, 436.7 0.32, 436.01 -3.41 M435.93 9.27 C436.3 6.69, 435.96 3.34, 436.01 -3.41 M436.01 -3.41 C440.19 -2.58, 445.25 -0.39, 449.56 3.01 M436.01 -3.41 C441.19 -0.58, 446.43 1.41, 449.56 3.01 M449.56 3.01 C449.56 3.01, 449.56 3.01, 449.56 3.01 M449.56 3.01 C449.56 3.01, 449.56 3.01, 449.56 3.01" stroke="#1e1e1e" stroke-width="2" fill="none"/></g></g><mask id="mask-OkFfNLu8Bd-dYl8jQpYvK"><rect x="0" y="0" fill="#fff" width="1192.2474495652714" height="690.1816242813359"/><rect x="842.2765572942175" y="577.6373722481043" fill="#000" width="48.90625" height="23" opacity="1"/></mask><g transform="translate(842.2765572942174 577.6373722481043) rotate(0 24.169574117385764 12.07837993557564)"><text x="24.453125" y="0" font-family="Helvetica, Segoe UI Emoji" font-size="20px" fill="#1e1e1e" text-anchor="middle" style="white-space: pre;" direction="ltr" dominant-baseline="text-before-edge">p-bits</text></g><g transform="translate(798.5232888729087 631.830709153347) rotate(0 76.69921875 11.5)"><text x="0" y="0" font-family="Helvetica, Segoe UI Emoji" font-size="20px" fill="#1e1e1e" text-anchor="start" style="white-space: pre;" direction="ltr" dominant-baseline="text-before-edge">Physical Address</text></g><g stroke-linecap="round"><g transform="translate(493.46507560967575 538.1800965510579) rotate(0 61.58066548019599 0.5549520266262107)"><path d="M1.13 0.81 C21.52 1, 102.44 2.01, 122.86 2.02 M0.27 0.19 C20.43 -0.02, 101.27 0.06, 121.75 0.38" stroke="#1e1e1e" stroke-width="2" fill="none"/></g><g transform="translate(493.46507560967575 538.1800965510579) rotate(0 61.58066548019599 0.5549520266262107)"><path d="M120.76 -0.64 L109.87 6.56 L110.08 -7.75 L121.17 1.77" stroke="none" stroke-width="0" fill="#1e1e1e" fill-rule="evenodd"/><path d="M121.75 0.38 C118.13 2.28, 113.58 5.43, 108.11 6.62 M121.75 0.38 C118.46 2.28, 114.43 3.3, 108.11 6.62 M108.11 6.62 C107.73 2.77, 109.42 0.92, 108.2 -6.05 M108.11 6.62 C108.04 4.35, 108.01 1.13, 108.2 -6.05 M108.2 -6.05 C110.8 -4.39, 116.9 -2.69, 121.75 0.38 M108.2 -6.05 C110.41 -4.05, 114.03 -3.47, 121.75 0.38 M121.75 0.38 C121.75 0.38, 121.75 0.38, 121.75 0.38 M121.75 0.38 C121.75 0.38, 121.75 0.38, 121.75 0.38" stroke="#1e1e1e" stroke-width="2" fill="none"/></g></g><mask/><g transform="translate(723.7829609110978 65.33107074793821) rotate(0 67.6318359375 11.5)"><text x="0" y="0" font-family="Helvetica, Segoe UI Emoji" font-size="20px" fill="#1e1e1e" text-anchor="start" style="white-space: pre;" direction="ltr" dominant-baseline="text-before-edge">Virtual Address</text></g></svg>