<svg version="1.1" xmlns="http://www.w3.org/2000/svg" viewBox="0 0 697.4674525367003 630.8369079929311" width="697.4674525367003" height="630.8369079929311" class="excalidraw-svg">
  <!-- svg-source:excalidraw -->
  
  <defs>
    <style class="style-fonts">
      @font-face {
        font-family: "Virgil";
        src: url("https://excalidraw.com/Virgil.woff2");
      }
      @font-face {
        font-family: "Cascadia";
        src: url("https://excalidraw.com/Cascadia.woff2");
      }
      @font-face {
        font-family: "Assistant";
        src: url("https://excalidraw.com/Assistant-Regular.woff2");
      }
    </style>
    
  </defs>
  <rect x="0" y="0" width="697.4674525367003" height="630.8369079929311" fill="#ffffff"/><g stroke-linecap="round" transform="translate(12.208541403887807 11.649560580821714) rotate(0 165.34161376953125 304.5936737060547)"><path d="M32 0 C90.72 1.05, 147.42 0.55, 298.68 0 M32 0 C117.4 0.4, 202.47 0, 298.68 0 M298.68 0 C319.73 -0.56, 331.67 12.61, 330.68 32 M298.68 0 C319.45 -1.75, 332.73 8.39, 330.68 32 M330.68 32 C328.36 241.22, 329.4 449.67, 330.68 577.19 M330.68 32 C331.43 197.36, 331.51 363.31, 330.68 577.19 M330.68 577.19 C328.69 596.63, 321.72 609.12, 298.68 609.19 M330.68 577.19 C330.61 600.24, 320.75 607.42, 298.68 609.19 M298.68 609.19 C207.52 609.9, 115.83 608.8, 32 609.19 M298.68 609.19 C239 608.61, 179.66 607.88, 32 609.19 M32 609.19 C12.15 609.35, 1.96 597.3, 0 577.19 M32 609.19 C8.82 609.28, -0.64 597.55, 0 577.19 M0 577.19 C-0.12 397.52, -0.08 218.93, 0 32 M0 577.19 C-0.66 450.54, -0.85 323.38, 0 32 M0 32 C0.47 11.73, 11.12 0.7, 32 0 M0 32 C2 10.02, 11.7 0.62, 32 0" stroke="#1e1e1e" stroke-width="2" fill="none"/></g><g stroke-linecap="round"><g transform="translate(12.576522360919057 129.21734012183734) rotate(0 164.84527587890625 0.4792633056640625)"><path d="M0.71 0.15 C55.71 0.25, 275.91 -0.48, 330.74 -0.17 M-0.37 -0.82 C54.5 -0.54, 275.45 0.6, 330.35 0.77" stroke="#1e1e1e" stroke-width="2" fill="none"/></g></g><mask/><g transform="translate(156.3665003882628 62.58641971168109) rotate(0 23.90625 11.5)"><text x="0" y="0" font-family="Helvetica, Segoe UI Emoji" font-size="20px" fill="#1e1e1e" text-anchor="start" style="white-space: pre;" direction="ltr" dominant-baseline="text-before-edge">Code</text></g><g stroke-linecap="round" transform="translate(342.7634730445128 14.405297885509214) rotate(0 113.65460205078125 22.59356689453125)"><path d="M11.3 0 C69.22 -3.36, 126.84 0.49, 216.01 0 C222.32 1.6, 225.22 2.22, 227.31 11.3 C224.24 14.88, 224.71 23.63, 227.31 33.89 C223.97 41.98, 222.9 42, 216.01 45.19 C154.86 44.55, 88.03 45.81, 11.3 45.19 C2.75 43.2, 0.87 43.41, 0 33.89 C2.82 32.87, 1.76 23.86, 0 11.3 C0.33 5.75, 1.27 -3.31, 11.3 0" stroke="none" stroke-width="0" fill="#a5d8ff"/><path d="M11.3 0 C92.1 2.2, 171.4 1.71, 216.01 0 M11.3 0 C61.03 -1.24, 111.94 -1.36, 216.01 0 M216.01 0 C225.14 -0.69, 226.53 3.39, 227.31 11.3 M216.01 0 C221.28 -0.33, 227.61 3.38, 227.31 11.3 M227.31 11.3 C225.7 17.06, 227.62 24.43, 227.31 33.89 M227.31 11.3 C227.5 20.8, 227.42 29.27, 227.31 33.89 M227.31 33.89 C227.22 40.97, 221.81 46.47, 216.01 45.19 M227.31 33.89 C229.6 42.79, 225.31 44.42, 216.01 45.19 M216.01 45.19 C148.05 45.94, 80.82 46.57, 11.3 45.19 M216.01 45.19 C163.6 44.49, 110.66 44.84, 11.3 45.19 M11.3 45.19 C2.5 44.68, -0.53 42.1, 0 33.89 M11.3 45.19 C3.97 46.85, -1.45 39.72, 0 33.89 M0 33.89 C1.47 25.2, -1.54 19.61, 0 11.3 M0 33.89 C0.63 28.42, -0.8 21.63, 0 11.3 M0 11.3 C0.48 4.89, 2.16 1.8, 11.3 0 M0 11.3 C1.16 2.26, 4.84 2.23, 11.3 0" stroke="#1e1e1e" stroke-width="2" fill="none"/></g><g stroke-linecap="round" transform="translate(344.27574111091906 60.81817019996234) rotate(0 113.65460205078125 22.59356689453125)"><path d="M11.3 0 C75.7 -3.48, 140.18 -2.79, 216.01 0 C220.97 3.37, 225.02 3.19, 227.31 11.3 C225.13 14.53, 226.65 21.65, 227.31 33.89 C228.69 42.36, 222.02 46.04, 216.01 45.19 C148.06 43.51, 87.13 43.79, 11.3 45.19 C1.65 42.41, -3.42 44.14, 0 33.89 C2.35 24.11, 2.45 23.76, 0 11.3 C0.99 3.44, 4.11 -2.36, 11.3 0" stroke="none" stroke-width="0" fill="#a5d8ff"/><path d="M11.3 0 C60.33 -1.86, 111.89 -2.44, 216.01 0 M11.3 0 C71.27 -0.83, 132.91 0.17, 216.01 0 M216.01 0 C222.03 -1.66, 225.54 5.12, 227.31 11.3 M216.01 0 C221.91 0.22, 229.29 2.04, 227.31 11.3 M227.31 11.3 C225.48 18.7, 228.24 28.47, 227.31 33.89 M227.31 11.3 C226.55 19.03, 227.15 25.98, 227.31 33.89 M227.31 33.89 C228.32 40.73, 223.4 45.66, 216.01 45.19 M227.31 33.89 C227.4 39.26, 224.18 46.45, 216.01 45.19 M216.01 45.19 C141.47 43.88, 63.61 44.75, 11.3 45.19 M216.01 45.19 C141.13 43.78, 66.15 44.59, 11.3 45.19 M11.3 45.19 C2.7 44.41, -1.96 41.77, 0 33.89 M11.3 45.19 C2.08 45.2, 0.81 40.88, 0 33.89 M0 33.89 C-0.85 28.34, 1.07 20.83, 0 11.3 M0 33.89 C0.46 24.86, -0.79 18.45, 0 11.3 M0 11.3 C-1.71 2.97, 3.33 0.23, 11.3 0 M0 11.3 C1.97 2.65, 2.83 0.66, 11.3 0" stroke="#1e1e1e" stroke-width="2" fill="none"/></g><g stroke-linecap="round" transform="translate(343.86473036873156 108.04903567847796) rotate(0 113.65460205078125 22.59356689453125)"><path d="M11.3 0 C53.25 0.09, 94.44 -0.23, 216.01 0 C221.53 -0.72, 224.86 4.94, 227.31 11.3 C224.42 14.6, 230.02 18.66, 227.31 33.89 C229.33 41.24, 221.26 42.02, 216.01 45.19 C162.47 47.1, 110.71 48.63, 11.3 45.19 C6.59 46.5, 3.06 44.84, 0 33.89 C-1.57 31.01, -2.21 23.46, 0 11.3 C3.23 3.12, 4.85 1.87, 11.3 0" stroke="none" stroke-width="0" fill="#a5d8ff"/><path d="M11.3 0 C90.31 -2.69, 172.22 -1.35, 216.01 0 M11.3 0 C54.26 0.49, 98.2 0.53, 216.01 0 M216.01 0 C221.63 0.55, 226.62 4.62, 227.31 11.3 M216.01 0 C224.94 -0.9, 229.31 1.96, 227.31 11.3 M227.31 11.3 C226.35 16.45, 225.92 24.97, 227.31 33.89 M227.31 11.3 C227.7 18.91, 226.44 26.12, 227.31 33.89 M227.31 33.89 C228.24 39.95, 223.2 47.08, 216.01 45.19 M227.31 33.89 C228.26 39.46, 223.93 46, 216.01 45.19 M216.01 45.19 C146.84 43.77, 80.12 45.89, 11.3 45.19 M216.01 45.19 C134.93 44.36, 53.59 44.4, 11.3 45.19 M11.3 45.19 C3.73 45.35, -0.62 39.91, 0 33.89 M11.3 45.19 C4.51 45.83, 1 39.44, 0 33.89 M0 33.89 C-0.84 24.21, 1.27 16.26, 0 11.3 M0 33.89 C0.97 28, -0.34 23.95, 0 11.3 M0 11.3 C1.11 4.83, 5.04 0.49, 11.3 0 M0 11.3 C0.13 1.86, 2.79 -2.07, 11.3 0" stroke="#1e1e1e" stroke-width="2" fill="none"/></g><g stroke-linecap="round"><g transform="translate(341.4882044898253 157.6304870944936) rotate(0 -165.144775390625 -1.0697784423828125)"><path d="M0.27 -0.02 C-54.58 -0.52, -275.02 -1.78, -330.25 -2.21 M-1.05 -1.07 C-55.94 -1.45, -276.58 -0.64, -331.18 -0.7" stroke="#1e1e1e" stroke-width="2" fill="none"/></g></g><mask/><g stroke-linecap="round"><g transform="translate(589.1914515601378 13.074517856212339) rotate(0 7.9013671875 0.0748748779296875)"><path d="M-0.55 -0.46 C2.08 -0.55, 12.87 -0.1, 15.52 -0.09 M0.17 0.49 C3.01 0.71, 13.9 0.58, 16.61 0.49" stroke="#1e1e1e" stroke-width="2" fill="none"/></g></g><mask/><g stroke-linecap="round"><g transform="translate(591.7922766663985 146.71320941311848) rotate(0 7.9013671875 -0.4214935302734375)"><path d="M0.28 0.15 C2.95 -0.07, 13.56 -0.6, 16.09 -0.84 M-0.24 -0.25 C2.37 -0.41, 12.99 -0.02, 15.8 -0.14" stroke="#1e1e1e" stroke-width="2" fill="none"/></g></g><mask/><g stroke-linecap="round"><g transform="translate(607.3005824195128 10.994866977306089) rotate(0 0.731689453125 68.53379821777344)"><path d="M0.43 0.03 C0.56 22.65, 1.48 113.56, 1.85 136.31 M-0.81 -0.99 C-0.89 21.71, 0.55 114.36, 1.1 137.45" stroke="#1e1e1e" stroke-width="2" fill="none"/></g></g><mask/><g transform="translate(630.7584681617003 67.14925540504046) rotate(0 28.3544921875 11.5)"><text x="0" y="0" font-family="Helvetica, Segoe UI Emoji" font-size="20px" fill="#1e1e1e" text-anchor="start" style="white-space: pre;" direction="ltr" dominant-baseline="text-before-edge">Pages</text></g><g stroke-linecap="round"><g transform="translate(11.763534079669057 318.9219299655873) rotate(0 166.08401489257812 1.268768310546875)"><path d="M-0.2 0.94 C55.13 1.33, 276.47 2.42, 332.03 2.78 M-1.76 0.39 C53.4 0.35, 275.22 0.68, 331.01 0.78" stroke="#1e1e1e" stroke-width="2" fill="none"/></g></g><mask/><g transform="translate(160.96226454841906 229.7676941257436) rotate(0 21.123046875 11.5)"><text x="0" y="0" font-family="Helvetica, Segoe UI Emoji" font-size="20px" fill="#1e1e1e" text-anchor="start" style="white-space: pre;" direction="ltr" dominant-baseline="text-before-edge">Data</text></g></svg>