<svg version="1.1" xmlns="http://www.w3.org/2000/svg" viewBox="0 0 1061.0220389394494 563.5333251953125" width="1061.0220389394494" height="563.5333251953125" class="excalidraw-svg">
  <!-- svg-source:excalidraw -->
  
  <defs>
    <style class="style-fonts">
      @font-face {
        font-family: "Virgil";
        src: url("https://excalidraw.com/Virgil.woff2");
      }
      @font-face {
        font-family: "Cascadia";
        src: url("https://excalidraw.com/Cascadia.woff2");
      }
      @font-face {
        font-family: "Assistant";
        src: url("https://excalidraw.com/Assistant-Regular.woff2");
      }
    </style>
    
  </defs>
  <rect x="0" y="0" width="1061.0220389394494" height="563.5333251953125" fill="#ffffff"/><g stroke-linecap="round" transform="translate(427.7364452189671 45.5848388671875) rotate(0 107.04763793945312 253.9742431640625)"><path d="M32 0 C70.24 0.74, 114.93 3.33, 182.1 0 C204.57 -3.32, 212.38 11.35, 214.1 32 C211.06 211.15, 213.31 385.58, 214.1 475.95 C214.87 497.64, 204.95 509.74, 182.1 507.95 C152.89 512.1, 118.26 512.2, 32 507.95 C10.58 511.45, -0.21 495.73, 0 475.95 C-1.41 386.72, -0.42 293.01, 0 32 C1.29 12.13, 9.36 -1.98, 32 0" stroke="none" stroke-width="0" fill="#ffec99"/><path d="M32 0 C86.73 2.57, 140.08 -0.38, 182.1 0 M32 0 C91.3 1.43, 152.86 0.17, 182.1 0 M182.1 0 C204.36 0.41, 213.67 12.26, 214.1 32 M182.1 0 C203.94 -2.19, 213.18 12.21, 214.1 32 M214.1 32 C215.32 200.12, 215.73 370.79, 214.1 475.95 M214.1 32 C216.47 178.99, 216.34 326.78, 214.1 475.95 M214.1 475.95 C213.75 498.96, 204.69 509.84, 182.1 507.95 M214.1 475.95 C212.3 496.08, 201.74 508.79, 182.1 507.95 M182.1 507.95 C130.73 508.08, 82.31 509, 32 507.95 M182.1 507.95 C129.75 508.61, 75.73 508.13, 32 507.95 M32 507.95 C10.49 509.95, -0.9 498.28, 0 475.95 M32 507.95 C10.87 506.62, 1.58 497.97, 0 475.95 M0 475.95 C2.44 374.61, 1.18 272.88, 0 32 M0 475.95 C1.66 361.7, 1.01 248.77, 0 32 M0 32 C0.85 11.26, 11.81 0.61, 32 0 M0 32 C-2.16 8.62, 11 0.46, 32 0" stroke="#1e1e1e" stroke-width="2" fill="none"/></g><g transform="translate(496.0349071330296 10) rotate(0 37.236328125 11.5)"><text x="0" y="0" font-family="Helvetica, Segoe UI Emoji" font-size="20px" fill="#1e1e1e" text-anchor="start" style="white-space: pre;" direction="ltr" dominant-baseline="text-before-edge">Physical</text></g><g stroke-linecap="round" transform="translate(36.392939359592106 73.05227661132812) rotate(0 118.84295654296875 189.9143728079252)"><path d="M32 0 C88.77 -2.97, 146.18 -3.43, 205.69 0 C229.62 0.54, 239.24 11.2, 237.69 32 C235.01 108.64, 236.66 185.05, 237.69 347.83 C239.02 368.18, 226.59 381.91, 205.69 379.83 C157.32 379.14, 103.64 378.44, 32 379.83 C10.43 383.2, -0.75 368.65, 0 347.83 C-2.36 272.11, -2.11 194.23, 0 32 C-1.2 10.02, 7.87 -2.64, 32 0" stroke="none" stroke-width="0" fill="#a5d8ff"/><path d="M32 0 C90.39 2.26, 152.24 -0.05, 205.69 0 M32 0 C93.64 0.64, 155.09 1.76, 205.69 0 M205.69 0 C227.73 1.81, 237.9 8.87, 237.69 32 M205.69 0 C229.21 1.72, 236.39 11.44, 237.69 32 M237.69 32 C238.09 132.9, 239.17 231.17, 237.69 347.83 M237.69 32 C237.48 131.92, 237.37 230.65, 237.69 347.83 M237.69 347.83 C237.35 370.08, 225.72 379.45, 205.69 379.83 M237.69 347.83 C236.62 371.38, 226.54 379, 205.69 379.83 M205.69 379.83 C146.47 379.58, 85.19 380.11, 32 379.83 M205.69 379.83 C166.4 378.66, 127.34 379.99, 32 379.83 M32 379.83 C10.66 380.25, -0.79 367.4, 0 347.83 M32 379.83 C12.75 378.52, -0.53 370.21, 0 347.83 M0 347.83 C-0.87 256.18, -1.12 167.31, 0 32 M0 347.83 C0.4 237.32, 1.55 127.73, 0 32 M0 32 C0.45 11.89, 9.79 -0.53, 32 0 M0 32 C2.16 8.87, 11.41 0.79, 32 0" stroke="#1e1e1e" stroke-width="2" fill="none"/></g><g transform="translate(110.77300527756086 251.46664941925332) rotate(0 44.462890625 11.5)"><text x="44.462890625" y="0" font-family="Helvetica, Segoe UI Emoji" font-size="20px" fill="#1e1e1e" text-anchor="middle" style="white-space: pre;" direction="ltr" dominant-baseline="text-before-edge">Process 0</text></g><g stroke-linecap="round" transform="translate(811.783082424923 88.08855010734607) rotate(0 118.56695556640625 144.95988507972703)"><path d="M32 0 C95.43 -0.91, 154.87 4, 205.13 0 C228.55 -2.54, 238.03 10.4, 237.13 32 C237.36 88.14, 238.97 143.62, 237.13 257.92 C237.87 280.01, 225.49 289.91, 205.13 289.92 C150.12 287.37, 94.71 286.4, 32 289.92 C8.34 291.7, 1.68 276.07, 0 257.92 C-2.52 171.86, -2.35 83.37, 0 32 C-2.57 9.81, 11.81 -2.99, 32 0" stroke="none" stroke-width="0" fill="#a5d8ff"/><path d="M32 0 C74.8 -0.98, 121.41 -0.91, 205.13 0 M32 0 C82.15 0.06, 132.14 1.48, 205.13 0 M205.13 0 C226.77 0.86, 237.43 9.57, 237.13 32 M205.13 0 C225.68 1.3, 235.97 9.98, 237.13 32 M237.13 32 C235.33 102.69, 236.78 173.63, 237.13 257.92 M237.13 32 C236.8 102.05, 236.64 172.51, 237.13 257.92 M237.13 257.92 C239.01 278.84, 226.18 288.75, 205.13 289.92 M237.13 257.92 C237.41 278.79, 224.76 290.42, 205.13 289.92 M205.13 289.92 C163.93 287.79, 121.97 288.32, 32 289.92 M205.13 289.92 C152.76 289.63, 101.27 289.19, 32 289.92 M32 289.92 C11.6 291.75, 1.11 278.88, 0 257.92 M32 289.92 C10.4 291.67, 0.78 280.95, 0 257.92 M0 257.92 C2.58 208.12, 1.78 156.95, 0 32 M0 257.92 C0.18 180.32, 1.05 103.68, 0 32 M0 32 C-0.81 12.34, 9.21 -1.87, 32 0 M0 32 C0.11 9.19, 10.16 1.82, 32 0" stroke="#1e1e1e" stroke-width="2" fill="none"/></g><g transform="translate(885.8871473663293 221.5484351870731) rotate(0 44.462890625 11.5)"><text x="44.462890625" y="0" font-family="Helvetica, Segoe UI Emoji" font-size="20px" fill="#1e1e1e" text-anchor="middle" style="white-space: pre;" direction="ltr" dominant-baseline="text-before-edge">Process 1</text></g><g stroke-linecap="round"><g transform="translate(429.8930614299046 120.10507202148438) rotate(0 106.92141723632812 0.6439971923828125)"><path d="M-0.37 -0.03 C35.59 0.13, 179.27 1.21, 214.9 1.56 M1.64 -1.09 C37.61 -1.36, 179.37 -0.62, 214.5 -0.42" stroke="#1e1e1e" stroke-width="2" fill="none"/></g></g><mask/><g stroke-linecap="round"><g transform="translate(429.20082844112983 190.7137875049901) rotate(0 106.92141723632812 0.6439971923828125)"><path d="M0.49 -0.54 C36.22 -0.23, 177.96 1.11, 213.67 1.57 M-0.71 1.79 C34.9 1.75, 176.77 -0.17, 212.64 -0.41" stroke="#1e1e1e" stroke-width="2" fill="none"/></g></g><mask/><g stroke-linecap="round"><g transform="translate(429.09059894894233 266.8718380420995) rotate(0 106.92141723632812 0.6439971923828125)"><path d="M0.29 -1.05 C36.13 -0.85, 179.43 1.55, 214.93 2.09 M-1.02 1.02 C34.77 0.8, 179.01 0.5, 214.55 0.38" stroke="#1e1e1e" stroke-width="2" fill="none"/></g></g><mask/><g stroke-linecap="round"><g transform="translate(431.41530598019233 337.24396938975576) rotate(0 106.92141723632812 0.6439971923828125)"><path d="M0.49 0.83 C36.14 0.97, 179.25 0.49, 214.67 0.6 M-0.71 0.22 C34.79 0.53, 178.12 1.33, 214.15 1.78" stroke="#1e1e1e" stroke-width="2" fill="none"/></g></g><mask/><g stroke-linecap="round"><g transform="translate(429.37575519894233 399.888805815537) rotate(0 106.92141723632812 0.6439971923828125)"><path d="M0.22 -0.78 C36.11 -0.31, 178.9 1.5, 214.67 2.01 M-1.12 1.42 C34.74 1.63, 178.2 0.42, 214.16 0.26" stroke="#1e1e1e" stroke-width="2" fill="none"/></g></g><mask/><g stroke-linecap="round"><g transform="translate(427.59706867550483 460.72675747569326) rotate(0 106.92141723632812 0.6439971923828125)"><path d="M-0.33 -0.93 C35.1 -0.55, 176.91 1.12, 212.71 1.64 M1.7 1.19 C37.46 1.26, 179.44 -0.15, 214.83 -0.29" stroke="#1e1e1e" stroke-width="2" fill="none"/></g></g><mask/><g stroke-linecap="round"><g transform="translate(426.69777668331733 504.24555630381826) rotate(0 106.92141723632812 0.6439971923828125)"><path d="M-1.2 0 C34.65 0.47, 178.95 1.84, 214.65 2.23 M0.38 -1.05 C36.18 -0.85, 178.28 0.34, 214.12 0.61" stroke="#1e1e1e" stroke-width="2" fill="none"/></g></g><mask/><g stroke-linecap="round"><g transform="translate(799.6804482652079 163.91692270366673) rotate(0 -72.83796456728112 -31.53906032138221)"><path d="M0.29 -0.06 C-24.03 -10.36, -122 -51.41, -146.38 -62.05 M-1.01 -1.13 C-24.91 -11.73, -119.73 -53.32, -144.03 -63.64" stroke="#1e1e1e" stroke-width="2" fill="none"/></g><g transform="translate(799.6804482652079 163.91692270366673) rotate(0 -72.83796456728112 -31.53906032138221)"><path d="M-119.07 -62.16 C-125.76 -63.65, -130.54 -63.32, -144.03 -63.64 M-119.07 -62.16 C-124.33 -62.26, -130.39 -62.67, -144.03 -63.64" stroke="#1e1e1e" stroke-width="2" fill="none"/></g><g transform="translate(799.6804482652079 163.91692270366673) rotate(0 -72.83796456728112 -31.53906032138221)"><path d="M-125.86 -46.46 C-130.72 -52.12, -133.72 -55.93, -144.03 -63.64 M-125.86 -46.46 C-129.63 -50.22, -134.12 -54.25, -144.03 -63.64" stroke="#1e1e1e" stroke-width="2" fill="none"/></g></g><mask/><g stroke-linecap="round"><g transform="translate(803.5250328258786 262.6200376496155) rotate(0 -74.47718618193608 -13.6538637206149)"><path d="M-0.53 0.05 C-25.1 -4.48, -124 -21.69, -148.54 -26.44 M1.4 -0.96 C-23.2 -5.9, -124.38 -23.65, -149.27 -28.1" stroke="#1e1e1e" stroke-width="2" fill="none"/></g><g transform="translate(803.5250328258786 262.6200376496155) rotate(0 -74.47718618193608 -13.6538637206149)"><path d="M-124.65 -32.42 C-129.63 -30.94, -133.37 -28.8, -149.27 -28.1 M-124.65 -32.42 C-129.76 -32.56, -135.38 -30.21, -149.27 -28.1" stroke="#1e1e1e" stroke-width="2" fill="none"/></g><g transform="translate(803.5250328258786 262.6200376496155) rotate(0 -74.47718618193608 -13.6538637206149)"><path d="M-127.63 -15.58 C-132.1 -17.58, -135.22 -18.93, -149.27 -28.1 M-127.63 -15.58 C-132.01 -19.19, -137.01 -20.31, -149.27 -28.1" stroke="#1e1e1e" stroke-width="2" fill="none"/></g></g><mask/><g stroke-linecap="round"><g transform="translate(798.0942396514855 297.33691374450194) rotate(0 -70.72629101508733 117.01363932510333)"><path d="M0.32 -1.14 C-23.38 37.81, -118.23 195.39, -141.91 234.69 M-0.97 0.87 C-24.9 39.39, -119.48 194.28, -143.1 232.92" stroke="#1e1e1e" stroke-width="2" fill="none"/></g><g transform="translate(798.0942396514855 297.33691374450194) rotate(0 -70.72629101508733 117.01363932510333)"><path d="M-138.15 208.41 C-141.46 215.6, -140.06 223.8, -143.1 232.92 M-138.15 208.41 C-140.33 216.54, -141.91 225.07, -143.1 232.92" stroke="#1e1e1e" stroke-width="2" fill="none"/></g><g transform="translate(798.0942396514855 297.33691374450194) rotate(0 -70.72629101508733 117.01363932510333)"><path d="M-123.56 217.33 C-131.68 221.67, -135 226.97, -143.1 232.92 M-123.56 217.33 C-130.93 222.15, -137.69 227.51, -143.1 232.92" stroke="#1e1e1e" stroke-width="2" fill="none"/></g></g><mask/><g stroke-linecap="round"><g transform="translate(289.66554003641784 127.11259325373715) rotate(0 65.2997958529934 12.376458359307733)"><path d="M-0.9 1.01 C21 4.93, 109.42 20.19, 131.52 24.22 M0.83 0.5 C22.64 4.51, 109.27 21.71, 131.06 25.48" stroke="#1e1e1e" stroke-width="2" fill="none"/></g><g transform="translate(289.66554003641784 127.11259325373715) rotate(0 65.2997958529934 12.376458359307733)"><path d="M106.39 29.56 C115.78 30.01, 120.94 29.1, 131.06 25.48 M106.39 29.56 C114.17 28.17, 122.43 25.86, 131.06 25.48" stroke="#1e1e1e" stroke-width="2" fill="none"/></g><g transform="translate(289.66554003641784 127.11259325373715) rotate(0 65.2997958529934 12.376458359307733)"><path d="M109.55 12.75 C118.05 18.44, 122.22 22.8, 131.06 25.48 M109.55 12.75 C116.18 17.07, 123.38 20.46, 131.06 25.48" stroke="#1e1e1e" stroke-width="2" fill="none"/></g></g><mask/><g stroke-linecap="round"><g transform="translate(289.5705215462598 227.08044073721368) rotate(0 64.70973185588491 71.5307279934834)"><path d="M0.6 1.08 C22.26 24.83, 108.6 119.68, 129.96 143.52 M-0.54 0.6 C21.01 24.5, 107.93 118.01, 129.3 141.63" stroke="#1e1e1e" stroke-width="2" fill="none"/></g><g transform="translate(289.5705215462598 227.08044073721368) rotate(0 64.70973185588491 71.5307279934834)"><path d="M107.11 130.11 C115.67 134.36, 121.29 135.82, 129.3 141.63 M107.11 130.11 C115.17 135.34, 124.57 139.73, 129.3 141.63" stroke="#1e1e1e" stroke-width="2" fill="none"/></g><g transform="translate(289.5705215462598 227.08044073721368) rotate(0 64.70973185588491 71.5307279934834)"><path d="M119.71 118.54 C124.59 126.33, 126.42 131.26, 129.3 141.63 M119.71 118.54 C122.91 128.2, 127.44 137.07, 129.3 141.63" stroke="#1e1e1e" stroke-width="2" fill="none"/></g></g><mask/><g transform="translate(129.5571239299046 32.37530517578125) rotate(0 28.1689453125 11.5)"><text x="0" y="0" font-family="Helvetica, Segoe UI Emoji" font-size="20px" fill="#1e1e1e" text-anchor="start" style="white-space: pre;" direction="ltr" dominant-baseline="text-before-edge">Virtual</text></g><g transform="translate(906.4402460265759 37.19368732097081) rotate(0 28.1689453125 11.5)"><text x="0" y="0" font-family="Helvetica, Segoe UI Emoji" font-size="20px" fill="#1e1e1e" text-anchor="start" style="white-space: pre;" direction="ltr" dominant-baseline="text-before-edge">Virtual</text></g><g transform="translate(10 77.33206386561278) rotate(0 5.5615234375 11.5)"><text x="0" y="0" font-family="Helvetica, Segoe UI Emoji" font-size="20px" fill="#1e1e1e" text-anchor="start" style="white-space: pre;" direction="ltr" dominant-baseline="text-before-edge">0</text></g><g transform="translate(789.1490783861302 124.49839102248501) rotate(0 5.5615234375 11.5)"><text x="0" y="0" font-family="Helvetica, Segoe UI Emoji" font-size="20px" fill="#1e1e1e" text-anchor="start" style="white-space: pre;" direction="ltr" dominant-baseline="text-before-edge">0</text></g><g stroke-linecap="round"><g transform="translate(34.2779062384551 171.18034489576235) rotate(0 119.54758371025582 -0.08683579328436508)"><path d="M-0.59 -0.31 C39.04 -0.22, 198.93 0.1, 238.97 0.25 M1.3 -1.52 C40.66 -1.77, 198.32 -1.68, 237.95 -1.65" stroke="#1e1e1e" stroke-width="2" fill="none"/></g></g><mask/><g stroke-linecap="round"><g transform="translate(33.55380882160847 271.8589600925047) rotate(0 119.54758371025582 -0.08683579328436508)"><path d="M0.19 0.96 C40.02 0.98, 199.76 0.86, 239.43 0.48 M-1.17 0.41 C38.49 0.05, 198.36 -1.12, 238.66 -1.3" stroke="#1e1e1e" stroke-width="2" fill="none"/></g></g><mask/><g stroke-linecap="round"><g transform="translate(810.6988687704193 189.31479969768105) rotate(0 119.5475837102558 -0.08683579328436508)"><path d="M-0.95 0.95 C38.94 0.55, 198.9 -1.04, 238.84 -1.31 M0.76 0.4 C40.51 0.62, 198.26 -0.37, 237.76 -0.37" stroke="#1e1e1e" stroke-width="2" fill="none"/></g></g><mask/><g stroke-linecap="round"><g transform="translate(811.2695147098582 283.3604040868892) rotate(0 119.5475837102558 -0.08683579328436508)"><path d="M-1.05 0.01 C38.83 0.08, 199.76 0.78, 239.75 0.7 M0.61 -1.03 C40.33 -1.32, 199.58 -1.25, 239.15 -0.97" stroke="#1e1e1e" stroke-width="2" fill="none"/></g></g><mask/><g stroke-linecap="round"><g transform="translate(289.7234313537499 336.3684395160685) rotate(0 63.692909327953146 -14.868031507759255)"><path d="M0.53 -0.48 C21.81 -5.17, 106.89 -23.88, 128.17 -28.74 M-0.65 -1.78 C20.5 -6.73, 106.22 -25.92, 127.63 -30.34" stroke="#1e1e1e" stroke-width="2" fill="none"/></g><g transform="translate(289.7234313537499 336.3684395160685) rotate(0 63.692909327953146 -14.868031507759255)"><path d="M106.48 -17.01 C112.98 -20.36, 122.67 -24.89, 127.63 -30.34 M106.48 -17.01 C112.29 -21.64, 119.57 -26.4, 127.63 -30.34" stroke="#1e1e1e" stroke-width="2" fill="none"/></g><g transform="translate(289.7234313537499 336.3684395160685) rotate(0 63.692909327953146 -14.868031507759255)"><path d="M102.86 -33.72 C110.51 -31.37, 121.44 -30.19, 127.63 -30.34 M102.86 -33.72 C109.85 -33.22, 118.25 -32.81, 127.63 -30.34" stroke="#1e1e1e" stroke-width="2" fill="none"/></g></g><mask/><g stroke-linecap="round"><g transform="translate(33.52517919333985 379.1701277523997) rotate(0 117.77621612074603 -0.10001320938584968)"><path d="M-0.86 0.61 C38.53 0.47, 196.63 -1.16, 236.08 -1.17 M0.88 -0.11 C40.19 -0.1, 196.35 0.06, 235.4 -0.15" stroke="#1e1e1e" stroke-width="2" fill="none"/></g></g><mask/><g stroke-linecap="round"><g transform="translate(290.10246039352467 422.1851769012111) rotate(0 60.516025772606724 29.861605689481166)"><path d="M0.8 -0.56 C20.96 9.39, 101.5 50.78, 121.54 60.71 M-0.23 1.76 C19.75 11.31, 100.78 49.41, 120.85 59.1" stroke="#1e1e1e" stroke-width="2" fill="none"/></g><g transform="translate(290.10246039352467 422.1851769012111) rotate(0 60.516025772606724 29.861605689481166)"><path d="M95.96 56.73 C103.77 58.23, 115.06 58.15, 120.85 59.1 M95.96 56.73 C102.11 57.69, 108.28 58.89, 120.85 59.1" stroke="#1e1e1e" stroke-width="2" fill="none"/></g><g transform="translate(290.10246039352467 422.1851769012111) rotate(0 60.516025772606724 29.861605689481166)"><path d="M103.31 41.29 C108.67 48.25, 117.38 53.58, 120.85 59.1 M103.31 41.29 C107.56 45.86, 111.99 50.72, 120.85 59.1" stroke="#1e1e1e" stroke-width="2" fill="none"/></g></g><mask/></svg>