<svg version="1.1" xmlns="http://www.w3.org/2000/svg" viewBox="0 0 1061.0220389394494 563.5333251953125" width="1061.0220389394494" height="563.5333251953125" class="excalidraw-svg">
  <!-- svg-source:excalidraw -->
  
  <defs>
    <style class="style-fonts">
      @font-face {
        font-family: "Virgil";
        src: url("https://excalidraw.com/Virgil.woff2");
      }
      @font-face {
        font-family: "Cascadia";
        src: url("https://excalidraw.com/Cascadia.woff2");
      }
      @font-face {
        font-family: "Assistant";
        src: url("https://excalidraw.com/Assistant-Regular.woff2");
      }
    </style>
    
  </defs>
  <rect x="0" y="0" width="1061.0220389394494" height="563.5333251953125" fill="#ffffff"/><g stroke-linecap="round" transform="translate(36.15108091869536 73.32544503227388) rotate(0 118.84295654296875 189.9143728079252)"><path d="M32 0 C88.77 -2.97, 146.18 -3.43, 205.69 0 C229.62 0.54, 239.24 11.2, 237.69 32 C235.01 108.64, 236.66 185.05, 237.69 347.83 C239.02 368.18, 226.59 381.91, 205.69 379.83 C157.32 379.14, 103.64 378.44, 32 379.83 C10.43 383.2, -0.75 368.65, 0 347.83 C-2.36 272.11, -2.11 194.23, 0 32 C-1.2 10.02, 7.87 -2.64, 32 0" stroke="none" stroke-width="0" fill="#a5d8ff"/><path d="M32 0 C90.39 2.26, 152.24 -0.05, 205.69 0 M32 0 C93.64 0.64, 155.09 1.76, 205.69 0 M205.69 0 C227.73 1.81, 237.9 8.87, 237.69 32 M205.69 0 C229.21 1.72, 236.39 11.44, 237.69 32 M237.69 32 C238.09 132.9, 239.17 231.17, 237.69 347.83 M237.69 32 C237.48 131.92, 237.37 230.65, 237.69 347.83 M237.69 347.83 C237.35 370.08, 225.72 379.45, 205.69 379.83 M237.69 347.83 C236.62 371.38, 226.54 379, 205.69 379.83 M205.69 379.83 C146.47 379.58, 85.19 380.11, 32 379.83 M205.69 379.83 C166.4 378.66, 127.34 379.99, 32 379.83 M32 379.83 C10.66 380.25, -0.79 367.4, 0 347.83 M32 379.83 C12.75 378.52, -0.53 370.21, 0 347.83 M0 347.83 C-0.87 256.18, -1.12 167.31, 0 32 M0 347.83 C0.4 237.32, 1.55 127.73, 0 32 M0 32 C0.45 11.89, 9.79 -0.53, 32 0 M0 32 C2.16 8.87, 11.41 0.79, 32 0" stroke="#1e1e1e" stroke-width="2" fill="none"/></g><g stroke-linecap="round" transform="translate(427.7364452189671 45.5848388671875) rotate(0 107.04763793945312 253.9742431640625)"><path d="M32 0 C70.24 0.74, 114.93 3.33, 182.1 0 C204.57 -3.32, 212.38 11.35, 214.1 32 C211.06 211.15, 213.31 385.58, 214.1 475.95 C214.87 497.64, 204.95 509.74, 182.1 507.95 C152.89 512.1, 118.26 512.2, 32 507.95 C10.58 511.45, -0.21 495.73, 0 475.95 C-1.41 386.72, -0.42 293.01, 0 32 C1.29 12.13, 9.36 -1.98, 32 0" stroke="none" stroke-width="0" fill="#ffec99"/><path d="M32 0 C86.73 2.57, 140.08 -0.38, 182.1 0 M32 0 C91.3 1.43, 152.86 0.17, 182.1 0 M182.1 0 C204.36 0.41, 213.67 12.26, 214.1 32 M182.1 0 C203.94 -2.19, 213.18 12.21, 214.1 32 M214.1 32 C215.32 200.12, 215.73 370.79, 214.1 475.95 M214.1 32 C216.47 178.99, 216.34 326.78, 214.1 475.95 M214.1 475.95 C213.75 498.96, 204.69 509.84, 182.1 507.95 M214.1 475.95 C212.3 496.08, 201.74 508.79, 182.1 507.95 M182.1 507.95 C130.73 508.08, 82.31 509, 32 507.95 M182.1 507.95 C129.75 508.61, 75.73 508.13, 32 507.95 M32 507.95 C10.49 509.95, -0.9 498.28, 0 475.95 M32 507.95 C10.87 506.62, 1.58 497.97, 0 475.95 M0 475.95 C2.44 374.61, 1.18 272.88, 0 32 M0 475.95 C1.66 361.7, 1.01 248.77, 0 32 M0 32 C0.85 11.26, 11.81 0.61, 32 0 M0 32 C-2.16 8.62, 11 0.46, 32 0" stroke="#1e1e1e" stroke-width="2" fill="none"/></g><g transform="translate(496.0349071330296 10) rotate(0 37.236328125 11.5)"><text x="0" y="0" font-family="Helvetica, Segoe UI Emoji" font-size="20px" fill="#1e1e1e" text-anchor="start" style="white-space: pre;" direction="ltr" dominant-baseline="text-before-edge">Physical</text></g><g stroke-linecap="round" transform="translate(812.1075472396705 87.75909686296) rotate(0 118.56695556640625 144.95988507972703)"><path d="M32 0 C95.43 -0.91, 154.87 4, 205.13 0 C228.55 -2.54, 238.03 10.4, 237.13 32 C237.36 88.14, 238.97 143.62, 237.13 257.92 C237.87 280.01, 225.49 289.91, 205.13 289.92 C150.12 287.37, 94.71 286.4, 32 289.92 C8.34 291.7, 1.68 276.07, 0 257.92 C-2.52 171.86, -2.35 83.37, 0 32 C-2.57 9.81, 11.81 -2.99, 32 0" stroke="none" stroke-width="0" fill="#a5d8ff"/><path d="M32 0 C74.8 -0.98, 121.41 -0.91, 205.13 0 M32 0 C82.15 0.06, 132.14 1.48, 205.13 0 M205.13 0 C226.77 0.86, 237.43 9.57, 237.13 32 M205.13 0 C225.68 1.3, 235.97 9.98, 237.13 32 M237.13 32 C235.33 102.69, 236.78 173.63, 237.13 257.92 M237.13 32 C236.8 102.05, 236.64 172.51, 237.13 257.92 M237.13 257.92 C239.01 278.84, 226.18 288.75, 205.13 289.92 M237.13 257.92 C237.41 278.79, 224.76 290.42, 205.13 289.92 M205.13 289.92 C163.93 287.79, 121.97 288.32, 32 289.92 M205.13 289.92 C152.76 289.63, 101.27 289.19, 32 289.92 M32 289.92 C11.6 291.75, 1.11 278.88, 0 257.92 M32 289.92 C10.4 291.67, 0.78 280.95, 0 257.92 M0 257.92 C2.58 208.12, 1.78 156.95, 0 32 M0 257.92 C0.18 180.32, 1.05 103.68, 0 32 M0 32 C-0.81 12.34, 9.21 -1.87, 32 0 M0 32 C0.11 9.19, 10.16 1.82, 32 0" stroke="#1e1e1e" stroke-width="2" fill="none"/></g><g stroke-linecap="round"><g transform="translate(429.8930614299046 120.10507202148438) rotate(0 106.92141723632812 0.6439971923828125)"><path d="M-0.37 -0.03 C35.59 0.13, 179.27 1.21, 214.9 1.56 M1.64 -1.09 C37.61 -1.36, 179.37 -0.62, 214.5 -0.42" stroke="#1e1e1e" stroke-width="2" fill="none"/></g></g><mask/><g stroke-linecap="round"><g transform="translate(429.20082844112983 190.7137875049901) rotate(0 106.92141723632812 0.6439971923828125)"><path d="M0.49 -0.54 C36.22 -0.23, 177.96 1.11, 213.67 1.57 M-0.71 1.79 C34.9 1.75, 176.77 -0.17, 212.64 -0.41" stroke="#1e1e1e" stroke-width="2" fill="none"/></g></g><mask/><g stroke-linecap="round"><g transform="translate(429.09059894894233 266.8718380420995) rotate(0 106.92141723632812 0.6439971923828125)"><path d="M0.29 -1.05 C36.13 -0.85, 179.43 1.55, 214.93 2.09 M-1.02 1.02 C34.77 0.8, 179.01 0.5, 214.55 0.38" stroke="#1e1e1e" stroke-width="2" fill="none"/></g></g><mask/><g stroke-linecap="round"><g transform="translate(431.41530598019233 337.24396938975576) rotate(0 106.92141723632812 0.6439971923828125)"><path d="M0.49 0.83 C36.14 0.97, 179.25 0.49, 214.67 0.6 M-0.71 0.22 C34.79 0.53, 178.12 1.33, 214.15 1.78" stroke="#1e1e1e" stroke-width="2" fill="none"/></g></g><mask/><g stroke-linecap="round"><g transform="translate(429.37575519894233 399.888805815537) rotate(0 106.92141723632812 0.6439971923828125)"><path d="M0.22 -0.78 C36.11 -0.31, 178.9 1.5, 214.67 2.01 M-1.12 1.42 C34.74 1.63, 178.2 0.42, 214.16 0.26" stroke="#1e1e1e" stroke-width="2" fill="none"/></g></g><mask/><g stroke-linecap="round"><g transform="translate(427.59706867550483 460.72675747569326) rotate(0 106.92141723632812 0.6439971923828125)"><path d="M-0.33 -0.93 C35.1 -0.55, 176.91 1.12, 212.71 1.64 M1.7 1.19 C37.46 1.26, 179.44 -0.15, 214.83 -0.29" stroke="#1e1e1e" stroke-width="2" fill="none"/></g></g><mask/><g stroke-linecap="round"><g transform="translate(426.69777668331733 504.24555630381826) rotate(0 106.92141723632812 0.6439971923828125)"><path d="M-1.2 0 C34.65 0.47, 178.95 1.84, 214.65 2.23 M0.38 -1.05 C36.18 -0.85, 178.28 0.34, 214.12 0.61" stroke="#1e1e1e" stroke-width="2" fill="none"/></g></g><mask/><g stroke-linecap="round"><g transform="translate(800.0049130799554 163.82443189553834) rotate(0 -73.00019697465484 -31.51266533324035)"><path d="M0.29 -0.06 C-24.09 -10.35, -122.27 -51.37, -146.7 -62 M-1.01 -1.13 C-24.96 -11.72, -120 -53.28, -144.36 -63.58" stroke="#1e1e1e" stroke-width="2" fill="none"/></g><g transform="translate(800.0049130799554 163.82443189553834) rotate(0 -73.00019697465484 -31.51266533324035)"><path d="M-119.4 -62.13 C-126.08 -63.62, -130.87 -63.28, -144.36 -63.58 M-119.4 -62.13 C-124.65 -62.23, -130.71 -62.64, -144.36 -63.58" stroke="#1e1e1e" stroke-width="2" fill="none"/></g><g transform="translate(800.0049130799554 163.82443189553834) rotate(0 -73.00019697465484 -31.51266533324035)"><path d="M-126.17 -46.43 C-131.03 -52.08, -134.03 -55.89, -144.36 -63.58 M-126.17 -46.43 C-129.93 -50.18, -134.43 -54.21, -144.36 -63.58" stroke="#1e1e1e" stroke-width="2" fill="none"/></g></g><mask/><g stroke-linecap="round"><g transform="translate(803.849497640626 262.4483665898615) rotate(0 -74.6394185893098 -13.610292403009971)"><path d="M-0.53 0.05 C-25.15 -4.47, -124.27 -21.62, -148.86 -26.35 M1.4 -0.96 C-23.25 -5.88, -124.65 -23.58, -149.6 -28.02" stroke="#1e1e1e" stroke-width="2" fill="none"/></g><g transform="translate(803.849497640626 262.4483665898615) rotate(0 -74.6394185893098 -13.610292403009971)"><path d="M-124.98 -32.36 C-129.96 -30.88, -133.69 -28.73, -149.6 -28.02 M-124.98 -32.36 C-130.09 -32.5, -135.71 -30.14, -149.6 -28.02" stroke="#1e1e1e" stroke-width="2" fill="none"/></g><g transform="translate(803.849497640626 262.4483665898615) rotate(0 -74.6394185893098 -13.610292403009971)"><path d="M-127.95 -15.51 C-132.42 -17.51, -135.54 -18.85, -149.6 -28.02 M-127.95 -15.51 C-132.32 -19.11, -137.33 -20.24, -149.6 -28.02" stroke="#1e1e1e" stroke-width="2" fill="none"/></g></g><mask/><g stroke-linecap="round"><g transform="translate(798.418704466233 296.9385999068912) rotate(0 -70.88852342246105 117.21911298651504)"><path d="M0.32 -1.14 C-23.44 37.88, -118.5 195.73, -142.24 235.1 M-0.97 0.87 C-24.95 39.46, -119.75 194.62, -143.43 233.33" stroke="#1e1e1e" stroke-width="2" fill="none"/></g><g transform="translate(798.418704466233 296.9385999068912) rotate(0 -70.88852342246105 117.21911298651504)"><path d="M-138.47 208.82 C-141.79 216.02, -140.38 224.21, -143.43 233.33 M-138.47 208.82 C-140.65 216.95, -142.24 225.48, -143.43 233.33" stroke="#1e1e1e" stroke-width="2" fill="none"/></g><g transform="translate(798.418704466233 296.9385999068912) rotate(0 -70.88852342246105 117.21911298651504)"><path d="M-123.88 217.75 C-132 222.08, -135.33 227.38, -143.43 233.33 M-123.88 217.75 C-131.25 222.57, -138.02 227.93, -143.43 233.33" stroke="#1e1e1e" stroke-width="2" fill="none"/></g></g><mask/><g stroke-linecap="round"><g transform="translate(289.4236815955211 127.30479327605732) rotate(0 65.42072507344179 12.346506054679438)"><path d="M-0.9 1.01 C21.04 4.92, 109.62 20.14, 131.77 24.16 M0.83 0.5 C22.68 4.5, 109.47 21.66, 131.3 25.42" stroke="#1e1e1e" stroke-width="2" fill="none"/></g><g transform="translate(289.4236815955211 127.30479327605732) rotate(0 65.42072507344179 12.346506054679438)"><path d="M106.64 29.52 C116.03 29.96, 121.18 29.05, 131.3 25.42 M106.64 29.52 C114.41 28.12, 122.68 25.81, 131.3 25.42" stroke="#1e1e1e" stroke-width="2" fill="none"/></g><g transform="translate(289.4236815955211 127.30479327605732) rotate(0 65.42072507344179 12.346506054679438)"><path d="M109.78 12.71 C118.28 18.39, 122.46 22.74, 131.3 25.42 M109.78 12.71 C116.42 17.02, 123.62 20.41, 131.3 25.42" stroke="#1e1e1e" stroke-width="2" fill="none"/></g></g><mask/><g stroke-linecap="round"><g transform="translate(289.32866310536303 227.1707503638937) rotate(0 64.83066107633329 71.54130085392305)"><path d="M0.6 1.08 C22.3 24.83, 108.8 119.7, 130.2 143.54 M-0.54 0.6 C21.05 24.5, 108.14 118.03, 129.54 141.65" stroke="#1e1e1e" stroke-width="2" fill="none"/></g><g transform="translate(289.32866310536303 227.1707503638937) rotate(0 64.83066107633329 71.54130085392305)"><path d="M107.34 130.15 C115.91 134.4, 121.53 135.84, 129.54 141.65 M107.34 130.15 C115.41 135.37, 124.81 139.75, 129.54 141.65" stroke="#1e1e1e" stroke-width="2" fill="none"/></g><g transform="translate(289.32866310536303 227.1707503638937) rotate(0 64.83066107633329 71.54130085392305)"><path d="M119.93 118.57 C124.82 126.36, 126.66 131.28, 129.54 141.65 M119.93 118.57 C123.14 128.23, 127.67 137.09, 129.54 141.65" stroke="#1e1e1e" stroke-width="2" fill="none"/></g></g><mask/><g transform="translate(129.5571239299046 32.37530517578125) rotate(0 28.1689453125 11.5)"><text x="0" y="0" font-family="Helvetica, Segoe UI Emoji" font-size="20px" fill="#1e1e1e" text-anchor="start" style="white-space: pre;" direction="ltr" dominant-baseline="text-before-edge">Virtual</text></g><g transform="translate(906.4402460265759 37.19368732097081) rotate(0 28.1689453125 11.5)"><text x="0" y="0" font-family="Helvetica, Segoe UI Emoji" font-size="20px" fill="#1e1e1e" text-anchor="start" style="white-space: pre;" direction="ltr" dominant-baseline="text-before-edge">Virtual</text></g><g transform="translate(10 77.33206386561278) rotate(0 5.5615234375 11.5)"><text x="0" y="0" font-family="Helvetica, Segoe UI Emoji" font-size="20px" fill="#1e1e1e" text-anchor="start" style="white-space: pre;" direction="ltr" dominant-baseline="text-before-edge">0</text></g><g transform="translate(789.1490783861302 124.49839102248501) rotate(0 5.5615234375 11.5)"><text x="0" y="0" font-family="Helvetica, Segoe UI Emoji" font-size="20px" fill="#1e1e1e" text-anchor="start" style="white-space: pre;" direction="ltr" dominant-baseline="text-before-edge">0</text></g><g stroke-linecap="round"><g transform="translate(34.2779062384551 171.18034489576235) rotate(0 119.54758371025582 -0.08683579328436508)"><path d="M-0.59 -0.31 C39.04 -0.22, 198.93 0.1, 238.97 0.25 M1.3 -1.52 C40.66 -1.77, 198.32 -1.68, 237.95 -1.65" stroke="#1e1e1e" stroke-width="2" fill="none"/></g></g><mask/><g stroke-linecap="round"><g transform="translate(33.55380882160847 271.345468669271) rotate(0 119.54758371025582 -0.08683579328436508)"><path d="M0.19 0.96 C40.02 0.98, 199.76 0.86, 239.43 0.48 M-1.17 0.41 C38.49 0.05, 198.36 -1.12, 238.66 -1.3" stroke="#1e1e1e" stroke-width="2" fill="none"/></g></g><mask/><g stroke-linecap="round"><g transform="translate(810.6988687704193 189.31479969768105) rotate(0 119.5475837102558 -0.08683579328436508)"><path d="M-0.95 0.95 C38.94 0.55, 198.9 -1.04, 238.84 -1.31 M0.76 0.4 C40.51 0.62, 198.26 -0.37, 237.76 -0.37" stroke="#1e1e1e" stroke-width="2" fill="none"/></g></g><mask/><g stroke-linecap="round"><g transform="translate(811.2695147098582 283.3604040868892) rotate(0 119.5475837102558 -0.08683579328436508)"><path d="M-1.05 0.01 C38.83 0.08, 199.76 0.78, 239.75 0.7 M0.61 -1.03 C40.33 -1.32, 199.58 -1.25, 239.15 -0.97" stroke="#1e1e1e" stroke-width="2" fill="none"/></g></g><mask/><g stroke-linecap="round"><g transform="translate(289.48157291285315 336.55941591542387) rotate(0 63.813838548401534 -14.93240784859824)"><path d="M0.53 -0.48 C21.85 -5.19, 107.09 -23.99, 128.41 -28.87 M-0.65 -1.78 C20.54 -6.75, 106.42 -26.03, 127.87 -30.47" stroke="#1e1e1e" stroke-width="2" fill="none"/></g><g transform="translate(289.48157291285315 336.55941591542387) rotate(0 63.813838548401534 -14.93240784859824)"><path d="M106.73 -17.12 C113.22 -20.48, 122.92 -25.01, 127.87 -30.47 M106.73 -17.12 C112.54 -21.76, 119.81 -26.52, 127.87 -30.47" stroke="#1e1e1e" stroke-width="2" fill="none"/></g><g transform="translate(289.48157291285315 336.55941591542387) rotate(0 63.813838548401534 -14.93240784859824)"><path d="M103.1 -33.84 C110.75 -31.49, 121.68 -30.31, 127.87 -30.47 M103.1 -33.84 C110.09 -33.34, 118.49 -32.94, 127.87 -30.47" stroke="#1e1e1e" stroke-width="2" fill="none"/></g></g><mask/><g stroke-linecap="round"><g transform="translate(33.52517919333985 379.1701277523997) rotate(0 117.77621612074603 -0.10001320938584968)"><path d="M-0.86 0.61 C38.53 0.47, 196.63 -1.16, 236.08 -1.17 M0.88 -0.11 C40.19 -0.1, 196.35 0.06, 235.4 -0.15" stroke="#1e1e1e" stroke-width="2" fill="none"/></g></g><mask/><g stroke-linecap="round"><g transform="translate(289.8606019526279 422.2418215166233) rotate(0 60.6369549930551 29.85458513721808)"><path d="M0.8 -0.56 C21 9.39, 101.71 50.77, 121.78 60.69 M-0.23 1.76 C19.79 11.31, 100.98 49.4, 121.09 59.08" stroke="#1e1e1e" stroke-width="2" fill="none"/></g><g transform="translate(289.8606019526279 422.2418215166233) rotate(0 60.6369549930551 29.85458513721808)"><path d="M96.2 56.74 C104.01 58.23, 115.3 58.15, 121.09 59.08 M96.2 56.74 C102.35 57.69, 108.52 58.89, 121.09 59.08" stroke="#1e1e1e" stroke-width="2" fill="none"/></g><g transform="translate(289.8606019526279 422.2418215166233) rotate(0 60.6369549930551 29.85458513721808)"><path d="M103.54 41.29 C108.9 48.24, 117.62 53.57, 121.09 59.08 M103.54 41.29 C107.79 45.85, 112.23 50.72, 121.09 59.08" stroke="#1e1e1e" stroke-width="2" fill="none"/></g></g><mask/><g transform="translate(110.57621315190204 478.3319429001775) rotate(0 44.462890625 11.5)"><text x="0" y="0" font-family="Helvetica, Segoe UI Emoji" font-size="20px" fill="#1e1e1e" text-anchor="start" style="white-space: pre;" direction="ltr" dominant-baseline="text-before-edge">Process 0</text></g><g transform="translate(893.7100676991971 404.53380643557216) rotate(0 44.462890625 11.5)"><text x="0" y="0" font-family="Helvetica, Segoe UI Emoji" font-size="20px" fill="#1e1e1e" text-anchor="start" style="white-space: pre;" direction="ltr" dominant-baseline="text-before-edge">Process 1</text></g></svg>