<svg version="1.1" xmlns="http://www.w3.org/2000/svg" viewBox="0 0 1594.036259463793 839.4480465138672" width="1594.036259463793" height="839.4480465138672" class="excalidraw-svg">
  <!-- svg-source:excalidraw -->
  
  <defs>
    <style class="style-fonts">
      @font-face {
        font-family: "Virgil";
        src: url("https://excalidraw.com/Virgil.woff2");
      }
      @font-face {
        font-family: "Cascadia";
        src: url("https://excalidraw.com/Cascadia.woff2");
      }
      @font-face {
        font-family: "Assistant";
        src: url("https://excalidraw.com/Assistant-Regular.woff2");
      }
    </style>
    
  </defs>
  <rect x="0" y="0" width="1594.036259463793" height="839.4480465138672" fill="#ffffff"/><g stroke-linecap="round" transform="translate(266.7461044808106 143.4919359218884) rotate(0 102.0732421875 46.63343811035156)"><path d="M128.03 2.05 C141.15 2.91, 156.09 5.95, 166.78 9.87 C177.47 13.8, 186.11 19.84, 192.2 25.61 C198.29 31.37, 202.5 38.2, 203.3 44.46 C204.09 50.72, 201.7 57.33, 196.97 63.16 C192.23 68.98, 184.56 74.87, 174.9 79.42 C165.24 83.96, 151.94 88.29, 139.01 90.43 C126.07 92.57, 111.06 92.65, 97.3 92.25 C83.54 91.85, 68.81 90.57, 56.43 88.02 C44.05 85.46, 31.76 81.93, 23.03 76.94 C14.31 71.96, 7.84 64.44, 4.09 58.1 C0.33 51.76, -1.51 45.17, 0.52 38.93 C2.54 32.68, 8.54 25.7, 16.23 20.63 C23.91 15.56, 34.89 11.73, 46.62 8.52 C58.36 5.31, 71.55 2.26, 86.65 1.37 C101.75 0.48, 127.63 2.51, 137.22 3.21 C146.81 3.9, 144.71 4.73, 144.2 5.53 M105.54 0.03 C118.73 -0.5, 134.49 1.75, 146.81 4.51 C159.14 7.26, 170.8 11.66, 179.48 16.54 C188.16 21.43, 194.93 27.96, 198.92 33.81 C202.91 39.67, 205.13 45.55, 203.4 51.66 C201.66 57.78, 195.64 65.14, 188.53 70.49 C181.42 75.83, 171.88 80.25, 160.74 83.71 C149.61 87.17, 135.53 89.65, 121.72 91.24 C107.91 92.82, 91.65 94.73, 77.87 93.24 C64.08 91.74, 49.9 86.2, 39.01 82.27 C28.11 78.34, 19.17 75.02, 12.48 69.67 C5.78 64.32, 0.18 56.64, -1.16 50.17 C-2.5 43.7, -0.58 36.97, 4.41 30.86 C9.4 24.75, 18.96 18.26, 28.77 13.52 C38.59 8.78, 50.81 4.89, 63.29 2.44 C75.76 -0.01, 96.7 -1.15, 103.62 -1.19 C110.55 -1.24, 104.63 1.05, 104.84 2.18" stroke="#1e1e1e" stroke-width="2" fill="none"/></g><g transform="translate(347.5245008773325 178.6505537143672) rotate(0 21.1181640625 11.5)"><text x="21.1181640625" y="0" font-family="Helvetica, Segoe UI Emoji" font-size="20px" fill="#1e1e1e" text-anchor="middle" style="white-space: pre;" direction="ltr" dominant-baseline="text-before-edge">Start</text></g><g stroke-linecap="round" transform="translate(676.4951794959902 138.33424394488958) rotate(0 130.14398193359375 54.00416564941406)"><path d="M105.49 1.24 C120.44 -0.86, 139.53 -0.44, 155.62 0.8 C171.7 2.04, 188.29 4.83, 202 8.67 C215.71 12.52, 228.62 18.09, 237.88 23.84 C247.13 29.6, 254.22 36.38, 257.52 43.22 C260.82 50.07, 261 58.02, 257.68 64.9 C254.36 71.79, 246.94 78.9, 237.59 84.54 C228.25 90.17, 215.49 94.91, 201.61 98.7 C187.72 102.49, 170.52 105.94, 154.29 107.27 C138.06 108.6, 120.53 108.23, 104.22 106.68 C87.91 105.13, 70.15 101.8, 56.44 97.99 C42.73 94.18, 30.99 89.47, 21.93 83.81 C12.88 78.14, 5.33 70.59, 2.09 63.99 C-1.15 57.4, -0.83 50.99, 2.49 44.24 C5.82 37.49, 12.87 29.46, 22.05 23.49 C31.24 17.52, 39.94 12.36, 57.61 8.41 C75.28 4.46, 112.91 1.08, 128.05 -0.2 C143.19 -1.48, 148.64 -0.25, 148.46 0.71 M128.75 -1.01 C144.59 -1.64, 163.9 1.56, 179.36 4.53 C194.81 7.5, 209.47 12.01, 221.49 16.81 C233.5 21.62, 244.98 27.24, 251.45 33.37 C257.93 39.49, 260.41 46.56, 260.34 53.58 C260.26 60.6, 257.2 69.23, 251.01 75.49 C244.83 81.75, 234.94 86.31, 223.23 91.14 C211.52 95.96, 196.2 101.55, 180.76 104.45 C165.31 107.35, 147.32 108.71, 130.57 108.53 C113.83 108.35, 95.41 105.82, 80.28 103.35 C65.15 100.88, 51.58 98.67, 39.79 93.69 C28 88.71, 16.1 80.19, 9.52 73.47 C2.94 66.75, 0.21 60.15, 0.3 53.37 C0.38 46.59, 3.68 39.13, 10.03 32.78 C16.37 26.43, 26.83 19.99, 38.37 15.27 C49.9 10.55, 63.9 7.26, 79.25 4.46 C94.59 1.67, 121.81 -0.96, 130.44 -1.5 C139.07 -2.03, 131.36 -0.08, 131.03 1.27" stroke="#1e1e1e" stroke-width="2" fill="none"/></g><g transform="translate(777.7072192737203 180.65169785128134) rotate(0 28.90625 11.5)"><text x="28.90625" y="0" font-family="Helvetica, Segoe UI Emoji" font-size="20px" fill="#1e1e1e" text-anchor="middle" style="white-space: pre;" direction="ltr" dominant-baseline="text-before-edge">Ready</text></g><g stroke-linecap="round" transform="translate(1137.033448538959 134.05308549762395) rotate(0 130.68106079101562 54.23094177246094)"><path d="M142.56 -0.24 C158.78 -0.41, 177.01 3.01, 191.54 6.14 C206.07 9.27, 218.96 13.31, 229.73 18.54 C240.5 23.77, 250.91 30.66, 256.14 37.52 C261.38 44.38, 262.85 52.66, 261.15 59.71 C259.45 66.77, 253.71 73.83, 245.96 79.85 C238.2 85.88, 227.17 91.35, 214.61 95.86 C202.06 100.36, 186.38 104.81, 170.63 106.89 C154.89 108.97, 136.95 109.21, 120.13 108.33 C103.31 107.46, 84.54 104.87, 69.72 101.63 C54.89 98.4, 41.92 94.12, 31.2 88.93 C20.48 83.75, 10.42 77.15, 5.4 70.53 C0.38 63.9, -0.58 56.06, 1.08 49.18 C2.74 42.3, 7.63 35.3, 15.33 29.24 C23.04 23.18, 34.62 17.22, 47.32 12.81 C60.02 8.4, 73.41 4.94, 91.51 2.8 C109.61 0.66, 143.3 -0.17, 155.93 -0.02 C168.55 0.13, 167.86 2.58, 167.27 3.71 M102.06 2.66 C117.08 0.49, 136.26 -1.17, 152.7 -0.02 C169.15 1.12, 186.57 5.72, 200.72 9.52 C214.86 13.32, 228.1 17.32, 237.57 22.8 C247.03 28.27, 253.63 35.49, 257.51 42.35 C261.38 49.21, 263.71 56.95, 260.81 63.97 C257.92 70.99, 249.61 78.63, 240.13 84.49 C230.65 90.35, 217.46 95.49, 203.92 99.14 C190.38 102.78, 174.78 104.87, 158.89 106.36 C143 107.84, 125.2 109.25, 108.57 108.02 C91.95 106.79, 73.3 102.83, 59.15 98.98 C44.99 95.13, 32.87 90.5, 23.63 84.94 C14.39 79.38, 7.1 72.57, 3.68 65.64 C0.26 58.71, 0.51 50.32, 3.12 43.36 C5.74 36.39, 10.76 29.46, 19.38 23.85 C28 18.24, 40.88 13.47, 54.84 9.69 C68.8 5.91, 95.28 2.24, 103.15 1.18 C111.02 0.13, 101.45 2.6, 102.05 3.36" stroke="#1e1e1e" stroke-width="2" fill="none"/></g><g transform="translate(1230.558068509496 176.93696059264494) rotate(0 37.2509765625 11.5)"><text x="37.2509765625" y="0" font-family="Helvetica, Segoe UI Emoji" font-size="20px" fill="#1e1e1e" text-anchor="middle" style="white-space: pre;" direction="ltr" dominant-baseline="text-before-edge">Running</text></g><g stroke-linecap="round" transform="translate(669.4077771522402 439.71784990192083) rotate(0 148.83929443359375 75.1385498046875)"><path d="M91.57 6.59 C105.45 2.16, 123.51 0.3, 140.5 -0.1 C157.5 -0.5, 176.99 1.75, 193.53 4.18 C210.07 6.61, 226.27 9.46, 239.72 14.46 C253.18 19.46, 265.21 26.77, 274.27 34.19 C283.32 41.6, 290.42 50.42, 294.04 58.97 C297.67 67.51, 298.28 77.07, 296.02 85.45 C293.76 93.84, 288 101.86, 280.49 109.3 C272.97 116.74, 263.22 124.42, 250.96 130.1 C238.69 135.79, 222.53 140.16, 206.89 143.4 C191.25 146.63, 174.25 148.84, 157.12 149.51 C140 150.18, 120.45 149.77, 104.14 147.41 C87.84 145.04, 72.83 140.5, 59.28 135.32 C45.72 130.14, 32.15 123.42, 22.83 116.33 C13.5 109.25, 6.81 101.25, 3.34 92.79 C-0.14 84.34, -0.17 74.32, 1.96 65.61 C4.08 56.9, 8.38 48.24, 16.09 40.52 C23.8 32.8, 32.14 25.68, 48.23 19.3 C64.33 12.91, 97.72 5.13, 112.66 2.2 C127.61 -0.73, 137.02 0.55, 137.89 1.74 M147.54 -0.06 C163.94 -1.15, 182.76 1.36, 198.75 4.42 C214.74 7.48, 230.68 13.02, 243.47 18.32 C256.26 23.62, 266.86 28.79, 275.5 36.19 C284.13 43.59, 292.06 53.94, 295.27 62.71 C298.48 71.48, 297.36 80.7, 294.75 88.83 C292.13 96.95, 287.95 104.48, 279.58 111.48 C271.2 118.48, 257.59 125.09, 244.47 130.85 C231.35 136.61, 216.31 142.97, 200.87 146.05 C185.44 149.12, 168.94 149.39, 151.85 149.29 C134.76 149.19, 114.34 148, 98.34 145.45 C82.33 142.9, 68.63 139.36, 55.82 133.99 C43 128.62, 30.27 120.72, 21.42 113.23 C12.58 105.74, 5.78 97.27, 2.72 89.06 C-0.34 80.85, 0.56 72.22, 3.07 63.98 C5.58 55.75, 9.47 47.34, 17.79 39.64 C26.1 31.94, 40.07 23.42, 52.98 17.77 C65.89 12.12, 79.75 8.77, 95.25 5.73 C110.76 2.69, 137.46 0.19, 146.01 -0.46 C154.56 -1.12, 146.28 0.69, 146.56 1.81" stroke="#1e1e1e" stroke-width="2" fill="none"/></g><g transform="translate(782.2547268723187 503.22542161119065) rotate(0 35.7470703125 11.5)"><text x="35.7470703125" y="0" font-family="Helvetica, Segoe UI Emoji" font-size="20px" fill="#1e1e1e" text-anchor="middle" style="white-space: pre;" direction="ltr" dominant-baseline="text-before-edge">I/O Wait</text></g><g stroke-linecap="round" transform="translate(1271.5132101487827 623.3121007458246) rotate(0 156.26152465750505 77.72574512182166)"><path d="M85.82 7.32 C99.94 2.24, 120.99 0.8, 138.68 -0.06 C156.38 -0.93, 174.91 0.04, 192 2.15 C209.09 4.26, 226.37 7.62, 241.21 12.58 C256.05 17.53, 270.39 24.89, 281.06 31.88 C291.73 38.87, 299.93 46.23, 305.23 54.51 C310.52 62.78, 313.76 72.51, 312.83 81.55 C311.9 90.58, 306.76 100.41, 299.65 108.69 C292.54 116.97, 282.4 124.67, 270.16 131.21 C257.92 137.74, 242.15 144.1, 226.22 147.92 C210.29 151.74, 192.1 153.2, 174.58 154.12 C157.07 155.04, 138.55 155.37, 121.13 153.42 C103.71 151.47, 85.25 147.28, 70.06 142.43 C54.87 137.59, 40.48 131.52, 29.99 124.35 C19.49 117.17, 12.17 107.76, 7.1 99.38 C2.03 91.01, -1.43 82.72, -0.46 74.1 C0.52 65.48, 5.66 55.83, 12.93 47.64 C20.2 39.45, 29.54 31.71, 43.17 24.95 C56.8 18.18, 84.79 10.3, 94.72 7.06 C104.65 3.83, 101.63 4.55, 102.73 5.53 M208.63 5.88 C225.19 7.68, 242 12.03, 255.76 17.65 C269.53 23.28, 282.05 31.95, 291.22 39.63 C300.39 47.32, 307.49 55.15, 310.79 63.77 C314.09 72.39, 314.17 82.78, 311.02 91.38 C307.87 99.99, 300.78 107.78, 291.89 115.39 C283.01 123.01, 271.33 131.09, 257.72 137.08 C244.11 143.07, 227.35 148.46, 210.24 151.32 C193.12 154.17, 172.87 154.06, 155.02 154.21 C137.18 154.35, 119.6 155.14, 103.17 152.16 C86.74 149.18, 70.15 142.46, 56.42 136.33 C42.7 130.2, 29.57 122.65, 20.79 115.37 C12.01 108.08, 7.03 100.9, 3.74 92.62 C0.46 84.34, -1.89 74.56, 1.09 65.68 C4.06 56.8, 12.38 47.11, 21.61 39.35 C30.83 31.6, 42.67 25.17, 56.44 19.17 C70.22 13.16, 87.64 6.48, 104.26 3.33 C120.87 0.18, 138.65 -0.14, 156.12 0.29 C173.6 0.72, 200.23 4.92, 209.11 5.91 C217.98 6.91, 210.23 5.19, 209.37 6.24" stroke="#1e1e1e" stroke-width="2" fill="none"/></g><g transform="translate(1403.8749010824172 689.5774444192291) rotate(0 23.90625 11.5)"><text x="23.90625" y="0" font-family="Helvetica, Segoe UI Emoji" font-size="20px" fill="#1e1e1e" text-anchor="middle" style="white-space: pre;" direction="ltr" dominant-baseline="text-before-edge">Done</text></g><g mask="url(#mask-YCsxmHlDmcAYYa49CLfGY)" stroke-linecap="round"><g transform="translate(480.0216186175535 188.4498940263382) rotate(0 93.00709160804425 1.6040712793689735)"><path d="M0.59 -1.01 C31.32 -0.41, 154.67 3.42, 185.43 4.08 M-0.55 1.07 C30.48 1.3, 156.47 1.91, 187.83 2.41" stroke="#1e1e1e" stroke-width="2" fill="none"/></g><g transform="translate(480.0216186175535 188.4498940263382) rotate(0 93.00709160804425 1.6040712793689735)"><path d="M164.26 10.74 C171.69 6.42, 183.98 2.74, 187.83 2.41 M164.26 10.74 C171.35 8.19, 178.03 7.24, 187.83 2.41" stroke="#1e1e1e" stroke-width="2" fill="none"/></g><g transform="translate(480.0216186175535 188.4498940263382) rotate(0 93.00709160804425 1.6040712793689735)"><path d="M164.43 -6.36 C171.85 -4.05, 184.08 -1.09, 187.83 2.41 M164.43 -6.36 C171.62 -4.18, 178.25 -0.39, 187.83 2.41" stroke="#1e1e1e" stroke-width="2" fill="none"/></g></g><mask id="mask-YCsxmHlDmcAYYa49CLfGY"><rect x="0" y="0" fill="#fff" width="766.0358018336419" height="291.65803658507616"/><rect x="532.4525383505977" y="144.05396530570715" fill="#000" width="81.15234375" height="92" opacity="1"/></mask><g transform="translate(532.4525383505977 144.05396530570715) rotate(0 41.20932566408068 45.92828987576068)"><text x="40.576171875" y="0" font-family="Helvetica, Segoe UI Emoji" font-size="20px" fill="#1e1e1e" text-anchor="middle" style="white-space: pre;" direction="ltr" dominant-baseline="text-before-edge">Process </text><text x="40.576171875" y="23" font-family="Helvetica, Segoe UI Emoji" font-size="20px" fill="#1e1e1e" text-anchor="middle" style="white-space: pre;" direction="ltr" dominant-baseline="text-before-edge">Loaded</text><text x="40.576171875" y="46" font-family="Helvetica, Segoe UI Emoji" font-size="20px" fill="#1e1e1e" text-anchor="middle" style="white-space: pre;" direction="ltr" dominant-baseline="text-before-edge">into main</text><text x="40.576171875" y="69" font-family="Helvetica, Segoe UI Emoji" font-size="20px" fill="#1e1e1e" text-anchor="middle" style="white-space: pre;" direction="ltr" dominant-baseline="text-before-edge">memory</text></g><g stroke-linecap="round"><g transform="translate(949.5154979479662 187.68647728423093) rotate(0 90.02208804331235 -0.9236907939859407)"><path d="M-1 0.39 C29.07 -0.12, 150.06 -2.23, 180.08 -2.58 M0.67 -0.46 C30.62 -0.86, 149 -1.45, 179.14 -1.43" stroke="#1e1e1e" stroke-width="2" fill="none"/></g><g transform="translate(949.5154979479662 187.68647728423093) rotate(0 90.02208804331235 -0.9236907939859407)"><path d="M155.67 7.18 C162.66 5.09, 167.16 1.14, 179.14 -1.43 M155.67 7.18 C162.23 4.26, 170.9 2.68, 179.14 -1.43" stroke="#1e1e1e" stroke-width="2" fill="none"/></g><g transform="translate(949.5154979479662 187.68647728423093) rotate(0 90.02208804331235 -0.9236907939859407)"><path d="M155.63 -9.92 C162.69 -7.37, 167.21 -6.67, 179.14 -1.43 M155.63 -9.92 C162.22 -7.52, 170.89 -3.78, 179.14 -1.43" stroke="#1e1e1e" stroke-width="2" fill="none"/></g></g><mask/><g stroke-linecap="round"><g transform="translate(1267.3424812250432 120.27255680189569) rotate(0 -228.0173017304081 -53.01411159477419)"><path d="M0.43 -1.01 C-35.68 -19.57, -140.02 -110.81, -216.13 -110.27 C-292.23 -109.73, -416.21 -16.6, -456.21 2.25 M-0.81 1.08 C-37.14 -16.86, -141.15 -109.66, -217.19 -109.32 C-293.23 -108.98, -417.28 -15.75, -457.06 3.11" stroke="#1e1e1e" stroke-width="2" fill="none"/></g><g transform="translate(1267.3424812250432 120.27255680189569) rotate(0 -228.0173017304081 -53.01411159477419)"><path d="M-441.2 -16.21 C-448.17 -9.86, -453.82 -3.12, -457.06 3.11 M-441.2 -16.21 C-445.24 -11.93, -447.5 -8.29, -457.06 3.11" stroke="#1e1e1e" stroke-width="2" fill="none"/></g><g transform="translate(1267.3424812250432 120.27255680189569) rotate(0 -228.0173017304081 -53.01411159477419)"><path d="M-432.49 -1.49 C-442.59 -0.18, -451.24 1.48, -457.06 3.11 M-432.49 -1.49 C-438.5 -0.58, -442.74 -0.28, -457.06 3.11" stroke="#1e1e1e" stroke-width="2" fill="none"/></g></g><mask/><g mask="url(#mask-24x4C0oaJfQAinBEz1ZJh)" stroke-linecap="round"><g transform="translate(1295.355490231943 260.0731750227406) rotate(0 52.70860915886641 174.9052938572082)"><path d="M-0.45 -1.05 C17.37 57.34, 88.93 291.15, 106.56 349.43 M1.52 1.02 C19.31 59.66, 89.05 292.72, 106.21 350.77" stroke="#1e1e1e" stroke-width="2" fill="none"/></g><g transform="translate(1295.355490231943 260.0731750227406) rotate(0 52.70860915886641 174.9052938572082)"><path d="M91.31 330.69 C93.48 338.13, 98.65 341.54, 106.21 350.77 M91.31 330.69 C94.03 334.5, 96.83 339.12, 106.21 350.77" stroke="#1e1e1e" stroke-width="2" fill="none"/></g><g transform="translate(1295.355490231943 260.0731750227406) rotate(0 52.70860915886641 174.9052938572082)"><path d="M107.7 325.81 C105.36 334.52, 106.07 339.26, 106.21 350.77 M107.7 325.81 C107.14 330.56, 106.64 336.16, 106.21 350.77" stroke="#1e1e1e" stroke-width="2" fill="none"/></g></g><mask id="mask-24x4C0oaJfQAinBEz1ZJh"><rect x="0" y="0" fill="#fff" width="1500.7727085496758" height="709.883762737157"/><rect x="1255.2564822033091" y="423.47846887994876" fill="#000" width="185.615234375" height="23" opacity="1"/></mask><g transform="translate(1255.2564822033091 423.47846887994876) rotate(0 93.15678100250665 11.455657835621423)"><text x="92.8076171875" y="0" font-family="Helvetica, Segoe UI Emoji" font-size="20px" fill="#1e1e1e" text-anchor="middle" style="white-space: pre;" direction="ltr" dominant-baseline="text-before-edge">Done (e.g. exit() call)</text></g><g mask="url(#mask-n3tLmMapjqYM0Nc8B_sOs)" stroke-linecap="round"><g transform="translate(1163.6177021070112 231.13043463640986) rotate(0 -115.96233841805434 109.2382223578229)"><path d="M-0.17 -0.9 C-38.73 35.52, -192.63 181.69, -231.24 218.42 M-1.72 1.24 C-40.38 37.87, -193.36 183.85, -231.82 219.92" stroke="#1e1e1e" stroke-width="2" fill="none"/></g><g transform="translate(1163.6177021070112 231.13043463640986) rotate(0 -115.96233841805434 109.2382223578229)"><path d="M-220.65 197.56 C-225.59 205.54, -227.61 211.45, -231.82 219.92 M-220.65 197.56 C-225.53 205.28, -230.24 215.51, -231.82 219.92" stroke="#1e1e1e" stroke-width="2" fill="none"/></g><g transform="translate(1163.6177021070112 231.13043463640986) rotate(0 -115.96233841805434 109.2382223578229)"><path d="M-208.89 209.98 C-217.42 214.13, -223.05 216.25, -231.82 219.92 M-208.89 209.98 C-218.24 212.96, -227.45 218.44, -231.82 219.92" stroke="#1e1e1e" stroke-width="2" fill="none"/></g></g><mask id="mask-n3tLmMapjqYM0Nc8B_sOs"><rect x="0" y="0" fill="#fff" width="1495.5423789431197" height="549.6068793520557"/><rect x="983.1729418139568" y="328.86865699423277" fill="#000" width="128.96484375" height="23" opacity="1"/></mask><g transform="translate(983.1729418139569 328.86865699423277) rotate(0 64.44578812169843 11.772094379635533)"><text x="64.482421875" y="0" font-family="Helvetica, Segoe UI Emoji" font-size="20px" fill="#1e1e1e" text-anchor="middle" style="white-space: pre;" direction="ltr" dominant-baseline="text-before-edge">I/O Requested</text></g><g mask="url(#mask--cXrvuHvPw-34JL72qneq)" stroke-linecap="round"><g transform="translate(819.3700450636322 423.0648453464776) rotate(0 -2.4758938619191895 -79.83961413965744)"><path d="M0.37 0.72 C-0.47 -25.78, -4.05 -133.6, -4.99 -160.14 M-0.9 0.05 C-1.9 -26.19, -5.07 -132.12, -5.95 -158.85" stroke="#1e1e1e" stroke-width="2" fill="none"/></g><g transform="translate(819.3700450636322 423.0648453464776) rotate(0 -2.4758938619191895 -79.83961413965744)"><path d="M3.33 -135.63 C1.95 -142.65, -2.8 -150.07, -5.95 -158.85 M3.33 -135.63 C-0.13 -144.49, -4.09 -153.66, -5.95 -158.85" stroke="#1e1e1e" stroke-width="2" fill="none"/></g><g transform="translate(819.3700450636322 423.0648453464776) rotate(0 -2.4758938619191895 -79.83961413965744)"><path d="M-13.76 -135.1 C-9.99 -142.33, -9.6 -149.91, -5.95 -158.85 M-13.76 -135.1 C-10.48 -144.03, -7.69 -153.41, -5.95 -158.85" stroke="#1e1e1e" stroke-width="2" fill="none"/></g></g><mask id="mask--cXrvuHvPw-34JL72qneq"><rect x="0" y="0" fill="#fff" width="924.3218327874706" height="682.7440736257925"/><rect x="776.8746199517129" y="331.7252312068202" fill="#000" width="80.0390625" height="23" opacity="1"/></mask><g transform="translate(776.8746199517129 331.7252312068202) rotate(0 39.702467486439275 11.627526554092768)"><text x="40.01953125" y="0" font-family="Helvetica, Segoe UI Emoji" font-size="20px" fill="#1e1e1e" text-anchor="middle" style="white-space: pre;" direction="ltr" dominant-baseline="text-before-edge">I/O Done</text></g><g stroke-linecap="round"><g transform="translate(188.343372989949 184.01990798906172) rotate(0 36.02317014081109 0.061664097373238747)"><path d="M-0.48 0.71 C11.3 0.39, 59.69 -0.7, 71.88 -0.79 M1.46 0.03 C12.97 0.35, 59.05 0.02, 70.85 0.27" stroke="#1e1e1e" stroke-width="2" fill="none"/></g><g transform="translate(188.343372989949 184.01990798906172) rotate(0 36.02317014081109 0.061664097373238747)"><path d="M47.31 8.69 C57.82 5.14, 64.53 3.12, 70.85 0.27 M47.31 8.69 C53.95 5.94, 61.12 2.61, 70.85 0.27" stroke="#1e1e1e" stroke-width="2" fill="none"/></g><g transform="translate(188.343372989949 184.01990798906172) rotate(0 36.02317014081109 0.061664097373238747)"><path d="M47.4 -8.41 C58.04 -5.12, 64.71 -0.31, 70.85 0.27 M47.4 -8.41 C54.13 -5.95, 61.27 -4.07, 70.85 0.27" stroke="#1e1e1e" stroke-width="2" fill="none"/></g></g><mask/><g transform="translate(10 157.9641495561268) rotate(0 86.7138671875 23)"><text x="0" y="0" font-family="Helvetica, Segoe UI Emoji" font-size="20px" fill="#1e1e1e" text-anchor="start" style="white-space: pre;" direction="ltr" dominant-baseline="text-before-edge">process creation</text><text x="0" y="23" font-family="Helvetica, Segoe UI Emoji" font-size="20px" fill="#1e1e1e" text-anchor="start" style="white-space: pre;" direction="ltr" dominant-baseline="text-before-edge">resources allocated</text></g><g transform="translate(724.486429205894 611.5461240708225) rotate(0 100.5908203125 11.5)"><text x="0" y="0" font-family="Helvetica, Segoe UI Emoji" font-size="20px" fill="#1e1e1e" text-anchor="start" style="white-space: pre;" direction="ltr" dominant-baseline="text-before-edge">Process waiting for I/O</text></g><g transform="translate(1339.179726413032 806.4480465138672) rotate(0 97.8369140625 11.5)"><text x="0" y="0" font-family="Helvetica, Segoe UI Emoji" font-size="20px" fill="#1e1e1e" text-anchor="start" style="white-space: pre;" direction="ltr" dominant-baseline="text-before-edge">resources deallocated</text></g></svg>