<svg version="1.1" xmlns="http://www.w3.org/2000/svg" viewBox="0 0 498.390625 600.6953125" width="498.390625" height="600.6953125" class="excalidraw-svg">
  <!-- svg-source:excalidraw -->
  
  <defs>
    <style class="style-fonts">
      @font-face {
        font-family: "Virgil";
        src: url("https://excalidraw.com/Virgil.woff2");
      }
      @font-face {
        font-family: "Cascadia";
        src: url("https://excalidraw.com/Cascadia.woff2");
      }
      @font-face {
        font-family: "Assistant";
        src: url("https://excalidraw.com/Assistant-Regular.woff2");
      }
    </style>
    
  </defs>
  <rect x="0" y="0" width="498.390625" height="600.6953125" fill="#ffffff"/><g stroke-linecap="round" transform="translate(194.96484375 10) rotate(0 47.55078125 39.875)"><path d="M19.94 0 C41.32 1.29, 61.01 0.14, 75.16 0 M19.94 0 C41.72 -0.04, 63.57 1.14, 75.16 0 M75.16 0 C89.91 -1.63, 93.39 8.04, 95.1 19.94 M75.16 0 C87.29 -0.68, 94.98 8.22, 95.1 19.94 M95.1 19.94 C93.14 37.18, 94.57 51.87, 95.1 59.81 M95.1 19.94 C95.9 31.76, 95.81 44.73, 95.1 59.81 M95.1 59.81 C95.34 73.96, 88.27 78.24, 75.16 79.75 M95.1 59.81 C93.46 72.18, 88.18 77.96, 75.16 79.75 M75.16 79.75 C60.34 79.53, 48.18 80.43, 19.94 79.75 M75.16 79.75 C56.46 79.61, 38.89 78.33, 19.94 79.75 M19.94 79.75 C7.33 81.06, -1.37 72.72, 0 59.81 M19.94 79.75 C6.22 80.87, 0.41 75.23, 0 59.81 M0 59.81 C0.19 48.04, -1.69 37.45, 0 19.94 M0 59.81 C-0.48 49.73, 0.05 38.57, 0 19.94 M0 19.94 C-0.58 6.96, 6.93 0.56, 19.94 0 M0 19.94 C-1.39 7.34, 8.53 -1.97, 19.94 0" stroke="#1e1e1e" stroke-width="2" fill="none"/></g><g transform="translate(220.2744140625 38.375) rotate(0 22.2412109375 11.5)"><text x="22.2412109375" y="0" font-family="Helvetica, Segoe UI Emoji" font-size="20px" fill="#1e1e1e" text-anchor="middle" style="white-space: pre;" direction="ltr" dominant-baseline="text-before-edge">Input</text></g><g stroke-linecap="round" transform="translate(10 136.734375) rotate(0 239.1953125 162.369140625)"><path d="M32 0 C160.59 0.53, 288.38 0.57, 446.39 0 M32 0 C176.47 1.3, 320.92 1.23, 446.39 0 M446.39 0 C468.28 -0.08, 478.08 10.66, 478.39 32 M446.39 0 C466.57 0.8, 476.67 12.02, 478.39 32 M478.39 32 C476.38 120.64, 478.07 210.02, 478.39 292.74 M478.39 32 C480.04 130.98, 479.38 228.88, 478.39 292.74 M478.39 292.74 C477.57 313.68, 465.79 326.5, 446.39 324.74 M478.39 292.74 C479.17 315.24, 466.19 322.79, 446.39 324.74 M446.39 324.74 C362.29 325.48, 278.42 324.85, 32 324.74 M446.39 324.74 C287.16 326.27, 128.83 326.08, 32 324.74 M32 324.74 C9.45 326.35, 0.79 313.11, 0 292.74 M32 324.74 C9.35 326.71, -1.33 312.66, 0 292.74 M0 292.74 C-0.43 233.72, -3.13 170.76, 0 32 M0 292.74 C2.26 202.35, 1.33 113.06, 0 32 M0 32 C-1.12 9.9, 9.71 1.6, 32 0 M0 32 C-1.61 12.78, 8.54 1.99, 32 0" stroke="#1e1e1e" stroke-width="2" fill="none"/></g><g stroke-linecap="round" transform="translate(72.11328125 177.56640625) rotate(0 180.677734375 75.099609375)"><path d="M32 0 C129.68 2.31, 228.87 0.27, 329.36 0 M32 0 C147.97 -1.15, 263.3 -2.16, 329.36 0 M329.36 0 C349.57 -1.61, 363.23 11.6, 361.36 32 M329.36 0 C350.91 1.94, 361.95 9.66, 361.36 32 M361.36 32 C361.81 66.1, 360.58 102.3, 361.36 118.2 M361.36 32 C361.81 59.35, 362.67 87.93, 361.36 118.2 M361.36 118.2 C360.16 140.4, 350.85 149.32, 329.36 150.2 M361.36 118.2 C362.4 138.32, 348.91 150.46, 329.36 150.2 M329.36 150.2 C242.98 150.77, 155.46 149.01, 32 150.2 M329.36 150.2 C252.96 149.07, 176.71 148.8, 32 150.2 M32 150.2 C11.27 148.92, -1.37 137.86, 0 118.2 M32 150.2 C10.78 148.96, 1.8 139.9, 0 118.2 M0 118.2 C-1.6 89.93, -0.8 59.6, 0 32 M0 118.2 C0.29 85.81, 0.86 55.89, 0 32 M0 32 C1.02 9.92, 10.6 1.27, 32 0 M0 32 C1.31 12.88, 9.27 1.76, 32 0" stroke="#1e1e1e" stroke-width="2" fill="none"/></g><g stroke-linecap="round" transform="translate(88.2265625 367.12890625) rotate(0 170.162109375 28.841796875)"><path d="M14.42 0 C126.23 2.11, 237.65 0.37, 325.9 0 M14.42 0 C93.75 -2.01, 172.24 -1.04, 325.9 0 M325.9 0 C333.61 0.9, 339.59 3.66, 340.32 14.42 M325.9 0 C333.7 1.25, 340.39 4.27, 340.32 14.42 M340.32 14.42 C338.98 22.93, 338.76 30.16, 340.32 43.26 M340.32 14.42 C339.75 23.88, 339.66 34.33, 340.32 43.26 M340.32 43.26 C338.93 51.79, 334.3 56.92, 325.9 57.68 M340.32 43.26 C342.09 52.6, 337.09 57.13, 325.9 57.68 M325.9 57.68 C257.2 55.19, 187.27 56, 14.42 57.68 M325.9 57.68 C255.32 59.51, 186.48 59.45, 14.42 57.68 M14.42 57.68 C4.05 56.99, -1.35 53.6, 0 43.26 M14.42 57.68 C4.39 56.42, 1.37 53.43, 0 43.26 M0 43.26 C1.5 33.69, -0.02 20.82, 0 14.42 M0 43.26 C0.12 33.8, 0.26 25.89, 0 14.42 M0 14.42 C1.97 3.27, 4.36 -0.66, 14.42 0 M0 14.42 C1.12 2.87, 2.62 0.27, 14.42 0" stroke="#1e1e1e" stroke-width="2" fill="none"/></g><g stroke-linecap="round" transform="translate(112.06640625 196.7265625) rotate(0 143.9609375 26.939453125)"><path d="M13.47 0 C104.29 1.39, 192.98 -0.57, 274.45 0 M13.47 0 C101.91 -1.15, 189.44 -1.98, 274.45 0 M274.45 0 C282.74 -0.2, 289.2 3.96, 287.92 13.47 M274.45 0 C281.14 0.47, 287.29 4.01, 287.92 13.47 M287.92 13.47 C289.46 21.19, 288.78 30.8, 287.92 40.41 M287.92 13.47 C287.64 20.19, 288.56 28.54, 287.92 40.41 M287.92 40.41 C289.73 49.79, 284.38 53.98, 274.45 53.88 M287.92 40.41 C288.03 50.74, 281.8 51.92, 274.45 53.88 M274.45 53.88 C201.91 56.66, 130 56.13, 13.47 53.88 M274.45 53.88 C209.52 55.18, 144.25 55.95, 13.47 53.88 M13.47 53.88 C5.16 54.03, 1.94 50.24, 0 40.41 M13.47 53.88 C4.48 54.47, 2.29 49.46, 0 40.41 M0 40.41 C-1.21 33.13, 0.94 24.71, 0 13.47 M0 40.41 C0.32 30.25, 0.37 20.69, 0 13.47 M0 13.47 C-0.37 4.51, 3.54 -0.08, 13.47 0 M0 13.47 C0.46 2.25, 3.48 0.18, 13.47 0" stroke="#1e1e1e" stroke-width="2" fill="none"/></g><g stroke-linecap="round" transform="translate(116.609375 266.30078125) rotate(0 141.798828125 22.162109375)"><path d="M11.08 0 C97.72 1.32, 182.69 1.66, 272.52 0 M11.08 0 C74.17 0.88, 137.08 1.6, 272.52 0 M272.52 0 C281.21 1.41, 282.44 4.86, 283.6 11.08 M272.52 0 C278.64 0.32, 284.09 1.5, 283.6 11.08 M283.6 11.08 C282.46 14.97, 283.35 22.51, 283.6 33.24 M283.6 11.08 C284.46 16.11, 283.12 22.47, 283.6 33.24 M283.6 33.24 C284.6 42.44, 280.89 43.15, 272.52 44.32 M283.6 33.24 C284.33 42.75, 278.61 42.43, 272.52 44.32 M272.52 44.32 C191.97 45.34, 115.86 44.97, 11.08 44.32 M272.52 44.32 C195.92 46.92, 119.23 45.78, 11.08 44.32 M11.08 44.32 C5.08 45.5, -1.2 41.13, 0 33.24 M11.08 44.32 C2.3 42.93, 0.73 38.58, 0 33.24 M0 33.24 C0.1 25.54, 0.66 18.94, 0 11.08 M0 33.24 C-0.28 27.66, -0.85 21.73, 0 11.08 M0 11.08 C-0.91 3.93, 1.81 -0.87, 11.08 0 M0 11.08 C-1 1.87, 4.04 -0.54, 11.08 0" stroke="#1e1e1e" stroke-width="2" fill="none"/></g><g transform="translate(209.15234375 212.84765625) rotate(0 52.7978515625 11.5)"><text x="0" y="0" font-family="Helvetica, Segoe UI Emoji" font-size="20px" fill="#1e1e1e" text-anchor="start" style="white-space: pre;" direction="ltr" dominant-baseline="text-before-edge">Control Unit</text></g><g transform="translate(184.328125 276.66796875) rotate(0 70.029296875 11.5)"><text x="0" y="0" font-family="Helvetica, Segoe UI Emoji" font-size="20px" fill="#1e1e1e" text-anchor="start" style="white-space: pre;" direction="ltr" dominant-baseline="text-before-edge">Processing Unit</text></g><g stroke-linecap="round"><g transform="translate(185.53125 328.0625) rotate(0 -0.005859375 18.9765625)"><path d="M-0.39 -0.26 C-0.32 5.97, 0.39 31.41, 0.41 37.72 M0.41 0.79 C0.44 7.07, 0.39 32.09, 0.19 38.3" stroke="#1e1e1e" stroke-width="2" fill="none"/></g><g transform="translate(185.53125 328.0625) rotate(0 -0.005859375 18.9765625)"><path d="M-6.04 20.38 C-4.57 26.49, -2.65 30.67, 0.19 38.3 M-6.04 20.38 C-3.99 24.84, -2.64 28.85, 0.19 38.3" stroke="#1e1e1e" stroke-width="2" fill="none"/></g><g transform="translate(185.53125 328.0625) rotate(0 -0.005859375 18.9765625)"><path d="M6.94 20.57 C4.52 26.58, 2.55 30.7, 0.19 38.3 M6.94 20.57 C5.87 25.01, 4.09 28.98, 0.19 38.3" stroke="#1e1e1e" stroke-width="2" fill="none"/></g></g><mask/><g stroke-linecap="round"><g transform="translate(328.92578125 362.953125) rotate(0 -0.30859375 -17.140625)"><path d="M-0.01 0.38 C-0.09 -5.34, -0.41 -28.88, -0.44 -34.67 M-0.68 0.11 C-0.83 -5.53, -0.84 -28.53, -0.78 -34.17" stroke="#1e1e1e" stroke-width="2" fill="none"/></g><g transform="translate(328.92578125 362.953125) rotate(0 -0.30859375 -17.140625)"><path d="M5.02 -18.04 C3.86 -22.81, 0.84 -27.45, -0.78 -34.17 M5.02 -18.04 C3.28 -22.63, 1.81 -27.72, -0.78 -34.17" stroke="#1e1e1e" stroke-width="2" fill="none"/></g><g transform="translate(328.92578125 362.953125) rotate(0 -0.30859375 -17.140625)"><path d="M-6.71 -18.08 C-4.2 -22.84, -3.56 -27.46, -0.78 -34.17 M-6.71 -18.08 C-5.04 -22.7, -3.11 -27.78, -0.78 -34.17" stroke="#1e1e1e" stroke-width="2" fill="none"/></g></g><mask/><g transform="translate(227.78125 383.8828125) rotate(0 36.11328125 11.5)"><text x="0" y="0" font-family="Helvetica, Segoe UI Emoji" font-size="20px" fill="#1e1e1e" text-anchor="start" style="white-space: pre;" direction="ltr" dominant-baseline="text-before-edge">Memory</text></g><g stroke-linecap="round" transform="translate(202.5234375 498.07421875) rotate(0 67.279296875 46.310546875)"><path d="M23.16 0 C52 0.25, 85.16 1.23, 111.4 0 M23.16 0 C41.8 -1.58, 60.95 -0.44, 111.4 0 M111.4 0 C125.13 -1.86, 136.13 9.5, 134.56 23.16 M111.4 0 C126.56 -0.27, 133.82 5.44, 134.56 23.16 M134.56 23.16 C135.51 40, 135.3 58.43, 134.56 69.47 M134.56 23.16 C134.37 33.95, 135.55 46.52, 134.56 69.47 M134.56 69.47 C133.98 83.04, 124.85 93.45, 111.4 92.62 M134.56 69.47 C132.38 84.66, 127.1 92.67, 111.4 92.62 M111.4 92.62 C92.21 91.09, 70.3 94.25, 23.16 92.62 M111.4 92.62 C76.96 92.54, 43.28 93.92, 23.16 92.62 M23.16 92.62 C5.83 90.69, -1.76 85.45, 0 69.47 M23.16 92.62 C8.74 94.74, -1.11 83.3, 0 69.47 M0 69.47 C1.54 52.26, -0.6 38.85, 0 23.16 M0 69.47 C-0.1 56.91, 0.62 42.45, 0 23.16 M0 23.16 C-1.67 8.05, 8.67 -1.05, 23.16 0 M0 23.16 C-1.91 7.42, 8.15 1.76, 23.16 0" stroke="#1e1e1e" stroke-width="2" fill="none"/></g><g transform="translate(239.783203125 532.884765625) rotate(0 30.01953125 11.5)"><text x="30.01953125" y="0" font-family="Helvetica, Segoe UI Emoji" font-size="20px" fill="#1e1e1e" text-anchor="middle" style="white-space: pre;" direction="ltr" dominant-baseline="text-before-edge">Output</text></g><g stroke-linecap="round"><g transform="translate(264.7578125 462.56640625) rotate(0 0.2482576438848909 17.25390625)"><path d="M0.55 -0.48 C0.77 5.26, 0.94 29.01, 0.93 34.84 M0.17 0.46 C0.39 6.02, 0.72 28.27, 0.71 34.04" stroke="#1e1e1e" stroke-width="2" fill="none"/></g><g transform="translate(264.7578125 462.56640625) rotate(0 0.2482576438848909 17.25390625)"><path d="M-5.32 17.88 C-4.67 22.13, -2.05 25.02, 0.71 34.04 M-5.32 17.88 C-3.27 22.98, -1.89 27.19, 0.71 34.04" stroke="#1e1e1e" stroke-width="2" fill="none"/></g><g transform="translate(264.7578125 462.56640625) rotate(0 0.2482576438848909 17.25390625)"><path d="M6.48 17.78 C4.5 22.11, 4.49 25.03, 0.71 34.04 M6.48 17.78 C5.02 22.94, 2.9 27.19, 0.71 34.04" stroke="#1e1e1e" stroke-width="2" fill="none"/></g></g><mask/><g stroke-linecap="round"><g transform="translate(240.68836113562816 90.75) rotate(0 -0.564201896449962 22.103515625)"><path d="M-0.01 -0.35 C-0.09 7.06, -0.38 36.89, -0.61 44.29 M-0.69 0.66 C-0.78 8.19, -0.58 37.72, -0.77 45.04" stroke="#1e1e1e" stroke-width="2" fill="none"/></g><g transform="translate(240.68836113562816 90.75) rotate(0 -0.564201896449962 22.103515625)"><path d="M-8.18 24.2 C-6.79 30.93, -3.95 35.3, -0.77 45.04 M-8.18 24.2 C-5.86 29.45, -3.97 35.29, -0.77 45.04" stroke="#1e1e1e" stroke-width="2" fill="none"/></g><g transform="translate(240.68836113562816 90.75) rotate(0 -0.564201896449962 22.103515625)"><path d="M6.95 24.32 C4.14 31.01, 2.79 35.35, -0.77 45.04 M6.95 24.32 C5.16 29.49, 2.93 35.3, -0.77 45.04" stroke="#1e1e1e" stroke-width="2" fill="none"/></g></g><mask/></svg>