<svg version="1.1" xmlns="http://www.w3.org/2000/svg" viewBox="0 0 531.4189069343612 296.76953125" width="531.4189069343612" height="296.76953125" class="excalidraw-svg">
  <!-- svg-source:excalidraw -->
  
  <defs>
    <style class="style-fonts">
      @font-face {
        font-family: "Virgil";
        src: url("https://excalidraw.com/Virgil.woff2");
      }
      @font-face {
        font-family: "Cascadia";
        src: url("https://excalidraw.com/Cascadia.woff2");
      }
      @font-face {
        font-family: "Assistant";
        src: url("https://excalidraw.com/Assistant-Regular.woff2");
      }
    </style>
    
  </defs>
  <rect x="0" y="0" width="531.4189069343612" height="296.76953125" fill="#ffffff"/><g stroke-linecap="round" transform="translate(84.34765625 36.453125) rotate(0 89.986328125 124.884765625)"><path d="M32 0 C72.03 1.99, 111.6 -0.37, 147.97 0 M32 0 C73.51 -0.74, 114.99 0.1, 147.97 0 M147.97 0 C168.56 1.82, 178.75 10, 179.97 32 M147.97 0 C169.72 0.73, 178.57 10.64, 179.97 32 M179.97 32 C177.1 79.46, 178.35 124.02, 179.97 217.77 M179.97 32 C182.44 82.93, 181.26 132.69, 179.97 217.77 M179.97 217.77 C181.31 237.48, 169.54 248.27, 147.97 249.77 M179.97 217.77 C179.63 239.81, 168.34 251.41, 147.97 249.77 M147.97 249.77 C116.93 248.94, 83.21 247.54, 32 249.77 M147.97 249.77 C116.98 249.42, 86.59 250.82, 32 249.77 M32 249.77 C8.89 251.52, -1.81 240.91, 0 217.77 M32 249.77 C11.29 249.54, -0.27 238.46, 0 217.77 M0 217.77 C1.08 150.64, -0.07 85.06, 0 32 M0 217.77 C-1.73 148.95, -1.87 79.96, 0 32 M0 32 C0.21 9.36, 9.96 0.01, 32 0 M0 32 C-1.52 11.97, 11.1 -0.77, 32 0" stroke="#1e1e1e" stroke-width="2" fill="none"/></g><g transform="translate(122.294921875 152.137890625) rotate(0 52.0390625 9.2)"><text x="52.0390625" y="0" font-family="Helvetica, Segoe UI Emoji" font-size="16px" fill="#1e1e1e" text-anchor="middle" style="white-space: pre;" direction="ltr" dominant-baseline="text-before-edge">Payload: 100B</text></g><g transform="translate(108.96875 10) rotate(0 68.369140625 11.5)"><text x="0" y="0" font-family="Helvetica, Segoe UI Emoji" font-size="20px" fill="#1e1e1e" text-anchor="start" style="white-space: pre;" direction="ltr" dominant-baseline="text-before-edge">Allocated Block</text></g><g stroke-linecap="round" transform="translate(339.587890625 37) rotate(0 89.986328125 124.884765625)"><path d="M32 0 C73.62 -1.89, 110.16 0.98, 147.97 0 M32 0 C56.89 -1.34, 81.06 -0.91, 147.97 0 M147.97 0 C167.59 0.19, 179.78 10.86, 179.97 32 M147.97 0 C170.91 1.71, 180.8 10.75, 179.97 32 M179.97 32 C178.45 97.22, 178.24 165.43, 179.97 217.77 M179.97 32 C182.15 86.52, 181.82 139.65, 179.97 217.77 M179.97 217.77 C180.19 239.83, 167.64 251.27, 147.97 249.77 M179.97 217.77 C179.14 239.46, 170.87 252, 147.97 249.77 M147.97 249.77 C109.84 249, 76.83 249.55, 32 249.77 M147.97 249.77 C121.53 248.66, 96.65 249.04, 32 249.77 M32 249.77 C9.04 249.3, -1.16 237.45, 0 217.77 M32 249.77 C11.48 250.49, 1.69 237.22, 0 217.77 M0 217.77 C3.18 144.6, 2.74 75.35, 0 32 M0 217.77 C-1.56 144.93, -1.72 73.7, 0 32 M0 32 C-0.28 12.58, 11.67 -0.47, 32 0 M0 32 C0.26 10.12, 9.1 1.76, 32 0" stroke="#1e1e1e" stroke-width="2" fill="none"/></g><g transform="translate(378.408203125 10.33984375) rotate(0 47.79296875 11.5)"><text x="0" y="0" font-family="Helvetica, Segoe UI Emoji" font-size="20px" fill="#1e1e1e" text-anchor="start" style="white-space: pre;" direction="ltr" dominant-baseline="text-before-edge">Free Block</text></g><g stroke-linecap="round"><g transform="translate(84.8203125 98.87890625) rotate(0 89.6328125 -0.24609375)"><path d="M1.17 0.13 C30.75 0.29, 148.46 0.58, 178.07 0.36 M0.32 -0.84 C30.2 -0.96, 150.56 -1.42, 180.15 -1.31" stroke="#1e1e1e" stroke-width="2" fill="none"/></g></g><mask/><g transform="translate(35.32812655841212 66.27837896608989) rotate(359.9687943867834 20.72314453125 6.0379248070924305)"><text x="0" y="0" font-family="Helvetica, Segoe UI Emoji" font-size="10.500738794943363px" fill="#1e1e1e" text-anchor="start" style="white-space: pre;" direction="ltr" dominant-baseline="text-before-edge">16B total</text></g><g stroke-linecap="round"><g transform="translate(85.65234375 71.828125) rotate(0 14.099609375 -0.431640625)"><path d="M-0.54 -0.06 C4.24 -0.16, 23.71 -0.68, 28.52 -0.86 M0.18 -0.56 C4.94 -0.54, 23.61 -0.15, 28.25 -0.15" stroke="#1e1e1e" stroke-width="2" fill="none"/></g></g><mask/><g stroke-linecap="round"><g transform="translate(130.30859375 70.91015625) rotate(0 19.85546875 -0.1328125)"><path d="M0.26 0.14 C6.75 0.11, 32.68 0.16, 39.21 0.18 M-0.27 -0.26 C6.36 -0.47, 33.65 -0.51, 40.18 -0.56" stroke="#1e1e1e" stroke-width="2" fill="none"/></g></g><mask/><g stroke-linecap="round"><g transform="translate(186.375 69.33203125) rotate(0 21.9609375 -0.14453125)"><path d="M0.42 -0.33 C7.84 -0.28, 37.09 0.2, 44.36 0.17 M-0.03 0.69 C7.37 0.6, 36.86 -0.44, 44.16 -0.56" stroke="#1e1e1e" stroke-width="2" fill="none"/></g></g><mask/><g stroke-linecap="round"><g transform="translate(246.6640625 68.59765625) rotate(0 9.701171875 0.25)"><path d="M-0.34 0.05 C2.9 0.03, 16.21 -0.07, 19.57 0.06 M0.48 -0.4 C3.66 -0.39, 16.02 0.48, 19.22 0.53" stroke="#1e1e1e" stroke-width="2" fill="none"/></g></g><mask/><g transform="translate(24.8359375 44.3671875) rotate(0 26.23828125 9.200000000000003)"><text x="0" y="0" font-family="Helvetica, Segoe UI Emoji" font-size="16px" fill="#1e1e1e" text-anchor="start" style="white-space: pre;" direction="ltr" dominant-baseline="text-before-edge">Header</text></g><g transform="translate(108.16015625 43.203125) rotate(0 62.109375 9.200000000000003)"><text x="0" y="0" font-family="Helvetica, Segoe UI Emoji" font-size="16px" fill="#1e1e1e" text-anchor="start" style="white-space: pre;" direction="ltr" dominant-baseline="text-before-edge">Canary Value: 8B</text></g><g stroke-linecap="round"><g transform="translate(85.93359375 252.125) rotate(0 89.3359375 -0.041015625)"><path d="M0.06 0.48 C29.59 0.43, 147.96 -0.91, 177.72 -1.12 M-1.37 -0.31 C28.48 -0.18, 150.07 -0.2, 179.93 -0.12" stroke="#1e1e1e" stroke-width="2" fill="none"/></g></g><mask/><g transform="translate(129.08984375 259.91796875) rotate(0 48.0390625 9.200000000000003)"><text x="0" y="0" font-family="Helvetica, Segoe UI Emoji" font-size="16px" fill="#1e1e1e" text-anchor="start" style="white-space: pre;" direction="ltr" dominant-baseline="text-before-edge">Padding: 12B</text></g><g transform="translate(10 96.27734375) rotate(0 7.5625 9.2)"><text x="0" y="0" font-family="Helvetica, Segoe UI Emoji" font-size="16px" fill="#1e1e1e" text-anchor="start" style="white-space: pre;" direction="ltr" dominant-baseline="text-before-edge">*p</text></g><g stroke-linecap="round"><g transform="translate(35.578125 108.22656250000001) rotate(0 22.63671875 -4.5605468749999964)"><path d="M0.42 0.34 C7.85 -1.2, 37.43 -7.08, 44.95 -8.74 M-0.03 0.04 C7.55 -1.42, 38.46 -7.96, 46.02 -9.51" stroke="#1e1e1e" stroke-width="2" fill="none"/></g><g transform="translate(35.578125 108.22656250000001) rotate(0 22.63671875 -4.5605468749999964)"><path d="M26.4 2.65 C34.09 -2.42, 41.3 -5.74, 46.02 -9.51 M26.4 2.65 C30.06 0.36, 34.94 -2.34, 46.02 -9.51" stroke="#1e1e1e" stroke-width="2" fill="none"/></g><g transform="translate(35.578125 108.22656250000001) rotate(0 22.63671875 -4.5605468749999964)"><path d="M23.17 -12.81 C32.11 -12.28, 40.49 -9.98, 46.02 -9.51 M23.17 -12.81 C27.55 -11.9, 33.09 -11.39, 46.02 -9.51" stroke="#1e1e1e" stroke-width="2" fill="none"/></g></g><mask/><g transform="translate(143.95703125 74.53515625) rotate(0 29.79296875 9.200000000000003)"><text x="0" y="0" font-family="Helvetica, Segoe UI Emoji" font-size="16px" fill="#1e1e1e" text-anchor="start" style="white-space: pre;" direction="ltr" dominant-baseline="text-before-edge">Size: 8B</text></g><g transform="translate(235.2300827414858 156.96821431562557) rotate(90.40744013450009 46.310699462890625 11.27184960674341)"><text x="0" y="0" font-family="Helvetica, Segoe UI Emoji" font-size="19.603216707379847px" fill="#1e1e1e" text-anchor="start" style="white-space: pre;" direction="ltr" dominant-baseline="text-before-edge">128B Total</text></g><g stroke-linecap="round"><g transform="translate(340.83347634331994 69.48579058639223) rotate(0 14.099609375 -0.431640625)"><path d="M0.26 -0.05 C4.86 -0.17, 23.13 -0.35, 27.86 -0.43 M-0.28 -0.55 C4.49 -0.84, 24.13 -1.02, 28.92 -1.17" stroke="#1e1e1e" stroke-width="2" fill="none"/></g></g><mask/><g stroke-linecap="round"><g transform="translate(385.48972634331994 68.56782183639223) rotate(0 19.85546875 -0.1328125)"><path d="M-0.34 0.44 C6.31 0.45, 33.47 0.11, 40.13 0.05 M0.49 0.18 C7.08 0.05, 33.45 -0.59, 39.92 -0.75" stroke="#1e1e1e" stroke-width="2" fill="none"/></g></g><mask/><g stroke-linecap="round"><g transform="translate(441.55613259331994 66.98969683639223) rotate(0 21.9609375 -0.14453125)"><path d="M0.42 0.32 C7.79 0.25, 36.6 0.14, 43.87 0.05 M-0.02 0 C7.3 -0.25, 36.11 -0.81, 43.42 -0.73" stroke="#1e1e1e" stroke-width="2" fill="none"/></g></g><mask/><g stroke-linecap="round"><g transform="translate(501.84519509331994 66.25532183639223) rotate(0 9.701171875 0.25)"><path d="M-0.05 0.34 C3.14 0.39, 16.41 0.63, 19.57 0.61 M-0.74 0.04 C2.36 -0.11, 15.77 -0.4, 19.23 -0.3" stroke="#1e1e1e" stroke-width="2" fill="none"/></g></g><mask/><g stroke-linecap="round"><g transform="translate(340.541729793438 98.1007801541453) rotate(0 89.51484787195471 -0.19896207851920167)"><path d="M0.36 -0.81 C30.12 -0.81, 149.33 -0.76, 179.04 -0.75 M-0.91 1.38 C28.65 1.62, 148.33 0.77, 178.09 0.6" stroke="#1e1e1e" stroke-width="2" fill="none"/></g></g><mask/><g transform="translate(416.34427199128686 41.26193667253011) rotate(0 16.44921875 9.200000000000003)"><text x="0" y="0" font-family="Helvetica, Segoe UI Emoji" font-size="16px" fill="#1e1e1e" text-anchor="start" style="white-space: pre;" direction="ltr" dominant-baseline="text-before-edge">Next</text></g><g transform="translate(413.446258685987 75.09754832858249) rotate(0 28 9.200000000000003)"><text x="0" y="0" font-family="Helvetica, Segoe UI Emoji" font-size="16px" fill="#1e1e1e" text-anchor="start" style="white-space: pre;" direction="ltr" dominant-baseline="text-before-edge">Size (F)</text></g><g transform="translate(414.1777960251891 115.11505244448381) rotate(0 16.44921875 9.2)"><text x="0" y="0" font-family="Helvetica, Segoe UI Emoji" font-size="16px" fill="#1e1e1e" text-anchor="start" style="white-space: pre;" direction="ltr" dominant-baseline="text-before-edge">Next</text></g></svg>