<svg version="1.1" xmlns="http://www.w3.org/2000/svg" viewBox="0 0 608.4179583788205 222.1669025912193" width="608.4179583788205" height="222.1669025912193" class="excalidraw-svg">
  <!-- svg-source:excalidraw -->
  
  <defs>
    <style class="style-fonts">
      @font-face {
        font-family: "Virgil";
        src: url("https://excalidraw.com/Virgil.woff2");
      }
      @font-face {
        font-family: "Cascadia";
        src: url("https://excalidraw.com/Cascadia.woff2");
      }
      @font-face {
        font-family: "Assistant";
        src: url("https://excalidraw.com/Assistant-Regular.woff2");
      }
    </style>
    
  </defs>
  <rect x="0" y="0" width="608.4179583788205" height="222.1669025912193" fill="#ffffff"/><g transform="translate(24.350912872802382 117.56958745477363) rotate(0 -0.1668710799162909 7.342327516317496)" stroke="none"><path fill="#1e1e1e" d="M 2.62,0.08 Q 2.62,0.08 2.52,3.05 2.43,6.03 2.37,9.59 2.31,13.14 2.24,13.56 2.16,13.98 1.96,14.35 1.75,14.73 1.44,15.01 1.13,15.30 0.74,15.47 0.35,15.64 -0.06,15.68 -0.49,15.72 -0.90,15.62 -1.31,15.53 -1.68,15.30 -2.04,15.08 -2.31,14.75 -2.58,14.42 -2.73,14.02 -2.88,13.62 -2.89,13.20 -2.91,12.78 -2.79,12.37 -2.67,11.96 -2.42,11.61 -2.18,11.26 -1.84,11.01 -1.50,10.76 -1.09,10.63 -0.69,10.50 -0.26,10.51 0.15,10.52 0.55,10.66 0.96,10.80 1.29,11.06 1.62,11.33 1.86,11.68 2.09,12.04 2.20,12.45 2.30,12.86 2.27,13.28 2.24,13.71 2.08,14.10 1.91,14.49 1.63,14.81 1.35,15.13 0.99,15.34 0.62,15.56 0.20,15.64 -0.20,15.73 -0.63,15.67 -1.05,15.62 -1.43,15.44 -1.81,15.25 -2.12,14.95 -2.42,14.66 -2.61,14.28 -2.81,13.90 -2.87,13.48 -2.93,13.06 -2.93,13.06 -2.93,13.06 -2.87,9.46 -2.81,5.86 -2.72,2.88 -2.62,-0.08 -2.57,-0.39 -2.52,-0.71 -2.40,-1.00 -2.28,-1.29 -2.09,-1.54 -1.90,-1.80 -1.66,-2.00 -1.42,-2.20 -1.13,-2.34 -0.85,-2.48 -0.54,-2.55 -0.23,-2.61 0.08,-2.60 0.40,-2.59 0.70,-2.51 1.01,-2.42 1.28,-2.26 1.56,-2.11 1.79,-1.89 2.02,-1.67 2.19,-1.41 2.36,-1.14 2.46,-0.84 2.56,-0.54 2.59,-0.23 2.62,0.08 2.62,0.08 L 2.62,0.08 Z"/></g><g transform="translate(38.0343414259396 114.89965017611269) rotate(0 0.8343553995815114 9.67852263514581)" stroke="none"><path fill="#1e1e1e" d="M 2.62,-0.14 Q 2.62,-0.14 2.91,4.93 3.19,10.02 3.50,12.58 3.81,15.14 3.79,15.56 3.77,15.99 3.62,16.38 3.46,16.78 3.19,17.11 2.92,17.43 2.56,17.66 2.20,17.88 1.78,17.97 1.37,18.07 0.94,18.03 0.52,17.99 0.13,17.81 -0.24,17.64 -0.55,17.35 -0.87,17.06 -1.07,16.68 -1.27,16.31 -1.34,15.89 -1.42,15.47 -1.35,15.05 -1.29,14.63 -1.09,14.26 -0.90,13.88 -0.59,13.58 -0.29,13.29 0.09,13.11 0.47,12.92 0.89,12.87 1.32,12.82 1.73,12.91 2.15,13.00 2.51,13.21 2.88,13.43 3.16,13.75 3.44,14.07 3.60,14.46 3.76,14.86 3.79,15.28 3.81,15.71 3.70,16.12 3.59,16.53 3.36,16.88 3.12,17.24 2.79,17.50 2.45,17.76 2.05,17.90 1.65,18.04 1.22,18.04 0.80,18.04 0.40,17.91 -0.00,17.78 -0.34,17.53 -0.68,17.27 -0.92,16.92 -1.16,16.57 -1.28,16.17 -1.40,15.76 -1.40,15.76 -1.40,15.76 -1.72,13.04 -2.04,10.31 -2.33,5.23 -2.62,0.14 -2.60,-0.16 -2.58,-0.48 -2.48,-0.78 -2.39,-1.08 -2.22,-1.35 -2.06,-1.62 -1.83,-1.85 -1.61,-2.07 -1.34,-2.23 -1.06,-2.39 -0.76,-2.49 -0.46,-2.58 -0.14,-2.60 0.16,-2.62 0.48,-2.56 0.79,-2.50 1.07,-2.37 1.36,-2.24 1.61,-2.04 1.86,-1.84 2.05,-1.59 2.25,-1.34 2.38,-1.06 2.51,-0.77 2.56,-0.45 2.62,-0.14 2.62,-0.14 L 2.62,-0.14 Z"/></g><g transform="translate(10 145.27018672088056) rotate(0 27.700599266106963 1.8355818790793847)" stroke="none"><path fill="#1e1e1e" d="M 0.23,-2.61 Q 0.23,-2.61 7.81,-1.94 15.39,-1.27 23.75,-0.79 32.11,-0.32 38.62,-0.12 45.13,0.07 48.19,0.36 51.24,0.64 51.66,0.75 52.07,0.85 52.42,1.09 52.78,1.32 53.04,1.66 53.30,1.99 53.44,2.39 53.59,2.79 53.59,3.22 53.60,3.64 53.47,4.05 53.34,4.45 53.09,4.79 52.83,5.13 52.49,5.38 52.14,5.62 51.73,5.74 51.32,5.86 50.90,5.85 50.47,5.83 50.08,5.68 49.68,5.53 49.35,5.26 49.02,4.99 48.80,4.62 48.57,4.26 48.48,3.85 48.38,3.44 48.42,3.01 48.46,2.59 48.63,2.20 48.80,1.81 49.09,1.50 49.38,1.19 49.75,0.98 50.12,0.78 50.54,0.70 50.96,0.63 51.38,0.69 51.80,0.75 52.18,0.95 52.56,1.14 52.86,1.44 53.15,1.75 53.34,2.13 53.52,2.51 53.57,2.94 53.62,3.36 53.54,3.77 53.45,4.19 53.24,4.56 53.03,4.93 52.71,5.21 52.39,5.49 52.00,5.65 51.60,5.81 51.18,5.84 50.75,5.87 50.76,5.87 50.76,5.87 47.86,5.60 44.97,5.32 38.39,5.12 31.81,4.92 23.37,4.44 14.92,3.95 7.34,3.28 -0.23,2.61 -0.54,2.55 -0.85,2.48 -1.13,2.34 -1.42,2.20 -1.66,2.00 -1.90,1.80 -2.09,1.55 -2.28,1.29 -2.40,1.00 -2.52,0.71 -2.57,0.39 -2.62,0.08 -2.59,-0.23 -2.56,-0.54 -2.46,-0.84 -2.36,-1.14 -2.19,-1.41 -2.02,-1.67 -1.79,-1.89 -1.56,-2.11 -1.28,-2.26 -1.01,-2.42 -0.70,-2.51 -0.40,-2.59 -0.08,-2.60 0.23,-2.61 0.23,-2.61 L 0.23,-2.61 Z"/></g><g transform="translate(23.34968639330458 166.62968495016787) rotate(0 10.512878034727322 6.007358876987055)" stroke="none"><path fill="#1e1e1e" d="M 0.40,-2.59 Q 0.40,-2.59 4.98,-0.93 9.55,0.71 9.69,3.25 9.84,5.78 8.01,8.56 6.19,11.33 5.87,12.38 5.55,13.42 5.33,13.65 5.12,13.87 4.85,14.04 4.58,14.21 4.28,14.31 3.98,14.41 3.66,14.44 3.35,14.47 3.04,14.42 2.72,14.37 2.43,14.24 2.14,14.12 1.89,13.93 1.63,13.74 1.43,13.49 1.23,13.25 1.10,12.96 0.96,12.68 0.90,12.37 0.83,12.06 0.85,11.74 0.86,11.42 0.95,11.12 1.03,10.81 1.19,10.54 1.35,10.27 5.44,10.19 9.53,10.11 12.55,10.09 15.58,10.06 16.98,9.88 18.39,9.69 18.81,9.71 19.24,9.72 19.63,9.88 20.03,10.03 20.36,10.30 20.69,10.57 20.91,10.93 21.14,11.29 21.23,11.70 21.33,12.11 21.29,12.54 21.25,12.96 21.08,13.35 20.91,13.74 20.62,14.05 20.33,14.36 19.96,14.57 19.59,14.77 19.17,14.85 18.75,14.92 18.33,14.86 17.91,14.80 17.53,14.61 17.16,14.41 16.86,14.11 16.56,13.81 16.38,13.42 16.19,13.04 16.14,12.62 16.09,12.20 16.17,11.78 16.26,11.37 16.47,11.00 16.68,10.63 17.00,10.35 17.32,10.07 17.71,9.91 18.11,9.74 18.53,9.71 18.95,9.68 19.37,9.79 19.78,9.90 20.13,10.13 20.49,10.36 20.75,10.70 21.01,11.03 21.15,11.43 21.30,11.83 21.30,12.26 21.31,12.68 21.18,13.09 21.05,13.49 20.80,13.83 20.55,14.18 20.20,14.42 19.85,14.66 19.44,14.78 19.04,14.90 19.04,14.90 19.04,14.90 17.32,15.11 15.60,15.32 10.58,14.37 5.55,13.42 5.33,13.65 5.12,13.87 4.85,14.04 4.58,14.21 4.28,14.31 3.98,14.41 3.66,14.44 3.35,14.47 3.04,14.42 2.72,14.37 2.43,14.24 2.14,14.12 1.89,13.93 1.63,13.74 1.43,13.49 1.23,13.25 1.10,12.96 0.96,12.68 0.90,12.37 0.83,12.06 0.85,11.74 0.86,11.42 0.95,11.12 1.03,10.81 1.19,10.54 1.35,10.27 1.65,9.27 1.94,8.28 3.48,4.93 5.02,1.58 2.30,2.09 -0.40,2.59 -0.71,2.50 -1.01,2.42 -1.29,2.26 -1.56,2.10 -1.79,1.88 -2.02,1.67 -2.19,1.40 -2.36,1.13 -2.46,0.83 -2.57,0.53 -2.59,0.22 -2.62,-0.09 -2.57,-0.40 -2.52,-0.71 -2.40,-1.01 -2.28,-1.30 -2.09,-1.55 -1.90,-1.81 -1.65,-2.01 -1.41,-2.21 -1.12,-2.35 -0.84,-2.48 -0.53,-2.55 -0.22,-2.61 0.09,-2.60 0.40,-2.59 0.40,-2.59 L 0.40,-2.59 Z"/></g><g transform="translate(98.10793019581007 137.26037488489783) rotate(0 9.511651555229491 0.33374215983261024)" stroke="none"><path fill="#1e1e1e" d="M 0.11,-2.62 Q 0.11,-2.62 4.62,-2.43 9.13,-2.24 12.55,-2.15 15.98,-2.07 17.46,-2.13 18.94,-2.20 19.36,-2.14 19.78,-2.09 20.17,-1.91 20.55,-1.72 20.85,-1.43 21.16,-1.13 21.35,-0.75 21.55,-0.37 21.61,0.04 21.67,0.46 21.60,0.88 21.52,1.30 21.32,1.67 21.11,2.04 20.80,2.33 20.49,2.62 20.10,2.79 19.71,2.96 19.29,3.00 18.86,3.04 18.45,2.94 18.04,2.84 17.67,2.62 17.31,2.40 17.04,2.07 16.77,1.74 16.62,1.34 16.47,0.95 16.45,0.52 16.44,0.10 16.56,-0.30 16.68,-0.71 16.92,-1.06 17.16,-1.41 17.51,-1.66 17.85,-1.91 18.25,-2.04 18.66,-2.17 19.08,-2.16 19.51,-2.16 19.91,-2.01 20.31,-1.87 20.64,-1.61 20.98,-1.35 21.21,-0.99 21.44,-0.64 21.55,-0.23 21.66,0.18 21.63,0.60 21.60,1.02 21.44,1.42 21.27,1.81 20.99,2.13 20.71,2.45 20.35,2.66 19.98,2.87 19.56,2.96 19.15,3.04 19.15,3.04 19.15,3.04 17.50,3.11 15.86,3.17 12.38,3.09 8.90,3.00 4.39,2.81 -0.11,2.62 -0.42,2.57 -0.73,2.52 -1.02,2.39 -1.31,2.27 -1.57,2.08 -1.82,1.89 -2.02,1.64 -2.22,1.39 -2.35,1.11 -2.49,0.82 -2.55,0.51 -2.61,0.20 -2.60,-0.11 -2.59,-0.42 -2.50,-0.73 -2.41,-1.03 -2.25,-1.30 -2.09,-1.58 -1.87,-1.81 -1.65,-2.03 -1.38,-2.20 -1.12,-2.37 -0.81,-2.47 -0.51,-2.57 -0.20,-2.59 0.11,-2.62 0.11,-2.62 L 0.11,-2.62 Z"/></g><g transform="translate(90.43186051965995 161.62355255267863) rotate(0 14.350912872802382 -1.0012264794978378)" stroke="none"><path fill="#1e1e1e" d="M 0,-2.62 Q 0,-2.62 3.35,-2.62 6.71,-2.62 12.76,-3.00 18.80,-3.38 21.52,-3.73 24.23,-4.08 24.66,-4.06 25.08,-4.05 25.48,-3.90 25.88,-3.75 26.21,-3.48 26.53,-3.21 26.76,-2.85 26.98,-2.49 27.08,-2.08 27.18,-1.66 27.14,-1.24 27.11,-0.82 26.93,-0.43 26.76,-0.04 26.48,0.27 26.19,0.58 25.82,0.79 25.45,0.99 25.03,1.07 24.61,1.14 24.19,1.08 23.77,1.02 23.39,0.83 23.01,0.64 22.71,0.33 22.42,0.03 22.23,-0.34 22.04,-0.73 21.99,-1.15 21.94,-1.57 22.02,-1.98 22.11,-2.40 22.32,-2.77 22.53,-3.14 22.85,-3.42 23.17,-3.70 23.56,-3.86 23.95,-4.03 24.38,-4.06 24.80,-4.09 25.21,-3.98 25.62,-3.88 25.98,-3.64 26.33,-3.41 26.60,-3.08 26.86,-2.74 27.00,-2.34 27.15,-1.94 27.15,-1.52 27.16,-1.09 27.03,-0.69 26.90,-0.28 26.65,0.05 26.40,0.39 26.05,0.64 25.71,0.88 25.30,1.00 24.89,1.12 24.89,1.12 24.89,1.12 22.01,1.49 19.13,1.85 12.92,2.24 6.71,2.62 3.35,2.62 0,2.62 -0.31,2.58 -0.62,2.55 -0.92,2.43 -1.22,2.32 -1.48,2.14 -1.74,1.96 -1.95,1.72 -2.16,1.49 -2.30,1.21 -2.45,0.93 -2.53,0.62 -2.60,0.31 -2.60,-0.00 -2.60,-0.31 -2.53,-0.62 -2.45,-0.93 -2.30,-1.21 -2.16,-1.49 -1.95,-1.72 -1.74,-1.96 -1.48,-2.14 -1.22,-2.32 -0.92,-2.43 -0.62,-2.55 -0.31,-2.58 0.00,-2.62 0.00,-2.62 L 0,-2.62 Z"/></g><g transform="translate(148.16925417070217 125.91314145058897) rotate(0 -4.171776997907699 29.70305222510264)" stroke="none"><path fill="#1e1e1e" d="M 2.36,1.15 Q 2.36,1.15 -1.37,8.82 -5.11,16.48 -6.71,23.25 -8.30,30.01 -6.63,35.99 -4.97,41.97 -1.76,46.27 1.43,50.57 3.04,52.63 4.65,54.68 4.85,55.06 5.06,55.43 5.13,55.85 5.21,56.27 5.14,56.69 5.08,57.11 4.89,57.48 4.69,57.86 4.39,58.16 4.08,58.46 3.70,58.64 3.32,58.82 2.89,58.87 2.47,58.92 2.06,58.84 1.64,58.75 1.27,58.54 0.91,58.32 0.63,58.00 0.35,57.68 0.18,57.29 0.02,56.90 -0.00,56.47 -0.02,56.05 0.07,55.64 0.18,55.23 0.42,54.87 0.65,54.52 0.99,54.26 1.32,54.00 1.72,53.85 2.12,53.71 2.55,53.71 2.97,53.70 3.38,53.83 3.78,53.96 4.12,54.22 4.46,54.47 4.71,54.82 4.95,55.17 5.07,55.58 5.19,55.98 5.17,56.41 5.15,56.83 5.00,57.23 4.85,57.63 4.58,57.95 4.31,58.28 3.94,58.50 3.58,58.73 3.17,58.82 2.76,58.92 2.33,58.88 1.91,58.84 1.52,58.67 1.13,58.49 0.82,58.20 0.51,57.92 0.51,57.92 0.51,57.92 -1.15,55.78 -2.81,53.64 -6.41,48.52 -10.00,43.40 -11.70,36.24 -13.41,29.09 -11.63,21.65 -9.84,14.21 -6.10,6.53 -2.36,-1.15 -2.18,-1.41 -2.01,-1.68 -1.78,-1.89 -1.55,-2.11 -1.27,-2.27 -1.00,-2.42 -0.69,-2.51 -0.39,-2.59 -0.07,-2.60 0.23,-2.61 0.54,-2.54 0.85,-2.48 1.14,-2.34 1.42,-2.20 1.67,-2.00 1.91,-1.79 2.10,-1.54 2.28,-1.28 2.40,-0.99 2.53,-0.70 2.57,-0.39 2.62,-0.07 2.59,0.23 2.56,0.55 2.46,0.85 2.36,1.15 2.36,1.15 L 2.36,1.15 Z"/></g><g transform="translate(176.87107991630697 139.93031216355874) rotate(0 1.1680975594141358 14.517783952718709)" stroke="none"><path fill="#1e1e1e" d="M 1.60,2.07 Q 1.60,2.07 -2.21,5.03 -6.03,7.98 -7.29,9.94 -8.56,11.89 -8.83,12.05 -9.10,12.22 -9.40,12.31 -9.71,12.40 -10.02,12.42 -10.34,12.44 -10.65,12.38 -10.96,12.32 -11.25,12.19 -11.54,12.06 -11.78,11.86 -12.03,11.66 -12.23,11.41 -12.42,11.16 -12.55,10.87 -12.68,10.58 -12.73,10.27 -12.79,9.96 -12.77,9.64 -12.75,9.33 -12.65,9.03 -12.56,8.72 -12.39,8.45 -12.22,8.18 -12.00,7.96 -11.77,7.74 -8.10,8.59 -4.43,9.43 0.05,10.67 4.53,11.91 8.46,14.25 12.39,16.59 12.84,20.15 13.29,23.70 10.12,26.11 6.94,28.51 2.63,29.20 -1.67,29.88 -3.65,29.92 -5.62,29.95 -6.04,29.89 -6.46,29.83 -6.84,29.63 -7.21,29.44 -7.51,29.13 -7.81,28.83 -7.99,28.45 -8.17,28.06 -8.23,27.64 -8.28,27.22 -8.19,26.80 -8.10,26.39 -7.89,26.02 -7.68,25.65 -7.36,25.37 -7.04,25.09 -6.64,24.93 -6.25,24.77 -5.83,24.74 -5.40,24.71 -4.99,24.82 -4.58,24.93 -4.23,25.16 -3.87,25.40 -3.61,25.73 -3.35,26.07 -3.21,26.47 -3.07,26.87 -3.06,27.29 -3.05,27.72 -3.19,28.12 -3.32,28.53 -3.57,28.87 -3.82,29.21 -4.17,29.45 -4.52,29.70 -4.93,29.81 -5.33,29.93 -5.76,29.92 -6.18,29.90 -6.58,29.75 -6.98,29.59 -7.30,29.32 -7.63,29.05 -7.86,28.69 -8.08,28.33 -8.18,27.92 -8.27,27.50 -8.23,27.08 -8.19,26.66 -8.02,26.27 -7.85,25.88 -7.56,25.57 -7.27,25.26 -6.90,25.05 -6.52,24.85 -6.10,24.77 -5.69,24.70 -5.69,24.70 -5.69,24.70 -4.02,24.69 -2.36,24.67 0.96,24.35 4.30,24.02 6.59,21.94 8.88,19.85 5.99,18.41 3.09,16.96 -2.73,14.42 -8.56,11.89 -8.83,12.05 -9.10,12.22 -9.40,12.31 -9.71,12.40 -10.02,12.42 -10.34,12.44 -10.65,12.38 -10.96,12.32 -11.25,12.19 -11.54,12.06 -11.78,11.86 -12.03,11.66 -12.23,11.41 -12.42,11.16 -12.55,10.87 -12.68,10.58 -12.73,10.27 -12.79,9.96 -12.77,9.64 -12.75,9.33 -12.65,9.03 -12.56,8.73 -12.39,8.45 -12.22,8.18 -12.00,7.96 -11.77,7.74 -10.54,5.82 -9.31,3.91 -5.46,0.91 -1.60,-2.07 -1.33,-2.23 -1.06,-2.40 -0.76,-2.49 -0.45,-2.58 -0.14,-2.60 0.17,-2.62 0.48,-2.56 0.79,-2.50 1.08,-2.37 1.37,-2.24 1.61,-2.04 1.86,-1.84 2.06,-1.59 2.25,-1.34 2.38,-1.05 2.51,-0.76 2.56,-0.45 2.62,-0.14 2.60,0.17 2.58,0.48 2.48,0.78 2.38,1.09 2.22,1.36 2.05,1.63 1.83,1.85 1.60,2.07 1.60,2.07 L 1.60,2.07 Z"/></g><g transform="translate(171.86494751881776 137.26037488489783) rotate(0 14.684655032635007 -1.5018397192467603)" stroke="none"><path fill="#1e1e1e" d="M -0.19,-2.61 Q -0.19,-2.61 7.57,-3.19 15.34,-3.77 19.24,-4.29 23.14,-4.81 23.56,-4.80 23.99,-4.79 24.39,-4.64 24.79,-4.50 25.12,-4.23 25.45,-3.96 25.68,-3.60 25.90,-3.24 26.01,-2.83 26.11,-2.42 26.07,-2.00 26.04,-1.57 25.87,-1.18 25.70,-0.79 25.41,-0.48 25.13,-0.16 24.76,0.04 24.39,0.25 23.97,0.33 23.55,0.40 23.13,0.35 22.71,0.29 22.33,0.10 21.95,-0.08 21.65,-0.38 21.35,-0.68 21.16,-1.07 20.98,-1.45 20.92,-1.87 20.86,-2.29 20.94,-2.71 21.03,-3.12 21.24,-3.49 21.45,-3.86 21.76,-4.15 22.08,-4.43 22.47,-4.60 22.86,-4.76 23.28,-4.80 23.71,-4.83 24.12,-4.73 24.53,-4.62 24.89,-4.39 25.25,-4.16 25.51,-3.83 25.78,-3.50 25.92,-3.10 26.07,-2.70 26.08,-2.28 26.09,-1.85 25.96,-1.44 25.84,-1.04 25.59,-0.69 25.34,-0.35 25.00,-0.10 24.65,0.13 24.24,0.26 23.84,0.38 23.84,0.38 23.84,0.38 19.79,0.92 15.73,1.46 7.96,2.04 0.19,2.61 -0.12,2.60 -0.43,2.58 -0.74,2.49 -1.04,2.40 -1.31,2.24 -1.59,2.08 -1.81,1.86 -2.04,1.64 -2.21,1.37 -2.38,1.11 -2.47,0.80 -2.57,0.50 -2.60,0.19 -2.62,-0.12 -2.57,-0.43 -2.51,-0.74 -2.39,-1.03 -2.26,-1.32 -2.07,-1.58 -1.88,-1.83 -1.63,-2.03 -1.38,-2.22 -1.10,-2.36 -0.81,-2.49 -0.50,-2.55 -0.19,-2.61 -0.19,-2.61 L -0.19,-2.61 Z"/></g><g transform="translate(214.91768613722493 165.96220063050262) rotate(0 0.00005000000000165983 0.00005000000000165983)" stroke="none"><path fill="#1e1e1e" d="M 4.25,-4.24 Q 4.25,-4.24 4.81,-3.46 5.38,-2.67 5.67,-1.74 5.95,-0.81 5.92,0.16 5.90,1.13 5.56,2.04 5.23,2.95 4.62,3.71 4.01,4.47 3.19,4.99 2.37,5.52 1.43,5.75 0.48,5.99 -0.48,5.91 -1.45,5.83 -2.34,5.44 -3.23,5.06 -3.96,4.41 -4.68,3.76 -5.16,2.91 -5.64,2.07 -5.82,1.11 -6.00,0.16 -5.87,-0.80 -5.74,-1.76 -5.31,-2.63 -4.88,-3.50 -4.19,-4.19 -3.50,-4.88 -2.63,-5.31 -1.76,-5.74 -0.79,-5.87 0.16,-6.00 1.11,-5.82 2.07,-5.64 2.92,-5.16 3.76,-4.68 4.41,-3.95 5.06,-3.23 5.44,-2.34 5.83,-1.44 5.91,-0.47 5.99,0.48 5.75,1.43 5.52,2.37 4.99,3.19 4.47,4.01 3.71,4.62 2.95,5.23 2.04,5.56 1.13,5.90 0.15,5.92 -0.81,5.95 -1.74,5.66 -2.67,5.38 -3.46,4.81 -4.25,4.24 -4.25,4.24 -4.24,4.25 -4.69,3.67 -5.14,3.10 -5.44,2.44 -5.73,1.78 -5.86,1.07 -5.99,0.36 -5.95,-0.36 -5.91,-1.08 -5.69,-1.77 -5.48,-2.46 -5.10,-3.08 -4.73,-3.70 -4.21,-4.21 -3.70,-4.73 -3.08,-5.10 -2.46,-5.48 -1.77,-5.69 -1.08,-5.91 -0.35,-5.95 0.36,-5.99 1.07,-5.86 1.78,-5.73 2.44,-5.44 3.10,-5.14 3.68,-4.69 4.25,-4.24 4.25,-4.24 L 4.25,-4.24 Z"/></g><g transform="translate(245.2882226819928 137.92785920456305) rotate(0 2.3361951188283 14.517783952718709)" stroke="none"><path fill="#1e1e1e" d="M 1.37,2.23 Q 1.37,2.23 -1.33,3.62 -4.04,5.00 -1.76,7.01 0.52,9.01 4.14,11.54 7.76,14.08 10.57,17.17 13.38,20.26 13.20,23.78 13.03,27.31 10.37,28.69 7.71,30.07 4.73,30.07 1.75,30.07 -0.15,29.25 -2.06,28.42 -2.41,28.17 -2.76,27.92 -3.00,27.58 -3.25,27.23 -3.38,26.83 -3.50,26.42 -3.49,26.00 -3.48,25.57 -3.33,25.17 -3.19,24.77 -2.92,24.44 -2.65,24.11 -2.30,23.88 -1.94,23.65 -1.53,23.55 -1.11,23.45 -0.69,23.48 -0.27,23.52 0.11,23.68 0.50,23.85 0.82,24.13 1.14,24.42 1.35,24.79 1.56,25.16 1.64,25.57 1.72,25.99 1.66,26.41 1.60,26.83 1.41,27.22 1.22,27.60 0.92,27.90 0.62,28.20 0.24,28.39 -0.13,28.58 -0.55,28.63 -0.97,28.69 -1.39,28.61 -1.80,28.53 -2.17,28.32 -2.54,28.11 -2.83,27.80 -3.11,27.48 -3.28,27.09 -3.45,26.70 -3.48,26.28 -3.52,25.85 -3.41,25.44 -3.31,25.03 -3.08,24.67 -2.86,24.31 -2.52,24.05 -2.19,23.78 -1.79,23.63 -1.40,23.49 -0.97,23.47 -0.55,23.46 -0.14,23.59 0.26,23.71 0.26,23.71 0.26,23.71 1.18,24.29 2.11,24.87 5.66,23.97 9.20,23.07 6.97,20.72 4.73,18.36 1.01,15.76 -2.70,13.15 -5.53,10.53 -8.35,7.92 -8.10,5.10 -7.84,2.28 -4.61,0.02 -1.37,-2.23 -1.08,-2.37 -0.79,-2.50 -0.48,-2.56 -0.17,-2.62 0.14,-2.60 0.45,-2.58 0.76,-2.49 1.06,-2.40 1.33,-2.23 1.60,-2.07 1.83,-1.85 2.05,-1.63 2.22,-1.36 2.38,-1.09 2.48,-0.79 2.58,-0.48 2.60,-0.17 2.62,0.14 2.56,0.45 2.51,0.76 2.38,1.05 2.25,1.34 2.06,1.59 1.86,1.84 1.62,2.04 1.37,2.23 1.37,2.23 L 1.37,2.23 Z"/></g><g transform="translate(241.95080108366665 136.5928905652326) rotate(0 15.852752592049171 -2.5030661987446052)" stroke="none"><path fill="#1e1e1e" d="M -0.10,-2.62 Q -0.10,-2.62 4.69,-2.81 9.48,-3.00 14.71,-3.93 19.93,-4.86 23.10,-5.62 26.27,-6.39 26.70,-6.42 27.12,-6.46 27.53,-6.35 27.95,-6.25 28.30,-6.01 28.66,-5.78 28.92,-5.45 29.19,-5.12 29.33,-4.72 29.47,-4.32 29.48,-3.89 29.49,-3.47 29.36,-3.06 29.24,-2.66 28.99,-2.31 28.74,-1.97 28.39,-1.72 28.04,-1.48 27.63,-1.36 27.23,-1.23 26.80,-1.25 26.38,-1.26 25.98,-1.41 25.58,-1.56 25.25,-1.83 24.92,-2.10 24.70,-2.46 24.47,-2.82 24.37,-3.23 24.27,-3.65 24.31,-4.07 24.35,-4.49 24.52,-4.88 24.69,-5.27 24.97,-5.58 25.26,-5.90 25.63,-6.11 26.00,-6.31 26.42,-6.39 26.84,-6.47 27.26,-6.41 27.68,-6.35 28.06,-6.15 28.44,-5.96 28.74,-5.66 29.04,-5.36 29.22,-4.98 29.41,-4.59 29.46,-4.17 29.52,-3.75 29.43,-3.33 29.35,-2.92 29.14,-2.55 28.93,-2.18 28.61,-1.90 28.29,-1.62 27.90,-1.45 27.51,-1.29 27.51,-1.29 27.51,-1.29 24.17,-0.48 20.84,0.31 15.27,1.27 9.70,2.24 4.90,2.43 0.10,2.62 -0.21,2.59 -0.52,2.57 -0.82,2.47 -1.12,2.37 -1.39,2.20 -1.66,2.03 -1.88,1.80 -2.10,1.57 -2.25,1.30 -2.41,1.02 -2.50,0.72 -2.59,0.42 -2.60,0.10 -2.61,-0.21 -2.55,-0.52 -2.49,-0.83 -2.35,-1.11 -2.21,-1.40 -2.01,-1.64 -1.81,-1.89 -1.56,-2.08 -1.31,-2.27 -1.02,-2.39 -0.72,-2.52 -0.41,-2.57 -0.10,-2.62 -0.10,-2.62 L -0.10,-2.62 Z"/></g><g transform="translate(285.3372818619065 121.90823553259759) rotate(0 6.507972116735971 30.03679438493525)" stroke="none"><path fill="#1e1e1e" d="M 2.04,-1.64 Q 2.04,-1.64 4.84,1.83 7.63,5.30 9.69,11.08 11.75,16.86 12.88,22.59 14.00,28.33 14.38,33.65 14.76,38.96 13.64,44.02 12.51,49.08 11.22,52.40 9.93,55.72 8.93,57.44 7.93,59.15 7.66,59.48 7.39,59.80 7.02,60.03 6.66,60.25 6.25,60.34 5.83,60.43 5.41,60.39 4.99,60.35 4.60,60.17 4.21,59.99 3.90,59.70 3.59,59.41 3.39,59.04 3.19,58.66 3.12,58.24 3.05,57.83 3.12,57.41 3.18,56.99 3.38,56.61 3.58,56.23 3.88,55.94 4.19,55.65 4.57,55.46 4.96,55.28 5.38,55.24 5.80,55.19 6.22,55.28 6.63,55.37 7.00,55.58 7.37,55.80 7.64,56.12 7.92,56.45 8.08,56.84 8.24,57.23 8.26,57.66 8.29,58.08 8.18,58.49 8.06,58.90 7.83,59.26 7.59,59.61 7.25,59.87 6.92,60.13 6.52,60.26 6.11,60.40 5.69,60.40 5.26,60.41 4.86,60.27 4.46,60.14 4.12,59.88 3.78,59.63 3.54,59.28 3.30,58.93 3.18,58.52 3.07,58.11 3.09,57.68 3.11,57.26 3.26,56.86 3.42,56.47 3.42,56.47 3.42,56.47 4.23,55.13 5.05,53.79 6.22,50.83 7.40,47.87 8.46,43.57 9.53,39.26 9.18,34.29 8.84,29.32 7.81,23.94 6.78,18.56 5.14,13.53 3.49,8.50 0.72,5.07 -2.04,1.64 -2.21,1.37 -2.38,1.11 -2.47,0.80 -2.57,0.50 -2.60,0.19 -2.62,-0.12 -2.57,-0.43 -2.51,-0.74 -2.39,-1.03 -2.26,-1.32 -2.07,-1.58 -1.88,-1.83 -1.63,-2.03 -1.38,-2.22 -1.10,-2.36 -0.81,-2.49 -0.50,-2.55 -0.19,-2.61 0.12,-2.60 0.43,-2.58 0.74,-2.49 1.04,-2.40 1.31,-2.24 1.59,-2.08 1.81,-1.86 2.04,-1.64 2.04,-1.64 L 2.04,-1.64 Z"/></g><g transform="translate(298.946569515652 191.22763302100867) rotate(0 1.6580729982588593 7.461328492164867)" stroke="none"><path fill="#1e1e1e" d="M 2.55,-0.60 Q 2.55,-0.60 3.50,3.39 4.46,7.40 4.79,9.49 5.12,11.57 5.11,12.00 5.11,12.42 4.97,12.83 4.83,13.23 4.57,13.56 4.31,13.90 3.96,14.14 3.61,14.37 3.20,14.48 2.78,14.59 2.36,14.57 1.94,14.54 1.54,14.38 1.15,14.22 0.83,13.94 0.51,13.66 0.29,13.30 0.07,12.93 -0.00,12.52 -0.09,12.10 -0.04,11.68 0.00,11.26 0.18,10.87 0.36,10.49 0.65,10.18 0.95,9.88 1.33,9.68 1.70,9.48 2.12,9.42 2.54,9.35 2.96,9.42 3.38,9.50 3.75,9.70 4.13,9.90 4.42,10.21 4.71,10.52 4.88,10.91 5.06,11.30 5.10,11.72 5.14,12.14 5.05,12.56 4.95,12.97 4.73,13.33 4.51,13.70 4.18,13.97 3.86,14.24 3.46,14.39 3.07,14.55 2.64,14.57 2.22,14.59 1.81,14.47 1.40,14.35 1.05,14.11 0.70,13.87 0.45,13.53 0.19,13.19 0.06,12.79 -0.06,12.38 -0.06,12.38 -0.06,12.38 -0.35,10.50 -0.64,8.61 -1.60,4.61 -2.55,0.60 -2.59,0.29 -2.62,-0.02 -2.58,-0.33 -2.54,-0.64 -2.43,-0.94 -2.31,-1.23 -2.13,-1.49 -1.95,-1.75 -1.71,-1.96 -1.47,-2.17 -1.19,-2.31 -0.91,-2.46 -0.60,-2.53 -0.29,-2.60 0.02,-2.60 0.33,-2.60 0.64,-2.52 0.95,-2.44 1.23,-2.29 1.50,-2.14 1.74,-1.93 1.97,-1.72 2.15,-1.46 2.33,-1.20 2.44,-0.90 2.55,-0.60 2.55,-0.60 L 2.55,-0.60 Z"/></g><g transform="translate(319.1750600944101 191.89086222031221) rotate(0 5.637448194080122 5.471640894254236)" stroke="none"><path fill="#1e1e1e" d="M 2.61,0.22 Q 2.61,0.22 2.32,3.51 2.03,6.80 2.80,8.83 3.56,10.87 6.75,11.69 9.94,12.51 11.14,9.51 12.33,6.51 6.91,3.54 1.49,0.58 -0.87,-0.76 -3.25,-2.10 -3.58,-2.37 -3.91,-2.64 -4.14,-3.00 -4.36,-3.36 -4.46,-3.77 -4.57,-4.18 -4.53,-4.60 -4.49,-5.03 -4.33,-5.42 -4.16,-5.81 -3.87,-6.12 -3.59,-6.44 -3.22,-6.65 -2.85,-6.85 -2.43,-6.93 -2.01,-7.01 -1.59,-6.95 -1.17,-6.89 -0.79,-6.70 -0.41,-6.51 -0.11,-6.21 0.18,-5.91 0.37,-5.53 0.56,-5.15 0.61,-4.73 0.67,-4.31 0.59,-3.89 0.51,-3.47 0.30,-3.10 0.08,-2.73 -0.22,-2.45 -0.54,-2.17 -0.93,-2.00 -1.32,-1.84 -1.75,-1.80 -2.17,-1.77 -2.58,-1.87 -2.99,-1.98 -3.35,-2.21 -3.71,-2.44 -3.97,-2.77 -4.24,-3.10 -4.38,-3.50 -4.53,-3.90 -4.54,-4.32 -4.55,-4.75 -4.42,-5.16 -4.30,-5.56 -4.05,-5.91 -3.80,-6.25 -3.45,-6.50 -3.11,-6.74 -2.70,-6.87 -2.29,-6.99 -1.87,-6.98 -1.44,-6.96 -1.05,-6.82 -0.65,-6.67 -0.65,-6.67 -0.65,-6.67 1.51,-5.43 3.67,-4.19 8.28,-1.99 12.89,0.21 14.98,2.96 17.08,5.71 16.50,9.49 15.93,13.26 13.42,15.33 10.90,17.40 7.69,17.33 4.48,17.26 1.73,15.18 -1.00,13.10 -2.09,9.82 -3.17,6.54 -2.89,3.16 -2.61,-0.22 -2.55,-0.53 -2.48,-0.84 -2.35,-1.12 -2.21,-1.41 -2.01,-1.65 -1.81,-1.90 -1.55,-2.09 -1.30,-2.28 -1.01,-2.40 -0.71,-2.52 -0.40,-2.57 -0.09,-2.62 0.22,-2.59 0.53,-2.57 0.83,-2.46 1.13,-2.36 1.40,-2.19 1.67,-2.02 1.88,-1.79 2.10,-1.56 2.26,-1.29 2.42,-1.01 2.50,-0.71 2.59,-0.40 2.60,-0.09 2.61,0.22 2.61,0.22 L 2.61,0.22 Z"/></g><g transform="translate(334.905702339183 149.52152508847638) rotate(0 13.575190258376793 -0.1578510495160259)" stroke="none"><path fill="#1e1e1e" d="M 0.08,-2.62 Q 0.08,-2.62 5.44,-2.44 10.79,-2.26 14.96,-2.18 19.12,-2.10 21.43,-2.07 23.75,-2.04 24.17,-1.96 24.59,-1.89 24.96,-1.68 25.33,-1.48 25.62,-1.17 25.91,-0.86 26.08,-0.47 26.25,-0.08 26.29,0.33 26.33,0.76 26.24,1.17 26.14,1.58 25.91,1.95 25.69,2.31 25.36,2.58 25.04,2.85 24.64,3.00 24.24,3.15 23.82,3.17 23.39,3.18 22.98,3.07 22.58,2.95 22.23,2.70 21.88,2.46 21.63,2.12 21.37,1.78 21.25,1.37 21.12,0.97 21.12,0.54 21.13,0.12 21.27,-0.27 21.41,-0.68 21.67,-1.01 21.93,-1.34 22.29,-1.58 22.64,-1.81 23.06,-1.92 23.47,-2.03 23.89,-2.00 24.31,-1.97 24.71,-1.81 25.10,-1.64 25.42,-1.36 25.74,-1.08 25.95,-0.72 26.17,-0.35 26.25,0.06 26.34,0.47 26.29,0.90 26.23,1.32 26.05,1.70 25.87,2.08 25.57,2.39 25.27,2.69 24.89,2.89 24.52,3.08 24.10,3.14 23.68,3.20 23.68,3.20 23.68,3.20 21.35,3.17 19.02,3.14 14.82,3.06 10.62,2.98 5.26,2.80 -0.08,2.62 -0.40,2.57 -0.71,2.52 -1.00,2.40 -1.29,2.28 -1.55,2.09 -1.80,1.90 -2.00,1.66 -2.21,1.41 -2.34,1.13 -2.48,0.84 -2.55,0.53 -2.61,0.22 -2.60,-0.08 -2.59,-0.40 -2.50,-0.70 -2.42,-1.01 -2.26,-1.28 -2.10,-1.56 -1.89,-1.79 -1.67,-2.02 -1.40,-2.19 -1.14,-2.36 -0.84,-2.46 -0.54,-2.57 -0.22,-2.59 0.08,-2.62 0.08,-2.62 L 0.08,-2.62 Z"/></g><g transform="translate(341.21974431982335 158.9925880594369) rotate(0 10.26031821854059 0.947106297096056)" stroke="none"><path fill="#1e1e1e" d="M 0.24,-2.61 Q 0.24,-2.61 5.14,-2.16 10.04,-1.70 13.12,-1.42 16.20,-1.14 16.61,-1.03 17.02,-0.92 17.38,-0.69 17.74,-0.46 18.00,-0.12 18.26,0.20 18.40,0.60 18.55,1.00 18.55,1.43 18.56,1.85 18.43,2.26 18.30,2.66 18.05,3.00 17.80,3.35 17.45,3.59 17.10,3.84 16.69,3.96 16.29,4.08 15.86,4.06 15.44,4.04 15.04,3.89 14.64,3.74 14.32,3.47 13.99,3.20 13.76,2.84 13.54,2.48 13.44,2.07 13.34,1.66 13.38,1.23 13.42,0.81 13.59,0.42 13.76,0.03 14.05,-0.27 14.34,-0.58 14.71,-0.79 15.08,-1.00 15.50,-1.07 15.92,-1.15 16.34,-1.08 16.76,-1.02 17.14,-0.83 17.52,-0.64 17.81,-0.33 18.11,-0.03 18.29,0.34 18.48,0.73 18.53,1.15 18.59,1.57 18.50,1.99 18.42,2.40 18.20,2.77 17.99,3.14 17.67,3.42 17.35,3.70 16.96,3.86 16.57,4.03 16.14,4.06 15.72,4.09 15.72,4.09 15.72,4.09 12.64,3.80 9.56,3.52 4.65,3.06 -0.24,2.61 -0.55,2.54 -0.86,2.48 -1.14,2.34 -1.42,2.20 -1.67,2.00 -1.91,1.79 -2.10,1.54 -2.29,1.28 -2.41,0.99 -2.53,0.70 -2.57,0.38 -2.62,0.07 -2.59,-0.24 -2.56,-0.55 -2.46,-0.85 -2.35,-1.15 -2.18,-1.41 -2.01,-1.68 -1.78,-1.90 -1.55,-2.11 -1.27,-2.27 -1.00,-2.42 -0.69,-2.51 -0.39,-2.59 -0.07,-2.60 0.24,-2.61 0.24,-2.61 L 0.24,-2.61 Z"/></g><g transform="translate(406.8857809184832 123.94965506688288) rotate(0 2.367765742740133 38.83135818093827)" stroke="none"><path fill="#1e1e1e" d="M 2.07,1.60 Q 2.07,1.60 -1.00,5.59 -4.08,9.58 -6.96,15.90 -9.84,22.23 -10.58,29.95 -11.31,37.67 -8.77,44.92 -6.24,52.17 0.91,58.46 8.07,64.75 12.32,67.81 16.56,70.87 16.86,71.17 17.16,71.47 17.35,71.86 17.54,72.24 17.59,72.66 17.65,73.08 17.57,73.50 17.48,73.91 17.27,74.28 17.06,74.65 16.75,74.93 16.43,75.22 16.04,75.38 15.65,75.55 15.22,75.58 14.80,75.62 14.39,75.51 13.98,75.41 13.62,75.18 13.26,74.95 13.00,74.62 12.73,74.28 12.59,73.88 12.44,73.49 12.43,73.06 12.42,72.64 12.55,72.23 12.67,71.82 12.92,71.48 13.17,71.14 13.52,70.89 13.86,70.64 14.27,70.52 14.68,70.40 15.10,70.41 15.53,70.42 15.92,70.57 16.32,70.72 16.65,70.98 16.98,71.25 17.21,71.61 17.44,71.97 17.54,72.38 17.64,72.80 17.60,73.22 17.57,73.64 17.40,74.03 17.23,74.42 16.95,74.74 16.66,75.05 16.29,75.26 15.92,75.47 15.50,75.55 15.08,75.62 14.66,75.57 14.24,75.51 13.86,75.32 13.48,75.13 13.48,75.13 13.48,75.13 9.01,71.89 4.55,68.64 -3.24,61.39 -11.03,54.13 -13.77,45.73 -16.51,37.33 -15.58,28.73 -14.64,20.13 -11.45,13.26 -8.25,6.39 -5.16,2.39 -2.07,-1.60 -1.85,-1.83 -1.63,-2.05 -1.36,-2.22 -1.09,-2.38 -0.79,-2.48 -0.49,-2.58 -0.17,-2.60 0.14,-2.62 0.45,-2.56 0.76,-2.51 1.05,-2.38 1.34,-2.25 1.59,-2.06 1.84,-1.86 2.04,-1.62 2.23,-1.37 2.37,-1.08 2.50,-0.79 2.56,-0.48 2.62,-0.17 2.60,0.14 2.58,0.45 2.49,0.75 2.40,1.06 2.24,1.33 2.07,1.60 2.07,1.60 L 2.07,1.60 Z"/></g><g transform="translate(425.8279068604043 150.1529292865404) rotate(0 0.7892552475800443 15.627253902084917)" stroke="none"><path fill="#1e1e1e" d="M 2.62,-0.11 Q 2.62,-0.11 2.80,3.96 2.98,8.05 3.06,12.91 3.14,17.77 3.26,21.24 3.38,24.72 3.61,26.45 3.83,28.18 3.82,28.61 3.80,29.03 3.65,29.43 3.50,29.83 3.23,30.16 2.96,30.48 2.60,30.71 2.24,30.94 1.83,31.03 1.42,31.13 0.99,31.09 0.57,31.06 0.18,30.88 -0.20,30.71 -0.51,30.43 -0.83,30.14 -1.03,29.77 -1.24,29.39 -1.31,28.98 -1.39,28.56 -1.33,28.14 -1.27,27.72 -1.07,27.34 -0.88,26.96 -0.58,26.66 -0.27,26.36 0.10,26.18 0.48,25.99 0.90,25.94 1.32,25.89 1.74,25.97 2.16,26.06 2.53,26.27 2.89,26.48 3.17,26.80 3.45,27.12 3.62,27.51 3.78,27.90 3.81,28.33 3.84,28.75 3.74,29.16 3.63,29.57 3.40,29.93 3.17,30.29 2.83,30.55 2.50,30.81 2.10,30.95 1.70,31.10 1.27,31.10 0.85,31.11 0.44,30.98 0.04,30.85 -0.30,30.60 -0.64,30.35 -0.88,30.00 -1.13,29.66 -1.25,29.25 -1.37,28.84 -1.37,28.84 -1.37,28.84 -1.61,26.87 -1.86,24.90 -1.98,21.38 -2.10,17.85 -2.18,13.06 -2.26,8.28 -2.44,4.20 -2.62,0.11 -2.59,-0.19 -2.57,-0.51 -2.47,-0.81 -2.37,-1.11 -2.20,-1.38 -2.04,-1.65 -1.81,-1.87 -1.58,-2.09 -1.31,-2.25 -1.03,-2.41 -0.73,-2.50 -0.43,-2.59 -0.11,-2.60 0.20,-2.61 0.51,-2.55 0.82,-2.49 1.10,-2.36 1.39,-2.22 1.64,-2.02 1.88,-1.82 2.07,-1.57 2.26,-1.32 2.39,-1.03 2.51,-0.74 2.57,-0.42 2.62,-0.11 2.62,-0.11 L 2.62,-0.11 Z"/></g><g transform="translate(450.45267058490174 158.04548176234087) rotate(0 5.524786733060324 6.629744079672378)" stroke="none"><path fill="#1e1e1e" d="M 2.62,0 Q 2.62,0 2.59,4.87 2.55,9.74 4.02,11.77 5.48,13.80 7.98,12.85 10.49,11.90 10.55,8.36 10.61,4.82 8.96,2.58 7.31,0.34 4.42,0.76 1.53,1.18 0.17,1.63 -1.18,2.08 -1.60,2.14 -2.02,2.19 -2.44,2.11 -2.85,2.02 -3.22,1.81 -3.59,1.60 -3.87,1.28 -4.15,0.97 -4.32,0.57 -4.48,0.18 -4.52,-0.23 -4.55,-0.65 -4.44,-1.07 -4.34,-1.48 -4.11,-1.83 -3.88,-2.19 -3.54,-2.46 -3.21,-2.72 -2.81,-2.86 -2.41,-3.01 -1.99,-3.02 -1.56,-3.03 -1.15,-2.90 -0.75,-2.77 -0.41,-2.52 -0.06,-2.27 0.17,-1.92 0.42,-1.58 0.54,-1.17 0.66,-0.76 0.65,-0.34 0.64,0.08 0.49,0.47 0.34,0.87 0.07,1.20 -0.19,1.53 -0.55,1.76 -0.91,1.98 -1.32,2.08 -1.73,2.18 -2.16,2.15 -2.58,2.11 -2.97,1.94 -3.36,1.77 -3.67,1.48 -3.99,1.20 -4.20,0.83 -4.40,0.45 -4.48,0.04 -4.56,-0.37 -4.50,-0.79 -4.44,-1.21 -4.25,-1.59 -4.05,-1.97 -3.75,-2.27 -3.45,-2.57 -3.07,-2.75 -2.69,-2.94 -2.69,-2.94 -2.69,-2.94 -0.68,-3.50 1.31,-4.06 5.47,-3.88 9.63,-3.70 12.62,0.32 15.60,4.36 15.04,9.59 14.47,14.82 11.66,17.01 8.86,19.19 5.31,18.19 1.77,17.19 -0.39,13.70 -2.55,10.22 -2.59,5.11 -2.62,0 -2.58,-0.31 -2.55,-0.62 -2.43,-0.92 -2.32,-1.22 -2.14,-1.48 -1.96,-1.74 -1.72,-1.95 -1.49,-2.16 -1.21,-2.30 -0.93,-2.45 -0.62,-2.53 -0.31,-2.60 0.00,-2.60 0.31,-2.60 0.62,-2.53 0.93,-2.45 1.21,-2.30 1.49,-2.16 1.72,-1.95 1.96,-1.74 2.14,-1.48 2.32,-1.22 2.43,-0.92 2.55,-0.62 2.58,-0.31 2.62,0.00 2.62,0.00 L 2.62,0 Z"/></g><g transform="translate(482.96998678519964 144.15458940493204) rotate(0 1.894212594192112 17.99501964482505)" stroke="none"><path fill="#1e1e1e" d="M 2.62,-0.17 Q 2.62,-0.17 3.07,6.81 3.52,13.80 4.25,18.94 4.98,24.09 5.47,27.20 5.96,30.31 6.25,31.77 6.55,33.23 6.56,33.66 6.57,34.08 6.45,34.49 6.33,34.90 6.09,35.25 5.84,35.59 5.50,35.84 5.15,36.09 4.75,36.22 4.34,36.35 3.92,36.34 3.49,36.33 3.09,36.19 2.69,36.04 2.36,35.78 2.03,35.51 1.80,35.16 1.56,34.80 1.46,34.39 1.35,33.98 1.38,33.55 1.42,33.13 1.58,32.74 1.75,32.35 2.03,32.03 2.31,31.71 2.68,31.50 3.05,31.29 3.46,31.21 3.88,31.12 4.30,31.18 4.72,31.23 5.11,31.42 5.49,31.60 5.79,31.90 6.09,32.20 6.28,32.58 6.48,32.96 6.54,33.38 6.60,33.80 6.52,34.22 6.44,34.64 6.23,35.01 6.03,35.38 5.71,35.67 5.40,35.95 5.01,36.12 4.62,36.29 4.20,36.33 3.77,36.37 3.36,36.27 2.95,36.17 2.59,35.94 2.23,35.71 1.96,35.38 1.69,35.06 1.54,34.66 1.39,34.26 1.39,34.26 1.39,34.26 1.08,32.69 0.77,31.13 0.27,27.97 -0.21,24.82 -0.96,19.48 -1.71,14.14 -2.16,7.15 -2.62,0.17 -2.60,-0.14 -2.58,-0.46 -2.49,-0.76 -2.39,-1.06 -2.23,-1.33 -2.07,-1.61 -1.85,-1.83 -1.62,-2.06 -1.35,-2.22 -1.08,-2.39 -0.78,-2.48 -0.48,-2.58 -0.16,-2.60 0.14,-2.62 0.45,-2.56 0.77,-2.51 1.05,-2.38 1.34,-2.25 1.59,-2.05 1.84,-1.86 2.04,-1.61 2.24,-1.36 2.37,-1.08 2.50,-0.79 2.56,-0.48 2.62,-0.16 2.62,-0.17 L 2.62,-0.17 Z"/></g><g transform="translate(502.85921902421677 176.98760770426196) rotate(0 0.00005000000000165983 0.00005000000000165983)" stroke="none"><path fill="#1e1e1e" d="M 4.25,-4.24 Q 4.25,-4.24 4.81,-3.46 5.38,-2.67 5.67,-1.74 5.95,-0.81 5.92,0.16 5.90,1.13 5.56,2.04 5.23,2.95 4.62,3.71 4.01,4.47 3.19,4.99 2.37,5.52 1.43,5.75 0.48,5.99 -0.48,5.91 -1.45,5.83 -2.34,5.44 -3.23,5.06 -3.96,4.41 -4.68,3.76 -5.16,2.91 -5.64,2.07 -5.82,1.11 -6.00,0.16 -5.87,-0.80 -5.74,-1.76 -5.31,-2.63 -4.88,-3.50 -4.19,-4.19 -3.50,-4.88 -2.63,-5.31 -1.76,-5.74 -0.79,-5.87 0.16,-6.00 1.11,-5.82 2.07,-5.64 2.92,-5.16 3.76,-4.68 4.41,-3.95 5.06,-3.23 5.44,-2.34 5.83,-1.44 5.91,-0.47 5.99,0.48 5.75,1.43 5.52,2.37 4.99,3.19 4.47,4.01 3.71,4.62 2.95,5.23 2.04,5.56 1.13,5.90 0.15,5.92 -0.81,5.95 -1.74,5.66 -2.67,5.38 -3.46,4.81 -4.25,4.24 -4.25,4.24 -4.24,4.25 -4.69,3.67 -5.14,3.10 -5.44,2.44 -5.73,1.78 -5.86,1.07 -5.99,0.36 -5.95,-0.36 -5.91,-1.08 -5.69,-1.77 -5.48,-2.46 -5.10,-3.08 -4.73,-3.70 -4.21,-4.21 -3.70,-4.73 -3.08,-5.10 -2.46,-5.48 -1.77,-5.69 -1.08,-5.91 -0.35,-5.95 0.36,-5.99 1.07,-5.86 1.78,-5.73 2.44,-5.44 3.10,-5.14 3.68,-4.69 4.25,-4.24 4.25,-4.24 L 4.25,-4.24 Z"/></g><g transform="translate(523.601528653206 147.88019260476534) rotate(0 1.8011362711721972 13.162149673950701)" stroke="none"><path fill="#1e1e1e" d="M 2.60,-0.35 Q 2.60,-0.35 3.15,3.70 3.71,7.76 4.12,12.18 4.52,16.59 5.02,19.78 5.52,22.97 5.61,23.39 5.71,23.80 5.67,24.22 5.63,24.65 5.45,25.03 5.28,25.42 4.99,25.73 4.70,26.04 4.32,26.25 3.95,26.45 3.53,26.52 3.11,26.59 2.69,26.53 2.27,26.47 1.90,26.27 1.52,26.07 1.22,25.77 0.93,25.46 0.75,25.08 0.56,24.70 0.51,24.27 0.46,23.85 0.55,23.44 0.64,23.02 0.85,22.65 1.07,22.29 1.39,22.01 1.71,21.73 2.11,21.57 2.50,21.41 2.92,21.38 3.35,21.35 3.76,21.46 4.17,21.57 4.52,21.81 4.88,22.04 5.14,22.38 5.40,22.72 5.54,23.12 5.68,23.52 5.68,23.94 5.68,24.37 5.55,24.77 5.42,25.18 5.17,25.52 4.91,25.86 4.56,26.10 4.21,26.34 3.81,26.46 3.40,26.58 2.97,26.56 2.55,26.54 2.15,26.39 1.76,26.23 1.43,25.96 1.10,25.69 0.88,25.33 0.66,24.96 0.66,24.96 0.66,24.96 -0.02,21.02 -0.70,17.07 -1.09,12.77 -1.48,8.48 -2.04,4.42 -2.60,0.35 -2.60,0.04 -2.61,-0.27 -2.54,-0.58 -2.47,-0.89 -2.32,-1.17 -2.18,-1.45 -1.97,-1.69 -1.77,-1.93 -1.51,-2.12 -1.25,-2.30 -0.96,-2.42 -0.66,-2.54 -0.35,-2.58 -0.04,-2.62 0.27,-2.59 0.58,-2.55 0.88,-2.45 1.18,-2.34 1.44,-2.16 1.71,-1.99 1.92,-1.75 2.13,-1.52 2.28,-1.24 2.44,-0.96 2.52,-0.66 2.60,-0.35 2.60,-0.35 L 2.60,-0.35 Z"/></g><g transform="translate(541.0586955891827 119.61620804175541) rotate(0 11.08391551490584 43.920015227814446)" stroke="none"><path fill="#1e1e1e" d="M 2.23,-1.38 Q 2.23,-1.38 5.58,4.03 8.92,9.45 12.18,16.69 15.43,23.92 18.12,32.60 20.80,41.27 20.85,49.12 20.89,56.96 18.09,63.94 15.29,70.91 12.82,75.76 10.35,80.61 8.89,83.10 7.42,85.59 7.15,85.92 6.87,86.25 6.51,86.47 6.15,86.69 5.73,86.78 5.32,86.88 4.90,86.84 4.47,86.79 4.09,86.62 3.70,86.44 3.39,86.15 3.08,85.86 2.88,85.49 2.67,85.12 2.60,84.70 2.53,84.28 2.59,83.86 2.66,83.44 2.86,83.06 3.05,82.68 3.36,82.39 3.66,82.10 4.05,81.91 4.43,81.73 4.85,81.68 5.28,81.63 5.69,81.72 6.11,81.81 6.47,82.03 6.84,82.24 7.12,82.56 7.40,82.89 7.56,83.28 7.72,83.67 7.74,84.10 7.77,84.52 7.66,84.93 7.55,85.34 7.31,85.69 7.08,86.05 6.74,86.31 6.40,86.57 6.00,86.71 5.60,86.85 5.18,86.85 4.75,86.85 4.35,86.72 3.94,86.59 3.60,86.33 3.26,86.08 3.02,85.73 2.78,85.38 2.66,84.97 2.55,84.56 2.57,84.14 2.59,83.71 2.74,83.32 2.89,82.92 2.89,82.92 2.89,82.92 4.28,80.57 5.67,78.22 8.06,73.56 10.44,68.89 13.06,62.85 15.67,56.81 15.72,49.78 15.77,42.75 13.20,34.41 10.64,26.07 7.54,19.14 4.45,12.21 1.11,6.79 -2.23,1.38 -2.36,1.09 -2.50,0.80 -2.56,0.49 -2.62,0.18 -2.60,-0.13 -2.58,-0.44 -2.49,-0.75 -2.40,-1.05 -2.24,-1.32 -2.08,-1.60 -1.86,-1.82 -1.63,-2.05 -1.37,-2.21 -1.10,-2.38 -0.79,-2.48 -0.49,-2.57 -0.18,-2.60 0.13,-2.62 0.44,-2.56 0.75,-2.51 1.04,-2.38 1.33,-2.26 1.58,-2.06 1.83,-1.87 2.03,-1.62 2.23,-1.38 2.23,-1.38 L 2.23,-1.38 Z"/></g><g transform="translate(572.6478548066643 189.72197367353493) rotate(0 12.19230706639641 6.234702477134547)" stroke="none"><path fill="#1e1e1e" d="M -2.12,-1.53 Q -2.12,-1.53 -0.02,-4.43 2.07,-7.32 4.44,-8.88 6.81,-10.43 9.06,-10.95 11.31,-11.46 13.49,-11.00 15.67,-10.54 17.60,-6.71 19.54,-2.88 19.23,1.41 18.91,5.71 18.04,7.88 17.17,10.06 16.00,11.90 14.83,13.73 11.98,16.32 9.12,18.91 6.98,20.41 4.84,21.91 4.17,22.68 3.50,23.46 3.23,23.63 2.97,23.80 2.67,23.90 2.37,24.01 2.05,24.04 1.74,24.06 1.42,24.02 1.11,23.97 0.82,23.85 0.53,23.73 0.27,23.54 0.02,23.35 -0.18,23.11 -0.38,22.86 -0.52,22.58 -0.66,22.30 -0.72,21.99 -0.79,21.68 -0.78,21.36 -0.77,21.04 -0.68,20.74 -0.60,20.43 -0.44,20.16 -0.29,19.88 -0.07,19.65 0.14,19.42 2.41,19.25 4.69,19.08 6.82,19.13 8.96,19.18 12.05,19.04 15.14,18.91 19.75,19.17 24.36,19.44 24.76,19.60 25.15,19.76 25.48,20.03 25.80,20.31 26.02,20.67 26.24,21.04 26.33,21.45 26.42,21.87 26.37,22.29 26.33,22.71 26.15,23.10 25.97,23.48 25.68,23.79 25.39,24.10 25.01,24.30 24.63,24.50 24.21,24.56 23.80,24.63 23.38,24.56 22.96,24.49 22.58,24.29 22.21,24.09 21.91,23.79 21.62,23.48 21.44,23.09 21.27,22.71 21.22,22.28 21.18,21.86 21.27,21.45 21.36,21.03 21.58,20.67 21.80,20.30 22.12,20.03 22.45,19.75 22.84,19.60 23.24,19.44 23.66,19.42 24.08,19.39 24.49,19.51 24.90,19.62 25.25,19.86 25.61,20.10 25.86,20.44 26.12,20.78 26.25,21.18 26.39,21.58 26.39,22.01 26.39,22.43 26.25,22.84 26.12,23.24 25.86,23.58 25.60,23.91 25.25,24.15 24.90,24.39 24.49,24.50 24.08,24.62 23.65,24.59 23.23,24.57 23.23,24.57 23.23,24.57 19.30,24.36 15.36,24.16 12.09,24.29 8.83,24.43 6.16,23.94 3.50,23.46 3.23,23.63 2.97,23.80 2.67,23.90 2.37,24.01 2.05,24.04 1.74,24.06 1.42,24.02 1.11,23.97 0.82,23.85 0.53,23.73 0.27,23.54 0.02,23.35 -0.18,23.11 -0.38,22.86 -0.52,22.58 -0.66,22.30 -0.72,21.99 -0.79,21.68 -0.78,21.36 -0.77,21.04 -0.68,20.74 -0.60,20.43 -0.44,20.16 -0.29,19.88 -0.07,19.65 0.14,19.42 0.94,18.54 1.74,17.67 3.88,16.17 6.01,14.68 8.23,12.76 10.44,10.85 12.10,7.77 13.76,4.69 14.07,1.37 14.37,-1.94 13.27,-4.12 12.16,-6.31 9.18,-5.22 6.21,-4.14 4.17,-1.30 2.12,1.53 1.91,1.77 1.69,2.00 1.43,2.17 1.17,2.35 0.87,2.45 0.57,2.56 0.25,2.59 -0.05,2.62 -0.36,2.58 -0.68,2.53 -0.97,2.41 -1.27,2.29 -1.52,2.11 -1.78,1.92 -1.98,1.68 -2.19,1.44 -2.33,1.16 -2.47,0.87 -2.54,0.56 -2.61,0.26 -2.60,-0.05 -2.60,-0.37 -2.51,-0.67 -2.43,-0.98 -2.28,-1.26 -2.12,-1.53 -2.12,-1.53 L -2.12,-1.53 Z"/></g><g transform="translate(174.2815831390618 121.83717434904523) rotate(0 -4.164150108741055 -26.174657826372282)" stroke="none"><path fill="#1e1e1e" d="M -2.58,0.49 Q -2.58,0.49 -3.26,-3.10 -3.94,-6.69 -4.58,-10.64 -5.22,-14.60 -5.84,-19.03 -6.45,-23.46 -6.89,-27.42 -7.32,-31.39 -7.83,-33.96 -8.33,-36.53 -10.42,-35.52 -12.50,-34.51 -12.63,-33.93 -12.77,-33.34 -12.90,-33.06 -13.04,-32.77 -13.24,-32.53 -13.44,-32.28 -13.69,-32.09 -13.94,-31.90 -14.23,-31.77 -14.52,-31.65 -14.83,-31.59 -15.15,-31.54 -15.46,-31.57 -15.78,-31.59 -16.08,-31.69 -16.38,-31.79 -16.65,-31.96 -16.92,-32.13 -17.14,-32.35 -17.36,-32.58 -17.52,-32.85 -17.67,-33.13 -17.76,-33.43 -17.85,-33.74 -17.87,-34.05 -17.88,-34.37 -17.82,-34.68 -17.76,-34.99 -15.43,-39.00 -13.10,-43.01 -11.89,-45.35 -10.68,-47.69 -7.83,-50.55 -4.99,-53.40 -1.42,-51.70 2.13,-50.00 3.51,-48.19 4.88,-46.39 6.07,-45.04 7.26,-43.69 7.49,-43.33 7.71,-42.96 7.81,-42.55 7.91,-42.14 7.87,-41.71 7.83,-41.29 7.66,-40.90 7.49,-40.51 7.20,-40.20 6.91,-39.89 6.54,-39.68 6.17,-39.48 5.75,-39.40 5.33,-39.33 4.91,-39.39 4.49,-39.45 4.11,-39.64 3.73,-39.84 3.44,-40.14 3.14,-40.45 2.95,-40.83 2.77,-41.21 2.72,-41.63 2.67,-42.05 2.75,-42.47 2.83,-42.89 3.05,-43.26 3.26,-43.62 3.58,-43.90 3.90,-44.18 4.29,-44.35 4.69,-44.51 5.11,-44.54 5.53,-44.57 5.94,-44.46 6.36,-44.35 6.71,-44.12 7.07,-43.89 7.33,-43.55 7.59,-43.22 7.73,-42.82 7.88,-42.42 7.88,-41.99 7.89,-41.57 7.76,-41.16 7.63,-40.76 7.38,-40.42 7.13,-40.08 6.78,-39.83 6.43,-39.59 6.02,-39.47 5.61,-39.35 5.19,-39.36 4.77,-39.38 4.37,-39.53 3.97,-39.68 3.64,-39.95 3.31,-40.22 3.31,-40.22 3.32,-40.22 2.01,-41.71 0.71,-43.20 -1.18,-46.04 -3.08,-48.87 -4.55,-47.07 -6.01,-45.27 -7.25,-42.89 -8.48,-40.50 -10.63,-36.92 -12.77,-33.35 -12.90,-33.06 -13.04,-32.77 -13.24,-32.53 -13.44,-32.28 -13.69,-32.09 -13.94,-31.90 -14.23,-31.77 -14.52,-31.65 -14.83,-31.59 -15.15,-31.54 -15.46,-31.57 -15.78,-31.59 -16.08,-31.69 -16.38,-31.79 -16.65,-31.96 -16.92,-32.13 -17.14,-32.35 -17.36,-32.58 -17.52,-32.85 -17.67,-33.13 -17.76,-33.43 -17.85,-33.73 -17.87,-34.05 -17.88,-34.37 -17.82,-34.68 -17.76,-34.99 -17.62,-35.57 -17.49,-36.15 -16.07,-38.72 -14.66,-41.29 -11.20,-42.40 -7.74,-43.52 -5.47,-40.55 -3.19,-37.59 -2.65,-34.77 -2.10,-31.96 -1.68,-28.07 -1.25,-24.19 -0.64,-19.81 -0.04,-15.44 0.58,-11.55 1.21,-7.67 1.89,-4.08 2.58,-0.49 2.60,-0.17 2.62,0.14 2.56,0.45 2.51,0.76 2.38,1.05 2.25,1.34 2.06,1.59 1.87,1.84 1.62,2.04 1.37,2.23 1.08,2.37 0.79,2.50 0.48,2.56 0.17,2.62 -0.13,2.60 -0.45,2.58 -0.75,2.49 -1.06,2.40 -1.33,2.24 -1.60,2.07 -1.83,1.85 -2.05,1.63 -2.22,1.36 -2.38,1.09 -2.48,0.79 -2.58,0.49 -2.58,0.49 L -2.58,0.49 Z"/></g><g transform="translate(120.74251031239123 37.9592935872613) rotate(0 3.5692715217780346 12.195011032741633)" stroke="none"><path fill="#1e1e1e" d="M 2.55,-0.60 Q 2.55,-0.60 3.24,2.30 3.92,5.21 4.56,8.55 5.21,11.89 5.66,14.88 6.11,17.87 6.99,19.56 7.86,21.25 8.09,21.61 8.32,21.97 8.42,22.38 8.52,22.79 8.48,23.22 8.44,23.64 8.27,24.03 8.10,24.42 7.81,24.73 7.53,25.05 7.16,25.25 6.79,25.46 6.37,25.54 5.95,25.61 5.53,25.55 5.11,25.49 4.73,25.30 4.35,25.11 4.05,24.81 3.75,24.51 3.57,24.12 3.38,23.74 3.33,23.32 3.27,22.90 3.36,22.48 3.44,22.06 3.65,21.70 3.86,21.33 4.18,21.05 4.50,20.76 4.89,20.60 5.28,20.43 5.71,20.40 6.13,20.37 6.54,20.48 6.95,20.58 7.31,20.81 7.67,21.05 7.93,21.38 8.19,21.71 8.34,22.11 8.48,22.51 8.49,22.94 8.50,23.36 8.37,23.77 8.24,24.17 7.99,24.51 7.74,24.86 7.39,25.10 7.05,25.35 6.64,25.47 6.23,25.59 5.81,25.58 5.38,25.56 4.99,25.41 4.59,25.26 4.26,25.00 3.93,24.73 3.93,24.73 3.93,24.73 2.42,21.69 0.91,18.65 0.48,15.77 0.05,12.88 -0.56,9.65 -1.18,6.41 -1.87,3.50 -2.55,0.60 -2.59,0.28 -2.62,-0.02 -2.58,-0.34 -2.54,-0.65 -2.42,-0.95 -2.31,-1.24 -2.13,-1.50 -1.94,-1.76 -1.70,-1.96 -1.46,-2.17 -1.18,-2.32 -0.90,-2.46 -0.59,-2.53 -0.28,-2.61 0.02,-2.60 0.34,-2.60 0.65,-2.52 0.95,-2.44 1.23,-2.29 1.51,-2.14 1.74,-1.93 1.98,-1.72 2.16,-1.45 2.33,-1.19 2.44,-0.89 2.55,-0.60 2.55,-0.60 L 2.55,-0.60 Z"/></g><g transform="translate(142.15813944305944 35.57977923940928) rotate(0 5.353907282667066 7.733421630519089)" stroke="none"><path fill="#1e1e1e" d="M 2.62,0 Q 2.62,0 2.62,2.73 2.62,5.47 2.62,7.82 2.62,10.18 4.98,10.27 7.35,10.35 8.59,7.67 9.84,4.98 7.84,3.73 5.84,2.49 2.89,2.07 -0.06,1.66 -0.47,1.55 -0.88,1.44 -1.24,1.21 -1.59,0.98 -1.85,0.64 -2.12,0.31 -2.26,-0.08 -2.40,-0.48 -2.41,-0.91 -2.42,-1.33 -2.29,-1.74 -2.16,-2.14 -1.91,-2.48 -1.65,-2.83 -1.31,-3.07 -0.96,-3.31 -0.55,-3.44 -0.14,-3.56 0.27,-3.54 0.69,-3.52 1.09,-3.37 1.49,-3.22 1.82,-2.95 2.15,-2.68 2.37,-2.32 2.60,-1.96 2.69,-1.55 2.79,-1.13 2.75,-0.71 2.71,-0.29 2.54,0.09 2.37,0.48 2.08,0.79 1.80,1.11 1.42,1.31 1.05,1.52 0.63,1.59 0.22,1.67 -0.19,1.60 -0.62,1.54 -0.99,1.35 -1.37,1.16 -1.67,0.85 -1.97,0.55 -2.15,0.17 -2.34,-0.21 -2.39,-0.63 -2.44,-1.05 -2.36,-1.47 -2.27,-1.88 -2.06,-2.25 -1.85,-2.62 -1.53,-2.90 -1.21,-3.18 -0.82,-3.34 -0.42,-3.51 -0.00,-3.54 0.41,-3.57 0.41,-3.57 0.41,-3.57 4.23,-2.92 8.04,-2.27 10.42,-0.90 12.80,0.45 13.81,2.94 14.83,5.44 14.16,7.97 13.49,10.51 12.00,12.52 10.52,14.53 6.39,16.16 2.27,17.79 0.35,16.34 -1.56,14.89 -2.09,12.54 -2.62,10.20 -2.62,7.83 -2.62,5.47 -2.62,2.73 -2.62,0 -2.58,-0.31 -2.55,-0.62 -2.43,-0.92 -2.32,-1.22 -2.14,-1.48 -1.96,-1.74 -1.72,-1.95 -1.49,-2.16 -1.21,-2.30 -0.93,-2.45 -0.62,-2.53 -0.31,-2.60 0.00,-2.60 0.31,-2.60 0.62,-2.53 0.93,-2.45 1.21,-2.30 1.49,-2.16 1.72,-1.95 1.96,-1.74 2.14,-1.48 2.32,-1.22 2.43,-0.92 2.55,-0.62 2.58,-0.31 2.62,0.00 2.62,0.00 L 2.62,0 Z"/></g><g transform="translate(164.16864716069068 17.13854304355607) rotate(0 2.379514347852023 4.164150108741055)" stroke="none"><path fill="#1e1e1e" d="M 2.34,1.17 Q 2.34,1.17 1.32,3.22 0.30,5.26 2.97,5.59 5.64,5.93 6.60,3.51 7.55,1.10 4.62,1.46 1.70,1.81 -0.10,2.63 -1.91,3.46 -2.32,3.56 -2.73,3.67 -3.15,3.64 -3.58,3.61 -3.97,3.45 -4.36,3.28 -4.68,3.00 -5.00,2.72 -5.21,2.36 -5.43,1.99 -5.51,1.57 -5.60,1.16 -5.54,0.73 -5.49,0.31 -5.31,-0.06 -5.12,-0.44 -4.82,-0.75 -4.53,-1.05 -4.15,-1.24 -3.77,-1.44 -3.35,-1.50 -2.93,-1.56 -2.51,-1.49 -2.09,-1.41 -1.72,-1.21 -1.35,-1.00 -1.06,-0.69 -0.77,-0.37 -0.60,0.00 -0.43,0.39 -0.39,0.82 -0.35,1.24 -0.45,1.65 -0.55,2.07 -0.77,2.43 -1.00,2.79 -1.32,3.06 -1.65,3.33 -2.05,3.48 -2.45,3.63 -2.87,3.65 -3.30,3.66 -3.70,3.54 -4.11,3.42 -4.46,3.18 -4.81,2.93 -5.06,2.59 -5.31,2.25 -5.44,1.84 -5.57,1.44 -5.56,1.01 -5.56,0.59 -5.41,0.19 -5.27,-0.20 -5.01,-0.54 -4.75,-0.87 -4.39,-1.10 -4.03,-1.34 -4.04,-1.34 -4.04,-1.34 -1.82,-2.30 0.39,-3.26 2.85,-3.76 5.30,-4.26 8.01,-3.37 10.72,-2.47 11.65,-0.43 12.57,1.60 12.00,3.87 11.43,6.15 10.03,8.17 8.63,10.19 6.40,11.44 4.16,12.68 1.93,12.67 -0.29,12.66 -2.87,9.92 -5.45,7.18 -4.93,5.06 -4.40,2.94 -3.37,0.88 -2.34,-1.17 -2.17,-1.43 -1.99,-1.70 -1.76,-1.91 -1.53,-2.13 -1.25,-2.28 -0.97,-2.43 -0.67,-2.51 -0.36,-2.60 -0.05,-2.60 0.26,-2.61 0.57,-2.54 0.88,-2.47 1.16,-2.33 1.44,-2.19 1.69,-1.98 1.93,-1.78 2.11,-1.52 2.30,-1.26 2.41,-0.97 2.53,-0.67 2.58,-0.36 2.62,-0.05 2.59,0.26 2.56,0.57 2.45,0.87 2.34,1.17 2.34,1.17 L 2.34,1.17 Z"/></g><g transform="translate(250.4260422703266 107.56008826193306) rotate(0 18.738675489334696 -19.630993369779205)" stroke="none"><path fill="#1e1e1e" d="M -1.80,-1.91 Q -1.80,-1.91 1.10,-4.64 4.01,-7.38 6.40,-9.87 8.78,-12.35 10.93,-15.05 13.09,-17.74 15.05,-20.28 17.01,-22.81 18.46,-25.16 19.90,-27.50 21.03,-29.52 22.16,-31.53 23.01,-33.71 23.86,-35.89 21.60,-34.89 19.33,-33.90 19.02,-33.94 18.71,-33.98 18.41,-34.10 18.12,-34.22 17.86,-34.40 17.60,-34.59 17.40,-34.83 17.19,-35.07 17.05,-35.35 16.90,-35.63 16.83,-35.94 16.76,-36.25 16.77,-36.57 16.77,-36.88 16.85,-37.19 16.93,-37.49 17.08,-37.77 17.24,-38.05 17.45,-38.28 17.66,-38.52 17.93,-38.69 18.19,-38.87 18.49,-38.98 18.79,-39.08 19.10,-39.12 19.42,-39.15 21.79,-39.51 24.17,-39.88 26.37,-40.28 28.58,-40.69 31.56,-41.31 34.53,-41.93 35.17,-41.89 35.81,-41.85 36.12,-41.89 36.44,-41.94 36.75,-41.91 37.07,-41.88 37.37,-41.77 37.66,-41.67 37.93,-41.49 38.19,-41.32 38.41,-41.09 38.62,-40.85 38.78,-40.58 38.93,-40.30 39.01,-39.99 39.09,-39.69 39.10,-39.37 39.11,-39.06 39.04,-38.75 38.97,-38.44 38.83,-38.15 38.69,-37.87 38.48,-37.63 38.28,-37.39 38.02,-37.20 37.77,-37.02 37.47,-36.90 37.18,-36.78 35.84,-34.51 34.49,-32.25 33.46,-30.87 32.43,-29.49 32.11,-29.20 31.80,-28.92 31.41,-28.75 31.01,-28.58 30.59,-28.55 30.17,-28.52 29.76,-28.62 29.34,-28.72 28.98,-28.95 28.63,-29.18 28.36,-29.51 28.09,-29.84 27.95,-30.24 27.80,-30.64 27.79,-31.06 27.78,-31.49 27.90,-31.89 28.03,-32.30 28.28,-32.65 28.53,-32.99 28.87,-33.24 29.22,-33.49 29.62,-33.61 30.03,-33.74 30.45,-33.72 30.88,-33.71 31.28,-33.57 31.68,-33.42 32.01,-33.15 32.34,-32.89 32.57,-32.53 32.80,-32.17 32.90,-31.76 33.00,-31.34 32.97,-30.92 32.93,-30.50 32.76,-30.11 32.59,-29.72 32.31,-29.40 32.03,-29.08 31.66,-28.88 31.29,-28.67 30.87,-28.59 30.45,-28.51 30.03,-28.56 29.61,-28.62 29.23,-28.81 28.85,-29.00 28.55,-29.30 28.25,-29.60 28.06,-29.98 27.87,-30.36 27.81,-30.78 27.76,-31.21 27.84,-31.62 27.92,-32.04 28.13,-32.41 28.34,-32.78 28.34,-32.78 28.34,-32.78 30.53,-35.52 32.72,-38.26 34.27,-40.06 35.81,-41.85 36.12,-41.89 36.44,-41.94 36.75,-41.91 37.07,-41.88 37.36,-41.77 37.66,-41.67 37.93,-41.49 38.19,-41.32 38.41,-41.09 38.62,-40.85 38.78,-40.58 38.93,-40.30 39.01,-39.99 39.09,-39.69 39.10,-39.37 39.11,-39.06 39.04,-38.75 38.97,-38.44 38.83,-38.15 38.69,-37.87 38.49,-37.63 38.28,-37.39 38.02,-37.20 37.77,-37.02 37.47,-36.90 37.18,-36.78 35.25,-36.48 33.32,-36.18 29.47,-35.50 25.63,-34.83 22.48,-34.36 19.33,-33.90 19.02,-33.94 18.71,-33.98 18.41,-34.10 18.12,-34.22 17.86,-34.40 17.60,-34.59 17.40,-34.83 17.19,-35.07 17.05,-35.35 16.90,-35.63 16.83,-35.94 16.76,-36.25 16.77,-36.57 16.77,-36.88 16.85,-37.19 16.93,-37.49 17.08,-37.77 17.24,-38.05 17.45,-38.28 17.66,-38.52 17.93,-38.69 18.19,-38.87 18.49,-38.98 18.79,-39.08 19.10,-39.12 19.42,-39.15 21.17,-39.30 22.93,-39.44 25.19,-39.07 27.45,-38.69 28.14,-36.45 28.84,-34.21 27.79,-31.59 26.75,-28.97 25.56,-26.85 24.36,-24.73 22.76,-22.16 21.17,-19.60 19.18,-17.03 17.19,-14.46 14.88,-11.59 12.57,-8.71 10.09,-6.13 7.61,-3.56 4.70,-0.82 1.80,1.91 1.54,2.10 1.29,2.28 0.99,2.40 0.70,2.53 0.39,2.57 0.07,2.62 -0.23,2.59 -0.55,2.56 -0.85,2.46 -1.15,2.36 -1.41,2.18 -1.68,2.01 -1.89,1.78 -2.11,1.55 -2.27,1.28 -2.42,1.00 -2.51,0.69 -2.59,0.39 -2.60,0.07 -2.61,-0.23 -2.54,-0.54 -2.48,-0.85 -2.34,-1.14 -2.20,-1.42 -2.00,-1.66 -1.80,-1.91 -1.80,-1.91 L -1.80,-1.91 Z"/></g><g transform="translate(292.66242194470004 36.17465782637231) rotate(0 0.8923178804445229 12.195011032741633)" stroke="none"><path fill="#1e1e1e" d="M 2.62,-0.12 Q 2.62,-0.12 2.79,3.46 2.96,7.05 3.20,10.25 3.44,13.45 3.55,16.07 3.66,18.69 3.86,20.61 4.07,22.53 4.09,22.96 4.11,23.38 3.99,23.79 3.88,24.20 3.64,24.55 3.40,24.90 3.06,25.16 2.72,25.41 2.32,25.54 1.91,25.68 1.49,25.68 1.06,25.68 0.66,25.54 0.26,25.40 -0.07,25.14 -0.41,24.88 -0.64,24.53 -0.88,24.18 -0.99,23.77 -1.10,23.36 -1.08,22.93 -1.05,22.51 -0.89,22.12 -0.74,21.72 -0.46,21.40 -0.18,21.08 0.17,20.86 0.54,20.64 0.95,20.55 1.37,20.46 1.79,20.51 2.21,20.56 2.60,20.74 2.98,20.92 3.29,21.21 3.60,21.50 3.79,21.88 3.99,22.26 4.06,22.68 4.13,23.10 4.06,23.52 3.98,23.93 3.78,24.31 3.58,24.68 3.27,24.97 2.96,25.27 2.58,25.44 2.19,25.62 1.77,25.66 1.35,25.71 0.93,25.61 0.52,25.52 0.15,25.30 -0.20,25.08 -0.47,24.75 -0.75,24.43 -0.90,24.03 -1.06,23.64 -1.06,23.64 -1.06,23.64 -1.32,21.27 -1.58,18.90 -1.68,16.38 -1.78,13.85 -2.03,10.58 -2.28,7.30 -2.45,3.71 -2.62,0.12 -2.60,-0.19 -2.57,-0.50 -2.47,-0.80 -2.38,-1.10 -2.21,-1.37 -2.04,-1.64 -1.81,-1.86 -1.59,-2.08 -1.32,-2.24 -1.04,-2.40 -0.74,-2.49 -0.44,-2.58 -0.12,-2.60 0.19,-2.61 0.50,-2.55 0.81,-2.49 1.10,-2.36 1.38,-2.23 1.63,-2.03 1.88,-1.83 2.07,-1.58 2.26,-1.32 2.39,-1.03 2.51,-0.74 2.57,-0.43 2.62,-0.12 2.62,-0.12 L 2.62,-0.12 Z"/></g><g transform="translate(306.93950803181224 40.93368652207636) rotate(0 9.81549668488961 5.651346576148541)" stroke="none"><path fill="#1e1e1e" d="M 2.62,0 Q 2.62,0 2.61,2.87 2.61,5.74 4.36,8.08 6.11,10.43 9.28,10.71 12.45,10.99 14.65,9.43 16.86,7.86 16.63,5.58 16.40,3.30 13.07,1.96 9.74,0.62 7.62,0.35 5.49,0.09 3.32,0.21 1.14,0.34 0.72,0.37 0.30,0.41 -0.11,0.30 -0.52,0.20 -0.88,-0.02 -1.23,-0.25 -1.50,-0.58 -1.77,-0.91 -1.91,-1.31 -2.06,-1.71 -2.07,-2.14 -2.08,-2.56 -1.95,-2.97 -1.83,-3.37 -1.58,-3.72 -1.33,-4.06 -0.99,-4.31 -0.64,-4.56 -0.23,-4.68 0.16,-4.80 0.59,-4.79 1.01,-4.78 1.41,-4.63 1.81,-4.49 2.14,-4.22 2.47,-3.95 2.70,-3.59 2.93,-3.24 3.03,-2.82 3.13,-2.41 3.10,-1.99 3.06,-1.56 2.89,-1.17 2.72,-0.78 2.44,-0.47 2.15,-0.15 1.78,0.05 1.41,0.26 1.00,0.34 0.58,0.41 0.16,0.36 -0.25,0.30 -0.63,0.11 -1.01,-0.07 -1.31,-0.37 -1.61,-0.67 -1.80,-1.05 -1.99,-1.44 -2.05,-1.86 -2.10,-2.28 -2.02,-2.69 -1.94,-3.11 -1.73,-3.48 -1.52,-3.85 -1.20,-4.13 -0.89,-4.42 -0.50,-4.58 -0.11,-4.75 -0.11,-4.75 -0.11,-4.75 3.04,-4.93 6.19,-5.11 8.76,-4.74 11.33,-4.38 14.00,-3.45 16.67,-2.52 18.86,-0.64 21.06,1.24 21.74,3.97 22.42,6.70 21.50,9.08 20.59,11.46 18.75,13.08 16.90,14.69 14.69,15.45 12.47,16.21 10.11,16.13 7.74,16.04 5.30,15.26 2.86,14.48 1.10,12.78 -0.64,11.09 -1.63,8.48 -2.61,5.88 -2.61,2.94 -2.62,0 -2.58,-0.31 -2.55,-0.62 -2.43,-0.92 -2.32,-1.22 -2.14,-1.48 -1.96,-1.74 -1.72,-1.95 -1.49,-2.16 -1.21,-2.30 -0.93,-2.45 -0.62,-2.53 -0.31,-2.60 0.00,-2.60 0.31,-2.60 0.62,-2.53 0.93,-2.45 1.21,-2.30 1.49,-2.16 1.72,-1.95 1.96,-1.74 2.14,-1.48 2.32,-1.22 2.43,-0.92 2.55,-0.62 2.58,-0.31 2.62,0.00 2.62,0.00 L 2.62,0 Z"/></g><g transform="translate(320.02683694499837 20.112935978371127) rotate(0 6.5436644565930635 -0.5948785869630058)" stroke="none"><path fill="#1e1e1e" d="M -0.23,-2.61 Q -0.23,-2.61 3.52,-2.95 7.28,-3.29 7.71,-3.26 8.13,-3.23 8.52,-3.07 8.91,-2.91 9.23,-2.62 9.55,-2.34 9.76,-1.98 9.98,-1.61 10.06,-1.19 10.15,-0.77 10.09,-0.35 10.04,0.06 9.85,0.44 9.67,0.82 9.37,1.13 9.07,1.43 8.69,1.62 8.31,1.81 7.89,1.88 7.47,1.94 7.06,1.86 6.64,1.78 6.27,1.58 5.89,1.37 5.61,1.06 5.32,0.75 5.15,0.36 4.98,-0.02 4.94,-0.44 4.90,-0.87 5.00,-1.28 5.10,-1.69 5.32,-2.05 5.55,-2.42 5.88,-2.68 6.21,-2.95 6.60,-3.10 7.00,-3.25 7.43,-3.27 7.85,-3.28 8.26,-3.16 8.67,-3.04 9.01,-2.80 9.36,-2.55 9.61,-2.21 9.86,-1.87 9.99,-1.46 10.12,-1.06 10.11,-0.63 10.10,-0.21 9.96,0.18 9.82,0.58 9.56,0.92 9.29,1.25 8.94,1.48 8.58,1.71 8.17,1.82 7.76,1.93 7.76,1.93 7.76,1.93 4.00,2.27 0.23,2.61 -0.07,2.60 -0.39,2.59 -0.70,2.51 -1.00,2.42 -1.28,2.27 -1.55,2.11 -1.78,1.89 -2.01,1.68 -2.18,1.41 -2.36,1.14 -2.46,0.85 -2.56,0.55 -2.59,0.23 -2.62,-0.07 -2.57,-0.39 -2.53,-0.70 -2.40,-0.99 -2.28,-1.29 -2.10,-1.54 -1.91,-1.80 -1.66,-2.00 -1.42,-2.20 -1.14,-2.34 -0.85,-2.48 -0.54,-2.54 -0.23,-2.61 -0.23,-2.61 L -0.23,-2.61 Z"/></g><g transform="translate(337.87319455388854 10) rotate(0 1.7846357608890173 7.435982337037586)" stroke="none"><path fill="#1e1e1e" d="M 2.59,-0.40 Q 2.59,-0.40 3.10,2.83 3.61,6.08 4.31,8.31 5.00,10.55 5.05,10.97 5.11,11.39 5.03,11.80 4.95,12.22 4.74,12.59 4.53,12.96 4.21,13.24 3.89,13.53 3.50,13.69 3.11,13.86 2.69,13.89 2.26,13.93 1.85,13.82 1.44,13.72 1.08,13.49 0.72,13.26 0.46,12.93 0.19,12.59 0.05,12.19 -0.09,11.80 -0.10,11.37 -0.11,10.95 0.01,10.54 0.13,10.13 0.38,9.79 0.63,9.45 0.98,9.20 1.32,8.95 1.73,8.83 2.14,8.70 2.56,8.72 2.99,8.73 3.39,8.88 3.78,9.03 4.11,9.29 4.44,9.56 4.67,9.92 4.90,10.28 5.00,10.69 5.10,11.10 5.07,11.53 5.03,11.95 4.86,12.34 4.69,12.73 4.41,13.05 4.12,13.36 3.75,13.57 3.38,13.78 2.96,13.86 2.55,13.93 2.13,13.88 1.70,13.82 1.32,13.63 0.94,13.44 0.64,13.14 0.35,12.83 0.16,12.45 -0.02,12.07 -0.02,12.07 -0.02,12.07 -0.79,9.49 -1.56,6.91 -2.08,3.66 -2.59,0.40 -2.60,0.09 -2.61,-0.22 -2.55,-0.53 -2.48,-0.84 -2.35,-1.12 -2.21,-1.41 -2.01,-1.65 -1.81,-1.90 -1.55,-2.09 -1.30,-2.28 -1.01,-2.40 -0.71,-2.52 -0.40,-2.57 -0.09,-2.62 0.22,-2.59 0.53,-2.57 0.83,-2.46 1.13,-2.36 1.40,-2.19 1.67,-2.02 1.88,-1.79 2.10,-1.56 2.26,-1.29 2.42,-1.01 2.50,-0.71 2.59,-0.40 2.59,-0.40 L 2.59,-0.40 Z"/></g></svg>