<svg version="1.1" xmlns="http://www.w3.org/2000/svg" viewBox="0 0 731.2398283923691 392.7936251422018" width="731.2398283923691" height="392.7936251422018" class="excalidraw-svg">
  <!-- svg-source:excalidraw -->
  
  <defs>
    <style class="style-fonts">
      @font-face {
        font-family: "Virgil";
        src: url("https://excalidraw.com/Virgil.woff2");
      }
      @font-face {
        font-family: "Cascadia";
        src: url("https://excalidraw.com/Cascadia.woff2");
      }
      @font-face {
        font-family: "Assistant";
        src: url("https://excalidraw.com/Assistant-Regular.woff2");
      }
    </style>
    
  </defs>
  <rect x="0" y="0" width="731.2398283923691" height="392.7936251422018" fill="#ffffff"/><g stroke-linecap="round"><g transform="translate(256.5768174651205 48.46322578487974) rotate(0 1.3095695858615812 166.3777621075601)"><path d="M0.79 -0.28 C1.29 55.23, 1.86 277.1, 2.07 332.64 M-0.25 -1.47 C0.12 54.27, 0.63 278.14, 0.84 334.11" stroke="#e03131" stroke-width="2" fill="none"/></g><g transform="translate(256.5768174651205 48.46322578487974) rotate(0 1.3095695858615812 166.3777621075601)"><path d="M-7.78 310.65 C-6.39 314.93, -4.19 320.16, 0.84 334.11 M-7.78 310.65 C-4.49 317.95, -2.45 324.63, 0.84 334.11" stroke="#e03131" stroke-width="2" fill="none"/></g><g transform="translate(256.5768174651205 48.46322578487974) rotate(0 1.3095695858615812 166.3777621075601)"><path d="M9.32 310.6 C6.89 315.01, 5.25 320.24, 0.84 334.11 M9.32 310.6 C7.18 317.86, 3.79 324.55, 0.84 334.11" stroke="#e03131" stroke-width="2" fill="none"/></g></g><mask/><g stroke-linecap="round"><g transform="translate(475.9967378868436 37.109375) rotate(0 1.4609375 116.009765625)"><path d="M0.6 0.94 C0.96 39.97, 2.05 194.71, 2.43 233.12 M-0.54 0.39 C-0.41 39.2, 0.78 192.91, 1.22 231.57" stroke="#1971c2" stroke-width="2" fill="none"/></g><g transform="translate(475.9967378868436 37.109375) rotate(0 1.4609375 116.009765625)"><path d="M-7.54 208.16 C-3.34 214.88, -0.24 223.23, 1.22 231.57 M-7.54 208.16 C-5 213.6, -3.26 218.98, 1.22 231.57" stroke="#1971c2" stroke-width="2" fill="none"/></g><g transform="translate(475.9967378868436 37.109375) rotate(0 1.4609375 116.009765625)"><path d="M9.56 208 C8.22 214.86, 5.78 223.26, 1.22 231.57 M9.56 208 C7.87 213.51, 5.39 218.94, 1.22 231.57" stroke="#1971c2" stroke-width="2" fill="none"/></g></g><mask/><g stroke-linecap="round"><g transform="translate(672.0318941368437 39.0703125) rotate(0 -0.45703125 67.9921875)"><path d="M0.3 -0.8 C0.19 22.04, -1.51 113.57, -1.6 136.42 M-1 1.39 C-0.64 23.93, 0.69 111.79, 0.76 134.53" stroke="#2f9e44" stroke-width="2" fill="none"/></g><g transform="translate(672.0318941368437 39.0703125) rotate(0 -0.45703125 67.9921875)"><path d="M-8.03 111.12 C-7.53 115.17, -3.51 122.73, 0.76 134.53 M-8.03 111.12 C-5.04 119.71, -1.99 126.33, 0.76 134.53" stroke="#2f9e44" stroke-width="2" fill="none"/></g><g transform="translate(672.0318941368437 39.0703125) rotate(0 -0.45703125 67.9921875)"><path d="M9.08 110.95 C5.77 115.08, 5.98 122.68, 0.76 134.53 M9.08 110.95 C6.45 119.65, 3.9 126.33, 0.76 134.53" stroke="#2f9e44" stroke-width="2" fill="none"/></g></g><mask/><g transform="translate(248.07486288684362 15.63671875) rotate(0 6.669921875 11.5)"><text x="0" y="0" font-family="Helvetica, Segoe UI Emoji" font-size="20px" fill="#e03131" text-anchor="start" style="white-space: pre;" direction="ltr" dominant-baseline="text-before-edge">P</text></g><g transform="translate(469.4225191368436 10) rotate(0 7.7783203125 11.5)"><text x="0" y="0" font-family="Helvetica, Segoe UI Emoji" font-size="20px" fill="#1971c2" text-anchor="start" style="white-space: pre;" direction="ltr" dominant-baseline="text-before-edge">Q</text></g><g transform="translate(664.7428316368437 12.265625) rotate(0 7.2216796875 11.5)"><text x="0" y="0" font-family="Helvetica, Segoe UI Emoji" font-size="20px" fill="#2f9e44" text-anchor="start" style="white-space: pre;" direction="ltr" dominant-baseline="text-before-edge">R</text></g><g stroke-linecap="round"><g transform="translate(283.0514253868436 54.171875) rotate(0 -1.44140625 69.904296875)"><path d="M-0.59 0.6 C-1.28 24.04, -3.31 116.45, -3.65 139.76 M1.3 -0.13 C0.96 23.59, -0.58 118.17, -1.33 141.27" stroke="#1e1e1e" stroke-width="2" fill="none"/></g><g transform="translate(283.0514253868436 54.171875) rotate(0 -1.44140625 69.904296875)"><path d="M-9.34 117.59 C-5.78 124.43, -4.13 134.26, -1.33 141.27 M-9.34 117.59 C-6.66 126.88, -4.04 133.49, -1.33 141.27" stroke="#1e1e1e" stroke-width="2" fill="none"/></g><g transform="translate(283.0514253868436 54.171875) rotate(0 -1.44140625 69.904296875)"><path d="M7.76 117.98 C5.49 124.61, 1.3 134.3, -1.33 141.27 M7.76 117.98 C4.37 127.25, 0.91 133.73, -1.33 141.27" stroke="#1e1e1e" stroke-width="2" fill="none"/></g></g><mask/><g stroke-linecap="round"><g transform="translate(289.0279878868436 197.33984375) rotate(0 85.515625 -74.705078125)"><path d="M0.83 -1.17 C29.18 -25.92, 143.08 -124.34, 171.33 -149.01" stroke="#1e1e1e" stroke-width="1.5" fill="none" stroke-dasharray="8 9"/></g><g transform="translate(289.0279878868436 197.33984375) rotate(0 85.515625 -74.705078125)"><path d="M159.19 -127.15 C162.18 -135.45, 169.64 -145.86, 171.33 -149.01" stroke="#1e1e1e" stroke-width="1.5" fill="none"/></g><g transform="translate(289.0279878868436 197.33984375) rotate(0 85.515625 -74.705078125)"><path d="M147.98 -140.06 C155.38 -143.29, 167.31 -148.55, 171.33 -149.01" stroke="#1e1e1e" stroke-width="1.5" fill="none"/></g></g><mask/><g stroke-linecap="round"><g transform="translate(503.7623628868436 47.99609375) rotate(0 -1.50390625 59.740234375)"><path d="M-0.23 0.48 C-0.58 20.32, -1.39 100.08, -1.97 119.88 M-1.81 -0.31 C-2.24 19.08, -2.48 97.83, -2.37 117.97" stroke="#1e1e1e" stroke-width="2" fill="none"/></g><g transform="translate(503.7623628868436 47.99609375) rotate(0 -1.50390625 59.740234375)"><path d="M-10.93 94.48 C-7.3 103.5, -4.79 107.87, -2.37 117.97 M-10.93 94.48 C-8.8 100.43, -6.48 106.93, -2.37 117.97" stroke="#1e1e1e" stroke-width="2" fill="none"/></g><g transform="translate(503.7623628868436 47.99609375) rotate(0 -1.50390625 59.740234375)"><path d="M6.17 94.47 C4.5 103.47, 1.71 107.84, -2.37 117.97 M6.17 94.47 C3.41 100.42, 0.84 106.92, -2.37 117.97" stroke="#1e1e1e" stroke-width="2" fill="none"/></g></g><mask/><g stroke-linecap="round"><g transform="translate(504.7076753868436 167.94921875) rotate(0 78.4375 -61.966796875)"><path d="M-0.93 -0.02 C25.11 -20.9, 130.1 -104.51, 156.44 -125.07" stroke="#1e1e1e" stroke-width="1.5" fill="none" stroke-dasharray="8 9"/></g><g transform="translate(504.7076753868436 167.94921875) rotate(0 78.4375 -61.966796875)"><path d="M143.31 -103.8 C147.38 -111.15, 149.68 -116.71, 156.44 -125.07" stroke="#1e1e1e" stroke-width="1.5" fill="none"/></g><g transform="translate(504.7076753868436 167.94921875) rotate(0 78.4375 -61.966796875)"><path d="M132.71 -117.22 C140.16 -120.24, 145.8 -121.57, 156.44 -125.07" stroke="#1e1e1e" stroke-width="1.5" fill="none"/></g></g><mask/><g stroke-linecap="round"><g transform="translate(699.0006441368437 43.640625) rotate(0 0.802734375 64.92578125)"><path d="M0.95 0.32 C1.19 22.08, 0.86 108.9, 0.84 130.31 M-0.01 -0.55 C0.67 20.86, 2.59 106.75, 3.15 128.42" stroke="#1e1e1e" stroke-width="2" fill="none"/></g><g transform="translate(699.0006441368437 43.640625) rotate(0 0.802734375 64.92578125)"><path d="M-5.96 105.14 C-3.21 109.57, -0.73 115.36, 3.15 128.42 M-5.96 105.14 C-3.61 109.82, -1.67 114.51, 3.15 128.42" stroke="#1e1e1e" stroke-width="2" fill="none"/></g><g transform="translate(699.0006441368437 43.640625) rotate(0 0.802734375 64.92578125)"><path d="M11.13 104.73 C9.64 109.39, 7.88 115.29, 3.15 128.42 M11.13 104.73 C9.95 109.4, 8.35 114.17, 3.15 128.42" stroke="#1e1e1e" stroke-width="2" fill="none"/></g></g><mask/><g stroke-linecap="round"><g transform="translate(695.4225191368437 178.24609375) rotate(0 -94.384765625 -1.125)"><path d="M-0.64 0.03 C-31.89 -0.4, -156.73 -1.88, -188.02 -2.16" stroke="#1e1e1e" stroke-width="2.5" fill="none" stroke-dasharray="8 10"/></g><g transform="translate(695.4225191368437 178.24609375) rotate(0 -94.384765625 -1.125)"><path d="M-164.44 -10.46 C-170.35 -7.23, -176.24 -5.73, -188.02 -2.16" stroke="#1e1e1e" stroke-width="2.5" fill="none"/></g><g transform="translate(695.4225191368437 178.24609375) rotate(0 -94.384765625 -1.125)"><path d="M-164.62 6.64 C-170.55 5.52, -176.39 2.69, -188.02 -2.16" stroke="#1e1e1e" stroke-width="2.5" fill="none"/></g></g><mask/><g stroke-linecap="round"><g transform="translate(504.1881441368436 175.55078125) rotate(0 0 45.869140625)"><path d="M0.55 -0.42 C0.51 15.18, 0.6 77.19, 0.42 92.72 M-0.61 -1.68 C-0.83 13.67, -0.14 75.68, -0.31 91.11" stroke="#1e1e1e" stroke-width="2" fill="none"/></g><g transform="translate(504.1881441368436 175.55078125) rotate(0 0 45.869140625)"><path d="M-8.89 67.63 C-6.7 76.64, -1.32 83.37, -0.31 91.11 M-8.89 67.63 C-5.07 77.17, -2.24 85.87, -0.31 91.11" stroke="#1e1e1e" stroke-width="2" fill="none"/></g><g transform="translate(504.1881441368436 175.55078125) rotate(0 0 45.869140625)"><path d="M8.21 67.61 C4.32 76.71, 3.62 83.45, -0.31 91.11 M8.21 67.61 C5.48 77, 1.76 85.71, -0.31 91.11" stroke="#1e1e1e" stroke-width="2" fill="none"/></g></g><mask/><g stroke-linecap="round"><g transform="translate(502.6764253868436 271.57421875) rotate(0 -106.9296875 -32.4140625)"><path d="M0.67 0.52 C-35.19 -10.32, -179.12 -54.8, -214.85 -65.81" stroke="#1e1e1e" stroke-width="2.5" fill="none" stroke-dasharray="8 10"/></g><g transform="translate(502.6764253868436 271.57421875) rotate(0 -106.9296875 -32.4140625)"><path d="M-189.88 -67.06 C-197.11 -68.17, -207.69 -65.93, -214.85 -65.81" stroke="#1e1e1e" stroke-width="2.5" fill="none"/></g><g transform="translate(502.6764253868436 271.57421875) rotate(0 -106.9296875 -32.4140625)"><path d="M-194.92 -50.72 C-200.42 -57.14, -209.36 -60.19, -214.85 -65.81" stroke="#1e1e1e" stroke-width="2.5" fill="none"/></g></g><mask/><g stroke-linecap="round"><g transform="translate(280.4537691368436 211.47265625) rotate(0 0.046875 37.29296875)"><path d="M1.16 0.74 C1.13 13, -0.48 61.4, -0.52 73.58 M0.31 0.08 C0.71 12.46, 1.82 62.14, 1.87 74.59" stroke="#f08c00" stroke-width="2" fill="none"/></g><g transform="translate(280.4537691368436 211.47265625) rotate(0 0.046875 37.29296875)"><path d="M-7.03 51.23 C-3.37 56.48, -3.86 65.25, 1.87 74.59 M-7.03 51.23 C-5.98 57.3, -3.07 61.95, 1.87 74.59" stroke="#f08c00" stroke-width="2" fill="none"/></g><g transform="translate(280.4537691368436 211.47265625) rotate(0 0.046875 37.29296875)"><path d="M10.07 50.98 C9.07 56.46, 3.93 65.3, 1.87 74.59 M10.07 50.98 C7.04 57.06, 5.87 61.78, 1.87 74.59" stroke="#f08c00" stroke-width="2" fill="none"/></g></g><mask/><g stroke-linecap="round"><g transform="translate(288.5436128868436 288.10546875) rotate(0 87.015625 -118.86328125)"><path d="M1.1 1.03 C30.34 -38.68, 145.65 -199.17, 174.48 -238.78" stroke="#f08c00" stroke-width="2.5" fill="none" stroke-dasharray="8 10"/></g><g transform="translate(288.5436128868436 288.10546875) rotate(0 87.015625 -118.86328125)"><path d="M167.65 -214.73 C170.98 -219.36, 169.02 -225.37, 174.48 -238.78" stroke="#f08c00" stroke-width="2.5" fill="none"/></g><g transform="translate(288.5436128868436 288.10546875) rotate(0 87.015625 -118.86328125)"><path d="M153.79 -224.75 C160.15 -227.29, 161.25 -231.08, 174.48 -238.78" stroke="#f08c00" stroke-width="2.5" fill="none"/></g></g><mask/><g stroke-linecap="round"><g transform="translate(516.4225191368437 48.3828125) rotate(0 -0.458984375 84.341796875)"><path d="M0.29 0.9 C0.1 29.22, -0.32 140.93, -0.55 168.8 M-1.01 0.32 C-1.39 28.96, -1.14 142.26, -1.31 170.4" stroke="#f08c00" stroke-width="2" fill="none"/></g><g transform="translate(516.4225191368437 48.3828125) rotate(0 -0.458984375 84.341796875)"><path d="M-9.82 146.9 C-5.56 155.74, -3.87 163.02, -1.31 170.4 M-9.82 146.9 C-7.33 153.45, -5 158.4, -1.31 170.4" stroke="#f08c00" stroke-width="2" fill="none"/></g><g transform="translate(516.4225191368437 48.3828125) rotate(0 -0.458984375 84.341796875)"><path d="M7.28 146.92 C5.54 155.8, 1.22 163.07, -1.31 170.4 M7.28 146.92 C5.44 153.63, 3.44 158.58, -1.31 170.4" stroke="#f08c00" stroke-width="2" fill="none"/></g></g><mask/><g stroke-linecap="round"><g transform="translate(516.9264253868437 222.078125) rotate(0 -114.447265625 37.794921875)"><path d="M0.12 0.21 C-38.05 12.84, -191.37 62.35, -229.62 74.89" stroke="#f08c00" stroke-width="2.5" fill="none" stroke-dasharray="8 10"/></g><g transform="translate(516.9264253868437 222.078125) rotate(0 -114.447265625 37.794921875)"><path d="M-209.92 59.49 C-214.54 62.08, -220.89 66.29, -229.62 74.89" stroke="#f08c00" stroke-width="2.5" fill="none"/></g><g transform="translate(516.9264253868437 222.078125) rotate(0 -114.447265625 37.794921875)"><path d="M-204.64 75.76 C-210.43 74.36, -218.08 74.56, -229.62 74.89" stroke="#f08c00" stroke-width="2.5" fill="none"/></g></g><mask/><g stroke-linecap="round"><g transform="translate(283.1608003868436 300.98828125) rotate(0 -0.345703125 19.80859375)"><path d="M0.01 -0.4 C-0.02 6.23, -0.26 33.51, -0.36 40.09 M-0.65 0.59 C-0.71 7.04, -0.58 32.89, -0.62 39.36" stroke="#1971c2" stroke-width="2" fill="none"/></g><g transform="translate(283.1608003868436 300.98828125) rotate(0 -0.345703125 19.80859375)"><path d="M-7.4 20.75 C-6.23 26.35, -2.85 30.92, -0.62 39.36 M-7.4 20.75 C-6.39 24.66, -4.36 28.65, -0.62 39.36" stroke="#1971c2" stroke-width="2" fill="none"/></g><g transform="translate(283.1608003868436 300.98828125) rotate(0 -0.345703125 19.80859375)"><path d="M6.16 20.75 C3.68 26.35, 3.41 30.92, -0.62 39.36 M6.16 20.75 C4.38 24.62, 3.62 28.61, -0.62 39.36" stroke="#1971c2" stroke-width="2" fill="none"/></g></g><mask/><g stroke-linecap="round"><g transform="translate(286.5475191368436 341.2890625) rotate(0 187.85546875 -144.65234375)"><path d="M0.25 0.97 C62.77 -47.09, 313.25 -239.75, 375.87 -288.33" stroke="#1971c2" stroke-width="2.5" fill="none" stroke-dasharray="8 10"/></g><g transform="translate(286.5475191368436 341.2890625) rotate(0 187.85546875 -144.65234375)"><path d="M362.5 -267.21 C368.97 -274.65, 373.83 -282.17, 375.87 -288.33" stroke="#1971c2" stroke-width="2.5" fill="none"/></g><g transform="translate(286.5475191368436 341.2890625) rotate(0 187.85546875 -144.65234375)"><path d="M352.05 -280.75 C362.32 -283.29, 370.98 -285.89, 375.87 -288.33" stroke="#1971c2" stroke-width="2.5" fill="none"/></g></g><mask/><g stroke-linecap="round"><g transform="translate(717.4850191368437 43.5) rotate(0 0.236328125 51.1015625)"><path d="M-0.54 -0.97 C-0.45 16.07, 0.41 85.86, 0.55 103.25 M1.37 1.13 C1.32 18.38, -0.04 84.93, -0.36 101.67" stroke="#1971c2" stroke-width="2" fill="none"/></g><g transform="translate(717.4850191368437 43.5) rotate(0 0.236328125 51.1015625)"><path d="M-8.45 78.02 C-7.46 85.23, -1.69 91.86, -0.36 101.67 M-8.45 78.02 C-5.38 86.58, -2.15 96.21, -0.36 101.67" stroke="#1971c2" stroke-width="2" fill="none"/></g><g transform="translate(717.4850191368437 43.5) rotate(0 0.236328125 51.1015625)"><path d="M8.65 78.35 C4.53 85.39, 5.21 91.91, -0.36 101.67 M8.65 78.35 C5.01 86.74, 1.51 96.24, -0.36 101.67" stroke="#1971c2" stroke-width="2" fill="none"/></g></g><mask/><g stroke-linecap="round"><g transform="translate(721.9029878868437 146.875) rotate(0 -215.9921875 99.025390625)"><path d="M-0.66 -0.17 C-72.6 32.67, -358.89 164.67, -430.96 197.66" stroke="#1971c2" stroke-width="2.5" fill="none" stroke-dasharray="8 10"/></g><g transform="translate(721.9029878868437 146.875) rotate(0 -215.9921875 99.025390625)"><path d="M-413.18 180.08 C-419.66 187.91, -426.3 190.62, -430.96 197.66" stroke="#1971c2" stroke-width="2.5" fill="none"/></g><g transform="translate(721.9029878868437 146.875) rotate(0 -215.9921875 99.025390625)"><path d="M-406.04 195.62 C-415.12 197.91, -424.29 195.14, -430.96 197.66" stroke="#1971c2" stroke-width="2.5" fill="none"/></g></g><mask/><g stroke-linecap="round"><g transform="translate(285.6647066368436 345.9453125) rotate(0 -0.6328125 18.107421875)"><path d="M0.49 0.13 C0.2 6.18, -1.36 30.19, -1.56 36.17 M0.08 -0.28 C-0.04 5.87, -0.33 30.72, -0.48 36.85" stroke="#1971c2" stroke-width="2" fill="none"/></g><g transform="translate(285.6647066368436 345.9453125) rotate(0 -0.6328125 18.107421875)"><path d="M-6.39 19.72 C-4.21 24.91, -2.53 31.99, -0.48 36.85 M-6.39 19.72 C-4.8 23.8, -3.18 28.89, -0.48 36.85" stroke="#1971c2" stroke-width="2" fill="none"/></g><g transform="translate(285.6647066368436 345.9453125) rotate(0 -0.6328125 18.107421875)"><path d="M6.01 19.93 C4.05 25.11, 1.59 32.11, -0.48 36.85 M6.01 19.93 C4.34 23.9, 2.73 28.93, -0.48 36.85" stroke="#1971c2" stroke-width="2" fill="none"/></g></g><mask/><g transform="translate(10 58.13671875) rotate(0 97.90167236328125 76.18667518092805)"><text x="0" y="0" font-family="Helvetica, Segoe UI Emoji" font-size="26.499713106409757px" fill="#1e1e1e" text-anchor="start" style="white-space: pre;" direction="ltr" dominant-baseline="text-before-edge">1. P calls Q</text><text x="0" y="30.474670072371218" font-family="Helvetica, Segoe UI Emoji" font-size="26.499713106409757px" fill="#1e1e1e" text-anchor="start" style="white-space: pre;" direction="ltr" dominant-baseline="text-before-edge">2. Q calls R</text><text x="0" y="60.949340144742436" font-family="Helvetica, Segoe UI Emoji" font-size="26.499713106409757px" fill="#1e1e1e" text-anchor="start" style="white-space: pre;" direction="ltr" dominant-baseline="text-before-edge">3. R returns to Q</text><text x="0" y="91.42401021711365" font-family="Helvetica, Segoe UI Emoji" font-size="26.499713106409757px" fill="#1e1e1e" text-anchor="start" style="white-space: pre;" direction="ltr" dominant-baseline="text-before-edge">4. Q returns to P</text><text x="0" y="121.89868028948487" font-family="Helvetica, Segoe UI Emoji" font-size="26.499713106409757px" fill="#1e1e1e" text-anchor="start" style="white-space: pre;" direction="ltr" dominant-baseline="text-before-edge"/></g><g transform="translate(12.62409268456048 195.90934827725027) rotate(0 97.17086791992188 30.474670072371218)"><text x="0" y="0" font-family="Helvetica, Segoe UI Emoji" font-size="26.499713106409757px" fill="#f08c00" text-anchor="start" style="white-space: pre;" direction="ltr" dominant-baseline="text-before-edge">5. P calls Q</text><text x="0" y="30.474670072371218" font-family="Helvetica, Segoe UI Emoji" font-size="26.499713106409757px" fill="#f08c00" text-anchor="start" style="white-space: pre;" direction="ltr" dominant-baseline="text-before-edge">6. Q returns to P</text></g><g transform="translate(14.642625518837804 276.81628485525755) rotate(0 96.43359375 30.47467007237121)"><text x="0" y="0" font-family="Helvetica, Segoe UI Emoji" font-size="26.499713106409757px" fill="#1971c2" text-anchor="start" style="white-space: pre;" direction="ltr" dominant-baseline="text-before-edge">7. P calls R</text><text x="0" y="30.474670072371218" font-family="Helvetica, Segoe UI Emoji" font-size="26.499713106409757px" fill="#1971c2" text-anchor="start" style="white-space: pre;" direction="ltr" dominant-baseline="text-before-edge">8. R returns to P</text></g></svg>