<svg version="1.1" xmlns="http://www.w3.org/2000/svg" viewBox="0 0 658.1487904821784 458.7578633949928" width="658.1487904821784" height="458.7578633949928" class="excalidraw-svg">
  <!-- svg-source:excalidraw -->
  
  <defs>
    <style class="style-fonts">
      @font-face {
        font-family: "Virgil";
        src: url("https://excalidraw.com/Virgil.woff2");
      }
      @font-face {
        font-family: "Cascadia";
        src: url("https://excalidraw.com/Cascadia.woff2");
      }
      @font-face {
        font-family: "Assistant";
        src: url("https://excalidraw.com/Assistant-Regular.woff2");
      }
    </style>
    
  </defs>
  <rect x="0" y="0" width="658.1487904821784" height="458.7578633949928" fill="#ffffff"/><g stroke-linecap="round" transform="translate(44.941759232178356 48.47205434149359) rotate(0 301.603515625 198.267578125)"><path d="M32 0 C150 -0.93, 267.76 -0.22, 571.21 0 M32 0 C167.73 -1.32, 304.37 -1.33, 571.21 0 M571.21 0 C590.86 0.73, 604.81 12.29, 603.21 32 M571.21 0 C594.27 0.94, 601.13 9.99, 603.21 32 M603.21 32 C600.46 136.3, 600.81 241.85, 603.21 364.54 M603.21 32 C602 149.33, 601.9 265.48, 603.21 364.54 M603.21 364.54 C602.14 387.76, 591.53 395.91, 571.21 396.54 M603.21 364.54 C602.07 387.14, 592.04 396.57, 571.21 396.54 M571.21 396.54 C388.52 398.21, 205.35 397.76, 32 396.54 M571.21 396.54 C441.69 396, 311.72 396.12, 32 396.54 M32 396.54 C11.93 394.73, -1.58 385.2, 0 364.54 M32 396.54 C12.69 397.93, -0.05 385.74, 0 364.54 M0 364.54 C-1.67 293.7, -0.89 221.21, 0 32 M0 364.54 C-1.68 262.63, -1.65 160.44, 0 32 M0 32 C-0.07 11.36, 9.71 0.49, 32 0 M0 32 C0.02 8.9, 12.17 -1.01, 32 0" stroke="#1e1e1e" stroke-width="2" fill="none"/></g><g stroke-linecap="round"><g transform="translate(45.168321732178356 130.4408043414936) rotate(0 300.642578125 0.6484375)"><path d="M-0.6 -0.93 C99.55 -0.64, 500.47 0.52, 600.92 0.85 M1.29 1.2 C101.25 1.73, 499.69 1.97, 599.77 2.15" stroke="#1e1e1e" stroke-width="2" fill="none"/></g></g><mask/><g stroke-linecap="round"><g transform="translate(161.85191548217836 47.49158559149359) rotate(0 -0.189453125 42.26171875)"><path d="M-0.97 -0.31 C-0.89 13.89, -0.41 70.14, -0.24 84.13 M0.72 -1.51 C0.72 12.94, -0.91 71.12, -1.11 85.46" stroke="#1e1e1e" stroke-width="2" fill="none"/></g></g><mask/><g stroke-linecap="round"><g transform="translate(340.69566548217836 47.63221059149359) rotate(0 0.830078125 41.423828125)"><path d="M-1.11 -0.23 C-0.81 13.8, 0.71 69.51, 1.35 83.51 M0.5 -1.4 C0.66 12.34, -0.09 67.85, 0.25 81.74" stroke="#1e1e1e" stroke-width="2" fill="none"/></g></g><mask/><g stroke-linecap="round"><g transform="translate(521.2025464975256 50.30895811591523) rotate(0 0.8300781249999858 41.423828125)"><path d="M1.16 0.8 C1.36 14.73, 1.51 70.16, 1.5 83.72 M0.32 0.17 C0.31 13.77, 0.51 68.23, 0.46 82.06" stroke="#1e1e1e" stroke-width="2" fill="none"/></g></g><mask/><g transform="translate(248.86363423217836 73.10096059149359) rotate(0 7.7861328125 16.099999999999994)"><text x="0" y="0" font-family="Helvetica, Segoe UI Emoji" font-size="28px" fill="#1e1e1e" text-anchor="start" style="white-space: pre;" direction="ltr" dominant-baseline="text-before-edge">0</text></g><g transform="translate(421.26597798217836 73.37049184149359) rotate(0 7.7861328125 16.099999999999994)"><text x="0" y="0" font-family="Helvetica, Segoe UI Emoji" font-size="28px" fill="#1e1e1e" text-anchor="start" style="white-space: pre;" direction="ltr" dominant-baseline="text-before-edge">1</text></g><g transform="translate(568.9456654821784 74.64002309149359) rotate(0 15.9619140625 16.099999999999994)"><text x="0" y="0" font-family="Helvetica, Segoe UI Emoji" font-size="28px" fill="#1e1e1e" text-anchor="start" style="white-space: pre;" direction="ltr" dominant-baseline="text-before-edge">&gt;1</text></g><g stroke-linecap="round"><g transform="translate(524.2698842321784 132.9681480914936) rotate(0 -0.189453125 157.306640625)"><path d="M-1.13 -0.54 C-1.28 51.63, 0.04 261.33, 0.01 313.92 M0.48 1.79 C0.12 54.03, -0.84 263.25, -0.73 315.09" stroke="#1e1e1e" stroke-width="2" fill="none"/></g></g><mask/><g transform="translate(528.8013711789986 254.6415855914936) rotate(0 58.07710266113281 28.62832031249997)"><text x="58.07710266113281" y="0" font-family="Helvetica, Segoe UI Emoji" font-size="16.596127717391287px" fill="#e03131" text-anchor="middle" style="white-space: pre;" direction="ltr" dominant-baseline="text-before-edge">Link-time error: </text><text x="58.07710266113281" y="19.085546874999977" font-family="Helvetica, Segoe UI Emoji" font-size="16.596127717391287px" fill="#e03131" text-anchor="middle" style="white-space: pre;" direction="ltr" dominant-baseline="text-before-edge">Multiple strong </text><text x="58.07710266113281" y="38.171093749999955" font-family="Helvetica, Segoe UI Emoji" font-size="16.596127717391287px" fill="#e03131" text-anchor="middle" style="white-space: pre;" direction="ltr" dominant-baseline="text-before-edge">definitions</text></g><g stroke-linecap="round"><g transform="translate(342.41832173217836 130.8197105914936) rotate(0 0.61328125 158.53125)"><path d="M-0.15 -1.16 C0.09 51.52, 0.45 263.58, 0.68 316.63 M-1.69 0.84 C-1.58 53.65, -0.92 265, -0.55 317.94" stroke="#1e1e1e" stroke-width="2" fill="none"/></g></g><mask/><g transform="translate(348.80304185009044 254.89842152899362) rotate(0 83.49596405029297 23.997959081157514)"><text x="83.49596405029297" y="0" font-family="Helvetica, Segoe UI Emoji" font-size="20.867790505354364px" fill="#1e1e1e" text-anchor="middle" style="white-space: pre;" direction="ltr" dominant-baseline="text-before-edge">Resolve to unique</text><text x="83.49596405029297" y="23.997959081157518" font-family="Helvetica, Segoe UI Emoji" font-size="20.867790505354364px" fill="#1e1e1e" text-anchor="middle" style="white-space: pre;" direction="ltr" dominant-baseline="text-before-edge"> strong definition</text></g><g stroke-linecap="round"><g transform="translate(161.91441548217836 131.0540855914936) rotate(0 -0.5703125 156.466796875)"><path d="M0.17 1.18 C-0.05 53.52, -0.14 261.19, -0.47 313.04 M-1.19 0.75 C-1.6 53.39, -0.77 262.55, -1.06 314.63" stroke="#1e1e1e" stroke-width="2" fill="none"/></g></g><mask/><g stroke-linecap="round"><g transform="translate(43.535509232178356 240.2376793414936) rotate(0 149.85546875 0.951171875)"><path d="M0.84 0.83 C50.68 1.07, 249.77 0.71, 299.74 0.75 M-0.18 0.22 C49.44 0.62, 248.71 1.39, 298.8 1.68" stroke="#1e1e1e" stroke-width="2" fill="none"/></g></g><mask/><g stroke-linecap="round"><g transform="translate(45.500352982178356 349.2962730914936) rotate(0 148.935546875 0.83984375)"><path d="M-0.88 -0.72 C48.97 -0.32, 248.43 1.64, 298.42 2.09 M0.85 1.51 C50.66 1.58, 248.08 -0.14, 297.76 0.19" stroke="#1e1e1e" stroke-width="2" fill="none"/></g></g><mask/><g transform="translate(91.99937641967836 173.31814809149358) rotate(0 7.7861328125 16.099999999999998)"><text x="7.7861328125" y="0" font-family="Helvetica, Segoe UI Emoji" font-size="28px" fill="#1e1e1e" text-anchor="middle" style="white-space: pre;" direction="ltr" dominant-baseline="text-before-edge">0</text></g><g transform="translate(94.06187641967836 281.6361168414936) rotate(0 7.7861328125 16.099999999999994)"><text x="7.7861328125" y="0" font-family="Helvetica, Segoe UI Emoji" font-size="28px" fill="#1e1e1e" text-anchor="middle" style="white-space: pre;" direction="ltr" dominant-baseline="text-before-edge">1</text></g><g transform="translate(86.55015766967836 382.8900230914936) rotate(0 15.9619140625 16.099999999999994)"><text x="15.9619140625" y="0" font-family="Helvetica, Segoe UI Emoji" font-size="28px" fill="#1e1e1e" text-anchor="middle" style="white-space: pre;" direction="ltr" dominant-baseline="text-before-edge">&gt;1</text></g><g transform="translate(187.21621907104554 162.98045277899362) rotate(0 58.07710266113281 19.085546874999977)"><text x="58.07710266113281" y="0" font-family="Helvetica, Segoe UI Emoji" font-size="16.596127717391287px" fill="#e03131" text-anchor="middle" style="white-space: pre;" direction="ltr" dominant-baseline="text-before-edge">Link-time error: </text><text x="58.07710266113281" y="19.085546874999977" font-family="Helvetica, Segoe UI Emoji" font-size="16.596127717391287px" fill="#e03131" text-anchor="middle" style="white-space: pre;" direction="ltr" dominant-baseline="text-before-edge">No definition</text></g><g transform="translate(164.2465764318854 269.33347026033607) rotate(0 83.49596405029297 23.99795908115752)"><text x="83.49596405029297" y="0" font-family="Helvetica, Segoe UI Emoji" font-size="20.867790505354364px" fill="#1e1e1e" text-anchor="middle" style="white-space: pre;" direction="ltr" dominant-baseline="text-before-edge">Resolve to unique</text><text x="83.49596405029297" y="23.997959081157518" font-family="Helvetica, Segoe UI Emoji" font-size="20.867790505354364px" fill="#1e1e1e" text-anchor="middle" style="white-space: pre;" direction="ltr" dominant-baseline="text-before-edge"> weak definition</text></g><g transform="translate(170.43284046997132 376.22943654054836) rotate(0 79.71985626220703 21.155444691051372)"><text x="79.71985626220703" y="0" font-family="Helvetica, Segoe UI Emoji" font-size="18.396038861783804px" fill="#f08c00" text-anchor="middle" style="white-space: pre;" direction="ltr" dominant-baseline="text-before-edge">Resolve to arbitrary</text><text x="79.71985626220703" y="21.155444691051372" font-family="Helvetica, Segoe UI Emoji" font-size="18.396038861783804px" fill="#f08c00" text-anchor="middle" style="white-space: pre;" direction="ltr" dominant-baseline="text-before-edge"> weak definition</text></g><g transform="translate(235.83767104869457 10) rotate(0 110.5029296875 16.099999999999994)"><text x="110.5029296875" y="0" font-family="Helvetica, Segoe UI Emoji" font-size="28px" fill="#1971c2" text-anchor="middle" style="white-space: pre;" direction="ltr" dominant-baseline="text-before-edge">Strong Definitions</text></g><g transform="translate(-78.47841226739365 220.83687939765858) rotate(269.8853374265253 104.7880859375 16.099999999999998)"><text x="104.7880859375" y="0" font-family="Helvetica, Segoe UI Emoji" font-size="28px" fill="#1971c2" text-anchor="middle" style="white-space: pre;" direction="ltr" dominant-baseline="text-before-edge">Weak Definitions</text></g></svg>