<svg version="1.1" xmlns="http://www.w3.org/2000/svg" viewBox="0 0 1066.5218505859375 175.7790508205537" width="1066.5218505859375" height="175.7790508205537" class="excalidraw-svg">
  <!-- svg-source:excalidraw -->
  
  <defs>
    <style class="style-fonts">
      @font-face {
        font-family: "Virgil";
        src: url("https://excalidraw.com/Virgil.woff2");
      }
      @font-face {
        font-family: "Cascadia";
        src: url("https://excalidraw.com/Cascadia.woff2");
      }
      @font-face {
        font-family: "Assistant";
        src: url("https://excalidraw.com/Assistant-Regular.woff2");
      }
    </style>
    
  </defs>
  <rect x="0" y="0" width="1066.5218505859375" height="175.7790508205537" fill="#ffffff"/><g stroke-linecap="round" transform="translate(10 13.970394819462683) rotate(0 523.2609252929688 74.61094665527344)"><path d="M32 0 C395.13 3.39, 758.19 4.18, 1014.52 0 M32 0 C261.44 -0.07, 491.27 -0.23, 1014.52 0 M1014.52 0 C1037.61 1.97, 1046.27 11.08, 1046.52 32 M1014.52 0 C1036.62 -2.03, 1046.96 8.5, 1046.52 32 M1046.52 32 C1048.31 52.99, 1047.72 71.96, 1046.52 117.22 M1046.52 32 C1045.91 49.63, 1046.61 67.89, 1046.52 117.22 M1046.52 117.22 C1045.5 137.18, 1037.64 149.66, 1014.52 149.22 M1046.52 117.22 C1045.72 138.58, 1033.6 148.57, 1014.52 149.22 M1014.52 149.22 C701.96 150.57, 389.35 149.82, 32 149.22 M1014.52 149.22 C771.7 146.67, 528.56 147.15, 32 149.22 M32 149.22 C9.53 150.15, 0.58 136.63, 0 117.22 M32 149.22 C12.59 149.81, -0.83 140.48, 0 117.22 M0 117.22 C0.06 99.05, -0.75 80.75, 0 32 M0 117.22 C-1.2 89.94, -0.06 61.14, 0 32 M0 32 C0.61 9.03, 11.62 -0.82, 32 0 M0 32 C-2.04 12.9, 10.86 -0.64, 32 0" stroke="#1e1e1e" stroke-width="2" fill="none"/></g><g stroke-linecap="round"><g transform="translate(258.0343017578125 15.221951215947058) rotate(0 0.072662353515625 74.78672790527344)"><path d="M0.89 0.49 C0.77 25.45, -0.29 125.74, -0.44 150.56 M-0.1 -0.3 C0.15 24.27, 2.09 123.79, 1.97 148.95" stroke="#1e1e1e" stroke-width="2" fill="none"/></g></g><mask/><g stroke-linecap="round"><g transform="translate(571.4686279296875 13.984432905400183) rotate(0 0.3304443359375 74.85702514648438)"><path d="M0.9 -0.79 C1.3 24.02, 1.67 123.88, 1.58 148.95 M-0.08 1.4 C0.31 26.36, 1.19 125.17, 1.12 150.08" stroke="#1e1e1e" stroke-width="2" fill="none"/></g></g><mask/><g stroke-linecap="round"><g transform="translate(696.75146484375 13.018765180790808) rotate(0 -0.2835693359375 74.86875915527344)"><path d="M0.56 -0.23 C0.24 24.77, -1.4 124.06, -1.57 148.88 M-0.61 -1.4 C-0.6 23.83, 0.71 124.83, 0.61 149.97" stroke="#1e1e1e" stroke-width="2" fill="none"/></g></g><mask/><g stroke-linecap="round"><g transform="translate(810.0108642578125 10.885952680790808) rotate(0 0.3773193359375 76.45079040527344)"><path d="M-0.75 -0.6 C-0.4 24.78, 1.18 126.93, 1.37 152.53 M1.06 1.71 C1.37 27.23, 1.02 128.42, 0.75 153.88" stroke="#1e1e1e" stroke-width="2" fill="none"/></g></g><mask/><g stroke-linecap="round"><g transform="translate(923.2186279296875 11.439083784306433) rotate(0 0.38201904296875 75.94921875)"><path d="M1.12 -0.26 C1.51 24.83, 1.92 125.25, 1.9 150.74 M0.24 -1.44 C0.62 23.73, 1.53 126.31, 1.55 151.67" stroke="#1e1e1e" stroke-width="2" fill="none"/></g></g><mask/><g transform="translate(116.692138671875 70.73910819836894) rotate(0 19.4482421875 16.099999999999994)"><text x="0" y="0" font-family="Helvetica, Segoe UI Emoji" font-size="28px" fill="#1e1e1e" text-anchor="start" style="white-space: pre;" direction="ltr" dominant-baseline="text-before-edge">PC</text></g><g transform="translate(372.7890625 70.87191459485331) rotate(0 45.91015625 16.099999999999994)"><text x="0" y="0" font-family="Helvetica, Segoe UI Emoji" font-size="28px" fill="#1e1e1e" text-anchor="start" style="white-space: pre;" direction="ltr" dominant-baseline="text-before-edge">nextPC</text></g><g transform="translate(610.9140625 70.23440238782206) rotate(0 26.4619140625 16.099999999999994)"><text x="0" y="0" font-family="Helvetica, Segoe UI Emoji" font-size="28px" fill="#1e1e1e" text-anchor="start" style="white-space: pre;" direction="ltr" dominant-baseline="text-before-edge">type</text></g><g transform="translate(706.3375244140625 71.89379569836893) rotate(0 48.2548828125 16.099999999999994)"><text x="0" y="0" font-family="Helvetica, Segoe UI Emoji" font-size="28px" fill="#1e1e1e" text-anchor="start" style="white-space: pre;" direction="ltr" dominant-baseline="text-before-edge">finished</text></g><g transform="translate(834.296875 70.42190238782206) rotate(0 28.0205078125 16.099999999999994)"><text x="0" y="0" font-family="Helvetica, Segoe UI Emoji" font-size="28px" fill="#1e1e1e" text-anchor="start" style="white-space: pre;" direction="ltr" dominant-baseline="text-before-edge">preg</text></g><g transform="translate(931.46875 64.22973319836893) rotate(0 59.9306640625 32.199999999999996)"><text x="59.9306640625" y="0" font-family="Helvetica, Segoe UI Emoji" font-size="28px" fill="#1e1e1e" text-anchor="middle" style="white-space: pre;" direction="ltr" dominant-baseline="text-before-edge">exception</text><text x="59.9306640625" y="32.199999999999996" font-family="Helvetica, Segoe UI Emoji" font-size="28px" fill="#1e1e1e" text-anchor="middle" style="white-space: pre;" direction="ltr" dominant-baseline="text-before-edge">bit</text></g></svg>