<svg xmlns="http://www.w3.org/2000/svg" width="337.794" height="139.686" viewBox="-72 -72 253.345 104.765"><g stroke="#000" stroke-miterlimit="10" stroke-width=".4"><g stroke="#000" transform="matrix(1 0 0 -1 -36.871 11.93)"><path fill="none" stroke="gray" stroke-width=".2" d="M29.033 0v4.268M58.066 0v4.268M87.099 0v4.268M116.132 0v4.268M145.164 0v4.268M174.197 0v4.268M203.23 0v4.268M0 20.852h4.268M0 41.704h4.268"/><path fill="none" d="M-21.776 0h237.523"/><path stroke="none" d="m217.747 0-3.2 1.6 1.2-1.6-1.2-1.6"/><path fill="none" d="M0-6.256v66.812"/><path stroke="none" d="m0 62.556-1.6-3.2 1.6 1.2 1.6-1.2"/><g stroke="none" font-size="10"><text x="-23.249" y="-2.38" font-family="cmr10" transform="matrix(1 0 0 -1 6.938 15.25)">0</text><text x="-18.249" y="-2.38" font-family="cmmi10" transform="matrix(1 0 0 -1 6.938 15.25)">:</text><text x="-15.471" y="-2.38" font-family="cmr10" transform="matrix(1 0 0 -1 6.938 15.25)">5</text></g><text x="-23.249" y="-2.38" stroke="none" font-family="cmr10" font-size="10" transform="matrix(1 0 0 -1 14.716 36.102)">1</text><clipPath id="pgfcf8ee8f0df036b984cf62297b60910cbcp1"><path d="M-21.776-6.256h239.523v68.812H-21.776Z"/></clipPath><g clip-path="url(#pgfcf8ee8f0df036b984cf62297b60910cbcp1)"><path fill="none" stroke="#00f" stroke-width=".8" d="M0 0v41.704h29.033V0h29.033v41.704h29.033V0h29.033v41.704h29.032V0h29.033v41.704h29.033V0"/></g><g stroke="none" font-size="10"><text x="-23.249" y="-2.38" font-family="cmr10" transform="matrix(1 0 0 -1 103.179 -19.612)">Time</text><text x="2.862" y="-2.38" font-family="cmsy10" transform="matrix(1 0 0 -1 103.179 -19.612)">!</text></g><text x="-23.249" y="-2.38" stroke="none" font-family="cmr10" font-size="10" transform="matrix(0 1 1 0 -22.741 28.204)">Amplitude</text><g stroke="none" font-family="cmr10" font-size="10"><text x="-23.249" y="-2.38" transform="matrix(1 0 0 -1 94.137 71.653)">Square</text><text x="9.835" y="-2.38" transform="matrix(1 0 0 -1 94.137 71.653)">w</text><text x="16.779" y="-2.38" transform="matrix(1 0 0 -1 94.137 71.653)">a</text><text x="21.501" y="-2.38" transform="matrix(1 0 0 -1 94.137 71.653)">v</text><text x="26.501" y="-2.38" transform="matrix(1 0 0 -1 94.137 71.653)">e</text></g></g></g></svg>