<svg version="1.1" xmlns="http://www.w3.org/2000/svg" viewBox="0 0 417.25496547178966 304.67057608366014" width="417.25496547178966" height="304.67057608366014" class="excalidraw-svg">
  <!-- svg-source:excalidraw -->
  
  <defs>
    <style class="style-fonts">
      @font-face {
        font-family: "Virgil";
        src: url("https://excalidraw.com/Virgil.woff2");
      }
      @font-face {
        font-family: "Cascadia";
        src: url("https://excalidraw.com/Cascadia.woff2");
      }
      @font-face {
        font-family: "Assistant";
        src: url("https://excalidraw.com/Assistant-Regular.woff2");
      }
    </style>
    
  </defs>
  <rect x="0" y="0" width="417.25496547178966" height="304.67057608366014" fill="#ffffff"/><g stroke-linecap="round"><g transform="translate(10.954302620083524 10.605551874265075) rotate(0 0.02996826171875 141.73391723632812)"><path d="M-0.26 -0.61 C-0.39 46.61, -1.08 236.61, -0.93 284.07 M1.8 1.69 C2.06 48.49, 1.53 235.52, 1.26 282.26" stroke="#1e1e1e" stroke-width="2" fill="none"/></g></g><mask/><g stroke-linecap="round"><g transform="translate(11.532000373989774 291.8868018742651) rotate(0 198.11294555664062 -0.487823486328125)"><path d="M1.17 -1.19 C67.21 -1.4, 329.73 -1.81, 395.72 -1.72 M0.33 0.8 C66.21 0.76, 328.42 -0.58, 394.51 -0.57" stroke="#1e1e1e" stroke-width="2" fill="none"/></g></g><mask/><g mask="url(#mask-9PXwAwWY1qBXVLQave8Pi)" stroke-linecap="round"><g transform="translate(104.03291590133352 212.58681408129632) rotate(0 24.583343505859375 -52.10211181640625)"><path d="M-0.51 -0.47 C7.85 -17.71, 41.92 -86.22, 50.29 -103.55 M1.43 -1.76 C9.72 -19.34, 41.96 -88.42, 49.94 -105.33" stroke="#f08c00" stroke-width="2" fill="none"/></g><g transform="translate(104.03291590133352 212.58681408129632) rotate(0 24.583343505859375 -52.10211181640625)"><path d="M47.7 -80.43 C47.64 -86.28, 50.2 -94.91, 49.94 -105.33 M47.7 -80.43 C49.37 -87.95, 48.84 -95.08, 49.94 -105.33" stroke="#f08c00" stroke-width="2" fill="none"/></g><g transform="translate(104.03291590133352 212.58681408129632) rotate(0 24.583343505859375 -52.10211181640625)"><path d="M32.22 -87.69 C36.96 -91.22, 44.34 -97.59, 49.94 -105.33 M32.22 -87.69 C38.2 -93.21, 42.04 -98.29, 49.94 -105.33" stroke="#f08c00" stroke-width="2" fill="none"/></g></g><mask id="mask-9PXwAwWY1qBXVLQave8Pi"><rect x="0" y="0" fill="#fff" width="253.19960291305227" height="416.7910377141088"/><rect x="123.6162594071929" y="148.98470226489007" fill="#000" width="10" height="23" opacity="1"/></mask><g transform="translate(123.6162594071929 148.98470226489007) rotate(0 5.310598367825154 10.70446716562845)"><text x="5" y="0" font-family="Helvetica, Segoe UI Emoji" font-size="20px" fill="#f08c00" text-anchor="middle" style="white-space: pre;" direction="ltr" dominant-baseline="text-before-edge">v</text></g><g mask="url(#mask-Ls7h5dISlSrBvjBgi8IKK)" stroke-linecap="round"><g transform="translate(223.78743250289602 218.55611339770257) rotate(0 72.69305419921875 -28.462310791015625)"><path d="M1.06 0.42 C25.15 -9.17, 120.93 -47.52, 145.09 -56.9 M0.16 -0.41 C24.01 -9.85, 119.75 -45.82, 143.98 -55.34" stroke="#2f9e44" stroke-width="2" fill="none"/></g><g transform="translate(223.78743250289602 218.55611339770257) rotate(0 72.69305419921875 -28.462310791015625)"><path d="M125.11 -38.95 C132.3 -45.34, 138.25 -49.54, 143.98 -55.34 M125.11 -38.95 C131.71 -45.04, 139.94 -51.98, 143.98 -55.34" stroke="#2f9e44" stroke-width="2" fill="none"/></g><g transform="translate(223.78743250289602 218.55611339770257) rotate(0 72.69305419921875 -28.462310791015625)"><path d="M118.98 -54.91 C128.41 -55.79, 136.49 -54.41, 143.98 -55.34 M118.98 -54.91 C127.89 -54.7, 138.52 -55.38, 143.98 -55.34" stroke="#2f9e44" stroke-width="2" fill="none"/></g></g><mask id="mask-Ls7h5dISlSrBvjBgi8IKK"><rect x="0" y="0" fill="#fff" width="469.1735409013335" height="375.4807349797338"/><rect x="289.2588070146148" y="178.59380260668695" fill="#000" width="14.443359375" height="23" opacity="1"/></mask><g transform="translate(289.2588070146148 178.59380260668695) rotate(0 7.1523390753753375 11.722745722904804)"><text x="7.2216796875" y="0" font-family="Helvetica, Segoe UI Emoji" font-size="20px" fill="#2f9e44" text-anchor="middle" style="white-space: pre;" direction="ltr" dominant-baseline="text-before-edge">w</text></g><g mask="url(#mask-5xnpLeN_t5k0tlDeRybzM)" stroke-linecap="round"><g transform="translate(154.41896793923945 106.55120214745403) rotate(0 72.69305419921875 -28.462310791015625)"><path d="M0.8 0.09 C25.1 -9.35, 120.9 -47.7, 145 -57.2 M-0.23 -0.91 C23.93 -10.12, 119.71 -46.7, 143.85 -55.81" stroke="#2f9e44" stroke-width="2" fill="none"/></g><g transform="translate(154.41896793923945 106.55120214745403) rotate(0 72.69305419921875 -28.462310791015625)"><path d="M124.93 -39.47 C129.65 -44.13, 133.55 -47.37, 143.85 -55.81 M124.93 -39.47 C130.67 -43.98, 135.46 -48.82, 143.85 -55.81" stroke="#2f9e44" stroke-width="2" fill="none"/></g><g transform="translate(154.41896793923945 106.55120214745403) rotate(0 72.69305419921875 -28.462310791015625)"><path d="M118.85 -55.46 C124.95 -56.35, 130.29 -55.79, 143.85 -55.81 M118.85 -55.46 C126.52 -55.13, 133.15 -55.13, 143.85 -55.81" stroke="#2f9e44" stroke-width="2" fill="none"/></g></g><mask id="mask-5xnpLeN_t5k0tlDeRybzM"><rect x="0" y="0" fill="#fff" width="399.80507633767695" height="263.4758237294853"/><rect x="219.8903424509582" y="66.58889135643841" fill="#000" width="14.443359375" height="23" opacity="1"/></mask><g transform="translate(219.8903424509582 66.58889135643841) rotate(0 6.912934816321368 11.406026577576988)"><text x="7.2216796875" y="0" font-family="Helvetica, Segoe UI Emoji" font-size="20px" fill="#2f9e44" text-anchor="middle" style="white-space: pre;" direction="ltr" dominant-baseline="text-before-edge">w</text></g><g mask="url(#mask-AAt5ngRCvDkCUbygX6s7e)" stroke-linecap="round"><g transform="translate(106.15535242477102 212.28298107348382) rotate(0 96.0654296875 -80.02311706542969)"><path d="M-1.16 0.11 C30.83 -26.53, 160.75 -132.87, 193.06 -159.46 M0.43 -0.88 C32.25 -27.91, 160.63 -134.52, 192.6 -161.28" stroke="#1971c2" stroke-width="2" fill="none"/></g><g transform="translate(106.15535242477102 212.28298107348382) rotate(0 96.0654296875 -80.02311706542969)"><path d="M180.03 -139.67 C185.06 -146.47, 190.78 -155.56, 192.6 -161.28 M180.03 -139.67 C184.5 -148.06, 189.72 -154.97, 192.6 -161.28" stroke="#1971c2" stroke-width="2" fill="none"/></g><g transform="translate(106.15535242477102 212.28298107348382) rotate(0 96.0654296875 -80.02311706542969)"><path d="M169.08 -152.81 C178.44 -154.36, 188.46 -158.29, 192.6 -161.28 M169.08 -152.81 C177.47 -156.48, 186.54 -158.78, 192.6 -161.28" stroke="#1971c2" stroke-width="2" fill="none"/></g></g><mask id="mask-AAt5ngRCvDkCUbygX6s7e"><rect x="0" y="0" fill="#fff" width="398.286211799771" height="472.3292152043432"/><rect x="184.15925867477102" y="120.75986400805414" fill="#000" width="36.123046875" height="23" opacity="1"/></mask><g transform="translate(184.15925867477102 120.75986400805414) rotate(0 17.943770414963367 10.935421780953178)"><text x="18.0615234375" y="0" font-family="Helvetica, Segoe UI Emoji" font-size="20px" fill="#1971c2" text-anchor="middle" style="white-space: pre;" direction="ltr" dominant-baseline="text-before-edge">v+w</text></g><g mask="url(#mask-UJe_yDP0qjfaJixBibjBp)" stroke-linecap="round"><g transform="translate(103.69643375955194 210.7448972158134) rotate(0 72.69305419921875 -28.462310791015625)"><path d="M0.88 -1.04 C25.28 -10.43, 122.25 -47.63, 146.41 -56.89 M-0.12 1.03 C24.21 -8.11, 121.77 -45.38, 146 -55.34" stroke="#2f9e44" stroke-width="2" fill="none"/></g><g transform="translate(103.69643375955194 210.7448972158134) rotate(0 72.69305419921875 -28.462310791015625)"><path d="M127.28 -38.77 C131.23 -42.16, 138.62 -48.1, 146 -55.34 M127.28 -38.77 C134.25 -44.91, 140.05 -50.09, 146 -55.34" stroke="#2f9e44" stroke-width="2" fill="none"/></g><g transform="translate(103.69643375955194 210.7448972158134) rotate(0 72.69305419921875 -28.462310791015625)"><path d="M121.01 -54.68 C126.76 -53.35, 136.03 -54.53, 146 -55.34 M121.01 -54.68 C130 -55.63, 137.87 -55.57, 146 -55.34" stroke="#2f9e44" stroke-width="2" fill="none"/></g></g><mask id="mask-UJe_yDP0qjfaJixBibjBp"><rect x="0" y="0" fill="#fff" width="349.08254215798945" height="367.66951879784466"/><rect x="169.1678082712707" y="170.78258642479778" fill="#000" width="14.443359375" height="23" opacity="1"/></mask><g transform="translate(169.1678082712707 170.78258642479778) rotate(0 7.6734321281500115 12.032062616925685)"><text x="7.2216796875" y="0" font-family="Helvetica, Segoe UI Emoji" font-size="20px" fill="#2f9e44" text-anchor="middle" style="white-space: pre;" direction="ltr" dominant-baseline="text-before-edge">w</text></g><g mask="url(#mask-QJuFDHIK9e4Euf51zWQa1)" stroke-linecap="round"><g transform="translate(250.12890322686775 155.32796459144913) rotate(0 24.583343505859375 -52.10211181640625)"><path d="M0.42 0.14 C8.85 -17.23, 41.56 -87.83, 49.78 -105.4 M-0.83 -0.83 C7.58 -18.01, 40.81 -87.2, 49.15 -104.48" stroke="#f08c00" stroke-width="2" fill="none"/></g><g transform="translate(250.12890322686775 155.32796459144913) rotate(0 24.583343505859375 -52.10211181640625)"><path d="M46.66 -79.61 C47.71 -84.34, 46.06 -90.23, 49.15 -104.48 M46.66 -79.61 C46.18 -84.89, 47.36 -90.15, 49.15 -104.48" stroke="#f08c00" stroke-width="2" fill="none"/></g><g transform="translate(250.12890322686775 155.32796459144913) rotate(0 24.583343505859375 -52.10211181640625)"><path d="M31.26 -87.03 C35.79 -90.1, 37.7 -94.27, 49.15 -104.48 M31.26 -87.03 C34.07 -90.74, 38.49 -94.44, 49.15 -104.48" stroke="#f08c00" stroke-width="2" fill="none"/></g></g><mask id="mask-QJuFDHIK9e4Euf51zWQa1"><rect x="0" y="0" fill="#fff" width="399.2955902385865" height="359.53218822426163"/><rect x="269.7122467327271" y="91.72585277504288" fill="#000" width="10" height="23" opacity="1"/></mask><g transform="translate(269.7122467327271 91.72585277504288) rotate(0 4.892053408045321 10.975348931923506)"><text x="5" y="0" font-family="Helvetica, Segoe UI Emoji" font-size="20px" fill="#f08c00" text-anchor="middle" style="white-space: pre;" direction="ltr" dominant-baseline="text-before-edge">v</text></g></svg>