<svg version="1.1" xmlns="http://www.w3.org/2000/svg" viewBox="0 0 391.5456033327058 228.2925698155165" width="391.5456033327058" height="228.2925698155165" class="excalidraw-svg">
  <!-- svg-source:excalidraw -->
  
  <defs>
    <style class="style-fonts">
      @font-face {
        font-family: "Virgil";
        src: url("https://excalidraw.com/Virgil.woff2");
      }
      @font-face {
        font-family: "Cascadia";
        src: url("https://excalidraw.com/Cascadia.woff2");
      }
      @font-face {
        font-family: "Assistant";
        src: url("https://excalidraw.com/Assistant-Regular.woff2");
      }
    </style>
    
  </defs>
  <rect x="0" y="0" width="391.5456033327058" height="228.2925698155165" fill="#ffffff"/><g stroke-linecap="round"><g transform="translate(36.28450810350478 9.92156749626622) rotate(0 0 103.32485961914062)"><path d="M0.17 0.74 C-0.05 35.03, -0.66 172.55, -0.75 206.77 M-1.2 0.08 C-1.09 35.11, 1.59 173.88, 1.58 208.37" stroke="#1e1e1e" stroke-width="2" fill="none"/></g></g><mask/><g stroke-linecap="round"><g transform="translate(10.965172166004777 184.34979015251622) rotate(0 184.50979614257812 -1.1810302734375)"><path d="M-0.97 -1.03 C60.25 -1.47, 306.49 -1.77, 368.26 -1.96 M0.73 1.05 C62.25 0.17, 309.16 -3.57, 370.58 -3.87" stroke="#1e1e1e" stroke-width="2" fill="none"/></g></g><mask/><g stroke-linecap="round"><g transform="translate(98.44246708787978 134.71673351189122) rotate(0 97.46896362304688 -59.33375549316406)"><path d="M0.5 0.09 C33.25 -19.91, 163.04 -99.76, 195.27 -119.4 M-0.69 -0.91 C32.03 -20.82, 161.68 -98.46, 194.5 -118.25" stroke="#1e1e1e" stroke-width="2" fill="none"/></g><g transform="translate(98.44246708787978 134.71673351189122) rotate(0 97.46896362304688 -59.33375549316406)"><path d="M178.76 -98.82 C181.98 -102.24, 183.78 -108.47, 194.5 -118.25 M178.76 -98.82 C184.26 -106.62, 190.47 -112.43, 194.5 -118.25" stroke="#1e1e1e" stroke-width="2" fill="none"/></g><g transform="translate(98.44246708787978 134.71673351189122) rotate(0 97.46896362304688 -59.33375549316406)"><path d="M169.96 -113.48 C175.02 -113.99, 178.59 -117.27, 194.5 -118.25 M169.96 -113.48 C178.87 -115.74, 188.36 -116.09, 194.5 -118.25" stroke="#1e1e1e" stroke-width="2" fill="none"/></g></g><mask/><g stroke-linecap="round"><g transform="translate(99.95302616991103 134.84936290642247) rotate(0 0 23.46435546875)"><path d="M0.52 -0.08 C0.46 7.69, -0.04 38.95, -0.07 46.77" stroke="#f08c00" stroke-width="2.5" fill="none" stroke-dasharray="8 10"/></g></g><mask/><g stroke-linecap="round"><g transform="translate(101.15114628709853 132.94946056267247) rotate(0 -31.5496826171875 0.770233154296875)"><path d="M0.53 1.02 C-10.03 1.2, -52.36 1.36, -63.1 1.38" stroke="#f08c00" stroke-width="2.5" fill="none" stroke-dasharray="8 10"/></g></g><mask/><g stroke-linecap="round"><g transform="translate(99.33182421807396 128.85178431910276) rotate(0 0.5552176592856313 -56.01336626802785)"><path d="M0.81 -0.33 C0.7 -18.85, 0.08 -92.96, 0.22 -111.53 M-0.22 -1.55 C-0.04 -20.4, 2.23 -95.27, 2.46 -113.39" stroke="#1971c2" stroke-width="2" fill="none"/></g></g><mask/><g stroke-linecap="round"><g transform="translate(103.84728581085949 138.48031040061346) rotate(0 89.93642068042425 -0.8171326381127244)"><path d="M0.42 0.09 C30.57 -0.07, 150.14 -0.65, 180.13 -1.12 M-0.81 -0.91 C29.26 -1.41, 149.21 -2.8, 179.32 -2.97" stroke="#e03131" stroke-width="2" fill="none"/></g></g><mask/><g stroke-linecap="round"><g transform="translate(286.4389914521694 28.257568256645925) rotate(0 1.6194791166974483 75.38661607082727)"><path d="M0.69 -0.64 C1.34 24.71, 3.37 126.69, 3.77 151.92" stroke="#f08c00" stroke-width="2.5" fill="none" stroke-dasharray="8 10"/></g></g><mask/><g stroke-linecap="round"><g transform="translate(286.7488167450541 17.824801384297814) rotate(0 -123.04047445234761 0.6621936817779215)"><path d="M-0.93 0.94 C-41.98 1.12, -206.01 1.97, -246.93 1.88" stroke="#f08c00" stroke-width="2.5" fill="none" stroke-dasharray="8 10"/></g></g><mask/><g transform="translate(130.20964013480557 49.95853553108718) rotate(0 4 9.2)"><text x="0" y="0" font-family="Helvetica, Segoe UI Emoji" font-size="16px" fill="#f08c00" text-anchor="start" style="white-space: pre;" direction="ltr" dominant-baseline="text-before-edge">v</text></g></svg>