<svg version="1.1" xmlns="http://www.w3.org/2000/svg" viewBox="0 0 362.86322096832566 283.1016640974582" width="362.86322096832566" height="283.1016640974582" class="excalidraw-svg">
  <!-- svg-source:excalidraw -->
  
  <defs>
    <style class="style-fonts">
      @font-face {
        font-family: "Virgil";
        src: url("https://excalidraw.com/Virgil.woff2");
      }
      @font-face {
        font-family: "Cascadia";
        src: url("https://excalidraw.com/Cascadia.woff2");
      }
      @font-face {
        font-family: "Assistant";
        src: url("https://excalidraw.com/Assistant-Regular.woff2");
      }
    </style>
    
  </defs>
  <rect x="0" y="0" width="362.86322096832566" height="283.1016640974582" fill="#ffffff"/><g stroke-linecap="round"><g transform="translate(86.7462114626961 22.119172361944806) rotate(0 -0.890045166015625 108.17948913574219)"><path d="M1.17 0.17 C0.75 36.2, -0.99 181.34, -1.39 217.31 M0.32 -0.79 C-0.32 35.43, -1.79 179.37, -2.13 215.69" stroke="#1e1e1e" stroke-width="2" fill="none"/></g></g><mask/><g stroke-linecap="round"><g transform="translate(36.501155310352345 190.2485668931948) rotate(0 157.67138671875 -0.23748779296875)"><path d="M0.98 -0.32 C53.74 -0.27, 263.93 -0.5, 316.36 -0.62 M0.03 -1.53 C52.75 -1.21, 263.47 0.59, 315.95 0.84" stroke="#1e1e1e" stroke-width="2" fill="none"/></g></g><mask/><g mask="url(#mask-BPOIy9kEhO0oTuHrWHx-f)" stroke-linecap="round"><g transform="translate(86.0015825564461 189.12313964710106) rotate(0 36.671722412109375 -44.8426513671875)"><path d="M0.85 -0.66 C13.29 -15.75, 61.35 -74.93, 73.51 -89.58 M-0.17 1.6 C12.23 -13.35, 60.41 -72.67, 72.64 -87.99" stroke="#1e1e1e" stroke-width="2" fill="none"/></g><g transform="translate(86.0015825564461 189.12313964710106) rotate(0 36.671722412109375 -44.8426513671875)"><path d="M64.55 -64.33 C64.91 -68.93, 67.84 -73.29, 72.64 -87.99 M64.55 -64.33 C67.8 -74.43, 70.4 -82.14, 72.64 -87.99" stroke="#1e1e1e" stroke-width="2" fill="none"/></g><g transform="translate(86.0015825564461 189.12313964710106) rotate(0 36.671722412109375 -44.8426513671875)"><path d="M51.24 -75.07 C54.39 -77.58, 60.03 -79.75, 72.64 -87.99 M51.24 -75.07 C59.72 -80.94, 67.57 -84.41, 72.64 -87.99" stroke="#1e1e1e" stroke-width="2" fill="none"/></g></g><mask id="mask-BPOIy9kEhO0oTuHrWHx-f"><rect x="0" y="0" fill="#fff" width="259.3450273806649" height="378.8084423814761"/><rect x="112.11178153105547" y="132.78048827991356" fill="#000" width="21.123046875" height="23" opacity="1"/></mask><g transform="translate(112.11178153105547 132.78048827991356) rotate(0 10.558713331301703 12.353363701696502)"><text x="10.5615234375" y="0" font-family="Helvetica, Segoe UI Emoji" font-size="20px" fill="#1e1e1e" text-anchor="middle" style="white-space: pre;" direction="ltr" dominant-baseline="text-before-edge">v1</text></g><g mask="url(#mask-M-d6zRfi-Gk5JbfIYoHyW)" stroke-linecap="round"><g transform="translate(156.63516048491002 101.1079717461858) rotate(0 36.671722412109375 -44.8426513671875)"><path d="M-0.07 1.14 C12.23 -13.91, 62.23 -74.18, 74.43 -89.23 M-1.57 0.7 C10.62 -14.21, 61.75 -75.79, 74.05 -91.11" stroke="#2f9e44" stroke-width="2" fill="none"/></g><g transform="translate(156.63516048491002 101.1079717461858) rotate(0 36.671722412109375 -44.8426513671875)"><path d="M65.79 -67.51 C70.37 -73.96, 72.13 -84.37, 74.05 -91.11 M65.79 -67.51 C68.66 -74.82, 71.55 -83.54, 74.05 -91.11" stroke="#2f9e44" stroke-width="2" fill="none"/></g><g transform="translate(156.63516048491002 101.1079717461858) rotate(0 36.671722412109375 -44.8426513671875)"><path d="M52.56 -78.35 C61.87 -80.99, 68.26 -87.61, 74.05 -91.11 M52.56 -78.35 C60.07 -81.86, 67.52 -86.85, 74.05 -91.11" stroke="#2f9e44" stroke-width="2" fill="none"/></g></g><mask id="mask-M-d6zRfi-Gk5JbfIYoHyW"><rect x="0" y="0" fill="#fff" width="329.97860530912874" height="290.7932744805608"/><rect x="177.1838360220194" y="44.7653203789983" fill="#000" width="32.24609375" height="23" opacity="1"/></mask><g transform="translate(177.1838360220194 44.7653203789983) rotate(0 15.882158929859287 11.360026015113107)"><text x="16.123046875" y="0" font-family="Helvetica, Segoe UI Emoji" font-size="20px" fill="#2f9e44" text-anchor="middle" style="white-space: pre;" direction="ltr" dominant-baseline="text-before-edge">2v1</text></g><g mask="url(#mask-qIGqJSLJs3gd2jt1IQKMJ)" stroke-linecap="round"><g transform="translate(82.09664730131627 190.28710992977955) rotate(0 -35.454376220703125 40.69406127929689)"><path d="M0.88 1.17 C-11.18 14.57, -60.18 68.08, -72.1 81.32 M-0.11 0.73 C-11.85 14.26, -58.16 69.36, -70.01 82.81" stroke="#e03131" stroke-width="2" fill="none"/></g><g transform="translate(82.09664730131627 190.28710992977955) rotate(0 -35.454376220703125 40.69406127929689)"><path d="M-61.2 59.42 C-61.94 65.07, -66.85 75.14, -70.01 82.81 M-61.2 59.42 C-62.44 64.29, -65.06 69.81, -70.01 82.81" stroke="#e03131" stroke-width="2" fill="none"/></g><g transform="translate(82.09664730131627 190.28710992977955) rotate(0 -35.454376220703125 40.69406127929689)"><path d="M-48.22 70.55 C-53.24 72.7, -62.36 79.16, -70.01 82.81 M-48.22 70.55 C-52.46 72.8, -58.11 75.73, -70.01 82.81" stroke="#e03131" stroke-width="2" fill="none"/></g></g><mask id="mask-qIGqJSLJs3gd2jt1IQKMJ"><rect x="0" y="0" fill="#fff" width="253.00539974272252" height="371.67523248837335"/><rect x="32.75066951811314" y="219.48117120907645" fill="#000" width="27.783203125" height="23" opacity="1"/></mask><g transform="translate(32.75066951811314 219.48117120907648) rotate(0 13.739944180846209 12.579369192859147)"><text x="13.8916015625" y="0" font-family="Helvetica, Segoe UI Emoji" font-size="20px" fill="#e03131" text-anchor="middle" style="white-space: pre;" direction="ltr" dominant-baseline="text-before-edge">-v1</text></g></svg>